<svg xmlns="http://www.w3.org/2000/svg" width="667.45" height="439" viewBox="0 0 667.45 439">
  <path id="Trazado_255558" data-name="Trazado 255558" d="M520.343,264.781l-17.324-31.221,17.324-31.229h34.642l17.325,31.221-17.325,31.229Zm34.642-137.76H520.343L503.019,158.25l17.324,31.206h34.642l17.325-31.221Zm-119.63,137.76,17.317-31.221-17.317-31.229H400.706l-17.317,31.221,17.317,31.229Zm-59.142,113.1,17.324-31.229L376.213,315.45H341.571l-17.324,31.221,17.317,31.213ZM196.086,340.092,213.4,308.863l-17.317-31.221H161.445l-17.317,31.221,17.317,31.229Zm-119.63,0,17.325-31.229L76.456,277.642H41.792l-17.3,31.221,17.3,31.229Zm180.119,37.793L273.9,346.664l-17.324-31.221H221.933l-17.317,31.221,17.317,31.221Zm59.142-37.8,17.324-31.229-17.324-31.213H281.075l-17.317,31.221,17.317,31.229Zm-178.772,37.8,17.325-31.229-17.325-31.221H102.3L84.986,346.664,102.3,377.885ZM376.213,302.59l17.324-31.229L376.213,240.14H341.564l-17.317,31.221,17.317,31.229Zm119.63,0,17.324-31.229L495.88,240.14H461.2l-17.317,31.221L461.2,302.59ZM435.355,189.456l17.317-31.221-17.317-31.229H400.706l-17.317,31.229,17.317,31.221Zm-119.638,0,17.324-31.221-17.324-31.213H281.075L263.758,158.25l17.317,31.206Zm60.5,37.808,17.324-31.221L376.213,164.83H341.564l-17.317,31.229,17.317,31.221Zm263.761-113.1h34.649L691.94,82.94,674.623,51.712H639.974L622.656,82.94ZM256.575,227.28,273.9,196.059l-17.324-31.236H221.933l-17.317,31.229,17.317,31.221Zm59.142,37.533,17.324-31.221-17.324-31.259H281.075l-17.317,31.229,17.317,31.221Zm-59.142,37.8L273.9,271.392l-17.325-31.221H221.933l-17.317,31.221,17.317,31.229Zm-60.489-37.8L213.4,233.584l-17.317-31.221H161.445l-17.317,31.221,17.317,31.229ZM495.843,227.28l17.324-31.229L495.88,164.83H461.2l-17.317,31.236L461.2,227.287Zm0-137.76H461.2l-17.317,31.221L461.2,151.969H495.88L513.2,120.741Zm85,301.241-17.325,31.221,17.325,31.229h34.642l17.288-31.229L615.473,390.76ZM435.355,352.952H400.706l-17.317,31.221,17.317,31.244h34.649l17.317-31.229Zm119.63,0H520.343l-17.324,31.221,17.324,31.244h34.642l17.325-31.229Zm-119.63-12.861,17.317-31.229-17.317-31.221H400.706l-17.317,31.221,17.317,31.229ZM315.717,352.952H281.075l-17.317,31.221,17.317,31.244h34.642l17.324-31.229Zm-93.784,37.8-17.317,31.229,17.317,31.229h34.642L273.9,421.981l-17.324-31.229Zm119.63,0-17.317,31.221L341.571,453.2h34.642l17.324-31.229L376.213,390.76Zm298.41-37.808-17.325,31.221,17.325,31.252h34.649l17.317-31.229-17.325-31.221Zm0-150.62-17.317,31.229,17.317,31.221h34.649l17.317-31.229-17.317-31.221Zm0-75.31-17.317,31.229,17.317,31.213h34.642l17.325-31.221-17.317-31.229Zm0,150.62-17.325,31.221,17.325,31.229h34.649l17.317-31.229-17.317-31.221ZM461.2,390.76l-17.317,31.221L461.2,453.21H495.88L513.2,421.981,495.88,390.76ZM196.086,352.952H161.445l-17.354,31.221,17.354,31.244h34.642L213.4,384.188ZM615.481,164.83H580.839l-17.325,31.221,17.325,31.229h34.642l17.288-31.229Zm0,75.31H580.839l-17.325,31.221,17.325,31.229h34.634l17.295-31.229Zm-60.5,99.951,17.325-31.229-17.325-31.221H520.343l-17.324,31.221,17.324,31.229Zm-59.1,37.793L513.2,346.656,495.88,315.443H461.2l-17.317,31.229L461.2,377.885Zm119.63,0,17.258-31.213-17.317-31.229H580.839l-17.325,31.229,17.325,31.213ZM76.456,352.952H41.792l-17.3,31.221,17.3,31.244H76.456l17.325-31.229ZM615.481,89.52H580.839l-17.325,31.221,17.325,31.229h34.634l17.295-31.229ZM102.3,390.76,84.979,421.981,102.3,453.21h34.642l17.325-31.229-17.325-31.229Zm478.536-314.1h34.634l17.295-31.206L615.481,14.21H580.839L563.515,45.454Z" transform="translate(-24.49 -14.21)" fill="#addbd5" opacity="0.2"/>
</svg>
