<svg xmlns="http://www.w3.org/2000/svg" xmlns:xlink="http://www.w3.org/1999/xlink" width="380.765" height="327.028" viewBox="0 0 380.765 327.028">
  <defs>
    <clipPath id="clip-path">
      <path id="Trazado_254502" data-name="Trazado 254502" d="M230.835,278.621s-2.6-4.968-3.066-8.026-2.6-12.064-4.492-16.322-11.1-9.68-12.774-9.446-5.195,9.226-4.968,12.994,4.492,8.736,5.677,10.389,4.017,10.645,5.9,13.483a14.1,14.1,0,0,1,2.129,4.017Z" transform="translate(-205.525 -244.82)" fill="#90caf9" stroke="#263238" stroke-linecap="round" stroke-linejoin="round" stroke-width="1"/>
    </clipPath>
    <clipPath id="clip-path-2">
      <path id="Trazado_254513" data-name="Trazado 254513" d="M234.828,288.13l-13.938,8.26a142.394,142.394,0,0,1,8.033,17.479c2.839,8.026,8.516,23.149,17.947,22.908S265.059,324.5,265.059,324.5l-10.865-31.651-9.687,13.228Z" transform="translate(-220.89 -288.13)" fill="#fff" stroke="#263238" stroke-linecap="round" stroke-linejoin="round" stroke-width="1"/>
    </clipPath>
    <clipPath id="clip-path-3">
      <path id="Trazado_254518" data-name="Trazado 254518" d="M292.265,254.693s11.035,1.973,17.415,5.039,15.215,8.927,18.99,20.736,1.888,67.623,1.888,67.623H271.99s2.839-24.405.234-35.483-5.45-11.177-7-19.3C260.615,269.156,273.608,252.1,292.265,254.693Z" transform="translate(-264.292 -254.432)" fill="#fff" stroke="#263238" stroke-linecap="round" stroke-linejoin="round" stroke-width="1"/>
    </clipPath>
    <clipPath id="clip-path-4">
      <path id="Trazado_254531" data-name="Trazado 254531" d="M242.609,319.766l-7.558-7.317s-.475-2.839-1.419-3.548a30.284,30.284,0,0,1-2.363-2.129s-5.677-11.354-8.026-14.647a9.155,9.155,0,0,0-8.033-4.01c-2.129.234-11.354.944-12.277,3.066-.291.653.944,2.6.944,2.6s-2.363,1.185-1.888,3.307,1.419,2.363,1.419,2.363-2.839,2.129-1.888,3.782a3.7,3.7,0,0,0,2.363,1.888s-1.888,2.129.234,2.839a43.855,43.855,0,0,0,4.485,1.185s2.6,6.607,4.968,6.848a42.979,42.979,0,0,1,5.195.944s4.726,9.68,8.516,14.193,10.645,4.968,10.645,4.968Z" transform="translate(-201.325 -288.104)" fill="#90caf9" stroke="#263238" stroke-linecap="round" stroke-linejoin="round" stroke-width="1"/>
    </clipPath>
    <clipPath id="clip-path-5">
      <path id="Trazado_254536" data-name="Trazado 254536" d="M297.916,275.48s-3.775,8.267-4.485,14.9-9.68,32-9.68,32-18.189-5.074-23.383-6.493a46.044,46.044,0,0,1-10.091-4.364L239.71,330.606s29.4,17.181,42.622,19.3,15.385,2.583,21.765-3.094,16.258-43.466,16.258-43.466" transform="translate(-239.71 -275.48)" fill="#fff" stroke="#263238" stroke-linecap="round" stroke-linejoin="round" stroke-width="1"/>
    </clipPath>
    <clipPath id="clip-path-6">
      <path id="Trazado_254541" data-name="Trazado 254541" d="M247.551,219.686s-1.256,10.063.752,19.118,5.791,20.63,8.558,20.878,17.1-9.3,18.11-14.087,1-6.791,1-12.831a117.8,117.8,0,0,0-.752-14.839c-.5-3.775-2.768-7.806-9.559-6.791S250.063,214.91,247.551,219.686Z" transform="translate(-247.163 -210.976)" fill="#fff" stroke="#263238" stroke-linecap="round" stroke-linejoin="round" stroke-width="1"/>
    </clipPath>
    <clipPath id="clip-path-7">
      <path id="Trazado_254553" data-name="Trazado 254553" d="M390,349.69h6.181v25.328a2.491,2.491,0,0,1-2.491,2.491h-1.2A2.491,2.491,0,0,1,390,375.018V349.69Z" transform="translate(-390 -349.69)" fill="#fff" stroke="#263238" stroke-linecap="round" stroke-linejoin="round" stroke-width="1"/>
    </clipPath>
    <clipPath id="clip-path-8">
      <path id="Trazado_254557" data-name="Trazado 254557" d="M376,349.69h6.181v25.328a2.491,2.491,0,0,1-2.491,2.491h-1.2A2.491,2.491,0,0,1,376,375.018V349.69Z" transform="translate(-376 -349.69)" fill="#fff" stroke="#263238" stroke-linecap="round" stroke-linejoin="round" stroke-width="1"/>
    </clipPath>
    <clipPath id="clip-path-9">
      <path id="Trazado_254561" data-name="Trazado 254561" d="M362,349.69h6.181v25.328a2.491,2.491,0,0,1-2.491,2.491h-1.2A2.491,2.491,0,0,1,362,375.018V349.69Z" transform="translate(-362 -349.69)" fill="#fff" stroke="#263238" stroke-linecap="round" stroke-linejoin="round" stroke-width="1"/>
    </clipPath>
    <linearGradient id="linear-gradient" x1="0.5" x2="0.5" y2="1" gradientUnits="objectBoundingBox">
      <stop offset="0" stop-color="#81b722"/>
      <stop offset="1" stop-color="#169788"/>
    </linearGradient>
    <linearGradient id="linear-gradient-2" y1="0.5" x2="0.826" y2="0.5" gradientUnits="objectBoundingBox">
      <stop offset="0"/>
      <stop offset="1" stop-opacity="0"/>
    </linearGradient>
  </defs>
  <rect id="Rectángulo_44644" data-name="Rectángulo 44644" width="295" height="248" transform="translate(0 79.028)" fill="#f3f9ff"/>
  <g id="Science-bro" transform="translate(-58.16 -19.434)">
    <g id="freepik--Lab--inject-42" transform="translate(79.033 135.02)">
      <path id="Trazado_254469" data-name="Trazado 254469" d="M131.753,206.449a2.746,2.746,0,1,0-.8,1.947A2.746,2.746,0,0,0,131.753,206.449Z" transform="translate(-96.192 -154.964)" fill="#c9c9c9"/>
      <path id="Trazado_254470" data-name="Trazado 254470" d="M161.1,206.443a2.746,2.746,0,1,0-.8,1.947A2.753,2.753,0,0,0,161.1,206.443Z" transform="translate(-104.708 -154.958)" fill="#c9c9c9"/>
      <path id="Trazado_254471" data-name="Trazado 254471" d="M145.827,223.673a2.746,2.746,0,1,0-.8,1.947,2.753,2.753,0,0,0,.8-1.947Z" transform="translate(-100.274 -159.961)" fill="#c9c9c9"/>
      <path id="Trazado_254472" data-name="Trazado 254472" d="M172.847,223.673a2.753,2.753,0,1,0-2.753,2.753,2.753,2.753,0,0,0,2.753-2.753Z" transform="translate(-108.119 -159.961)" fill="#c9c9c9"/>
      <path id="Trazado_254473" data-name="Trazado 254473" d="M172.847,250.3a2.753,2.753,0,1,0-2.753,2.746A2.753,2.753,0,0,0,172.847,250.3Z" transform="translate(-108.119 -167.689)" fill="#c9c9c9"/>
      <path id="Trazado_254474" data-name="Trazado 254474" d="M117.967,250.3a2.753,2.753,0,1,0-2.746,2.746A2.753,2.753,0,0,0,117.967,250.3Z" transform="translate(-92.185 -167.689)" fill="#c9c9c9"/>
      <path id="Trazado_254475" data-name="Trazado 254475" d="M197.517,223.673a2.753,2.753,0,1,0-2.753,2.753,2.753,2.753,0,0,0,2.753-2.753Z" transform="translate(-115.282 -159.961)" fill="#c9c9c9"/>
      <path id="Trazado_254476" data-name="Trazado 254476" d="M197.517,249.123a2.753,2.753,0,1,0-2.753,2.753A2.753,2.753,0,0,0,197.517,249.123Z" transform="translate(-115.282 -167.35)" fill="#c9c9c9"/>
      <path id="Trazado_254477" data-name="Trazado 254477" d="M197.517,289.951a2.753,2.753,0,1,0-2.753,2.746,2.753,2.753,0,0,0,2.753-2.746Z" transform="translate(-115.282 -179.202)" fill="#c9c9c9"/>
      <path id="Trazado_254478" data-name="Trazado 254478" d="M176.64,237.674l-1.384-.305.213-.986V220.217H139.163L128,206.57h22.34v1.419H130.995l8.842,10.808h37.051l-.014,17.812Z" transform="translate(-96.697 -155.794)" fill="#c9c9c9"/>
      <path id="Trazado_254479" data-name="Trazado 254479" d="M167.5,272.751H93.73v-1.419h72.349V244.408H148.012V224.8h1.419v18.188H167.5Z" transform="translate(-86.747 -161.087)" fill="#c9c9c9"/>
      <path id="Trazado_254480" data-name="Trazado 254480" d="M116.419,279.483H115V250.43h39.9v1.419H116.419Z" transform="translate(-92.923 -168.529)" fill="#c9c9c9"/>
      <rect id="Rectángulo_44124" data-name="Rectángulo 44124" width="110.231" height="6.621" transform="translate(155.493 113.055)" fill="#c9c9c9"/>
      <rect id="Rectángulo_44125" data-name="Rectángulo 44125" width="4.953" height="63.763" transform="translate(230.915 116.689)" fill="#c9c9c9"/>
      <rect id="Rectángulo_44126" data-name="Rectángulo 44126" width="110.231" height="6.621" transform="translate(0 113.055)" fill="#c9c9c9"/>
      <rect id="Rectángulo_44127" data-name="Rectángulo 44127" width="4.953" height="63.763" transform="translate(75.422 116.689)" fill="#c9c9c9"/>
      <rect id="Rectángulo_44128" data-name="Rectángulo 44128" width="4.953" height="63.763" transform="translate(10.24 116.689)" fill="#c9c9c9"/>
      <path id="Trazado_254481" data-name="Trazado 254481" d="M373.654,279.039l-7.217-12.845v-8.828a1.221,1.221,0,0,0-.44-2.356h-7.551a1.221,1.221,0,0,0-.44,2.356v8.516h0l-7.246,13.249a3.3,3.3,0,0,0,2.938,4.811H370.73a3.307,3.307,0,0,0,2.924-4.9Z" transform="translate(-161.268 -169.858)" fill="#c9c9c9"/>
      <path id="Trazado_254482" data-name="Trazado 254482" d="M322.9,279.039l-7.224-12.845v-8.828a1.221,1.221,0,0,0-.44-2.356H307.7a1.221,1.221,0,0,0-.447,2.356v8.516h0L300,279.131a3.3,3.3,0,0,0,2.938,4.811H319.97a3.307,3.307,0,0,0,2.931-4.9Z" transform="translate(-146.53 -169.858)" fill="#c9c9c9"/>
      <path id="Trazado_254483" data-name="Trazado 254483" d="M352.789,252.727h-.128a.71.71,0,0,1-.6-.852c.71-4.159-1.419-9.226-5.408-12.667-3.754-3.257-8.275-4.343-12.4-2.995a8.076,8.076,0,0,0-4.357,3.413h.248c4.606-.582,6.6,1.064,7.458,2.548,1.192,2.065.823,5.11-.908,7.395a5.12,5.12,0,0,1-5.315,2.25c-2.64-.667-4.35-3.193-4.471-6.586a11.305,11.305,0,0,1,.475-3.548c-8.289,2.264-9.268,8.679-9.311,8.977a.734.734,0,0,1-1.455-.192c0-.085,1.192-8.2,11.411-10.46a9.736,9.736,0,0,1,5.769-5.152c4.627-1.512,9.666-.319,13.824,3.286,4.4,3.8,6.713,9.311,5.89,14.03A.71.71,0,0,1,352.789,252.727Zm-23.717-11.482a9.872,9.872,0,0,0-.71,3.9c.071,2.129.994,4.606,3.357,5.2,1.888.475,3.272-1.029,3.775-1.7,1.171-1.547,1.824-4.024.809-5.77-.908-1.575-2.988-2.207-6-1.824q-.646.106-1.235.192Z" transform="translate(-151.459 -163.821)" fill="#c9c9c9"/>
      <path id="Trazado_254484" data-name="Trazado 254484" d="M212.615,314.038a1.064,1.064,0,0,1-1.064-1.064V136.085a1.064,1.064,0,1,1,2.129,0V312.973a1.064,1.064,0,0,1-1.064,1.065Z" transform="translate(-120.955 -135.02)" fill="#c9c9c9"/>
      <path id="Trazado_254485" data-name="Trazado 254485" d="M222.356,184.641a4.563,4.563,0,0,1-4.556-4.549V161.719h-4.336a1.064,1.064,0,0,1,0-2.129h5.4a1.064,1.064,0,0,1,1.064,1.064v19.438a2.427,2.427,0,0,0,4.847,0V160.676a1.064,1.064,0,0,1,1.064-1.064h6.479a1.064,1.064,0,1,1,0,2.129h-5.415v18.352a4.556,4.556,0,0,1-4.549,4.549Z" transform="translate(-121.202 -142.154)" fill="#c9c9c9"/>
      <path id="Trazado_254486" data-name="Trazado 254486" d="M243.249,184.641a4.556,4.556,0,0,1-4.549-4.549V161.719h-4.336a1.064,1.064,0,0,1,0-2.129h5.4a1.064,1.064,0,0,1,1.064,1.064v19.438a2.427,2.427,0,0,0,4.847,0V160.676a1.064,1.064,0,0,1,1.064-1.064h6.479a1.064,1.064,0,1,1,0,2.129h-5.415v18.352A4.563,4.563,0,0,1,243.249,184.641Z" transform="translate(-127.27 -142.154)" fill="#c9c9c9"/>
      <path id="Trazado_254487" data-name="Trazado 254487" d="M264.149,184.641a4.556,4.556,0,0,1-4.549-4.549V161.719h-4.336a1.064,1.064,0,0,1,0-2.129h5.4a1.064,1.064,0,0,1,1.064,1.064v19.438a2.427,2.427,0,0,0,4.847,0V160.676a1.064,1.064,0,0,1,1.064-1.064h6.479a1.064,1.064,0,0,1,0,2.129h-5.415v18.352A4.563,4.563,0,0,1,264.149,184.641Z" transform="translate(-133.338 -142.154)" fill="#c9c9c9"/>
      <path id="Trazado_254488" data-name="Trazado 254488" d="M285.049,184.641a4.556,4.556,0,0,1-4.549-4.549V161.719h-4.336a1.064,1.064,0,1,1,0-2.129h5.4a1.064,1.064,0,0,1,1.064,1.064v19.438a2.427,2.427,0,0,0,4.847,0V160.676a1.064,1.064,0,0,1,1.065-1.064h28.18a1.064,1.064,0,1,1,0,2.129H289.605v18.352A4.563,4.563,0,0,1,285.049,184.641Z" transform="translate(-139.407 -142.154)" fill="#c9c9c9"/>
      <path id="Trazado_254489" data-name="Trazado 254489" d="M322.414,168.88V155.794h.043a1.355,1.355,0,0,0,0-2.7h-8.58a1.355,1.355,0,0,0,0,2.7h.043V168.88a14.718,14.718,0,1,0,8.516,0Z" transform="translate(-147.64 -140.267)" fill="#c9c9c9"/>
    </g>
    <g id="freepik--Device--inject-42" transform="translate(83.766 241.916)">
      <path id="Trazado_254490" data-name="Trazado 254490" d="M120.91,362.38l-7.941,12.774a2.448,2.448,0,0,0,2.079,3.74h16.223a2.448,2.448,0,0,1-2.086-3.733l7.686-12.518Z" transform="translate(-96.959 -307.928)" fill="#fff" stroke="#263238" stroke-linecap="round" stroke-linejoin="round" stroke-width="1"/>
      <rect id="Rectángulo_44129" data-name="Rectángulo 44129" width="67.85" height="57.305" rx="2.91" transform="translate(0)" fill="#fff" stroke="#263238" stroke-linecap="round" stroke-linejoin="round" stroke-width="1"/>
      <rect id="Rectángulo_44130" data-name="Rectángulo 44130" width="67.85" height="57.305" rx="2.91" transform="translate(2.569)" fill="#fff" stroke="#263238" stroke-linecap="round" stroke-linejoin="round" stroke-width="1"/>
      <path id="Trazado_254491" data-name="Trazado 254491" d="M159.752,285.65H96.458a2.278,2.278,0,0,0-2.278,2.278v44.758h67.85V287.928A2.278,2.278,0,0,0,159.752,285.65Z" transform="translate(-91.611 -285.65)" fill="#263238" stroke="#263238" stroke-linecap="round" stroke-linejoin="round" stroke-width="1"/>
      <rect id="Rectángulo_44131" data-name="Rectángulo 44131" width="62.152" height="41.621" transform="translate(5.422 2.278)" fill="#fff" stroke="#263238" stroke-linecap="round" stroke-linejoin="round" stroke-width="1"/>
      <path id="Trazado_254492" data-name="Trazado 254492" d="M169.319,305.581V296.5l-7.856-4.535L153.6,296.5v9.077l7.863,4.542Z" transform="translate(-108.863 -287.485)" fill="#90caf9" stroke="#263238" stroke-linecap="round" stroke-linejoin="round" stroke-width="1"/>
      <path id="Trazado_254493" data-name="Trazado 254493" d="M138.9,318.487v-7.423l-6.422-3.7-6.422,3.7v7.423l6.422,3.7Z" transform="translate(-100.867 -291.953)" fill="#90caf9" stroke="#263238" stroke-linecap="round" stroke-linejoin="round" stroke-width="1"/>
      <path id="Trazado_254494" data-name="Trazado 254494" d="M128.165,302.107v-7.416l-6.422-3.711-6.422,3.711v7.416l6.422,3.7Z" transform="translate(-97.749 -287.198)" fill="#90caf9" stroke="#263238" stroke-linecap="round" stroke-linejoin="round" stroke-width="1"/>
      <path id="Trazado_254495" data-name="Trazado 254495" d="M128.165,334.59v-7.416l-6.422-3.7-6.422,3.7v7.416l6.422,3.712Z" transform="translate(-97.749 -296.631)" fill="#90caf9" stroke="#263238" stroke-linecap="round" stroke-linejoin="round" stroke-width="1"/>
      <path id="Trazado_254496" data-name="Trazado 254496" d="M117.165,318.487v-7.423l-6.422-3.7-6.422,3.7v7.423l6.422,3.7Z" transform="translate(-94.555 -291.953)" fill="#90caf9" stroke="#263238" stroke-linecap="round" stroke-linejoin="round" stroke-width="1"/>
      <line id="Línea_503" data-name="Línea 503" x2="13.76" transform="translate(45.73 27.35)" fill="none" stroke="#263238" stroke-linecap="round" stroke-linejoin="round" stroke-width="1"/>
      <line id="Línea_504" data-name="Línea 504" x2="13.76" transform="translate(45.73 30.153)" fill="none" stroke="#263238" stroke-linecap="round" stroke-linejoin="round" stroke-width="1"/>
      <line id="Línea_505" data-name="Línea 505" x2="13.76" transform="translate(45.73 32.949)" fill="none" stroke="#263238" stroke-linecap="round" stroke-linejoin="round" stroke-width="1"/>
    </g>
    <g id="freepik--Character--inject-42" transform="translate(155.495 181.907)">
      <path id="Trazado_254497" data-name="Trazado 254497" d="M401.095,218.538l-35.128.291s-2.328-.291-2.9,1.419c0,0-6.1,15.385-6.387,20.906s1.164,4.641-1.157,11.9-9.006,24.391-12.774,38.321c-4.066,15-5.72,30.735-6.387,46.341h44.2c.05-14.96,1.029-29.806,6.316-44.6,3.825-10.73,8.225-22.056,11.475-33.283s3.818-22.886,5.94-34.369C405.743,217.673,401.095,218.538,401.095,218.538Z" transform="translate(-233.656 -206.147)" fill="#263238"/>
      <path id="Trazado_254498" data-name="Trazado 254498" d="M412.834,222.016c-.348-4.052-3.442-3.477-3.442-3.477l-35.128.291s-2.328-.291-2.9,1.419c0,0-6.1,15.385-6.387,20.906a26.885,26.885,0,0,0,.128,4.371l.71,1.143s1.164,10.162,15.1,10.744,21.772-5.812,24.675-11.908,4.066-15.967,6.387-21.772A17.694,17.694,0,0,1,412.834,222.016Z" transform="translate(-241.953 -206.148)" fill="#6e6e6e"/>
      <path id="Trazado_254499" data-name="Trazado 254499" d="M419.132,218.79l-.035.043a62.889,62.889,0,0,0-6.1,14.612c-2.356,8.48-.944,10.836-3.3,25.441s-10.893,31.1-14.165,46.184c-1.419,6.387-1.944,19.516-2.086,32.772h3.683c.05-14.96,1.029-29.806,6.316-44.6,3.825-10.73,8.225-22.056,11.475-33.283s3.818-22.886,5.94-34.369C421.758,220.77,420.353,219.251,419.132,218.79Z" transform="translate(-250.232 -206.229)" fill="#6e6e6e"/>
      <path id="Trazado_254500" data-name="Trazado 254500" d="M230.835,278.621s-2.6-4.968-3.066-8.026-2.6-12.064-4.492-16.322-11.1-9.68-12.774-9.446-5.195,9.226-4.968,12.994,4.492,8.736,5.677,10.389,4.017,10.645,5.9,13.483a14.1,14.1,0,0,1,2.129,4.017Z" transform="translate(-195.669 -213.786)" fill="#90caf9"/>
      <g id="Grupo_145903" data-name="Grupo 145903" transform="translate(9.856 31.033)" clip-path="url(#clip-path)">
        <path id="Trazado_254501" data-name="Trazado 254501" d="M224.129,282.682c.468-2.129-2.6-.71-4.024-1.895s.234-1.653.71-3.307-4.968,1.653-5.911,1.419a2.76,2.76,0,0,1-.5-.227c1.37,2.959,3.69,9.935,5.315,12.369a23.976,23.976,0,0,1,1.419,2.377l5.11-1.277S223.654,284.811,224.129,282.682Z" transform="translate(-208.102 -254.167)" opacity="0.3"/>
      </g>
      <path id="Trazado_254503" data-name="Trazado 254503" d="M230.835,278.621s-2.6-4.968-3.066-8.026-2.6-12.064-4.492-16.322-11.1-9.68-12.774-9.446-5.195,9.226-4.968,12.994,4.492,8.736,5.677,10.389,4.017,10.645,5.9,13.483a14.1,14.1,0,0,1,2.129,4.017Z" transform="translate(-195.669 -213.786)" fill="none" stroke="#263238" stroke-linecap="round" stroke-linejoin="round" stroke-width="1"/>
      <path id="Trazado_254504" data-name="Trazado 254504" d="M206.166,259.229s-7.1-1.888-8.97-1.419-.951,2.839,1.654,3.548a11.418,11.418,0,0,1,3.91,1.774l2.363,3.548" transform="translate(-192.963 -217.536)" fill="#90caf9" stroke="#263238" stroke-linecap="round" stroke-linejoin="round" stroke-width="1"/>
      <path id="Trazado_254505" data-name="Trazado 254505" d="M212.57,240.54h5.677v23.227a2.285,2.285,0,0,1-2.285,2.285h-1.1a2.285,2.285,0,0,1-2.285-2.285V240.54Z" transform="translate(-197.714 -212.544)" fill="#fff" stroke="#263238" stroke-linecap="round" stroke-linejoin="round" stroke-width="1"/>
      <rect id="Rectángulo_44132" data-name="Rectángulo 44132" width="7.792" height="2.129" transform="translate(13.791 27.045)" fill="#fff" stroke="#263238" stroke-linecap="round" stroke-linejoin="round" stroke-width="1"/>
      <path id="Trazado_254506" data-name="Trazado 254506" d="M209.766,239.171s-3.186-.71-3.186,2.363,2.363,3.782,4.258,1.654S211.54,238.937,209.766,239.171Z" transform="translate(-195.975 -212.126)" fill="#90caf9" stroke="#263238" stroke-linecap="round" stroke-linejoin="round" stroke-width="1"/>
      <path id="Trazado_254507" data-name="Trazado 254507" d="M229.653,260.541s-1.888-8.736-3.3-12.277-5.436-6.848-6.387-7.806-1.888,2.839-1.178,4.01,2.129,4.017,2.129,4.017-2.363,10.155.71,12.518" transform="translate(-199.447 -212.475)" fill="#90caf9" stroke="#263238" stroke-linecap="round" stroke-linejoin="round" stroke-width="1"/>
      <path id="Trazado_254508" data-name="Trazado 254508" d="M209.065,253.155s-4.726-.468-5.195,1.185a1.842,1.842,0,0,0,1.888,2.6c1.419,0,4.968.71,5.195-.944S210.718,252.921,209.065,253.155Z" transform="translate(-195.153 -216.189)" fill="#90caf9" stroke="#263238" stroke-linecap="round" stroke-linejoin="round" stroke-width="1"/>
      <path id="Trazado_254509" data-name="Trazado 254509" d="M209.731,247.495s-4.726-.468-5.2,1.185a1.843,1.843,0,0,0,1.895,2.6c1.419,0,4.968.71,5.195-.944S211.385,247.261,209.731,247.495Z" transform="translate(-195.344 -214.545)" fill="#90caf9" stroke="#263238" stroke-linecap="round" stroke-linejoin="round" stroke-width="1"/>
      <path id="Trazado_254510" data-name="Trazado 254510" d="M234.828,288.13l-13.938,8.26a142.394,142.394,0,0,1,8.033,17.479c2.839,8.026,8.516,23.149,17.947,22.908S265.059,324.5,265.059,324.5l-10.865-31.651-9.687,13.228Z" transform="translate(-200.13 -226.361)" fill="#fff"/>
      <g id="Grupo_145904" data-name="Grupo 145904" transform="translate(20.76 61.769)" clip-path="url(#clip-path-2)">
        <path id="Trazado_254511" data-name="Trazado 254511" d="M234.828,288.13l-13.938,8.26a142.394,142.394,0,0,1,8.033,17.479c2.839,8.026,8.516,23.149,17.947,22.908S265.059,324.5,265.059,324.5l-10.865-31.651-9.687,13.228Z" transform="translate(-220.89 -288.13)" fill="#90caf9" stroke="#263238" stroke-linecap="round" stroke-linejoin="round" stroke-width="1"/>
        <path id="Trazado_254512" data-name="Trazado 254512" d="M234.828,288.13l-13.938,8.26a142.394,142.394,0,0,1,8.033,17.479c2.839,8.026,8.516,23.149,17.947,22.908S265.059,324.5,265.059,324.5l-10.865-31.651-9.687,13.228Z" transform="translate(-220.89 -288.13)" fill="#fff" opacity="0.5"/>
      </g>
      <path id="Trazado_254514" data-name="Trazado 254514" d="M234.828,288.13l-13.938,8.26a142.394,142.394,0,0,1,8.033,17.479c2.839,8.026,8.516,23.149,17.947,22.908S265.059,324.5,265.059,324.5l-10.865-31.651-9.687,13.228Z" transform="translate(-200.13 -226.361)" fill="none" stroke="#263238" stroke-linecap="round" stroke-linejoin="round" stroke-width="1"/>
      <path id="Trazado_254515" data-name="Trazado 254515" d="M292.265,254.693s11.035,1.973,17.415,5.039,15.215,8.927,18.99,20.736,1.888,67.623,1.888,67.623H271.99s2.839-24.405.234-35.483-5.45-11.177-7-19.3C260.615,269.156,273.608,252.1,292.265,254.693Z" transform="translate(-212.731 -216.577)" fill="#fff"/>
      <g id="Grupo_145905" data-name="Grupo 145905" transform="translate(51.561 37.855)" clip-path="url(#clip-path-3)">
        <path id="Trazado_254516" data-name="Trazado 254516" d="M310.411,352.7c3.144-8.282,8.4-27.889,8.4-27.889s-18.217-4.5-20.821-12.774,3.08-26.044,3.08-26.044-13.725,21.29-15.612,24.6-12.305-33.12-15.854-41.636a.7.7,0,0,0-.05-.106c-4.655,6.94-6.557,16.947-4.322,28.62,1.547,8.126,4.4,8.2,7,19.3s-.234,35.9-.234,35.9Z" transform="translate(-264.292 -258.618)" fill="#90caf9"/>
        <path id="Trazado_254517" data-name="Trazado 254517" d="M310.411,352.7c3.144-8.282,8.4-27.889,8.4-27.889s-18.217-4.5-20.821-12.774,3.08-26.044,3.08-26.044-13.725,21.29-15.612,24.6-12.305-33.12-15.854-41.636a.7.7,0,0,0-.05-.106c-4.655,6.94-6.557,16.947-4.322,28.62,1.547,8.126,4.4,8.2,7,19.3s-.234,35.9-.234,35.9Z" transform="translate(-264.292 -258.618)" fill="#fff" opacity="0.5"/>
      </g>
      <path id="Trazado_254519" data-name="Trazado 254519" d="M292.265,254.693s11.035,1.973,17.415,5.039,15.215,8.927,18.99,20.736,1.888,67.623,1.888,67.623H271.99s2.839-24.405.234-35.483-5.45-11.177-7-19.3C260.615,269.156,273.608,252.1,292.265,254.693Z" transform="translate(-212.731 -216.577)" fill="none" stroke="#263238" stroke-linecap="round" stroke-linejoin="round" stroke-width="1"/>
      <path id="Trazado_254520" data-name="Trazado 254520" d="M269,284.346l2.363,1.568-1.838,3.939a80.342,80.342,0,0,0,4.457,11.8c2.328,4.457,4.719,8.4,4.719,8.4s7.608-8.4,11.014-13.64,6.564-11.539,6.564-11.539l-3.151-2.626,6.557-4.2s2.484-13.668,1.419-21.659c-4.194-1.093-7.7-1.717-7.7-1.717-10.936-1.526-18.607,2.569-23.135,7.87l-1.008,2.917a41.023,41.023,0,0,0-1.05,10.5A81.2,81.2,0,0,0,269,284.346Z" transform="translate(-213.865 -216.552)" fill="none" stroke="#263238" stroke-linecap="round" stroke-linejoin="round" stroke-width="1"/>
      <path id="Trazado_254521" data-name="Trazado 254521" d="M273.581,266.757s-.255,12.575,1,19.118,6.039,16.6,6.039,16.6,7.806-15.343,11.071-23.894,3.264-24.4,3.264-24.4L277.35,252.67Z" transform="translate(-215.422 -216.066)" fill="#fff" stroke="#263238" stroke-linecap="round" stroke-linejoin="round" stroke-width="1"/>
      <path id="Trazado_254522" data-name="Trazado 254522" d="M276.94,290.429l3.527,5.578-1.76,7.927,2.9,7.3,2.973-7.3L283.4,296.3l3.52-7.345-5.578-6.16Z" transform="translate(-216.404 -224.814)" fill="#263238" stroke="#263238" stroke-linecap="round" stroke-linejoin="round" stroke-width="1"/>
      <path id="Trazado_254523" data-name="Trazado 254523" d="M280.332,280.421l8.516,5.677s5.677-12.951,6.387-19.991a41.558,41.558,0,0,0-.255-11.823L283.646,253,273.59,266.831l1,19.139Z" transform="translate(-215.431 -216.161)" fill="#fff" stroke="#263238" stroke-linecap="round" stroke-linejoin="round" stroke-width="1"/>
      <path id="Trazado_254524" data-name="Trazado 254524" d="M267.21,264.073l11.269,13.065,7.1-24.128L281.8,241.69s-2.512,11.071-7.04,14.846a58.78,58.78,0,0,0-7.551,7.537Z" transform="translate(-213.579 -212.878)" fill="#fff" stroke="#263238" stroke-linecap="round" stroke-linejoin="round" stroke-width="1"/>
      <path id="Trazado_254525" data-name="Trazado 254525" d="M222.452,329.805l-9.566-17.032V301.085a1.611,1.611,0,0,0-.589-3.115h-9.992a1.611,1.611,0,0,0-.589,3.115v11.284h0l-9.587,17.507a4.371,4.371,0,0,0,3.9,6.387h22.581a4.379,4.379,0,0,0,3.846-6.458Z" transform="translate(-191.636 -229.218)" fill="#fff" stroke="#263238" stroke-linecap="round" stroke-linejoin="round" stroke-width="1"/>
      <path id="Trazado_254526" data-name="Trazado 254526" d="M218.14,333.389c-3.7,1.157-8.26,1.81-11.986-.05a19.3,19.3,0,0,0-6.458-2.129l-4.01,7.317a3.655,3.655,0,0,0,3.25,5.315h18.856a3.655,3.655,0,0,0,3.222-5.372Z" transform="translate(-192.696 -238.869)" fill="#fff" stroke="#263238" stroke-linecap="round" stroke-linejoin="round" stroke-width="1"/>
      <path id="Trazado_254527" data-name="Trazado 254527" d="M222.452,329.805l-9.566-17.032V301.085a1.611,1.611,0,0,0-.589-3.115h-9.992a1.611,1.611,0,0,0-.589,3.115v11.284h0l-9.587,17.507a4.371,4.371,0,0,0,3.9,6.387h22.581a4.379,4.379,0,0,0,3.846-6.458Z" transform="translate(-191.636 -229.218)" fill="#fff" stroke="#263238" stroke-linecap="round" stroke-linejoin="round" stroke-width="1"/>
      <path id="Trazado_254528" data-name="Trazado 254528" d="M218.14,333.389c-3.7,1.157-8.26,1.81-11.986-.05a19.3,19.3,0,0,0-6.458-2.129l-4.01,7.317a3.655,3.655,0,0,0,3.25,5.315h18.856a3.655,3.655,0,0,0,3.222-5.372Z" transform="translate(-192.696 -238.869)" fill="#263238" stroke="#263238" stroke-linecap="round" stroke-linejoin="round" stroke-width="1"/>
      <path id="Trazado_254529" data-name="Trazado 254529" d="M242.609,319.766l-7.558-7.317s-.475-2.839-1.419-3.548a30.284,30.284,0,0,1-2.363-2.129s-5.677-11.354-8.026-14.647a9.155,9.155,0,0,0-8.033-4.01c-2.129.234-11.354.944-12.277,3.066-.291.653.944,2.6.944,2.6s-2.363,1.185-1.888,3.307,1.419,2.363,1.419,2.363-2.839,2.129-1.888,3.782a3.7,3.7,0,0,0,2.363,1.888s-1.888,2.129.234,2.839a43.855,43.855,0,0,0,4.485,1.185s2.6,6.607,4.968,6.848a42.979,42.979,0,0,1,5.195.944s4.726,9.68,8.516,14.193,10.645,4.968,10.645,4.968Z" transform="translate(-194.449 -226.354)" fill="#90caf9"/>
      <g id="Grupo_145906" data-name="Grupo 145906" transform="translate(6.876 61.751)" clip-path="url(#clip-path-4)">
        <path id="Trazado_254530" data-name="Trazado 254530" d="M226.2,329.718c-.71,0-.468-2.129.241-3.782s-1.661,0-2.37-.475,0,0,0-2.6-3.782-.71-6.621-1.185S212.481,316,212.481,316l-7.231.057a43.863,43.863,0,0,0,4.485,1.185s2.6,6.607,4.968,6.848a42.971,42.971,0,0,1,5.195.944s4.726,9.68,8.516,14.193a14.143,14.143,0,0,0,6.593,4.116c.837-1.739,1.419-3.193,1.419-3.193S226.909,329.718,226.2,329.718Z" transform="translate(-202.465 -296.204)" opacity="0.3"/>
      </g>
      <path id="Trazado_254532" data-name="Trazado 254532" d="M242.609,319.766l-7.558-7.317s-.475-2.839-1.419-3.548a30.284,30.284,0,0,1-2.363-2.129s-5.677-11.354-8.026-14.647a9.155,9.155,0,0,0-8.033-4.01c-2.129.234-11.354.944-12.277,3.066-.291.653.944,2.6.944,2.6s-2.363,1.185-1.888,3.307,1.419,2.363,1.419,2.363-2.839,2.129-1.888,3.782a3.7,3.7,0,0,0,2.363,1.888s-1.888,2.129.234,2.839a43.855,43.855,0,0,0,4.485,1.185s2.6,6.607,4.968,6.848a42.979,42.979,0,0,1,5.195.944s4.726,9.68,8.516,14.193,10.645,4.968,10.645,4.968Z" transform="translate(-194.449 -226.354)" fill="none" stroke="#263238" stroke-linecap="round" stroke-linejoin="round" stroke-width="1"/>
      <line id="Línea_506" data-name="Línea 506" y1="0.468" x2="8.502" transform="translate(9.427 66.964)" fill="#fff" stroke="#263238" stroke-linecap="round" stroke-linejoin="round" stroke-width="1"/>
      <line id="Línea_507" data-name="Línea 507" y1="0.468" x2="6.848" transform="translate(8.951 72.634)" fill="#fff" stroke="#263238" stroke-linecap="round" stroke-linejoin="round" stroke-width="1"/>
      <line id="Línea_508" data-name="Línea 508" y1="0.475" x2="5.195" transform="translate(9.427 78.297)" fill="#fff" stroke="#263238" stroke-linecap="round" stroke-linejoin="round" stroke-width="1"/>
      <path id="Trazado_254533" data-name="Trazado 254533" d="M297.916,275.48s-3.775,8.267-4.485,14.9-9.68,32-9.68,32-18.189-5.074-23.383-6.493a46.044,46.044,0,0,1-10.091-4.364L239.71,330.606s29.4,17.181,42.622,19.3,15.385,2.583,21.765-3.094,16.258-43.466,16.258-43.466" transform="translate(-205.594 -222.688)" fill="#fff"/>
      <g id="Grupo_145907" data-name="Grupo 145907" transform="translate(34.116 52.792)" clip-path="url(#clip-path-5)">
        <path id="Trazado_254534" data-name="Trazado 254534" d="M299.364,358.046c-4.492,1.419-3.548-7.806-7.1-9.226s2.6,9.935-.944,11.589-10.879-1.895-18.451-4.492c-5.819-2-22.936-10-30.558-13.6l-2.6,4.705s29.4,17.181,42.622,19.3,15.385,2.6,21.765-3.073c3.981-3.548,9.325-19.6,12.774-31.168C314,333.478,303.345,356.79,299.364,358.046Z" transform="translate(-239.71 -291.913)" fill="#90caf9"/>
        <path id="Trazado_254535" data-name="Trazado 254535" d="M299.364,358.046c-4.492,1.419-3.548-7.806-7.1-9.226s2.6,9.935-.944,11.589-10.879-1.895-18.451-4.492c-5.819-2-22.936-10-30.558-13.6l-2.6,4.705s29.4,17.181,42.622,19.3,15.385,2.6,21.765-3.073c3.981-3.548,9.325-19.6,12.774-31.168C314,333.478,303.345,356.79,299.364,358.046Z" transform="translate(-239.71 -291.913)" fill="#fff" opacity="0.5"/>
      </g>
      <path id="Trazado_254537" data-name="Trazado 254537" d="M297.916,275.48s-3.775,8.267-4.485,14.9-9.68,32-9.68,32-18.189-5.074-23.383-6.493a46.044,46.044,0,0,1-10.091-4.364L239.71,330.606s29.4,17.181,42.622,19.3,15.385,2.583,21.765-3.094,16.258-43.466,16.258-43.466" transform="translate(-205.594 -222.688)" fill="none" stroke="#263238" stroke-linecap="round" stroke-linejoin="round" stroke-width="1"/>
      <path id="Trazado_254538" data-name="Trazado 254538" d="M247.551,219.686s-1.256,10.063.752,19.118,5.791,20.63,8.558,20.878,17.1-9.3,18.11-14.087,1-6.791,1-12.831a117.8,117.8,0,0,0-.752-14.839c-.5-3.775-2.768-7.806-9.559-6.791S250.063,214.91,247.551,219.686Z" transform="translate(-207.758 -203.96)" fill="#fab28c"/>
      <g id="Grupo_145908" data-name="Grupo 145908" transform="translate(39.405 7.016)" clip-path="url(#clip-path-6)">
        <path id="Trazado_254539" data-name="Trazado 254539" d="M265.662,211.137c-6.791,1.008-15.612,3.775-18.11,8.551,0,0-1.256,10.063.752,19.118,1.817,8.154,5.053,18.338,7.7,20.474-1.057-5.408-3.264-16.116-4.152-16.116-1.178,0-2.129-1.419-2.789-2.093s3.264-5.677,3.264-5.677l-.475-13.044,17.585-6.181-.461-5.1A11.972,11.972,0,0,0,265.662,211.137Z" transform="translate(-247.163 -210.978)" fill="#90caf9"/>
        <path id="Trazado_254540" data-name="Trazado 254540" d="M265.662,211.137c-6.791,1.008-15.612,3.775-18.11,8.551,0,0-1.256,10.063.752,19.118,1.817,8.154,5.053,18.338,7.7,20.474-1.057-5.408-3.264-16.116-4.152-16.116-1.178,0-2.129-1.419-2.789-2.093s3.264-5.677,3.264-5.677l-.475-13.044,17.585-6.181-.461-5.1A11.972,11.972,0,0,0,265.662,211.137Z" transform="translate(-247.163 -210.978)" fill="#fab28c"/>
      </g>
      <path id="Trazado_254542" data-name="Trazado 254542" d="M247.551,219.686s-1.256,10.063.752,19.118,5.791,20.63,8.558,20.878,17.1-9.3,18.11-14.087,1-6.791,1-12.831a117.8,117.8,0,0,0-.752-14.839c-.5-3.775-2.768-7.806-9.559-6.791S250.063,214.91,247.551,219.686Z" transform="translate(-207.758 -203.96)" fill="none" stroke="#263238" stroke-linecap="round" stroke-linejoin="round" stroke-width="1"/>
      <path id="Trazado_254543" data-name="Trazado 254543" d="M258.04,201.225c-8.3,1-18.614,7.3-23.142,11.567s8.055,1.512,8.055,1.512l-3.548,6.288s5.287-2.015,9.815-4.024,16.322-3.272,16.322-3.272l-5.031,5.535,7.544,1.512s-1.164,4.677-.071,5.961c-.114,5.308-.412,12.419-1.185,13.654-1.256,2.015-3.548,2.015-12.064,1.256-7.1-.624-8.3,1.164-8.516,1.8,2.037,7.1,4.677,13.611,6.749,13.8,2.761.255,17.1-9.3,18.11-14.087s1-6.791,1-12.831c0-1.994,0-3.861-.085-5.62.341-.383.624-.667.845-.667a6.464,6.464,0,0,1,2.264,1.008,138.614,138.614,0,0,0,1.256-14.335C276.356,205,266.343,200.217,258.04,201.225Z" transform="translate(-203.912 -201.089)" fill="#263238" stroke="#263238" stroke-linecap="round" stroke-linejoin="round" stroke-width="1"/>
      <line id="Línea_509" data-name="Línea 509" y1="0.752" x2="5.031" transform="translate(45.577 44.155)" fill="none" stroke="#fff" stroke-linecap="round" stroke-linejoin="round" stroke-width="1"/>
      <path id="Trazado_254544" data-name="Trazado 254544" d="M252.44,246.65s-3.272,5.28-2.008,6.288,5.528.752,5.528.752" transform="translate(-208.623 -214.318)" fill="#ff9157" stroke="#263238" stroke-linecap="round" stroke-linejoin="round" stroke-width="1"/>
      <path id="Trazado_254545" data-name="Trazado 254545" d="M245.115,236.95s-2.015,2.768-2.015,4.528,4.783,5.535,4.783,5.535,1.5-5.784,3.548-4.528,2.512,3.548,4.776,3.548,9.559-1.76,10.822-4.024,1.76-6.536,1.76-6.536l7.544-1.76-.248-2.264Z" transform="translate(-206.578 -209.904)" fill="#f8d9cc" stroke="#263238" stroke-linecap="round" stroke-linejoin="round" stroke-width="1"/>
      <path id="Trazado_254546" data-name="Trazado 254546" d="M276.63,231.41l-30.693,4.258s-1.76,1.256-.248,1.256S276.63,231.41,276.63,231.41Z" transform="translate(-207.152 -209.893)" fill="#263238" stroke="#263238" stroke-linecap="round" stroke-linejoin="round" stroke-width="1"/>
      <ellipse id="Elipse_6142" data-name="Elipse 6142" cx="0.674" cy="1.547" rx="0.674" ry="1.547" transform="translate(49.175 28.507)" fill="#263238"/>
      <ellipse id="Elipse_6143" data-name="Elipse 6143" cx="0.674" cy="1.547" rx="0.674" ry="1.547" transform="translate(41.837 29.018)" fill="#263238"/>
      <path id="Trazado_254547" data-name="Trazado 254547" d="M259,232.517s1.235-2.583,4.854-2.065" transform="translate(-211.195 -209.595)" fill="none" stroke="#263238" stroke-linecap="round" stroke-linejoin="round" stroke-width="1"/>
      <path id="Trazado_254548" data-name="Trazado 254548" d="M251.526,234.239a3.328,3.328,0,0,0-3.406.106" transform="translate(-208.036 -210.593)" fill="none" stroke="#263238" stroke-linecap="round" stroke-linejoin="round" stroke-width="1"/>
      <path id="Trazado_254549" data-name="Trazado 254549" d="M284.93,236.668s0-9.055,3.768-7.806,1.767,9.815,1.008,11.574-4.024,1.512-4.024,1.512" transform="translate(-218.723 -209.119)" fill="#fff" stroke="#263238" stroke-linecap="round" stroke-linejoin="round" stroke-width="1"/>
      <path id="Trazado_254550" data-name="Trazado 254550" d="M290.583,233.132a1.37,1.37,0,0,0-2.058-.433c-1.348.887-.454,4.031-.454,4.031s1.916-.362,1.675,1.079-1.1,1.192-1.1,1.192" transform="translate(-219.551 -210.182)" fill="none" stroke="#263238" stroke-linecap="round" stroke-linejoin="round" stroke-width="1"/>
    </g>
    <g id="freepik--Table--inject-42" transform="translate(69.665 313.541)">
      <line id="Línea_510" data-name="Línea 510" x1="262.544" fill="none" stroke="#263238" stroke-linecap="round" stroke-linejoin="round" stroke-width="1"/>
    </g>
    <g id="freepik--Bottles--inject-42" transform="translate(67.16 201.245)">
      <rect id="Rectángulo_44133" data-name="Rectángulo 44133" width="43.275" height="26.924" transform="translate(204.459 92.419)" fill="#fff" stroke="#263238" stroke-linecap="round" stroke-linejoin="round" stroke-width="1"/>
      <path id="Trazado_254551" data-name="Trazado 254551" d="M390,349.69h6.181v25.328a2.491,2.491,0,0,1-2.491,2.491h-1.2A2.491,2.491,0,0,1,390,375.018V349.69Z" transform="translate(-160.895 -263.573)" fill="#fff"/>
      <g id="Grupo_145909" data-name="Grupo 145909" transform="translate(229.105 86.117)" clip-path="url(#clip-path-7)">
        <path id="Trazado_254552" data-name="Trazado 254552" d="M392.5,382.131H393.7a2.491,2.491,0,0,0,2.484-2.491V365.61H390v14.03a2.491,2.491,0,0,0,2.5,2.491Z" transform="translate(-390 -354.312)" fill="#f4522b"/>
      </g>
      <path id="Trazado_254554" data-name="Trazado 254554" d="M390,349.69h6.181v25.328a2.491,2.491,0,0,1-2.491,2.491h-1.2A2.491,2.491,0,0,1,390,375.018V349.69Z" transform="translate(-160.895 -263.573)" fill="none" stroke="#263238" stroke-linecap="round" stroke-linejoin="round" stroke-width="1"/>
      <rect id="Rectángulo_44134" data-name="Rectángulo 44134" width="8.502" height="2.321" transform="translate(227.956 85.081)" fill="#fff" stroke="#263238" stroke-linecap="round" stroke-linejoin="round" stroke-width="1"/>
      <path id="Trazado_254555" data-name="Trazado 254555" d="M376,349.69h6.181v25.328a2.491,2.491,0,0,1-2.491,2.491h-1.2A2.491,2.491,0,0,1,376,375.018V349.69Z" transform="translate(-156.83 -263.573)" fill="#fff"/>
      <g id="Grupo_145910" data-name="Grupo 145910" transform="translate(219.17 86.117)" clip-path="url(#clip-path-8)">
        <path id="Trazado_254556" data-name="Trazado 254556" d="M382.188,379.64V365.61H376v14.03a2.491,2.491,0,0,0,2.491,2.491h1.2a2.491,2.491,0,0,0,2.5-2.491Z" transform="translate(-376 -354.312)" fill="#fdb32b"/>
      </g>
      <path id="Trazado_254558" data-name="Trazado 254558" d="M376,349.69h6.181v25.328a2.491,2.491,0,0,1-2.491,2.491h-1.2A2.491,2.491,0,0,1,376,375.018V349.69Z" transform="translate(-156.83 -263.573)" fill="none" stroke="#263238" stroke-linecap="round" stroke-linejoin="round" stroke-width="1"/>
      <rect id="Rectángulo_44135" data-name="Rectángulo 44135" width="8.502" height="2.321" transform="translate(218.021 85.081)" fill="#fff" stroke="#263238" stroke-linecap="round" stroke-linejoin="round" stroke-width="1"/>
      <path id="Trazado_254559" data-name="Trazado 254559" d="M362,349.69h6.181v25.328a2.491,2.491,0,0,1-2.491,2.491h-1.2A2.491,2.491,0,0,1,362,375.018V349.69Z" transform="translate(-152.765 -263.573)" fill="#fff"/>
      <g id="Grupo_145911" data-name="Grupo 145911" transform="translate(209.235 86.117)" clip-path="url(#clip-path-9)">
        <path id="Trazado_254560" data-name="Trazado 254560" d="M362,365.61v14.03a2.491,2.491,0,0,0,2.491,2.491h1.2a2.491,2.491,0,0,0,2.491-2.491V365.61Z" transform="translate(-362 -354.312)" fill="url(#linear-gradient)"/>
      </g>
      <path id="Trazado_254562" data-name="Trazado 254562" d="M362,349.69h6.181v25.328a2.491,2.491,0,0,1-2.491,2.491h-1.2A2.491,2.491,0,0,1,362,375.018V349.69Z" transform="translate(-152.765 -263.573)" fill="none" stroke="#263238" stroke-linecap="round" stroke-linejoin="round" stroke-width="1"/>
      <rect id="Rectángulo_44136" data-name="Rectángulo 44136" width="8.502" height="2.321" transform="translate(208.078 85.081)" fill="#fff" stroke="#263238" stroke-linecap="round" stroke-linejoin="round" stroke-width="1"/>
      <rect id="Rectángulo_44137" data-name="Rectángulo 44137" width="43.275" height="1.923" transform="translate(204.459 91.46)" fill="#fff" stroke="#263238" stroke-linecap="round" stroke-linejoin="round" stroke-width="1"/>
      <rect id="Rectángulo_44138" data-name="Rectángulo 44138" width="43.275" height="5.131" transform="translate(204.459 114.219)" fill="#fff" stroke="#263238" stroke-linecap="round" stroke-linejoin="round" stroke-width="1"/>
      <rect id="Rectángulo_44139" data-name="Rectángulo 44139" width="2.562" height="37.825" transform="translate(202.855 82.164)" fill="#fff" stroke="#263238" stroke-linecap="round" stroke-linejoin="round" stroke-width="1"/>
      <rect id="Rectángulo_44140" data-name="Rectángulo 44140" width="2.562" height="37.825" transform="translate(245.491 82.164)" fill="#fff" stroke="#263238" stroke-linecap="round" stroke-linejoin="round" stroke-width="1"/>
      <path id="Trazado_254563" data-name="Trazado 254563" d="M192.259,372.948l-10.425-18.565V341.609a1.76,1.76,0,0,0-.646-3.4H170.3a1.76,1.76,0,0,0-.646,3.4v12.305h0L159.2,373a4.776,4.776,0,0,0,4.258,6.948h24.618a4.776,4.776,0,0,0,4.187-7Z" transform="translate(-93.731 -260.24)" fill="#fff" stroke="#263238" stroke-linecap="round" stroke-linejoin="round" stroke-width="1"/>
      <path id="Trazado_254564" data-name="Trazado 254564" d="M185.876,374H167.822l-4.691,8.516a3.967,3.967,0,0,0,3.548,5.777h20.488a3.967,3.967,0,0,0,3.5-5.84Z" transform="translate(-94.898 -270.631)" fill="#81b722" stroke="#263238" stroke-linecap="round" stroke-linejoin="round" stroke-width="1"/>
      <path id="Trazado_254565" data-name="Trazado 254565" d="M76.789,338.458a1.419,1.419,0,0,1-1.419-1.419V232.009a1.419,1.419,0,1,1,2.839,0V337.038A1.419,1.419,0,0,1,76.789,338.458Z" transform="translate(-69.544 -228.993)" fill="#fff" stroke="#263238" stroke-linecap="round" stroke-linejoin="round" stroke-width="1"/>
      <path id="Trazado_254566" data-name="Trazado 254566" d="M121.5,241.319H72.819a1.419,1.419,0,1,1,0-2.839H121.5a1.419,1.419,0,0,1,0,2.839Z" transform="translate(-68.391 -231.284)" fill="#fff" stroke="#263238" stroke-linecap="round" stroke-linejoin="round" stroke-width="1"/>
      <rect id="Rectángulo_44141" data-name="Rectángulo 44141" width="50.279" height="10.858" rx="2.75" transform="translate(0 107.641)" fill="#263238" stroke="#263238" stroke-linecap="round" stroke-linejoin="round" stroke-width="1"/>
      <rect id="Rectángulo_44142" data-name="Rectángulo 44142" width="3.591" height="3.79" transform="translate(5.379 6.579)" fill="#263238" stroke="#263238" stroke-linecap="round" stroke-linejoin="round" stroke-width="1"/>
      <path id="Trazado_254567" data-name="Trazado 254567" d="M145.686,244.373v-14.9H137.88v14.9a14.363,14.363,0,1,0,7.806,0Z" transform="translate(-84.656 -228.668)" fill="#fff" stroke="#263238" stroke-linecap="round" stroke-linejoin="round" stroke-width="1"/>
      <path id="Trazado_254568" data-name="Trazado 254568" d="M149.813,230.334h-8.58a1,1,0,0,1-.994-1h0a.994.994,0,0,1,.993-.994h8.58a.994.994,0,0,1,.993.994h0a1,1,0,0,1-.994,1Z" transform="translate(-88.378 -228.34)" fill="#fff" stroke="#263238" stroke-linecap="round" stroke-linejoin="round" stroke-width="1"/>
      <path id="Trazado_254569" data-name="Trazado 254569" d="M131.718,261.22a12.369,12.369,0,1,0,21.5,0Z" transform="translate(-85.434 -237.887)" fill="#169788" stroke="#263238" stroke-linecap="round" stroke-linejoin="round" stroke-width="1"/>
      <circle id="Elipse_6144" data-name="Elipse 6144" cx="1.952" cy="1.952" r="1.952" transform="translate(54.175 27.435)" fill="none" stroke="#263238" stroke-linecap="round" stroke-linejoin="round" stroke-width="1"/>
      <circle id="Elipse_6145" data-name="Elipse 6145" cx="0.887" cy="0.887" r="0.887" transform="translate(60.207 27.435)" fill="none" stroke="#263238" stroke-linecap="round" stroke-linejoin="round" stroke-width="1"/>
      <path id="Trazado_254570" data-name="Trazado 254570" d="M141.747,275.128a1.121,1.121,0,1,1-.326-.8A1.128,1.128,0,0,1,141.747,275.128Z" transform="translate(-88.161 -241.597)" fill="none" stroke="#263238" stroke-linecap="round" stroke-linejoin="round" stroke-width="1"/>
      <rect id="Rectángulo_44143" data-name="Rectángulo 44143" width="12.164" height="7.182" transform="translate(51.053 5.18)" fill="#263238" stroke="#263238" stroke-linecap="round" stroke-linejoin="round" stroke-width="1"/>
    </g>
  </g>
  <path id="Trazado_255665" data-name="Trazado 255665" d="M413.853,165.459,367.644,119.25v13.537H66.42l32.672,32.672L66.42,198.15H367.644v13.537Z" transform="translate(-33.088 -119.25)" fill="#169788"/>
  <path id="Trazado_255667" data-name="Trazado 255667" d="M87.211,126.36H72.36l32.672,32.672L72.36,191.723H87.211L119.9,159.032Z" transform="translate(-27.719 -112.823)" opacity="0.2" fill="url(#linear-gradient-2)"/>
  <path id="Trazado_255669" data-name="Trazado 255669" d="M64.661,126.36H49.81l32.672,32.672L49.81,191.723H64.661l32.672-32.691Z" transform="translate(-48.103 -112.823)" fill="#169788"/>
</svg>
