<svg xmlns="http://www.w3.org/2000/svg" xmlns:xlink="http://www.w3.org/1999/xlink" width="679.253" height="362.868" viewBox="0 0 679.253 362.868">
  <defs>
    <clipPath id="clip-path">
      <rect id="Rectangle" width="679.253" height="362.868" rx="24" fill="#dbefec"/>
    </clipPath>
  </defs>
  <g id="Grupo_130536" data-name="Grupo 130536" clip-path="url(#clip-path)">
    <path id="Trazado_252718" data-name="Trazado 252718" d="M518.2,201.822l-17.249,31.086L518.2,264h34.492l17.249-31.086-17.249-31.093Zm34.492,137.163H518.2l-17.249-31.093,17.249-31.07h34.492l17.249,31.086ZM433.575,201.822l17.242,31.086L433.575,264h-34.5l-17.242-31.086,17.242-31.093ZM374.69,89.209l17.25,31.093-17.25,31.07H340.2l-17.249-31.086,17.242-31.078ZM195.343,126.838l17.242,31.093-17.242,31.086H160.852L143.61,157.932l17.242-31.093Zm-119.112,0,17.249,31.093L76.231,189.018H41.717L24.49,157.932l17.227-31.093ZM255.57,89.209l17.249,31.086L255.57,151.381H221.078l-17.242-31.086,17.242-31.086Zm58.886,37.637,17.249,31.093-17.249,31.078H279.964l-17.242-31.086,17.242-31.093Zm-178-37.637,17.25,31.093-17.25,31.086H101.966L84.724,120.295l17.242-31.086ZM374.69,164.178l17.25,31.093-17.25,31.086h-34.5l-17.242-31.086,17.242-31.093Zm119.112,0,17.249,31.093-17.213,31.086H459.31l-17.242-31.086,17.242-31.093ZM433.575,276.822l17.242,31.086L433.575,339h-34.5l-17.242-31.093,17.242-31.086Zm-119.12,0,17.249,31.086-17.249,31.078H279.964l-17.242-31.093,17.242-31.07Zm60.234-37.645,17.25,31.086-17.25,31.078h-34.5l-17.242-31.093,17.242-31.086ZM637.308,351.79h34.5l17.242,31.086-17.242,31.093h-34.5l-17.242-31.093ZM255.57,239.162l17.249,31.086-17.249,31.1H221.078l-17.242-31.093,17.242-31.086Zm58.886-37.37,17.249,31.086L314.456,264H279.964l-17.242-31.093,17.242-31.086ZM255.57,164.155l17.25,31.086-17.25,31.086H221.078l-17.242-31.086,17.242-31.093Zm-60.227,37.637,17.242,31.093-17.242,31.086H160.852L143.61,232.885l17.242-31.093ZM493.8,239.162l17.249,31.093-17.213,31.086H459.31l-17.242-31.1,17.242-31.086Zm0,137.163H459.31l-17.242-31.086,17.242-31.093h34.528l17.25,31.093ZM578.43,76.389,561.181,45.3,578.43,14.21h34.492L630.134,45.3l-17.22,31.086ZM433.575,114.034h-34.5L381.834,82.948l17.242-31.109h34.5l17.242,31.093Zm119.112,0H518.2L500.947,82.948,518.2,51.839h34.492l17.249,31.093Zm-119.112,12.8,17.242,31.093-17.242,31.086h-34.5l-17.242-31.086,17.242-31.093Zm-119.12-12.8H279.964L262.722,82.948l17.242-31.109h34.492l17.249,31.093ZM221.078,76.4,203.836,45.3,221.078,14.21H255.57L272.82,45.3,255.57,76.4Zm119.112,0L322.949,45.311,340.2,14.218H374.69l17.25,31.093L374.69,76.389Zm297.117,37.645L620.059,82.955l17.249-31.116h34.5l17.242,31.093L671.8,114.018Zm0,149.968-17.242-31.093,17.242-31.086h34.5l17.242,31.093-17.242,31.086Zm0,74.984L620.066,307.9l17.242-31.078H671.8l17.249,31.086L671.807,339Zm0-149.968-17.249-31.086,17.249-31.093h34.5l17.242,31.093-17.242,31.086Zm-178-112.636L442.068,45.3,459.31,14.21h34.528L511.081,45.3,493.839,76.389ZM195.343,114.034H160.852L143.573,82.948l17.279-31.109h34.492l17.242,31.093ZM612.922,301.341H578.43l-17.249-31.086,17.249-31.093h34.492l17.213,31.093Zm0-74.984H578.43l-17.249-31.086,17.249-31.093h34.484l17.22,31.093Zm-60.234-99.518,17.249,31.093-17.249,31.086H518.2l-17.249-31.086L518.2,126.838ZM493.839,89.209,511.081,120.3l-17.242,31.078H459.31l-17.242-31.093L459.31,89.209Zm119.112,0,17.183,31.078-17.242,31.093H578.43l-17.249-31.093L578.43,89.209ZM76.231,114.034H41.717L24.49,82.948,41.717,51.839H76.231L93.481,82.933ZM612.922,376.325H578.43l-17.249-31.086,17.249-31.093h34.484l17.22,31.093ZM101.966,76.389,84.717,45.3,101.966,14.21h34.492L153.707,45.3,136.458,76.4ZM578.43,389.13h34.484l17.22,31.07-17.213,31.109H578.43L561.181,420.2Z" transform="translate(23.191 -81.697)" fill="#fff" opacity="0.2"/>
  </g>
</svg>
