<svg xmlns="http://www.w3.org/2000/svg" xmlns:xlink="http://www.w3.org/1999/xlink" width="513.914" height="400.155" viewBox="0 0 513.914 400.155">
  <defs>
    <clipPath id="clip-path">
      <path id="Trazado_251605" data-name="Trazado 251605" d="M325.669,89.89H119.5L16.42,268.432,119.5,446.985H325.669L428.753,268.432Z" transform="translate(-16.42 -89.89)" fill="none"/>
    </clipPath>
    <linearGradient id="linear-gradient" x1="0.5" x2="0.5" y2="1" gradientUnits="objectBoundingBox">
      <stop offset="0" stop-color="#81b722"/>
      <stop offset="1" stop-color="#169788"/>
    </linearGradient>
  </defs>
  <g id="contenedor-01" transform="translate(-19.934 -69.073)">
    <path id="Trazado_250993" data-name="Trazado 250993" d="M87.4,197.63H44.832L23.55,234.492l21.282,36.862H87.4l21.271-36.862Z" transform="translate(0.25 14.123)" fill="none" stroke="#28965a" stroke-miterlimit="10" stroke-width="0.97" opacity="0.3"/>
    <path id="Trazado_250995" data-name="Trazado 250995" d="M472.415,264.12H429.862L408.58,300.971l21.282,36.862h42.553L493.7,300.971Z" transform="translate(39.047 -31.826)" fill="none" stroke="#addbd5" stroke-miterlimit="10" stroke-width="0.97"/>
    <path id="Trazado_250996" data-name="Trazado 250996" d="M466.919,163.9H445.54l-10.69,18.512,10.69,18.523h21.379l10.69-18.523Z" transform="translate(33.956 11.359)" fill="none" stroke="#28965a" stroke-miterlimit="10" stroke-width="0.97" opacity="0.3"/>
    <path id="Trazado_250997" data-name="Trazado 250997" d="M72.559,314.66H51.18L40.49,333.183,51.18,351.7H72.559l10.69-18.512Z" transform="translate(1.638 23.714)" fill="none" stroke="#addbd5" stroke-miterlimit="10" stroke-width="0.97"/>
    <g id="OBJECTS" transform="translate(20.5 66.913)">
      <path id="Trazado_251001" data-name="Trazado 251001" d="M118.979,73.67H57.286L26.44,127.1l30.846,53.427h61.693L149.815,127.1Z" transform="translate(-20.013 -62.948)" fill="none" stroke="#169788" stroke-miterlimit="10" stroke-width="0.89" opacity="0.53"/>
      <path id="Trazado_251002" data-name="Trazado 251002" d="M115.553,69.46l-.541-.93H113.93" transform="translate(-12.843 -63.369)" fill="none" stroke="#28965a" stroke-miterlimit="10" stroke-width="0.98" opacity="0.53"/>
      <line id="Línea_427" data-name="Línea 427" x1="62.764" transform="translate(36.202 5.161)" fill="none" stroke="#28965a" stroke-miterlimit="10" stroke-width="0.98" stroke-dasharray="1.97 1.97"/>
      <path id="Trazado_251003" data-name="Trazado 251003" d="M53.1,68.53H52.021l-.541.93" transform="translate(-17.961 -63.369)" fill="none" stroke="#28965a" stroke-miterlimit="10" stroke-width="0.98"/>
      <line id="Línea_428" data-name="Línea 428" x1="31.377" y2="54.346" transform="translate(1.071 7.942)" fill="none" stroke="#28965a" stroke-miterlimit="10" stroke-width="0.98" stroke-dasharray="1.97 1.97"/>
      <path id="Trazado_251004" data-name="Trazado 251004" d="M21.041,122.18l-.541.941.541.93" transform="translate(-20.5 -58.972)" fill="none" stroke="#28965a" stroke-miterlimit="10" stroke-width="0.98"/>
      <line id="Línea_429" data-name="Línea 429" x2="31.387" y2="54.346" transform="translate(1.601 66.929)" fill="none" stroke="#28965a" stroke-miterlimit="10" stroke-width="0.98" stroke-dasharray="1.97 1.97"/>
      <path id="Trazado_251005" data-name="Trazado 251005" d="M51.48,176.7l.541.941H53.1" transform="translate(-17.961 -54.505)" fill="none" stroke="#28965a" stroke-miterlimit="10" stroke-width="0.98"/>
      <line id="Línea_430" data-name="Línea 430" x2="62.764" transform="translate(37.262 123.137)" fill="none" stroke="#28965a" stroke-miterlimit="10" stroke-width="0.98" stroke-dasharray="1.97 1.97"/>
      <path id="Trazado_251006" data-name="Trazado 251006" d="M113.93,177.641h1.082l.541-.941" transform="translate(-12.843 -54.505)" fill="none" stroke="#28965a" stroke-miterlimit="10" stroke-width="0.98"/>
      <line id="Línea_431" data-name="Línea 431" y1="54.346" x2="31.377" transform="translate(103.781 66.01)" fill="none" stroke="#28965a" stroke-miterlimit="10" stroke-width="0.98" stroke-dasharray="1.97 1.97"/>
      <path id="Trazado_251007" data-name="Trazado 251007" d="M145.91,124.052l.541-.93-.541-.941" transform="translate(-10.223 -58.972)" fill="none" stroke="#28965a" stroke-miterlimit="10" stroke-width="0.98"/>
      <line id="Línea_432" data-name="Línea 432" x1="31.377" y1="54.357" transform="translate(103.25 7.011)" fill="none" stroke="#28965a" stroke-miterlimit="10" stroke-width="0.98" stroke-dasharray="1.97 1.97"/>
      <g id="Grupo_131626" data-name="Grupo 131626" opacity="0.37">
        <path id="Trazado_251008" data-name="Trazado 251008" d="M68.11,88.11v17.419A16.37,16.37,0,0,0,84.48,121.9h0a16.381,16.381,0,0,1,16.381,16.381v23.013" transform="translate(-16.599 -61.765)" fill="none" stroke="#2a6041" stroke-linecap="round" stroke-miterlimit="10" stroke-width="1.54"/>
        <path id="Trazado_251009" data-name="Trazado 251009" d="M100.261,88.24a1.72,1.72,0,1,1-1.72-1.72A1.72,1.72,0,0,1,100.261,88.24Z" transform="translate(-14.246 -61.896)" fill="#28965a"/>
        <path id="Trazado_251010" data-name="Trazado 251010" d="M100.261,92.3a1.72,1.72,0,1,1-1.72-1.72,1.72,1.72,0,0,1,1.72,1.72Z" transform="translate(-14.246 -61.563)" fill="#28965a"/>
        <path id="Trazado_251011" data-name="Trazado 251011" d="M100.261,96.37a1.72,1.72,0,1,1-1.72-1.72A1.72,1.72,0,0,1,100.261,96.37Z" transform="translate(-14.246 -61.229)" fill="#28965a"/>
        <path id="Trazado_251012" data-name="Trazado 251012" d="M100.261,100.44a1.72,1.72,0,1,1-1.72-1.72A1.72,1.72,0,0,1,100.261,100.44Z" transform="translate(-14.246 -60.896)" fill="#28965a"/>
        <path id="Trazado_251013" data-name="Trazado 251013" d="M100.261,104.51a1.72,1.72,0,1,1-1.72-1.72A1.72,1.72,0,0,1,100.261,104.51Z" transform="translate(-14.246 -60.563)" fill="#28965a"/>
        <path id="Trazado_251014" data-name="Trazado 251014" d="M99.731,108.58a1.72,1.72,0,1,1-1.72-1.72,1.72,1.72,0,0,1,1.72,1.72Z" transform="translate(-14.289 -60.229)" fill="#28965a"/>
        <path id="Trazado_251015" data-name="Trazado 251015" d="M98.141,112.06a1.72,1.72,0,1,1-1.72-1.72,1.72,1.72,0,0,1,1.72,1.72Z" transform="translate(-14.419 -59.943)" fill="#28965a"/>
        <path id="Trazado_251016" data-name="Trazado 251016" d="M95.741,115.13a1.72,1.72,0,1,1-1.72-1.72,1.72,1.72,0,0,1,1.72,1.72Z" transform="translate(-14.616 -59.691)" fill="#28965a"/>
        <path id="Trazado_251017" data-name="Trazado 251017" d="M92.821,117.41a1.72,1.72,0,1,1-1.688-1.72,1.72,1.72,0,0,1,1.688,1.72Z" transform="translate(-14.855 -59.505)" fill="#28965a"/>
        <path id="Trazado_251018" data-name="Trazado 251018" d="M89.381,118.84a1.72,1.72,0,1,1-1.72-1.72A1.72,1.72,0,0,1,89.381,118.84Z" transform="translate(-15.137 -59.388)" fill="#28965a"/>
        <path id="Trazado_251019" data-name="Trazado 251019" d="M66.54,150.39a1.72,1.72,0,1,1,1.72,1.72A1.72,1.72,0,0,1,66.54,150.39Z" transform="translate(-16.727 -56.802)" fill="#28965a"/>
        <path id="Trazado_251020" data-name="Trazado 251020" d="M66.54,146.32a1.72,1.72,0,1,1,1.72,1.72A1.72,1.72,0,0,1,66.54,146.32Z" transform="translate(-16.727 -57.136)" fill="#28965a"/>
        <path id="Trazado_251021" data-name="Trazado 251021" d="M66.54,142.25a1.72,1.72,0,1,1,1.72,1.72A1.72,1.72,0,0,1,66.54,142.25Z" transform="translate(-16.727 -57.469)" fill="#28965a"/>
        <path id="Trazado_251022" data-name="Trazado 251022" d="M66.54,138.18a1.72,1.72,0,1,1,1.72,1.72A1.72,1.72,0,0,1,66.54,138.18Z" transform="translate(-16.727 -57.803)" fill="#28965a"/>
        <path id="Trazado_251023" data-name="Trazado 251023" d="M66.54,134.129a1.72,1.72,0,1,1,.5,1.223A1.72,1.72,0,0,1,66.54,134.129Z" transform="translate(-16.727 -58.134)" fill="#28965a"/>
        <circle id="Elipse_5814" data-name="Elipse 5814" cx="1.72" cy="1.72" r="1.72" transform="translate(50.354 69.861)" fill="#28965a"/>
        <path id="Trazado_251024" data-name="Trazado 251024" d="M68.63,126.573a1.72,1.72,0,1,1,1.72,1.688,1.72,1.72,0,0,1-1.72-1.688Z" transform="translate(-16.556 -58.757)" fill="#28965a"/>
        <path id="Trazado_251025" data-name="Trazado 251025" d="M71,123.479a1.72,1.72,0,1,1,.5,1.223A1.72,1.72,0,0,1,71,123.479Z" transform="translate(-16.361 -59.007)" fill="#28965a"/>
        <path id="Trazado_251026" data-name="Trazado 251026" d="M74,121.22a1.72,1.72,0,1,1,1.72,1.72A1.72,1.72,0,0,1,74,121.22Z" transform="translate(-16.115 -59.192)" fill="#28965a"/>
        <path id="Trazado_251027" data-name="Trazado 251027" d="M77.39,119.78A1.72,1.72,0,1,1,77.9,121,1.72,1.72,0,0,1,77.39,119.78Z" transform="translate(-15.838 -59.311)" fill="#28965a"/>
        <path id="Trazado_251028" data-name="Trazado 251028" d="M85.351,119.35a1.72,1.72,0,1,1-1.72-1.72A1.72,1.72,0,0,1,85.351,119.35Z" transform="translate(-15.468 -59.346)" fill="#28965a"/>
        <path id="Trazado_251029" data-name="Trazado 251029" d="M97.6,89.972H70.8a.476.476,0,0,1-.487-.476h0a.487.487,0,0,1,.487-.476H97.6a.476.476,0,0,1,.476.476h0A.476.476,0,0,1,97.6,89.972Z" transform="translate(-16.418 -61.69)" fill="#2ceaa3"/>
        <path id="Trazado_251030" data-name="Trazado 251030" d="M97.6,93.072H70.8a.476.476,0,0,1-.487-.476h0a.487.487,0,0,1,.487-.476H97.6a.476.476,0,0,1,.476.476h0A.476.476,0,0,1,97.6,93.072Z" transform="translate(-16.418 -61.437)" fill="#2ceaa3"/>
        <path id="Trazado_251031" data-name="Trazado 251031" d="M97.6,96.152H70.8a.476.476,0,0,1-.487-.476h0A.487.487,0,0,1,70.8,95.2H97.6a.476.476,0,0,1,.476.476h0A.476.476,0,0,1,97.6,96.152Z" transform="translate(-16.418 -61.184)" fill="#2ceaa3"/>
        <path id="Trazado_251032" data-name="Trazado 251032" d="M97.6,99.242H70.8a.476.476,0,0,1-.487-.476h0a.487.487,0,0,1,.487-.476H97.6a.476.476,0,0,1,.476.476h0A.476.476,0,0,1,97.6,99.242Z" transform="translate(-16.418 -60.931)" fill="#2ceaa3"/>
        <path id="Trazado_251033" data-name="Trazado 251033" d="M97.6,102.332H70.8a.476.476,0,0,1-.487-.476h0a.487.487,0,0,1,.487-.476H97.6a.476.476,0,0,1,.476.476h0A.476.476,0,0,1,97.6,102.332Z" transform="translate(-16.418 -60.678)" fill="#2ceaa3"/>
        <path id="Trazado_251034" data-name="Trazado 251034" d="M97.6,105.433H70.8a.487.487,0,0,1-.487-.487h0a.487.487,0,0,1,.487-.476H97.6a.476.476,0,0,1,.476.476h0a.487.487,0,0,1-.476.487Z" transform="translate(-16.418 -60.424)" fill="#2ceaa3"/>
        <path id="Trazado_251035" data-name="Trazado 251035" d="M97.6,108.523H70.8a.487.487,0,0,1-.487-.487h0a.487.487,0,0,1,.487-.476H97.6a.476.476,0,0,1,.509.476h0a.487.487,0,0,1-.509.487Z" transform="translate(-16.418 -60.171)" fill="#2ceaa3"/>
        <path id="Trazado_251036" data-name="Trazado 251036" d="M94.649,111.613H73.367a.487.487,0,0,1-.487-.487h0a.487.487,0,0,1,.487-.476H94.649a.487.487,0,0,1,.487.476h0A.487.487,0,0,1,94.649,111.613Z" transform="translate(-16.207 -59.918)" fill="#2ceaa3"/>
        <path id="Trazado_251037" data-name="Trazado 251037" d="M91.6,114.7H75.937a.487.487,0,0,1-.487-.487h0a.487.487,0,0,1,.487-.476H91.6a.487.487,0,0,1,.487.476h0A.487.487,0,0,1,91.6,114.7Z" transform="translate(-15.997 -59.665)" fill="#2ceaa3"/>
        <path id="Trazado_251038" data-name="Trazado 251038" d="M70.8,149.41H97.6a.476.476,0,0,1,.476.476h0a.487.487,0,0,1-.476.487H70.8a.487.487,0,0,1-.487-.487h0A.487.487,0,0,1,70.8,149.41Z" transform="translate(-16.418 -56.741)" fill="#2ceaa3"/>
        <path id="Trazado_251039" data-name="Trazado 251039" d="M70.8,152.57H97.6a.476.476,0,0,1,.509.465h0a.487.487,0,0,1-.476.487H70.8a.487.487,0,0,1-.487-.487h0a.487.487,0,0,1,.487-.465Z" transform="translate(-16.418 -56.482)" fill="#2ceaa3"/>
        <path id="Trazado_251040" data-name="Trazado 251040" d="M70.8,146.32H97.6a.476.476,0,0,1,.476.476h0a.487.487,0,0,1-.476.487H70.8a.487.487,0,0,1-.487-.487h0A.487.487,0,0,1,70.8,146.32Z" transform="translate(-16.418 -56.995)" fill="#2ceaa3"/>
        <path id="Trazado_251041" data-name="Trazado 251041" d="M70.8,143.23H97.6a.476.476,0,0,1,.476.476h0a.487.487,0,0,1-.476.487H70.8a.487.487,0,0,1-.487-.487h0A.487.487,0,0,1,70.8,143.23Z" transform="translate(-16.418 -57.248)" fill="#2ceaa3"/>
        <path id="Trazado_251042" data-name="Trazado 251042" d="M70.8,140.14H97.6a.476.476,0,0,1,.476.476h0a.487.487,0,0,1-.476.487H70.8a.487.487,0,0,1-.487-.487h0a.487.487,0,0,1,.487-.476Z" transform="translate(-16.418 -57.501)" fill="#2ceaa3"/>
        <path id="Trazado_251043" data-name="Trazado 251043" d="M70.8,137.05H97.6a.476.476,0,0,1,.476.476h0a.487.487,0,0,1-.476.487H70.8a.487.487,0,0,1-.487-.487h0A.487.487,0,0,1,70.8,137.05Z" transform="translate(-16.418 -57.754)" fill="#2ceaa3"/>
        <path id="Trazado_251044" data-name="Trazado 251044" d="M70.8,134H97.6a.476.476,0,0,1,.476.476h0a.487.487,0,0,1-.476.487H70.8a.487.487,0,0,1-.487-.487h0A.487.487,0,0,1,70.8,134Z" transform="translate(-16.418 -58.004)" fill="#2ceaa3"/>
        <path id="Trazado_251045" data-name="Trazado 251045" d="M70.8,130.87H97.6a.476.476,0,0,1,.476.476h0a.487.487,0,0,1-.476.487H70.8a.487.487,0,0,1-.487-.487h0a.487.487,0,0,1,.487-.476Z" transform="translate(-16.418 -58.261)" fill="#2ceaa3"/>
        <path id="Trazado_251046" data-name="Trazado 251046" d="M73.367,127.78H94.649a.487.487,0,0,1,.487.476h0a.487.487,0,0,1-.487.487H73.367a.487.487,0,0,1-.487-.487h0A.487.487,0,0,1,73.367,127.78Z" transform="translate(-16.207 -58.514)" fill="#2ceaa3"/>
        <path id="Trazado_251047" data-name="Trazado 251047" d="M75.937,124.69H91.6a.487.487,0,0,1,.487.476h0a.487.487,0,0,1-.487.487H75.937a.487.487,0,0,1-.487-.487h0A.487.487,0,0,1,75.937,124.69Z" transform="translate(-15.997 -58.768)" fill="#2ceaa3"/>
      </g>
      <path id="Trazado_251048" data-name="Trazado 251048" d="M440.711,355.53H372.927l-33.887,58.7,33.887,58.707h67.784l33.9-58.707Z" transform="translate(30.673 -87.472)" fill="none" stroke="#169788" stroke-miterlimit="10" stroke-width="0.97"/>
      <path id="Trazado_251049" data-name="Trazado 251049" d="M445,349.57H369.769L332.16,414.714l37.609,65.155H445l37.619-65.155Z" transform="translate(30.109 -87.96)" fill="none" stroke="#28965a" stroke-miterlimit="10" stroke-width="1.08" stroke-dasharray="2"/>
      <path id="Trazado_251050" data-name="Trazado 251050" d="M420.36,369.69l-1.223,4.252a14.435,14.435,0,0,0-3.181,1.3l-3.927-2.164-3.505,3.462,2.164,3.873a13.383,13.383,0,0,0-1.32,3.138l-4.328,1.212v4.9l4.328,1.212a13.384,13.384,0,0,0,1.32,3.138l-2.164,3.873,3.505,3.462,3.927-2.164a13.924,13.924,0,0,0,3.181,1.3l1.223,4.263h4.966l1.223-4.263a13.926,13.926,0,0,0,3.181-1.3l3.927,2.164,3.506-3.462L435,394.012a13.859,13.859,0,0,0,1.32-3.138l4.328-1.212v-4.9l-4.328-1.212a13.86,13.86,0,0,0-1.32-3.138l2.164-3.873-3.506-3.462-3.927,2.164a14.436,14.436,0,0,0-3.181-1.3l-1.223-4.252Zm2.478,8.363a9.175,9.175,0,1,1-9.283,9.175,9.175,9.175,0,0,1,9.283-9.175Z" transform="translate(36.081 -86.311)" fill="#f4522b" opacity="0.15"/>
      <g id="Grupo_131572" data-name="Grupo 131572" transform="translate(411.541 316.67)" opacity="0.15">
        <path id="Trazado_251051" data-name="Trazado 251051" d="M401.665,400.46l-1.926,6.676a22.886,22.886,0,0,0-4.988,2.034l-6.145-3.376L383.1,411.2l3.43,6.07a20.772,20.772,0,0,0-2.056,4.923L377.7,424.09v7.693l6.773,1.893a20.557,20.557,0,0,0,2.056,4.923l-3.43,6.081,5.507,5.41,6.145-3.387a21.855,21.855,0,0,0,4.988,2.034l1.926,6.676h7.79l1.915-6.676a21.468,21.468,0,0,0,4.988-2.034l6.156,3.387,5.5-5.41-3.462-6.059A21.032,21.032,0,0,0,426.6,433.7l6.773-1.893v-7.693l-6.773-1.893a21.227,21.227,0,0,0-2.056-4.945l3.419-6.07-5.5-5.41-6.156,3.376a22.451,22.451,0,0,0-4.988-2.034l-1.915-6.676Zm3.9,13.124a14.379,14.379,0,1,1-14.552,14.379A14.379,14.379,0,0,1,405.56,413.584Z" transform="translate(-377.7 -400.46)" fill="#fdb32b"/>
      </g>
      <path id="Trazado_251052" data-name="Trazado 251052" d="M386.338,72.3h-223.9L50.49,266.2,162.439,460.1h223.9L498.287,266.2Z" transform="translate(-18.042 -63.06)" fill="#169788" opacity="0.3"/>
      <path id="Trazado_251053" data-name="Trazado 251053" d="M380.258,80.75H166.919L60.25,265.5,166.919,450.268H380.258L486.928,265.5Z" transform="translate(-17.243 -62.368)" fill="#81b722"/>
      <path id="Trazado_251054" data-name="Trazado 251054" d="M376.085,85.04H169.995L66.95,263.518,169.995,442h206.09L479.14,263.518Z" transform="translate(-16.693 -62.016)" fill="#e8e8e9"/>
      <path id="Trazado_251056" data-name="Trazado 251056" d="M135.934,365.77H92.591L70.92,403.3l21.671,37.533h43.343L157.606,403.3Z" transform="translate(-16.368 -39.01)" fill="none" stroke="#6bffb8" stroke-miterlimit="10" stroke-width="0.98" stroke-dasharray="2"/>
      <path id="Trazado_251058" data-name="Trazado 251058" d="M421.112,66.21H381.037L361.01,100.919l20.027,34.7h40.075l20.038-34.7Z" transform="translate(7.405 -63.559)" fill="none" stroke="#6bffb8" stroke-miterlimit="10" stroke-width="0.98" stroke-dasharray="2"/>
      <g id="_1-01" data-name="1-01" transform="translate(33.048 -71.507)">
        <g id="OBJECTS-2" data-name="OBJECTS" transform="translate(16.42 94.32)">
          <g id="Grupo_131630" data-name="Grupo 131630" clip-path="url(#clip-path)">
            <g id="Virus_Desinfection-pana" data-name="Virus Desinfection-pana" transform="translate(-86.524 -93.11)">
              <g id="DNA-pana" transform="translate(53.916 16.889)">
                <g id="freepik--background-complete--inject-22" transform="translate(31.738 49.347)">
                  <path id="Trazado_254019" data-name="Trazado 254019" d="M432.823,147v-6.041c0-3.922,0-9.628-.054-16.847,0-14.42-.054-34.835-.081-58.874l.172.181H378.713l.19-.19v81.762l-.154-.154,39.382.082h.063L378.713,147h-.163V64.88h54.49v.181c0,24.093-.063,44.545-.091,58.992,0,7.2,0,12.9-.045,16.8v5.589A2.868,2.868,0,0,1,432.823,147Z" transform="translate(-65.423 -53.929)" fill="#e0e0e0"/>
                  <path id="Trazado_254020" data-name="Trazado 254020" d="M447.55,52.79a12.669,12.669,0,0,1-1.277,1.866c-.842,1.114-2.029,2.636-3.378,4.284s-2.627,3.1-3.56,4.139a12.97,12.97,0,0,1-1.585,1.612,12.68,12.68,0,0,1,1.377-1.812l3.46-4.212,3.469-4.2A13.591,13.591,0,0,1,447.55,52.79Z" transform="translate(-71.002 -52.79)" fill="#e0e0e0"/>
                  <path id="Trazado_254021" data-name="Trazado 254021" d="M438.78,155.25a67.022,67.022,0,0,0,9.438,11.775" transform="translate(-71.099 -62.447)" fill="#fff"/>
                  <path id="Trazado_254022" data-name="Trazado 254022" d="M448.218,167.052a10.425,10.425,0,0,1-1.648-1.494,52.373,52.373,0,0,1-3.56-4.012c-1.3-1.639-2.391-3.2-3.134-4.357a10.13,10.13,0,0,1-1.1-1.938,15.7,15.7,0,0,1,1.322,1.811c.8,1.114,1.911,2.636,3.215,4.266s2.545,3.052,3.451,4.067A16.8,16.8,0,0,1,448.218,167.052Z" transform="translate(-71.099 -62.446)" fill="#e0e0e0"/>
                  <path id="Trazado_254023" data-name="Trazado 254023" d="M368.84,166.719l9.429-11.639" transform="translate(-64.507 -62.43)" fill="#fff"/>
                  <path id="Trazado_254024" data-name="Trazado 254024" d="M378.273,155.08a69.411,69.411,0,0,1-4.529,5.942,70.581,70.581,0,0,1-4.864,5.7,72.9,72.9,0,0,1,4.529-5.942A72.564,72.564,0,0,1,378.273,155.08Z" transform="translate(-64.511 -62.43)" fill="#e0e0e0"/>
                  <path id="Trazado_254025" data-name="Trazado 254025" d="M368.85,52.79a63.619,63.619,0,0,1,4.529,5.435,66.612,66.612,0,0,1,4.275,5.715,64.628,64.628,0,0,1-4.583-5.435,67.545,67.545,0,0,1-4.221-5.715Z" transform="translate(-64.508 -52.79)" fill="#e0e0e0"/>
                  <path id="Trazado_254026" data-name="Trazado 254026" d="M416.336,113.492a5.8,5.8,0,1,1-2.074-7.934,5.8,5.8,0,0,1,2.074,7.934Z" transform="translate(-67.966 -57.688)" fill="#e0e0e0"/>
                  <path id="Trazado_254027" data-name="Trazado 254027" d="M430.981,95.991a4.33,4.33,0,1,1-1.549-5.933,4.33,4.33,0,0,1,1.549,5.933Z" transform="translate(-69.604 -56.247)" fill="#e0e0e0"/>
                  <path id="Trazado_254028" data-name="Trazado 254028" d="M411.392,93.129a3.134,3.134,0,1,1-1.132-4.293A3.134,3.134,0,0,1,411.392,93.129Z" transform="translate(-67.967 -56.147)" fill="#e0e0e0"/>
                  <path id="Trazado_254029" data-name="Trazado 254029" d="M409.9,134.21a1.956,1.956,0,1,1,1.395-2.364A1.956,1.956,0,0,1,409.9,134.21Z" transform="translate(-68.146 -60.101)" fill="#e0e0e0"/>
                  <path id="Trazado_254030" data-name="Trazado 254030" d="M392.983,104.669a3.134,3.134,0,1,1,.329-2.38,3.134,3.134,0,0,1-.329,2.38Z" transform="translate(-66.233 -57.234)" fill="#e0e0e0"/>
                  <path id="Trazado_254031" data-name="Trazado 254031" d="M411.742,111.17c.217,0,0,4.221-.471,9.384s-1.033,9.338-1.25,9.32,0-4.221.471-9.393S411.534,111.152,411.742,111.17Z" transform="translate(-68.381 -58.292)" fill="#e0e0e0"/>
                  <path id="Trazado_254032" data-name="Trazado 254032" d="M409.305,110.722c-.082.2-4.139-1.25-9.058-3.224s-8.849-3.75-8.768-3.949,4.139,1.241,9.058,3.224S409.387,110.522,409.305,110.722Z" transform="translate(-66.641 -57.572)" fill="#e0e0e0"/>
                  <path id="Trazado_254033" data-name="Trazado 254033" d="M412.071,107.02c-.2.063-1.413-3.188-2.083-7.409s-.534-7.69-.335-7.681.435,3.406,1.105,7.563S412.289,106.956,412.071,107.02Z" transform="translate(-68.339 -56.479)" fill="#e0e0e0"/>
                  <path id="Trazado_254034" data-name="Trazado 254034" d="M426.263,94.242h0l-.081.118-.371.435-1.413,1.54c-1.214,1.286-2.907,3.043-4.8,4.954-3.8,3.831-6.893,6.9-7.038,6.766s2.717-3.478,6.476-7.309c1.9-1.92,3.623-3.623,4.973-4.8.652-.6,1.2-1.06,1.594-1.368a5.692,5.692,0,0,1,.471-.335l.145-.063h0C426.164,94.124,426.263,94.242,426.263,94.242Z" transform="translate(-68.627 -56.689)" fill="#e0e0e0"/>
                  <path id="Trazado_254035" data-name="Trazado 254035" d="M395.853,380.449a30.8,30.8,0,0,0-13.179-4.529c-2.156-.217-4.529-.154-6.232,1.15a1.286,1.286,0,0,0-.643,1.141,1.459,1.459,0,0,0,.607.779,18.858,18.858,0,0,0,19.447,1.467" transform="translate(-65.163 -83.235)" fill="#e0e0e0"/>
                  <path id="Trazado_254036" data-name="Trazado 254036" d="M396.11,378.37a63.886,63.886,0,0,1-8.514-7.491,21.5,21.5,0,0,1-5.335-9.864,4.022,4.022,0,0,1,.417-3.306c6.784,5.3,12.119,12.155,13.432,20.66" transform="translate(-65.755 -81.528)" fill="#e0e0e0"/>
                  <path id="Trazado_254037" data-name="Trazado 254037" d="M397.815,378.758a30.9,30.9,0,0,1,.163-11.177,15.072,15.072,0,0,1,5.951-9.221c1.168,2.717.67,5.9-.154,8.759a42.49,42.49,0,0,1-5.906,12.427" transform="translate(-67.198 -81.589)" fill="#e0e0e0"/>
                  <path id="Trazado_254038" data-name="Trazado 254038" d="M403.481,394a19.557,19.557,0,0,0-10.57,5.353,19.99,19.99,0,0,0-6.05,10.38c3.967-.245,7.328-3.043,9.764-6.168s4.121-6.567,6.8-9.5" transform="translate(-66.206 -84.948)" fill="#e0e0e0"/>
                  <path id="Trazado_254039" data-name="Trazado 254039" d="M406.611,393.575a26.068,26.068,0,0,1,3.007-24.655c2.3,8.152,1.458,17.418-3.007,24.655" transform="translate(-67.896 -82.584)" fill="#e0e0e0"/>
                  <path id="Trazado_254040" data-name="Trazado 254040" d="M414.6,407.686a18.849,18.849,0,0,0-18.016,10.38,1.386,1.386,0,0,0-.127,1.413,1.322,1.322,0,0,0,1.2.344c3.551-.226,6.7-2.364,9.3-4.8s4.855-5.244,7.726-7.346" transform="translate(-67.097 -86.234)" fill="#e0e0e0"/>
                  <path id="Trazado_254041" data-name="Trazado 254041" d="M416.034,404.46a33.675,33.675,0,0,1-.335-18.749c.661-2.409,1.811-4.955,4-6.087a.616.616,0,0,1,1.005.344,11.367,11.367,0,0,1,.906,5.38,33.676,33.676,0,0,1-.842,5.435c-.706,3.324-1.078,6.9-2.907,9.773A19.612,19.612,0,0,0,416.7,402.7c-.344.734-.344.987-.661,1.567" transform="translate(-68.813 -83.579)" fill="#e0e0e0"/>
                  <path id="Trazado_254051" data-name="Trazado 254051" d="M447.939,330.054c-.643-6.53-.226-11.693-.679-18.26,0-.525-.145-1.159-.643-1.35-.679-.263-1.25.58-1.476,1.277a20.95,20.95,0,0,0,2.79,18.242" transform="translate(-71.608 -77.068)" fill="#e0e0e0"/>
                  <path id="Trazado_254055" data-name="Trazado 254055" d="M419.843,347.986c-3.36-6.775-3.143-14.682-.245-21.666,2.047,3.116,2.292,7.074,1.92,10.778s-1.5,7.509-1.576,11.222" transform="translate(-69.082 -78.569)" fill="#e0e0e0"/>
                  <path id="Trazado_254056" data-name="Trazado 254056" d="M402.954,342.78a30.189,30.189,0,0,0-22.454,9.565,21.014,21.014,0,0,0,12.291-2.283,62.062,62.062,0,0,0,10.543-7.083" transform="translate(-65.606 -80.12)" fill="#e0e0e0"/>
                  <path id="Trazado_254057" data-name="Trazado 254057" d="M393.14,339.409c-4.1-.335-8.043-.842-11.992.362A14.365,14.365,0,0,0,372,347.524a21.737,21.737,0,0,0,11.231-2.129,65.218,65.218,0,0,0,9.891-5.987" transform="translate(-64.805 -79.765)" fill="#e0e0e0"/>
                  <path id="Trazado_254058" data-name="Trazado 254058" d="M407.579,338.945c-3.7-2.418-7.481-4.882-11.775-5.878s-9.275-.263-12.264,2.971c3.478,2.047,7.69,2.283,11.72,2.283s8.976-.054,12.771,1.3" transform="translate(-65.893 -79.166)" fill="#e0e0e0"/>
                  <path id="Trazado_254059" data-name="Trazado 254059" d="M409.355,337.128c-6.34-6.186-8.7-17.309-6.159-25.778a39.31,39.31,0,0,1,6.159,25.778" transform="translate(-67.651 -77.158)" fill="#e0e0e0"/>
                  <path id="Trazado_254060" data-name="Trazado 254060" d="M429.24,318.323c1.2-2.763,2.029-5.661,3.1-8.478a24.329,24.329,0,0,1,4.411-7.817,11.6,11.6,0,0,1,7.808-4.049,31.448,31.448,0,0,1-15.162,20.389" transform="translate(-70.2 -75.898)" fill="#e0e0e0"/>
                  <path id="Trazado_254061" data-name="Trazado 254061" d="M424.083,323.324c-1.966-2.717-4.239-6.386-6.911-8.405s-6.141-3.252-9.4-2.473a21.892,21.892,0,0,0,16.3,10.869" transform="translate(-68.176 -77.239)" fill="#e0e0e0"/>
                  <path id="Trazado_254062" data-name="Trazado 254062" d="M426.115,318.576a46.608,46.608,0,0,1-3.143-10.072,15.678,15.678,0,0,1,1.576-10.244c3.46,6.549,4.574,13.586,1.712,20.389" transform="translate(-69.584 -75.925)" fill="#e0e0e0"/>
                  <path id="Trazado_254063" data-name="Trazado 254063" d="M429.276,296.819c1.956-6.485,7.9-11.258,14.311-13.45a5.334,5.334,0,0,1,2.509-.38,2.174,2.174,0,0,1,1.811,1.549c.236,1.1-.679,2.092-1.531,2.826a48.811,48.811,0,0,1-17.137,9.456" transform="translate(-70.2 -74.483)" fill="#e0e0e0"/>
                  <path id="Trazado_254064" data-name="Trazado 254064" d="M429.346,290.131c.245-4.176.507-8.423,1.866-12.382s3.985-7.681,7.8-9.42c.643,4.23-1.214,8.433-3.46,12.065s-4.964,7.065-6.34,11.123" transform="translate(-70.197 -73.104)" fill="#e0e0e0"/>
                  <path id="Trazado_254065" data-name="Trazado 254065" d="M427.976,293.214c-1.621-4.728-1.812-10.733-4.619-14.845-1.975-2.88-5.145-4.846-6.847-7.889a12,12,0,0,0,.4,8.958,25.986,25.986,0,0,0,5.235,7.491c2.092,2.237,3.886,3.922,5.833,6.286" transform="translate(-68.936 -73.307)" fill="#e0e0e0"/>
                  <path id="Trazado_254066" data-name="Trazado 254066" d="M429.254,434.623c-.127,0-.235-31.538-.245-70.422s.082-70.44.208-70.44.235,31.529.245,70.44S429.381,434.623,429.254,434.623Z" transform="translate(-70.178 -75.501)" fill="#e0e0e0"/>
                  <path id="Trazado_254067" data-name="Trazado 254067" d="M456.828,345a6.413,6.413,0,0,1-1.187.444l-3.261,1.105c-2.717.906-6.53,2.292-10.634,3.976s-7.889,3.152-10.072,5.045a7.408,7.408,0,0,0-2.02,2.672c-.317.743-.371,1.2-.417,1.186a1.1,1.1,0,0,1,0-.326,5.294,5.294,0,0,1,.227-.906,7.246,7.246,0,0,1,1.974-2.853,18.223,18.223,0,0,1,4.375-2.717c1.748-.815,3.686-1.667,5.742-2.509,4.112-1.685,7.925-3,10.706-3.859,1.395-.435,2.527-.752,3.315-.969A7.664,7.664,0,0,1,456.828,345Z" transform="translate(-70.199 -80.33)" fill="#e0e0e0"/>
                  <path id="Trazado_254068" data-name="Trazado 254068" d="M466.093,320.49a4.14,4.14,0,0,1-.335.353l-1.014.951-3.8,3.433-12.572,11.2c-4.909,4.375-9.148,8.55-12.092,11.693-1.467,1.567-2.627,2.862-3.415,3.777-.371.417-.679.761-.906,1.042a2.332,2.332,0,0,1-.344.344,2.421,2.421,0,0,1,.272-.408c.19-.254.471-.625.842-1.1.752-.906,1.884-2.283,3.324-3.886a161.153,161.153,0,0,1,12.019-11.775c4.927-4.357,9.411-8.279,12.681-11.1l3.868-3.324,1.069-.906A2.1,2.1,0,0,1,466.093,320.49Z" transform="translate(-70.424 -78.02)" fill="#e0e0e0"/>
                  <path id="Trazado_254069" data-name="Trazado 254069" d="M444.289,341.862c-.127-.063.906-2.427,1.92-5.435s1.513-5.525,1.648-5.507a18.444,18.444,0,0,1-1.223,5.652,35.7,35.7,0,0,1-1.522,3.786A5.9,5.9,0,0,1,444.289,341.862Z" transform="translate(-71.617 -79.003)" fill="#e0e0e0"/>
                  <path id="Trazado_254070" data-name="Trazado 254070" d="M427.408,361.668a6.235,6.235,0,0,1-.761-.906l-1.929-2.482c-1.63-2.1-3.886-5.009-6.4-8.152s-4.837-6.032-6.521-8.088c-.788-.978-1.458-1.811-1.974-2.455a6.558,6.558,0,0,1-.688-.906,5.375,5.375,0,0,1,.815.815c.507.552,1.223,1.359,2.092,2.364,1.748,2.011,4.112,4.828,6.63,8.016s4.737,6.123,6.34,8.27c.779,1.078,1.4,1.956,1.811,2.581A4.956,4.956,0,0,1,427.408,361.668Z" transform="translate(-68.305 -79.734)" fill="#e0e0e0"/>
                  <path id="Trazado_254071" data-name="Trazado 254071" d="M422.315,354.506a11.3,11.3,0,0,1-2.536-4.746,13.775,13.775,0,0,1-.571-4.773h.2c-.091.362-.154.552-.19.552s0-.208,0-.589h.2a22.368,22.368,0,0,0,.815,4.647A35.317,35.317,0,0,0,422.315,354.506Z" transform="translate(-69.252 -80.325)" fill="#e0e0e0"/>
                  <path id="Trazado_254072" data-name="Trazado 254072" d="M412.58,344.46a8.434,8.434,0,0,0-1.766-1.023,11.676,11.676,0,0,0-4.909-.389,30.337,30.337,0,0,0-4.945.8,15.4,15.4,0,0,1-2.029.489,6.857,6.857,0,0,1,1.947-.8,22.07,22.07,0,0,1,4.991-.906,10.724,10.724,0,0,1,5.063.543A3.188,3.188,0,0,1,412.58,344.46Z" transform="translate(-67.343 -80.098)" fill="#e0e0e0"/>
                  <path id="Trazado_254073" data-name="Trazado 254073" d="M410,341.7c0,.072-1.033-.417-2.717-.987a27.173,27.173,0,0,0-13.65-1.042c-1.748.308-2.8.643-2.826.562a2.761,2.761,0,0,1,.716-.308,17.729,17.729,0,0,1,2.047-.571,24.111,24.111,0,0,1,13.822,1.051,17.761,17.761,0,0,1,1.929.906A2.97,2.97,0,0,1,410,341.7Z" transform="translate(-66.578 -79.745)" fill="#e0e0e0"/>
                  <path id="Trazado_254074" data-name="Trazado 254074" d="M428.875,329.491a56.385,56.385,0,0,1-1.974-6.857,56.451,56.451,0,0,1-1.531-6.974,55.527,55.527,0,0,1,1.975,6.866A54.575,54.575,0,0,1,428.875,329.491Z" transform="translate(-69.835 -77.565)" fill="#e0e0e0"/>
                  <path id="Trazado_254075" data-name="Trazado 254075" d="M428.82,330.157a34.316,34.316,0,0,0-2.156-4.1,18.313,18.313,0,0,0-3.225-3.324,2.934,2.934,0,0,1,1.241.643,9.845,9.845,0,0,1,2.355,2.418,9.121,9.121,0,0,1,1.784,4.366Z" transform="translate(-69.653 -78.231)" fill="#e0e0e0"/>
                  <path id="Trazado_254076" data-name="Trazado 254076" d="M426.274,425.929c-.054,0-.145-.761-.5-2.1a30.084,30.084,0,0,0-2.11-5.435,75.236,75.236,0,0,0-11.177-15.751c-2.5-2.853-4.918-5.543-6.974-8.152a57.543,57.543,0,0,1-4.991-7.192,35.118,35.118,0,0,1-2.518-5.335c-.226-.661-.4-1.168-.489-1.522a2.2,2.2,0,0,1-.127-.552s.263.725.788,2.011a38.175,38.175,0,0,0,2.627,5.235,59.665,59.665,0,0,0,5.036,7.092c2.065,2.554,4.529,5.226,6.992,8.088a71.617,71.617,0,0,1,11.123,15.905,27.091,27.091,0,0,1,1.993,5.561c.145.679.245,1.214.281,1.576a2.394,2.394,0,0,1,.045.571Z" transform="translate(-67.198 -83.618)" fill="#e0e0e0"/>
                  <path id="Trazado_254077" data-name="Trazado 254077" d="M454.183,399.669a13.343,13.343,0,0,1-1.3.734,27.385,27.385,0,0,0-3.387,2.237,39.007,39.007,0,0,0-4.438,4.049c-1.567,1.649-3.17,3.569-4.81,5.616-3.279,4.112-6.34,7.753-8.152,10.661-.906,1.449-1.612,2.663-2.056,3.514a11.421,11.421,0,0,1-.716,1.313.936.936,0,0,1,.118-.371c.118-.236.226-.589.444-1.023a31.927,31.927,0,0,1,1.938-3.623,123.616,123.616,0,0,1,8.1-10.769c1.648-2.056,3.27-3.976,4.864-5.625a36.546,36.546,0,0,1,4.529-4.022,23.757,23.757,0,0,1,3.5-2.138c.435-.217.788-.344,1.014-.453S454.174,399.651,454.183,399.669Z" transform="translate(-70.207 -85.482)" fill="#e0e0e0"/>
                  <path id="Trazado_254078" data-name="Trazado 254078" d="M455.519,409.737a18.36,18.36,0,0,1-2.763.4,36.959,36.959,0,0,0-6.539,1.3,19.718,19.718,0,0,0-5.86,3.071c-1.35,1.042-1.984,1.9-2.047,1.857a2.092,2.092,0,0,1,.408-.634,10.487,10.487,0,0,1,1.44-1.476A17.707,17.707,0,0,1,446.081,411a29.22,29.22,0,0,1,6.648-1.177A15.635,15.635,0,0,1,455.519,409.737Z" transform="translate(-71.055 -86.428)" fill="#e0e0e0"/>
                  <path id="Trazado_254079" data-name="Trazado 254079" d="M439.2,414.967c-.145-.082,1.1-1.975,2.065-4.529s1.114-4.837,1.277-4.819a4.349,4.349,0,0,1-.045,1.485,15.818,15.818,0,0,1-.806,3.487,16.549,16.549,0,0,1-1.6,3.2C439.6,414.56,439.253,415.022,439.2,414.967Z" transform="translate(-71.137 -86.043)" fill="#e0e0e0"/>
                  <path id="Trazado_254080" data-name="Trazado 254080" d="M462.241,372.62a2.083,2.083,0,0,1-.444.235l-1.3.589c-.571.245-1.259.552-2.038.96s-1.685.815-2.636,1.386l-1.5.86c-.525.3-1.042.652-1.585,1-1.114.67-2.219,1.5-3.406,2.346a58.362,58.362,0,0,0-13.124,13.586c-.806,1.214-1.594,2.355-2.228,3.487-.326.562-.67,1.087-.951,1.621s-.543,1.042-.8,1.531c-.543.969-.906,1.893-1.3,2.717s-.67,1.495-.906,2.065l-.543,1.322a.254.254,0,1,1-.082,0c.118-.353.272-.8.462-1.35s.462-1.3.824-2.1.716-1.739,1.241-2.717c.245-.5.507-1.014.779-1.549s.607-1.078.906-1.648c.625-1.15,1.4-2.3,2.21-3.532a56.158,56.158,0,0,1,13.215-13.677c1.2-.842,2.328-1.667,3.451-2.328.562-.344,1.087-.688,1.612-.987l1.531-.833c.96-.552,1.884-.951,2.717-1.331a22.463,22.463,0,0,1,2.074-.906l1.331-.507A1.716,1.716,0,0,1,462.241,372.62Z" transform="translate(-70.196 -82.933)" fill="#e0e0e0"/>
                  <path id="Trazado_254081" data-name="Trazado 254081" d="M443.92,386.858A3.07,3.07,0,0,1,445,385.246a6.829,6.829,0,0,1,4.366-1.676,11.829,11.829,0,0,1,4.6.906,6.186,6.186,0,0,1,1.73.842,10.524,10.524,0,0,1-1.811-.534,13.957,13.957,0,0,0-4.474-.752,7.056,7.056,0,0,0-4.166,1.467,12.489,12.489,0,0,0-1.322,1.359Z" transform="translate(-71.583 -83.965)" fill="#e0e0e0"/>
                  <path id="Trazado_254082" data-name="Trazado 254082" d="M440.66,389.692a15.86,15.86,0,0,0,1.214-4.031,17.133,17.133,0,0,0-.272-4.212,2.716,2.716,0,0,1,.507,1.177,8.333,8.333,0,0,1-.707,6.041C441.049,389.366,440.705,389.729,440.66,389.692Z" transform="translate(-71.276 -83.765)" fill="#e0e0e0"/>
                  <path id="Trazado_254083" data-name="Trazado 254083" d="M405.23,435.71c.679,12.046,4.311,24.31,9.9,36.7h24.31c5.326-12.273,8.7-24.51,9.3-36.7Z" transform="translate(-67.937 -88.879)" fill="#e0e0e0"/>
                  <path id="Trazado_254084" data-name="Trazado 254084" d="M445.193,457.216c0,.127-8,.226-17.862.226s-17.861-.1-17.861-.226,7.989-.226,17.861-.226S445.193,457.09,445.193,457.216Z" transform="translate(-68.337 -90.885)" fill="#fafafa"/>
                  <path id="Trazado_254085" data-name="Trazado 254085" d="M444.825,462.036c0,.127-7.5.227-16.747.227s-16.747-.1-16.747-.227,7.5-.226,16.747-.226S444.825,461.91,444.825,462.036Z" transform="translate(-68.512 -91.339)" fill="#fafafa"/>
                  <path id="Trazado_254086" data-name="Trazado 254086" d="M416.566,444.44a69.308,69.308,0,0,1,0,11.2A69.294,69.294,0,0,1,416.566,444.44Z" transform="translate(-68.984 -89.702)" fill="#fafafa"/>
                  <path id="Trazado_254087" data-name="Trazado 254087" d="M430.977,444.44a74.277,74.277,0,0,1,0,11.594A74.277,74.277,0,0,1,430.977,444.44Z" transform="translate(-70.342 -89.702)" fill="#fafafa"/>
                  <path id="Trazado_254088" data-name="Trazado 254088" d="M444.426,444.34a77.241,77.241,0,0,1,0,11.82,77.249,77.249,0,0,1,0-11.82Z" transform="translate(-71.61 -89.692)" fill="#fafafa"/>
                  <path id="Trazado_254089" data-name="Trazado 254089" d="M448.04,444.417c0,.127-9.375.235-20.95.235s-20.95-.109-20.95-.235,9.384-.227,20.95-.227S448.04,444.3,448.04,444.417Z" transform="translate(-68.023 -89.678)" fill="#fafafa"/>
                  <circle id="Elipse_6133" data-name="Elipse 6133" cx="4.637" cy="4.637" r="4.637" transform="translate(5.38 175.589)" fill="#f5f5f5"/>
                  <circle id="Elipse_6134" data-name="Elipse 6134" cx="4.637" cy="4.637" r="4.637" transform="translate(241.265 235.097)" fill="#f5f5f5"/>
                  <path id="Trazado_254091" data-name="Trazado 254091" d="M64.245,399.006a4.637,4.637,0,1,1-1.355-3.285A4.637,4.637,0,0,1,64.245,399.006Z" transform="translate(-34.926 -84.982)" fill="#f5f5f5"/>
                  <path id="Trazado_254092" data-name="Trazado 254092" d="M48.33,295.737l.317-.136c.281-.127.562-.263.851-.371Z" transform="translate(-34.3 -75.639)" fill="#f5f5f5"/>
                  <path id="Trazado_254094" data-name="Trazado 254094" d="M452.951,251.54h-.308c-.272,0-.552.045-.833.045Z" transform="translate(-72.327 -71.522)" fill="#f5f5f5"/>
                </g>
                <g id="freepik--DNA--inject-22" transform="translate(59.14 59.154)" opacity="0.6">
                  <path id="Trazado_254097" data-name="Trazado 254097" d="M87.232,302.095,21.14,16.26H246.605L180.874,302.095C180.874,303.739,104.721,308.68,87.232,302.095Z" transform="translate(-21.14 -16.26)" fill="#ff725e"/>
                  <g id="Grupo_145861" data-name="Grupo 145861" opacity="0.95">
                    <path id="Trazado_254098" data-name="Trazado 254098" d="M87.232,302.095,21.14,16.26H246.605L180.874,302.095C180.874,303.739,104.721,308.68,87.232,302.095Z" transform="translate(-21.14 -16.26)" fill="#fff"/>
                  </g>
                  <path id="Trazado_254099" data-name="Trazado 254099" d="M235.377,198.836c5.576-12.468-1.116-28.928-13.805-33.975-6.839-2.714-14.935-2.52-20.792-6.98-6.278-4.793-8.022-13.638-7.147-21.487s3.857-15.316,5.168-23.1.6-16.58-4.813-22.336c-4.941-5.248-13.016-6.792-20.009-5.014s-12.97,6.431-17.636,11.927a55.268,55.268,0,0,0-13.016,33.487c-.435,11.8,2.928,23.359,5.114,34.958s3.1,24.067-1.892,34.764c-6.117,13.1-20.511,22.3-22.276,36.636-1.451,11.813,6.4,23.272,5.088,35.105-.956,8.651-6.619,15.925-10.489,23.727s-.087,17.482.187,28.393c0,0,2.774,3.109,25.8,3.155s66.974-.5,67.87-3.155c5.723-17.008,13.932-54.653,8.524-71.754-2.32-7.354-6.732-14.414-6.137-22.1C216.083,218.25,230.083,210.6,235.377,198.836Z" transform="translate(-52.959 -39.122)" fill="#ff725e"/>
                  <g id="Grupo_145862" data-name="Grupo 145862" transform="translate(64.179 46.111)" opacity="0.9">
                    <path id="Trazado_254100" data-name="Trazado 254100" d="M235.377,198.836c5.576-12.468-1.116-28.928-13.805-33.975-6.839-2.714-14.935-2.52-20.792-6.98-6.278-4.793-8.022-13.638-7.147-21.487s3.857-15.316,5.168-23.1.6-16.58-4.813-22.336c-4.941-5.248-13.016-6.792-20.009-5.014s-12.97,6.431-17.636,11.927a55.268,55.268,0,0,0-13.016,33.487c-.435,11.8,2.928,23.359,5.114,34.958s3.1,24.067-1.892,34.764c-6.117,13.1-20.511,22.3-22.276,36.636-1.451,11.813,6.4,23.272,5.088,35.105-.956,8.651-6.619,15.925-10.489,23.727s-.087,17.482.187,28.393c0,0,2.774,3.109,25.8,3.155s66.974-.5,67.87-3.155c5.723-17.008,13.932-54.653,8.524-71.754-2.32-7.354-6.732-14.414-6.137-22.1C216.083,218.25,230.083,210.6,235.377,198.836Z" transform="translate(-117.138 -85.233)" fill="#fff"/>
                  </g>
                  <path id="Trazado_254101" data-name="Trazado 254101" d="M91.559,208.223c-4.633-3.931-4.205-11.365-1.564-16.854s6.973-10.028,9.36-15.6a25.993,25.993,0,0,0-4.68-27.323c-2.587-2.794-5.836-5.047-7.748-8.337-4.432-7.635-.267-18.051-4.493-25.786-4.86-8.9-18.8-10.643-21.895-20.3C58.693,88.26,62.076,81.6,67.458,78.854s12.154-1.925,17.322,1.21,8.872,8.3,11.231,13.866a42.606,42.606,0,0,1,2.233,26.18c-1.584,6.772-4.767,14.24-1.277,20.257s11.679,7.2,16.105,12.435,3.944,12.789,2.547,19.388a92.4,92.4,0,0,1-11.365,28.794c-1.511,2.5-3.236,5.021-5.79,6.445s-6.137,1.4-8.063-.8" transform="translate(-34.031 -36.455)" fill="#ff725e"/>
                  <path id="Trazado_254102" data-name="Trazado 254102" d="M237.52,16.26a35.814,35.814,0,0,1,8.892,26.474c-.361,4.392-1.531,8.892-.281,13.11,1.337,4.513,5.275,7.875,9.614,9.7,12.7,5.348,28.119-1.437,36.054-12.7s9.821-22.817,9.152-36.583Z" transform="translate(-92.861 -16.26)" fill="#ff725e"/>
                  <g id="Grupo_145863" data-name="Grupo 145863" transform="translate(26 40.733)" opacity="0.9">
                    <path id="Trazado_254103" data-name="Trazado 254103" d="M91.559,208.223c-4.633-3.931-4.205-11.365-1.564-16.854s6.973-10.028,9.36-15.6a25.993,25.993,0,0,0-4.68-27.323c-2.587-2.794-5.836-5.047-7.748-8.337-4.432-7.635-.267-18.051-4.493-25.786-4.86-8.9-18.8-10.643-21.895-20.3C58.693,88.26,62.076,81.6,67.458,78.854s12.154-1.925,17.322,1.21,8.872,8.3,11.231,13.866a42.606,42.606,0,0,1,2.233,26.18c-1.584,6.772-4.767,14.24-1.277,20.257s11.679,7.2,16.105,12.435,3.944,12.789,2.547,19.388a92.4,92.4,0,0,1-11.365,28.794c-1.511,2.5-3.236,5.021-5.79,6.445s-6.137,1.4-8.063-.8" transform="translate(-60.03 -77.188)" fill="#fff"/>
                  </g>
                  <g id="Grupo_145864" data-name="Grupo 145864" transform="translate(144.659)" opacity="0.9">
                    <path id="Trazado_254104" data-name="Trazado 254104" d="M237.52,16.26a35.814,35.814,0,0,1,8.892,26.474c-.361,4.392-1.531,8.892-.281,13.11,1.337,4.513,5.275,7.875,9.614,9.7,12.7,5.348,28.119-1.437,36.054-12.7s9.821-22.817,9.152-36.583Z" transform="translate(-237.52 -16.26)" fill="#fff"/>
                  </g>
                  <path id="Trazado_254105" data-name="Trazado 254105" d="M255.064,217.212a1.852,1.852,0,1,1-1.852-1.852,1.852,1.852,0,0,1,1.852,1.852Z" transform="translate(-97.449 -82.254)" fill="#ff725e"/>
                  <path id="Trazado_254106" data-name="Trazado 254106" d="M218.087,389.419a1.859,1.859,0,1,1-1.859-1.859A1.859,1.859,0,0,1,218.087,389.419Z" transform="translate(-85.188 -139.331)" fill="#ff725e"/>
                  <path id="Trazado_254107" data-name="Trazado 254107" d="M190.088,180.162a3.269,3.269,0,1,1-3.262-3.262,3.269,3.269,0,0,1,3.262,3.262Z" transform="translate(-74.972 -69.506)" fill="#ff725e"/>
                  <path id="Trazado_254108" data-name="Trazado 254108" d="M177.878,275.019a3.263,3.263,0,1,1-.953-2.311A3.269,3.269,0,0,1,177.878,275.019Z" transform="translate(-70.925 -100.945)" fill="#ff725e"/>
                  <path id="Trazado_254109" data-name="Trazado 254109" d="M217.847,52.222a1.859,1.859,0,1,1-1.859-1.852,1.858,1.858,0,0,1,1.859,1.852Z" transform="translate(-85.108 -27.566)" fill="#ff725e"/>
                  <path id="Trazado_254110" data-name="Trazado 254110" d="M293.407,125.082a1.859,1.859,0,1,1-1.859-1.852,1.858,1.858,0,0,1,1.859,1.852Z" transform="translate(-110.153 -51.716)" fill="#ff725e"/>
                  <path id="Trazado_254111" data-name="Trazado 254111" d="M85.347,163.139a1.852,1.852,0,1,1-.54-1.314A1.858,1.858,0,0,1,85.347,163.139Z" transform="translate(-41.19 -64.328)" fill="#ff725e"/>
                  <path id="Trazado_254112" data-name="Trazado 254112" d="M263.28,148.245a4.2,4.2,0,1,1-1.227-2.973A4.205,4.205,0,0,1,263.28,148.245Z" transform="translate(-98.612 -58.614)" fill="#ff725e"/>
                  <circle id="Elipse_6135" data-name="Elipse 6135" cx="7.528" cy="7.528" r="7.528" transform="translate(69.931 22.847) rotate(-7)" fill="#ff725e"/>
                  <g id="Grupo_145865" data-name="Grupo 145865" transform="translate(100.415 107.394)" opacity="0.6">
                    <path id="Trazado_254113" data-name="Trazado 254113" d="M255.064,217.212a1.852,1.852,0,1,1-1.852-1.852,1.852,1.852,0,0,1,1.852,1.852Z" transform="translate(-197.863 -189.648)" fill="#fff"/>
                    <path id="Trazado_254114" data-name="Trazado 254114" d="M218.087,389.419a1.859,1.859,0,1,1-1.859-1.859A1.859,1.859,0,0,1,218.087,389.419Z" transform="translate(-185.603 -246.725)" fill="#fff"/>
                    <path id="Trazado_254115" data-name="Trazado 254115" d="M190.088,180.162a3.269,3.269,0,1,1-3.262-3.262,3.269,3.269,0,0,1,3.262,3.262Z" transform="translate(-175.387 -176.9)" fill="#fff"/>
                    <path id="Trazado_254116" data-name="Trazado 254116" d="M177.878,275.019a3.263,3.263,0,1,1-.953-2.311A3.269,3.269,0,0,1,177.878,275.019Z" transform="translate(-171.34 -208.339)" fill="#fff"/>
                  </g>
                  <g id="Grupo_145866" data-name="Grupo 145866" transform="translate(129.022 22.804)" opacity="0.8">
                    <path id="Trazado_254117" data-name="Trazado 254117" d="M217.847,52.222a1.859,1.859,0,1,1-1.859-1.852,1.858,1.858,0,0,1,1.859,1.852Z" transform="translate(-214.13 -50.37)" fill="#fff"/>
                  </g>
                  <g id="Grupo_145867" data-name="Grupo 145867" transform="translate(179.537 71.514)" opacity="0.8">
                    <path id="Trazado_254118" data-name="Trazado 254118" d="M293.407,125.082a1.859,1.859,0,1,1-1.859-1.852,1.858,1.858,0,0,1,1.859,1.852Z" transform="translate(-289.69 -123.23)" fill="#fff"/>
                  </g>
                  <g id="Grupo_145868" data-name="Grupo 145868" transform="translate(40.44 96.952)" opacity="0.8">
                    <path id="Trazado_254119" data-name="Trazado 254119" d="M85.347,163.139a1.852,1.852,0,1,1-.54-1.314A1.858,1.858,0,0,1,85.347,163.139Z" transform="translate(-81.63 -161.28)" fill="#fff"/>
                  </g>
                  <g id="Grupo_145869" data-name="Grupo 145869" transform="translate(156.258 85.426)" opacity="0.8">
                    <path id="Trazado_254120" data-name="Trazado 254120" d="M263.28,148.245a4.2,4.2,0,1,1-1.227-2.973A4.205,4.205,0,0,1,263.28,148.245Z" transform="translate(-254.87 -144.04)" fill="#fff"/>
                  </g>
                  <g id="Grupo_145870" data-name="Grupo 145870" transform="translate(69.931 21.012)" opacity="0.8">
                    <circle id="Elipse_6136" data-name="Elipse 6136" cx="7.528" cy="7.528" r="7.528" transform="translate(0 1.835) rotate(-7)" fill="#fff"/>
                  </g>
                  <path id="Trazado_254121" data-name="Trazado 254121" d="M225.834,82.529,206.881,69.94l-12.341,6.3s26.073,11.78,29.5,20.845l5.569-9.493Z" transform="translate(-78.615 -34.053)" fill="#ff725e"/>
                  <g id="Grupo_145871" data-name="Grupo 145871" transform="translate(115.925 35.887)" opacity="0.3">
                    <path id="Trazado_254122" data-name="Trazado 254122" d="M225.834,82.529,206.881,69.94l-12.341,6.3s26.073,11.78,29.5,20.845l5.569-9.493Z" transform="translate(-194.54 -69.94)"/>
                  </g>
                  <path id="Trazado_254123" data-name="Trazado 254123" d="M139.015,366.132c3.717,4.78,9.393,10.249,15.784,15.985l13.237-4.085s-23.673-16.078-25.491-25.592L136,359.874Z" transform="translate(-59.211 -127.69)" fill="#ff725e"/>
                  <g id="Grupo_145872" data-name="Grupo 145872" transform="translate(76.789 224.75)" opacity="0.3">
                    <path id="Trazado_254124" data-name="Trazado 254124" d="M139.015,366.132c2.561,3.657,9.139,9.8,15.784,15.985l13.237-4.085s-23.673-16.078-25.491-25.592L136,359.874Z" transform="translate(-136 -352.44)"/>
                  </g>
                  <path id="Trazado_254125" data-name="Trazado 254125" d="M139.562,94.51a25.344,25.344,0,0,0,7.822,15.644c11.887,11.365,58.832,28.5,62.843,38.976s-5.308,19.7-5.308,19.7,3.5-7.969-7.26-15.376-41.236-21.962-46.383-25.705c-5.515-4.011-13.438-6.866-16.045-17.322S139.562,94.51,139.562,94.51Z" transform="translate(-58.762 -42.197)" fill="#ff725e"/>
                  <path id="Trazado_254126" data-name="Trazado 254126" d="M139.562,177.48a25.364,25.364,0,0,0,7.822,15.651c11.887,11.365,58.832,28.493,62.843,38.969s-5.308,19.7-5.308,19.7,3.5-7.962-7.26-15.376-41.236-21.962-46.383-25.705c-5.515-4.011-13.438-6.866-16.045-17.322S139.562,177.48,139.562,177.48Z" transform="translate(-58.762 -69.698)" fill="#ff725e"/>
                  <path id="Trazado_254127" data-name="Trazado 254127" d="M140.993,257.05a25.364,25.364,0,0,0,7.822,15.651c11.88,11.365,58.832,28.493,62.843,38.976s-5.308,19.7-5.308,19.7,3.49-7.962-7.267-15.376-41.209-21.955-46.33-25.692c-5.515-4.011-13.438-6.873-16.045-17.322S140.993,257.05,140.993,257.05Z" transform="translate(-59.251 -96.072)" fill="#ff725e"/>
                  <g id="Grupo_145873" data-name="Grupo 145873" transform="translate(75.882 107.782)" opacity="0.3">
                    <path id="Trazado_254128" data-name="Trazado 254128" d="M139.562,177.48a25.364,25.364,0,0,0,7.822,15.651c11.887,11.365,58.832,28.493,62.843,38.969s-5.308,19.7-5.308,19.7,3.5-7.962-7.26-15.376-41.236-21.962-46.383-25.705c-5.515-4.011-13.438-6.866-16.045-17.322S139.562,177.48,139.562,177.48Z" transform="translate(-134.644 -177.48)"/>
                  </g>
                  <g id="Grupo_145874" data-name="Grupo 145874" transform="translate(76.868 160.978)" opacity="0.3">
                    <path id="Trazado_254129" data-name="Trazado 254129" d="M140.993,257.05a25.364,25.364,0,0,0,7.822,15.651c11.88,11.365,58.832,28.493,62.843,38.976s-5.308,19.7-5.308,19.7,3.49-7.962-7.267-15.376-41.209-21.955-46.33-25.692c-5.515-4.011-13.438-6.873-16.045-17.322S140.993,257.05,140.993,257.05Z" transform="translate(-136.119 -257.05)"/>
                  </g>
                  <rect id="Rectángulo_44105" data-name="Rectángulo 44105" width="46.758" height="5.061" rx="2.53" transform="translate(89.524 183.929)" fill="#455a64"/>
                  <rect id="Rectángulo_44106" data-name="Rectángulo 44106" width="72.844" height="5.061" rx="2.53" transform="translate(76.481 171.748)" fill="#455a64"/>
                  <rect id="Rectángulo_44107" data-name="Rectángulo 44107" width="60.944" height="5.061" rx="2.53" transform="translate(79.175 160.978)" fill="#455a64"/>
                  <rect id="Rectángulo_44108" data-name="Rectángulo 44108" width="35.727" height="5.061" rx="2.53" transform="translate(92.88 148.958)" fill="#455a64"/>
                  <path id="Trazado_254130" data-name="Trazado 254130" d="M186.034,244.381a20.143,20.143,0,0,1,0-5.281A20.141,20.141,0,0,1,186.034,244.381Z" transform="translate(-75.738 -90.122)" fill="#263238"/>
                  <g id="Grupo_145875" data-name="Grupo 145875" transform="translate(75.882 52.313)" opacity="0.3">
                    <path id="Trazado_254131" data-name="Trazado 254131" d="M139.562,94.51a25.344,25.344,0,0,0,7.822,15.644c11.887,11.365,58.832,28.5,62.843,38.976s-5.308,19.7-5.308,19.7,3.5-7.969-7.26-15.376-41.236-21.962-46.383-25.705c-5.515-4.011-13.438-6.866-16.045-17.322S139.562,94.51,139.562,94.51Z" transform="translate(-134.644 -94.51)"/>
                  </g>
                  <rect id="Rectángulo_44109" data-name="Rectángulo 44109" width="46.758" height="5.061" rx="2.53" transform="translate(84.751 73.252)" fill="#455a64"/>
                  <rect id="Rectángulo_44110" data-name="Rectángulo 44110" width="72.844" height="5.061" rx="2.53" transform="translate(76.481 60.496)" fill="#455a64"/>
                  <rect id="Rectángulo_44111" data-name="Rectángulo 44111" width="60.944" height="5.061" rx="2.53" transform="translate(79.175 48.476)" fill="#455a64"/>
                  <rect id="Rectángulo_44112" data-name="Rectángulo 44112" width="46.758" height="5.061" rx="2.53" transform="translate(137.612 212.135) rotate(180)" fill="#455a64"/>
                  <rect id="Rectángulo_44113" data-name="Rectángulo 44113" width="66.7" height="5.061" rx="2.53" transform="translate(145.882 224.89) rotate(180)" fill="#455a64"/>
                  <rect id="Rectángulo_44114" data-name="Rectángulo 44114" width="67.85" height="5.061" rx="2.53" transform="translate(147.948 236.911) rotate(180)" fill="#455a64"/>
                  <rect id="Rectángulo_44115" data-name="Rectángulo 44115" width="46.758" height="5.061" rx="2.53" transform="translate(84.751 128.694)" fill="#455a64"/>
                  <rect id="Rectángulo_44116" data-name="Rectángulo 44116" width="72.844" height="5.061" rx="2.53" transform="translate(76.481 115.938)" fill="#455a64"/>
                  <rect id="Rectángulo_44117" data-name="Rectángulo 44117" width="60.944" height="5.061" rx="2.53" transform="translate(79.175 103.911)" fill="#455a64"/>
                  <rect id="Rectángulo_44118" data-name="Rectángulo 44118" width="35.727" height="5.061" rx="2.53" transform="translate(92.88 91.891)" fill="#455a64"/>
                  <path id="Trazado_254132" data-name="Trazado 254132" d="M203.345,87.5s6.565,3.383,6.251,12.742-4.566,14.334-8.584,17.482c-14.828,11.679-54.787,21.54-61.653,35.118s-1.591,18.686-1.591,18.686-6.919-7.608-7.02-16.045c0-1.658-.12-2.44-.074-3.9.187-5.957,2.674-11.2,8.617-15.584,7.354-5.442,40.179-21.086,40.179-21.086s18.572-7.962,22.63-14.982S203.345,87.5,203.345,87.5Z" transform="translate(-57.443 -39.873)" fill="#ff725e"/>
                  <path id="Trazado_254133" data-name="Trazado 254133" d="M137.733,105.642c-8.31-23.319,26.274-34.7,26.274-34.7L162.4,57.28s-26.675,10.784-30.024,24.469A35.806,35.806,0,0,0,131.589,92a23.185,23.185,0,0,0,3.851,11.1,11.26,11.26,0,0,0,1.845,2.133Z" transform="translate(-57.722 -29.856)" fill="#ff725e"/>
                  <path id="Trazado_254134" data-name="Trazado 254134" d="M231.487,333.427c8.31,23.319-27.6,33.166-27.6,33.166l1.611,13.672s24.876-11.365,30.024-24.475a29.114,29.114,0,0,0,1.638-9.955c.08-6.518-2.9-8.838-5.676-12.435Z" transform="translate(-81.714 -121.379)" fill="#ff725e"/>
                  <path id="Trazado_254135" data-name="Trazado 254135" d="M207.079,170.42s6.211,3.176,5.9,12.535-4.566,14.32-8.584,17.482c-10.289,8.109-33.106,15.31-48.135,23.653-6.632,3.684-11.4,7.8-13.5,11.954-6.866,13.578-1.417,17.776-1.417,17.776s-7.026-6.558-6.866-14.989c0-1.4-.368-2.881-.321-4.138.221-6.311,2.006-10.623,7.655-15.376,6.993-5.9,41.048-21.694,41.048-21.694s18.579-7.962,22.637-14.982S207.079,170.42,207.079,170.42Z" transform="translate(-58.596 -67.358)" fill="#ff725e"/>
                  <path id="Trazado_254136" data-name="Trazado 254136" d="M207.068,252.89s6.211,3.176,5.9,12.535-4.566,14.32-8.584,17.482c-5.843,4.606-15.47,9.105-25.592,13.451-7.006,3-14.34,5.8-20.451,9.032s-11.1,7-13.993,10.636a18.26,18.26,0,0,0-1.778,2.614c-6.866,13.585-1.337,18-1.337,18s-5.195-4.64-6.859-14.1a28.826,28.826,0,0,1-.2-5.723c.254-6.017,1.7-10.6,7.641-15.022a58.722,58.722,0,0,1,6.284-4.239c12.241-6.946,34.764-17.456,34.764-17.456s18.579-7.962,22.637-14.982S207.068,252.89,207.068,252.89Z" transform="translate(-58.585 -94.693)" fill="#ff725e"/>
                  <path id="Trazado_254137" data-name="Trazado 254137" d="M186.533,93.868a10.316,10.316,0,0,1-.174-2.674,10.242,10.242,0,0,1,.174-2.634,9.894,9.894,0,0,1,.174,2.634A9.969,9.969,0,0,1,186.533,93.868Z" transform="translate(-75.896 -40.225)" fill="#263238"/>
                  <path id="Trazado_254138" data-name="Trazado 254138" d="M186.533,112a10.242,10.242,0,0,1-.174-2.634,10.317,10.317,0,0,1,.174-2.674,9.969,9.969,0,0,1,.174,2.674A9.9,9.9,0,0,1,186.533,112Z" transform="translate(-75.896 -46.234)" fill="#263238"/>
                  <path id="Trazado_254139" data-name="Trazado 254139" d="M186.533,131.238a10.283,10.283,0,0,1-.174-2.634,10.277,10.277,0,0,1,.174-2.674,9.929,9.929,0,0,1,.174,2.674A9.934,9.934,0,0,1,186.533,131.238Z" transform="translate(-75.896 -52.611)" fill="#263238"/>
                  <path id="Trazado_254140" data-name="Trazado 254140" d="M186.022,176.955a20.4,20.4,0,0,1,0-5.315,20.4,20.4,0,0,1,0,5.315Z" transform="translate(-75.726 -67.762)" fill="#263238"/>
                  <path id="Trazado_254141" data-name="Trazado 254141" d="M186.534,194.295a20.095,20.095,0,0,1,0-5.275,20.1,20.1,0,0,1,0,5.275Z" transform="translate(-75.897 -73.523)" fill="#263238"/>
                  <path id="Trazado_254142" data-name="Trazado 254142" d="M186.7,213.871a20.143,20.143,0,0,1,0-5.281,20.141,20.141,0,0,1,0,5.281Z" transform="translate(-75.96 -80.01)" fill="#263238"/>
                  <path id="Trazado_254143" data-name="Trazado 254143" d="M186.034,262.171a20.143,20.143,0,0,1,0-5.281A20.141,20.141,0,0,1,186.034,262.171Z" transform="translate(-75.738 -96.019)" fill="#263238"/>
                  <path id="Trazado_254144" data-name="Trazado 254144" d="M186.7,278.275a20.1,20.1,0,0,1,0-5.275,20.1,20.1,0,0,1,0,5.275Z" transform="translate(-75.96 -101.359)" fill="#263238"/>
                  <path id="Trazado_254145" data-name="Trazado 254145" d="M188.094,296.495a20.1,20.1,0,0,1,0-5.275,20.1,20.1,0,0,1,0,5.275Z" transform="translate(-76.421 -107.398)" fill="#263238"/>
                  <path id="Trazado_254146" data-name="Trazado 254146" d="M187.424,350.195a20.1,20.1,0,0,1,0-5.275A20.1,20.1,0,0,1,187.424,350.195Z" transform="translate(-76.199 -125.197)" fill="#263238"/>
                  <path id="Trazado_254147" data-name="Trazado 254147" d="M189.374,330.915a20.1,20.1,0,0,1,0-5.275A20.1,20.1,0,0,1,189.374,330.915Z" transform="translate(-76.845 -118.807)" fill="#263238"/>
                  <path id="Trazado_254148" data-name="Trazado 254148" d="M188.094,368.175a20.1,20.1,0,0,1,0-5.275,20.1,20.1,0,0,1,0,5.275Z" transform="translate(-76.421 -131.157)" fill="#263238"/>
                  <path id="Trazado_254149" data-name="Trazado 254149" d="M194.584,116.42a2.139,2.139,0,0,1-.241.147l-.709.414c-.622.354-1.544.889-2.748,1.544-2.393,1.337-5.89,3.182-10.249,5.409-8.691,4.466-20.939,10.235-34.015,17.449A52.9,52.9,0,0,0,137.4,147.1a18.051,18.051,0,0,0-5.556,8.23,22.528,22.528,0,0,0-1,4.573,29.027,29.027,0,0,0-.094,4.426,31.911,31.911,0,0,0,1.531,7.8,22.891,22.891,0,0,0,2.9,5.87,28.853,28.853,0,0,0,3.162,3.824c.949.989,1.732,1.711,2.246,2.206l.6.562.2.2a1.175,1.175,0,0,1-.221-.174l-.622-.535c-.535-.481-1.337-1.19-2.293-2.159a28.618,28.618,0,0,1-3.229-3.811,22.911,22.911,0,0,1-2.975-5.91,31.8,31.8,0,0,1-1.584-7.855,28.841,28.841,0,0,1,.08-4.479,22.5,22.5,0,0,1,1-4.646,18.378,18.378,0,0,1,5.636-8.383,53.718,53.718,0,0,1,9.279-5.763c13.077-7.214,25.331-12.956,34.1-17.382,4.372-2.193,7.889-4.011,10.3-5.308l2.774-1.484.729-.381A1.093,1.093,0,0,1,194.584,116.42Z" transform="translate(-57.36 -49.459)" fill="#263238"/>
                  <path id="Trazado_254150" data-name="Trazado 254150" d="M206.535,129.13a1.49,1.49,0,0,1-.14.167l-.435.461-.729.735-1.063.923A52.814,52.814,0,0,1,196.7,136.4c-6.585,3.791-16.212,7.969-26.862,12.448a145.272,145.272,0,0,0-14.741,6.939,38.761,38.761,0,0,0-10.429,8.089,22.878,22.878,0,0,0-4.486,7.661,13.882,13.882,0,0,0-.415,1.337c-.114.394-.194.729-.247,1s-.1.461-.14.615a1.035,1.035,0,0,1-.06.214,16.377,16.377,0,0,1,.729-3.216,22.489,22.489,0,0,1,4.439-7.775,38.185,38.185,0,0,1,10.456-8.2,139.8,139.8,0,0,1,14.755-6.946c10.657-4.479,20.284-8.617,26.882-12.341a55.492,55.492,0,0,0,7.5-4.88c.4-.334.769-.628,1.083-.9s.541-.508.742-.709l.468-.435Z" transform="translate(-60.312 -53.672)" fill="#263238"/>
                  <path id="Trazado_254151" data-name="Trazado 254151" d="M236.233,100.559a1.726,1.726,0,0,1,.074-.421l.261-1.19a22.49,22.49,0,0,0,.461-4.419,19.32,19.32,0,0,0-1.17-6.445,11.031,11.031,0,0,0-1.932-3.283,21.11,21.11,0,0,0-3.089-2.788c-4.546-3.523-9.239-5.923-12.2-8.3-1.518-1.123-2.734-2.046-3.61-2.634a7.6,7.6,0,0,0-1.03-.628c-.247-.134-.394-.127-.388-.154s.033,0,.107,0a1.1,1.1,0,0,1,.308.087,6.684,6.684,0,0,1,1.076.582c.9.555,2.146,1.451,3.684,2.554,2.982,2.313,7.682,4.68,12.261,8.223a20.685,20.685,0,0,1,3.142,2.841A11.238,11.238,0,0,1,236.193,88a19.067,19.067,0,0,1,1.116,6.558,20.792,20.792,0,0,1-.575,4.452c-.134.515-.241.909-.328,1.177a2.785,2.785,0,0,1-.174.374Z" transform="translate(-84.936 -34.166)" fill="#263238"/>
                  <path id="Trazado_254152" data-name="Trazado 254152" d="M198.083,198.89l-.234.154-.715.421c-.628.361-1.551.9-2.754,1.571-2.407,1.337-5.923,3.242-10.322,5.475s-9.694,4.78-15.557,7.628-12.268,6.07-18.839,9.727a45.243,45.243,0,0,0-9.126,6.017,18.405,18.405,0,0,0-5.348,8.457,24.181,24.181,0,0,0-.862,9.105,28.025,28.025,0,0,0,1.752,7.8,20.589,20.589,0,0,0,1.631,3.082,24.9,24.9,0,0,0,1.885,2.487,45,45,0,0,0,3.517,3.57l2.353,2.139.6.562a1.44,1.44,0,0,1,.2.2l-.221-.174-.628-.542c-.555-.475-1.337-1.163-2.393-2.086a41.688,41.688,0,0,1-3.577-3.543,23.7,23.7,0,0,1-1.925-2.494,20.362,20.362,0,0,1-1.671-3.109,22.777,22.777,0,0,1-1.15-3.717,29.539,29.539,0,0,1-.669-4.158,24.388,24.388,0,0,1,.849-9.219,18.673,18.673,0,0,1,5.435-8.617,47.285,47.285,0,0,1,9.186-6.05c6.578-3.657,13-6.866,18.866-9.707s11.178-5.348,15.584-7.561,7.942-4.058,10.369-5.348l2.788-1.524.729-.388a1.5,1.5,0,0,1,.247-.16Z" transform="translate(-58.519 -76.794)" fill="#263238"/>
                  <path id="Trazado_254153" data-name="Trazado 254153" d="M210.045,211.6a1.716,1.716,0,0,1-.14.167l-.441.461-.722.735-1.07.923a52.213,52.213,0,0,1-7.468,4.987c-6.585,3.791-16.212,7.969-26.862,12.448a144.491,144.491,0,0,0-14.741,6.906,38.471,38.471,0,0,0-10.423,8.083,22.8,22.8,0,0,0-4.493,7.675c-.181.495-.308.949-.415,1.337s-.194.722-.247,1l-.14.615a.863.863,0,0,1-.053.214,16.379,16.379,0,0,1,.729-3.216,22.45,22.45,0,0,1,4.432-7.775,38.288,38.288,0,0,1,10.456-8.2,139.315,139.315,0,0,1,14.761-6.946c10.65-4.479,20.277-8.618,26.875-12.341a55.487,55.487,0,0,0,7.5-4.88l1.083-.889.749-.715.461-.435Z" transform="translate(-61.475 -81.007)" fill="#263238"/>
                  <path id="Trazado_254154" data-name="Trazado 254154" d="M239.057,182.935a1.726,1.726,0,0,1,.08-.435c.067-.314.154-.722.267-1.23a22.156,22.156,0,0,0,.448-4.573,18.72,18.72,0,0,0-1.337-6.632,10.877,10.877,0,0,0-2.173-3.343,26.683,26.683,0,0,0-3.283-2.808c-2.367-1.8-4.68-3.456-6.832-4.86s-4.205-2.52-5.9-3.483l-4.011-2.253-1.1-.615-.167-.094-.06-.04h0l.087.074a.235.235,0,0,1-.107-.04h0v-.04h.107l.174.074,1.13.562c.969.495,2.373,1.23,4.091,2.159s3.777,2.006,5.957,3.423,4.5,3.049,6.873,4.86a25.946,25.946,0,0,1,3.343,2.848,11.271,11.271,0,0,1,2.226,3.43,18.719,18.719,0,0,1,1.277,6.759,20.165,20.165,0,0,1-.568,4.606c-.127.528-.241.943-.328,1.217A2.217,2.217,0,0,1,239.057,182.935Z" transform="translate(-85.387 -61.434)" fill="#263238"/>
                  <path id="Trazado_254155" data-name="Trazado 254155" d="M197.974,281.64l-.234.154-.709.414c-.628.361-1.538.9-2.734,1.564-2.393,1.337-5.883,3.222-10.249,5.435s-9.614,4.747-15.437,7.575-12.174,6.017-18.719,9.634a50.482,50.482,0,0,0-9.119,5.87,18.479,18.479,0,0,0-5.5,8.25,22.26,22.26,0,0,0-1.009,4.579,29.009,29.009,0,0,0-.094,4.426,31.841,31.841,0,0,0,1.5,7.829,22.939,22.939,0,0,0,2.9,5.876,29.3,29.3,0,0,0,3.162,3.824c.949.989,1.725,1.711,2.246,2.206l.595.562.2.2a1.179,1.179,0,0,1-.221-.174l-.622-.535c-.535-.481-1.337-1.19-2.293-2.166a28.187,28.187,0,0,1-3.229-3.811,22.857,22.857,0,0,1-2.975-5.9,31.855,31.855,0,0,1-1.584-7.862,28.843,28.843,0,0,1,.08-4.479,22.411,22.411,0,0,1,1-4.646,18.813,18.813,0,0,1,5.622-8.4,50.184,50.184,0,0,1,9.179-5.917c6.532-3.63,12.909-6.806,18.719-9.62s11.091-5.315,15.47-7.508,7.882-4.011,10.289-5.348l2.768-1.5.722-.388A1.091,1.091,0,0,1,197.974,281.64Z" transform="translate(-58.483 -104.223)" fill="#263238"/>
                  <path id="Trazado_254156" data-name="Trazado 254156" d="M209.925,294.35a1.489,1.489,0,0,1-.14.167l-.435.461-.729.735-1.07.923a52.249,52.249,0,0,1-7.461,4.987c-6.585,3.791-16.212,7.969-26.862,12.448a145.257,145.257,0,0,0-14.741,6.9,38.761,38.761,0,0,0-10.429,8.089,22.878,22.878,0,0,0-4.486,7.661,13.863,13.863,0,0,0-.415,1.337c-.114.394-.194.729-.247,1s-.107.461-.14.615a1.035,1.035,0,0,1-.06.214,16.379,16.379,0,0,1,.729-3.216,22.562,22.562,0,0,1,4.432-7.8,38.39,38.39,0,0,1,10.456-8.2,140.559,140.559,0,0,1,14.761-6.946c10.657-4.479,20.284-8.617,26.882-12.341a55.5,55.5,0,0,0,7.5-4.88c.4-.334.769-.628,1.083-.9l.742-.709.468-.435Z" transform="translate(-61.436 -108.436)" fill="#263238"/>
                  <path id="Trazado_254157" data-name="Trazado 254157" d="M238.891,265.738a1.725,1.725,0,0,1,.08-.435l.261-1.23a21.261,21.261,0,0,0,.448-4.573,18.719,18.719,0,0,0-1.337-6.639,11.058,11.058,0,0,0-2.173-3.343,27.182,27.182,0,0,0-3.283-2.808c-2.367-1.805-4.68-3.456-6.832-4.86s-4.205-2.52-5.9-3.483l-4.011-2.253-1.1-.615-.167-.1h-.067l.087.074a.235.235,0,0,1-.107-.04h0v-.04h.107l.174.08c.261.12.669.314,1.123.562.976.495,2.38,1.23,4.1,2.153s3.777,2.006,5.957,3.43,4.493,3.049,6.866,4.86a26.013,26.013,0,0,1,3.343,2.848,11.124,11.124,0,0,1,2.22,3.43,18.458,18.458,0,0,1,1.277,6.759,19.957,19.957,0,0,1-.562,4.606c-.127.528-.241.936-.328,1.217A3.073,3.073,0,0,1,238.891,265.738Z" transform="translate(-85.327 -88.889)" fill="#263238"/>
                  <path id="Trazado_254158" data-name="Trazado 254158" d="M85.39,465.431,96.367,443.65l114.835.214,13.752,21.514c-47.647,5.515-94.766,5.569-139.565.054" transform="translate(-42.436 -157.922)" fill="#263238"/>
                  <path id="Trazado_254159" data-name="Trazado 254159" d="M216.719,441.893c0,1.959-25.725,3.55-57.494,3.55s-57.494-1.591-57.494-3.55,25.732-3.543,57.494-3.543S216.719,439.941,216.719,441.893Z" transform="translate(-47.852 -156.166)" fill="#455a64"/>
                  <path id="Trazado_254160" data-name="Trazado 254160" d="M212.32,442.41c0,1.384-20.5,2.507-45.788,2.507s-45.782-1.123-45.782-2.507,20.5-2.5,45.782-2.5S212.32,441.026,212.32,442.41Z" transform="translate(-54.157 -156.683)" fill="#fafafa"/>
                  <path id="Trazado_254161" data-name="Trazado 254161" d="M192.474,471.667c-.094,0-.174-5.114-.174-11.425s.08-11.432.174-11.432.174,5.114.174,11.432S192.567,471.667,192.474,471.667Z" transform="translate(-77.873 -159.633)" fill="#455a64"/>
                  <path id="Trazado_254162" data-name="Trazado 254162" d="M251.184,456.66a2.3,2.3,0,0,1-.441.074l-1.277.147-4.78.481-16.4,1.571.127-.08-3.47,5.542-.047.08H223.46l-21.855.4-6.625.08h-2.42a.5.5,0,0,1,.16,0h.468l1.8-.074,6.619-.194,21.848-.5h1.337l-.14.08,3.443-5.536.047-.073h.08l16.433-1.444,4.787-.394,1.284-.087a2.834,2.834,0,0,1,.461-.073Z" transform="translate(-77.959 -162.235)" fill="#455a64"/>
                  <path id="Trazado_254163" data-name="Trazado 254163" d="M264.047,454.162a46.8,46.8,0,0,1-1.237-7.922,23.248,23.248,0,0,1,.789,3.931A23.66,23.66,0,0,1,264.047,454.162Z" transform="translate(-101.244 -158.781)" fill="#455a64"/>
                  <path id="Trazado_254164" data-name="Trazado 254164" d="M114.232,475.758a1.731,1.731,0,0,1-.181-.441c-.12-.348-.261-.769-.435-1.29l-1.477-4.626.127.107-7.909-.769c-4.011-.4-7.661-.789-10.3-1.083l-3.115-.368a8.192,8.192,0,0,1-1.137-.18,6.845,6.845,0,0,1,1.157.047l3.122.254c2.674.234,6.284.582,10.3.983l7.9.822h.1v.094c.555,1.892,1.016,3.483,1.337,4.68.14.528.261.963.354,1.337A2,2,0,0,1,114.232,475.758Z" transform="translate(-43.901 -165.695)" fill="#455a64"/>
                  <path id="Trazado_254165" data-name="Trazado 254165" d="M160.309,456.388H158.23l-5.743.054-19.448.06h.06l-5.275,2.006-2.868,1.076h-.08l-21.052-2.607-6.284-.816-1.691-.214-.441-.073a.424.424,0,0,1-.147-.033h.154l.441.04,1.7.174,6.291.709,21.066,2.527h-.08l2.861-1.076,5.281-2.006h.06l19.448.053,5.743.053,1.544.033h.4Z" transform="translate(-45.708 -161.963)" fill="#455a64"/>
                </g>
                <g id="freepik--Character--inject-22" transform="translate(216.322 125.152)">
                  <path id="Trazado_254166" data-name="Trazado 254166" d="M367.32,439.57l8.5,29.412s-27.051,18.514-26.017,24.1l57.581-14.42L396.033,432.29Z" transform="translate(-253.485 7.253)" fill="#455a64"/>
                  <path id="Trazado_254167" data-name="Trazado 254167" d="M381.377,453.58a2.4,2.4,0,0,1,2.305,2.278,2.334,2.334,0,0,1-2.236,2.292,2.557,2.557,0,0,1-2.417-2.431,2.4,2.4,0,0,1,2.585-2.124" transform="translate(-241.862 15.711)" fill="#e0e0e0"/>
                  <g id="Grupo_145876" data-name="Grupo 145876" transform="translate(96.165 481.293)" opacity="0.6">
                    <path id="Trazado_254168" data-name="Trazado 254168" d="M407.413,466.795l-1.4-4.625-54.633,15.551s-2.292,1.76-1.551,3.493Z" transform="translate(-349.685 -462.17)" fill="#fff"/>
                  </g>
                  <path id="Trazado_254169" data-name="Trazado 254169" d="M367.692,458.678c.07.279,1.509,0,3.13.615s2.641,1.551,2.878,1.4-.6-1.7-2.557-2.347S367.566,458.441,367.692,458.678Z" transform="translate(-246.368 17.501)" fill="#263238"/>
                  <path id="Trazado_254170" data-name="Trazado 254170" d="M363.81,461.45c0,.293,1.4.461,2.6,1.4s1.844,2.152,2.124,2.068,0-1.719-1.523-2.878S363.755,461.185,363.81,461.45Z" transform="translate(-247.908 18.739)" fill="#263238"/>
                  <path id="Trazado_254171" data-name="Trazado 254171" d="M363.628,468.4c.266,0,.307-1.509-.8-2.864s-2.585-1.649-2.641-1.4.964.894,1.858,2.026S363.334,468.447,363.628,468.4Z" transform="translate(-249.346 19.875)" fill="#263238"/>
                  <path id="Trazado_254172" data-name="Trazado 254172" d="M366.846,454.094c.182.224,1.4-.489,2.99-.782s2.976-.1,3.06-.377-1.4-.978-3.256-.615S366.651,453.9,366.846,454.094Z" transform="translate(-246.71 15.169)" fill="#263238"/>
                  <path id="Trazado_254173" data-name="Trazado 254173" d="M385.192,442.551l1.4,30.586s-30.642,11.625-30.949,17.312l59.4-.461-.21-47.758Z" transform="translate(-251.153 11.202)" fill="#455a64"/>
                  <path id="Trazado_254174" data-name="Trazado 254174" d="M391.69,462.4a2.431,2.431,0,0,1,1.691,2.794,2.333,2.333,0,0,1-2.711,1.7,2.585,2.585,0,0,1-1.788-2.934,2.431,2.431,0,0,1,3.032-1.4" transform="translate(-237.964 19.214)" fill="#e0e0e0"/>
                  <g id="Grupo_145877" data-name="Grupo 145877" transform="translate(104.446 496.425)" opacity="0.6">
                    <path id="Trazado_254175" data-name="Trazado 254175" d="M414.993,477.765,414.839,473l-56.882,2.25s-2.641,1.16-2.319,3.032Z" transform="translate(-355.611 -473)" fill="#fff"/>
                  </g>
                  <path id="Trazado_254176" data-name="Trazado 254176" d="M377.061,464.193c0,.279,1.4.405,2.892,1.327s2.208,2.138,2.473,2.012-.182-1.788-1.942-2.794S376.977,464,377.061,464.193Z" transform="translate(-242.645 19.853)" fill="#263238"/>
                  <path id="Trazado_254177" data-name="Trazado 254177" d="M372.61,466.031c0,.28,1.2.755,2.194,1.984s1.285,2.515,1.579,2.5.461-1.663-.81-3.158S372.61,465.78,372.61,466.031Z" transform="translate(-244.412 20.613)" fill="#263238"/>
                  <path id="Trazado_254178" data-name="Trazado 254178" d="M370.786,472.786c.265.07.657-1.4-.1-2.976s-2.124-2.194-2.236-1.956.713,1.09,1.327,2.389S370.493,472.758,370.786,472.786Z" transform="translate(-246.067 21.361)" fill="#263238"/>
                  <path id="Trazado_254179" data-name="Trazado 254179" d="M377.393,459.421c.126.266,1.4-.14,3.088,0s2.934.6,3.074.349-1.09-1.272-3.018-1.4S377.253,459.253,377.393,459.421Z" transform="translate(-242.516 17.61)" fill="#263238"/>
                  <path id="Trazado_254180" data-name="Trazado 254180" d="M424.6,282.26v24.186l-6.5,94.217s4.038,45.7,6.525,71.511c2.152,22.356-1.4,61.479-1.4,61.479H385.45l-13.525-130.2-8.384-81.167-14.6-36.943Z" transform="translate(-253.815 -52.347)" fill="#263238"/>
                  <path id="Trazado_254181" data-name="Trazado 254181" d="M330.42,286.095l9.208,131.37,38.257,98.423,1.761,5.938,22.58-5.463L385.43,283.44Z" transform="translate(-261.172 -51.878)" fill="#263238"/>
                  <path id="Trazado_254182" data-name="Trazado 254182" d="M359.453,311.62a3.212,3.212,0,0,0,0,.545v1.593c0,1.4.1,3.521.182,6.162.154,5.365.545,13.092,1.076,22.65,1.146,19.114,3.27,45.494,6.6,74.516s6.875,55.247,9.515,74.208c1.4,9.445,2.417,17.1,3.172,22.44.391,2.627.685,4.667.894,6.106.112.671.2,1.188.251,1.579a4.285,4.285,0,0,0,.112.545,2.61,2.61,0,0,0,0-.545,15.811,15.811,0,0,0-.182-1.593c-.168-1.4-.433-3.493-.755-6.12-.713-5.351-1.719-13.022-2.962-22.482-2.515-18.975-6.036-45.187-9.306-74.208s-5.519-55.373-6.791-74.474c-.6-9.543-1.062-17.284-1.3-22.621-.14-2.655-.252-4.709-.321-6.162,0-.671-.084-1.2-.112-1.593A2.056,2.056,0,0,0,359.453,311.62Z" transform="translate(-249.643 -40.683)" fill="#455a64"/>
                  <path id="Trazado_254183" data-name="Trazado 254183" d="M357.74,288.632a1.942,1.942,0,1,0,1.942-1.942A1.942,1.942,0,0,0,357.74,288.632Z" transform="translate(-250.319 -50.587)" fill="#455a64"/>
                  <path id="Trazado_254184" data-name="Trazado 254184" d="M334,307.509a12.473,12.473,0,0,0,2.669-2.5,30.4,30.4,0,0,0,4.751-7.433,29.791,29.791,0,0,0,2.361-8.537,12.744,12.744,0,0,0,.1-3.647c-.126,0-.2,1.4-.587,3.577a34.791,34.791,0,0,1-6.986,15.691C334.829,306.447,333.851,307.425,334,307.509Z" transform="translate(-259.754 -51.103)" fill="#455a64"/>
                  <path id="Trazado_254185" data-name="Trazado 254185" d="M373.534,182.83l-14.056,2.878-46.221,25.276L310.21,232.88l47.814-3.968,1.118,12.212Z" transform="translate(-269.201 -91.846)" fill="#e0e0e0"/>
                  <path id="Trazado_254186" data-name="Trazado 254186" d="M407.156,172.69l3.451,7.447s33.534,16.474,33.464,18.164c0,0-2.152,63.6-2.5,109.922-.14,17.494.517,33.534.866,41.3.922,20.274,1.635,99.023,1.635,99.023L323.6,445.755l14.964-221.786,25.751-37.027,7.811-6.343Z" transform="translate(-263.881 -95.874)" fill="#e0e0e0"/>
                  <path id="Trazado_254187" data-name="Trazado 254187" d="M344.534,427.6a2.556,2.556,0,0,1,0-.531,14.126,14.126,0,0,1,.07-1.579c.07-1.4.182-3.465.321-6.05.307-5.3.768-12.9,1.313-22.258,1.146-18.821,2.711-44.712,4.429-73.412s3.144-54.619,4.192-73.44c.5-9.362.908-16.963,1.188-22.258.154-2.6.265-4.625.349-6.05,0-.657.07-1.188.1-1.579a2.3,2.3,0,0,1,.07-.531,3.186,3.186,0,0,1,0,.545v1.565c0,1.4-.112,3.465-.21,6.064-.182,5.254-.517,12.869-.95,22.272-.894,18.807-2.305,44.712-4.024,73.454s-3.367,54.619-4.639,73.4c-.657,9.362-1.174,16.949-1.551,22.244-.2,2.6-.349,4.625-.461,6.05a12.428,12.428,0,0,1-.14,1.565A2.3,2.3,0,0,1,344.534,427.6Z" transform="translate(-255.571 -77.116)" fill="#263238"/>
                  <path id="Trazado_254188" data-name="Trazado 254188" d="M319.339,211.748,307.8,186.29,281.18,196.881s7.825,22.23,9.348,26.548c3.884,11.094,8.384,22.957,15.859,24.689,11.779,2.711,63.17-20.637,63.17-20.637l9.585-39.347Z" transform="translate(-280.733 -90.471)" fill="#e0e0e0"/>
                  <g id="Grupo_145878" data-name="Grupo 145878" transform="translate(71.456 167.783)" opacity="0.3">
                    <path id="Trazado_254189" data-name="Trazado 254189" d="M434.642,275.207a27.606,27.606,0,0,0-6.5-3.549c-13.3-6.022-25.011-15.034-37.726-22.356s-27.079-12.953-41.582-11.178L332,253.941c1.733,3.759,6.022,5.729,10.13,6.12s8.23-.489,12.352-.852,8.523-.14,11.961,2.18,5.477,6.721,8.607,9.781c3.759,3.633,9.026,5.156,14.056,6.581l32.137,8.984c3.214.908,6.553,1.816,9.781,1.258s6.511-3.018,6.777-6.344A7.853,7.853,0,0,0,434.642,275.207Z" transform="translate(-332 -237.794)"/>
                  </g>
                  <path id="Trazado_254190" data-name="Trazado 254190" d="M400.563,216.98l6.707,46.291-29.342-11.653-11.388,31.4s36.985,16.25,56.058,19.1c9.222,1.4,22.118-9.906,21.2-21.322-2.389-29.622-10.829-81.362-10.829-81.362s-6.008-12.3-16.236-10.9a15.51,15.51,0,0,0-9.124,5.072C399.6,202.029,400.563,216.98,400.563,216.98Z" transform="translate(-246.823 -89.625)" fill="#e0e0e0"/>
                  <path id="Trazado_254191" data-name="Trazado 254191" d="M360.551,179.72l-2.794,19.338-5.016,38.816,21.825-37.446L395.2,174.69,362.3,197.479l-.391-18.122" transform="translate(-252.305 -95.079)" fill="#ff725e"/>
                  <path id="Trazado_254192" data-name="Trazado 254192" d="M339.309,197.3v1.216l-.182,3.591c-.182,3.172-.433,7.811-.768,13.8-.713,12-1.719,29.342-2.976,50.888-2.878,43.049-6.846,102.684-11.262,169.068l-.349-.377,11.443.335,109.461,3.255-.335.335c-.81-41.918-1.509-77.114-1.984-101.916-.224-12.394-.405-22.16-.517-28.867,0-3.326-.084-5.882-.112-7.629v-1.97c0,.433,0,1.118.07,1.97,0,1.747.112,4.3.209,7.629.154,6.707.391,16.474.685,28.853.559,24.815,1.4,60.082,2.264,101.916v.335h-.349l-109.475-3.186-11.444-.335h-.377v-.377c4.513-66.439,8.551-126.06,11.485-169.068,1.4-21.5,2.445-38.858,3.2-50.874.391-5.98.7-10.619.908-13.791.112-1.551.2-2.794.252-3.577A9.512,9.512,0,0,1,339.309,197.3Z" transform="translate(-263.996 -86.097)" fill="#263238"/>
                  <path id="Trazado_254193" data-name="Trazado 254193" d="M399.042,178.86a11.013,11.013,0,0,1-.6,1.523c-.475,1.048-1.09,2.459-1.858,4.192L389.806,199.3l-.084.182h-4.765l.21-.615,3.353,2.795.307.251-.279.279-6.386,6.2-20.4,19.785-6.246,5.938-1.719,1.593a3.261,3.261,0,0,1-.629.517s.168-.224.531-.615l1.621-1.691,6.078-6.106,20.26-19.939,6.357-6.2v.517l-3.339-2.795-.741-.615h5.519l-.293.182,6.986-14.615,2.04-4.108A10.106,10.106,0,0,1,399.042,178.86Z" transform="translate(-252.134 -93.423)" fill="#263238"/>
                  <path id="Trazado_254194" data-name="Trazado 254194" d="M354.222,234.64a17.937,17.937,0,0,1-.433-2.4c-.238-1.677-.545-3.9-.922-6.581-.755-5.589-1.747-13.26-2.795-21.769-.335-2.794-.657-5.393-.964-7.922v-.307l.307-.084,5.463-1.286v.629l-5.505-.978-.363-.07.154-.335,3.619-7.839c.405-.866.755-1.565,1.034-2.138a2.794,2.794,0,0,1,.405-.727,2.874,2.874,0,0,1-.252.8l-.894,2.194c-.852,2-2,4.695-3.4,7.95l-.21-.391,5.589.894,1.565.266-1.551.377-5.449,1.4.266-.377c.307,2.515.643,5.184.978,7.922,1.048,8.5,1.956,16.208,2.571,21.783.293,2.711.517,4.932.7,6.623A13.742,13.742,0,0,1,354.222,234.64Z" transform="translate(-253.787 -91.846)" fill="#263238"/>
                  <path id="Trazado_254195" data-name="Trazado 254195" d="M357.5,191.914a7.213,7.213,0,0,1-.657.405l-1.984,1.1-7.6,4.192-27.512,14.853-.279.154-.126-.293c-3.535-7.755-7.489-16.432-11.723-25.751l.433.182L281.5,197.364l.21-.447,1.034,2.976c4.709,13.428,9.138,26.254,13.456,37.8.293.7.559,1.467.852,2.068a21.138,21.138,0,0,0,1.174,1.942,16.986,16.986,0,0,0,2.795,3.34,13.564,13.564,0,0,0,3.521,2.277,13.1,13.1,0,0,0,3.954.964,20.371,20.371,0,0,0,7.685-1.02q3.647-1.174,6.986-2.166c8.956-2.641,16.25-4.583,21.294-5.91l5.827-1.481,1.523-.363a3.5,3.5,0,0,1,.517-.1,2.263,2.263,0,0,1-.5.168l-1.5.433-5.785,1.621c-5.03,1.4-12.31,3.423-21.224,6.12-2.236.685-4.555,1.4-6.986,2.208a20.874,20.874,0,0,1-7.922,1.09,13.642,13.642,0,0,1-4.192-.992,14.52,14.52,0,0,1-3.7-2.375,17.873,17.873,0,0,1-2.906-3.465c-.405-.643-.8-1.285-1.174-1.942a17.1,17.1,0,0,1-.922-2.166c-4.359-11.555-8.8-24.368-13.512-37.81-.349-1.02-.713-2.04-1.034-2.976l-.112-.335.321-.126L307.8,186.116l.307-.126.14.307c4.192,9.334,8.118,18.011,11.639,25.793l-.419-.14L347.1,197.308l7.671-4.01,2.026-1.034Z" transform="translate(-280.86 -90.59)" fill="#263238"/>
                  <path id="Trazado_254196" data-name="Trazado 254196" d="M366.61,293.854h.768l2.333.154,8.873.643,31.844,2.445h.321v.321c-.517,5.98-1.076,12.478-1.663,19.352-.293,3.423-.6,6.986-.908,10.549-.154,1.8-.321,3.619-.475,5.449a14.115,14.115,0,0,1-.433,2.794,10.02,10.02,0,0,1-1.258,2.613,11.457,11.457,0,0,1-7.489,4.527,58.42,58.42,0,0,1-8.5.447,71.256,71.256,0,0,1-15.9-1.733,25.164,25.164,0,0,1-3.633-1.188,10.565,10.565,0,0,1-1.677-.866,4.5,4.5,0,0,1-.768-.615,6.2,6.2,0,0,1-.6-.754,17.706,17.706,0,0,1-2.082-6.777,83.289,83.289,0,0,1-.629-12.575c.112-7.7.671-13.973,1.076-18.164.21-2.138.405-3.8.559-4.932l.168-1.272a1.4,1.4,0,0,1,.1-.433v.447c0,.293-.07.755-.112,1.285-.1,1.174-.238,2.795-.419,4.932-.321,4.276-.8,10.493-.852,18.164a88.031,88.031,0,0,0,.713,12.505,17.326,17.326,0,0,0,2.026,6.525,5.589,5.589,0,0,0,2.795,1.984,24.08,24.08,0,0,0,3.521,1.132,71.54,71.54,0,0,0,15.761,1.677,60.077,60.077,0,0,0,8.383-.447,10.8,10.8,0,0,0,6.986-4.192,9.3,9.3,0,0,0,1.16-2.4,13.79,13.79,0,0,0,.405-2.669c.168-1.83.321-3.661.475-5.449q.489-5.407.936-10.563c.615-6.861,1.188-13.358,1.719-19.338l.293.349-31.606-2.795-8.942-.824-2.375-.224A6.016,6.016,0,0,1,366.61,293.854Z" transform="translate(-247.55 -47.747)" fill="#263238"/>
                  <path id="Trazado_254197" data-name="Trazado 254197" d="M403.372,254.689a36.607,36.607,0,0,0-2.99-6.986,37.95,37.95,0,0,0-4.932-5.743,15.887,15.887,0,0,1,7.922,12.687Z" transform="translate(-235.339 -68.356)" fill="#263238"/>
                  <path id="Trazado_254198" data-name="Trazado 254198" d="M433.121,196.3l.154.727q.126.782.377,2.138c.307,1.914.768,4.695,1.4,8.244,1.16,7.154,2.794,17.536,4.569,30.376.894,6.413,1.83,13.456,2.794,20.959.433,3.787.88,7.713,1.286,11.751.224,2.012.377,4.08.573,6.148a24.327,24.327,0,0,1,.1,3.2,18.051,18.051,0,0,1-.587,3.214,19.378,19.378,0,0,1-1.1,3.088,24.612,24.612,0,0,1-1.649,2.878A25,25,0,0,1,439,291.7a29.891,29.891,0,0,1-2.417,2.375,22.479,22.479,0,0,1-5.757,3.759,15.676,15.676,0,0,1-6.86,1.5A85.9,85.9,0,0,1,410,296.3c-4.639-1.4-9.278-2.892-13.973-4.527-10.256-3.661-20.092-7.6-29.426-11.625l-.307-.14.126-.307c4.01-11.066,7.839-21.6,11.4-31.4l.126-.321.307.126,29.259,11.709-.363.293c-2.012-14.28-3.661-25.849-4.793-33.883-.545-3.968-.978-7.084-1.271-9.222-.126-1.034-.224-1.83-.307-2.4a4.731,4.731,0,0,1-.07-.824,3.283,3.283,0,0,0,.154.81c.154.531.224,1.4.377,2.4.335,2.124.81,5.226,1.4,9.194,1.2,8.034,2.906,19.562,5.03,33.841l.07.461-.433-.168-29.342-11.611.419-.182-11.36,31.41-.182-.447c9.306,4.01,19.142,7.95,29.342,11.6,4.667,1.621,9.292,3.172,13.973,4.513a85.658,85.658,0,0,0,13.791,3.018,14.979,14.979,0,0,0,6.553-1.4,22.273,22.273,0,0,0,5.589-3.647,28.178,28.178,0,0,0,2.347-2.305,24.914,24.914,0,0,0,1.97-2.6,22.23,22.23,0,0,0,1.607-2.795,18.931,18.931,0,0,0,1.076-2.976,16.767,16.767,0,0,0,.559-3.074,25.6,25.6,0,0,0-.07-3.1c-.2-2.068-.349-4.122-.559-6.148-.391-4.038-.838-7.95-1.257-11.737-.894-7.573-1.8-14.6-2.669-21.029-1.733-12.855-3.27-23.236-4.332-30.4-.531-3.563-.936-6.343-1.23-8.258-.126-.922-.224-1.635-.308-2.152S433.121,196.3,433.121,196.3Z" transform="translate(-246.923 -86.495)" fill="#263238"/>
                  <path id="Trazado_254199" data-name="Trazado 254199" d="M408.98,189.024c0,.126-1.719.154-4.345.964a19.394,19.394,0,0,0-13.5,15.034c-.517,2.683-.349,4.415-.489,4.415a3.712,3.712,0,0,1-.182-1.2,16.217,16.217,0,0,1,.168-3.3,18.737,18.737,0,0,1,13.861-15.454,15.885,15.885,0,0,1,3.27-.517A3.621,3.621,0,0,1,408.98,189.024Z" transform="translate(-237.327 -89.418)" fill="#263238"/>
                  <g id="Grupo_145879" data-name="Grupo 145879" transform="translate(119.521 286.977)" opacity="0.3">
                    <path id="Trazado_254200" data-name="Trazado 254200" d="M406.515,323.1c-3.381,8.859-12.268,9.389-21.811,7.992-9-1.313-17.633-3.2-18.3-5.771.238,4.695,3.689,8.3,8.006,10.186a31.06,31.06,0,0,0,13.819,1.928c4.918-.21,9.166,0,13.218-2.795S406.529,327.152,406.515,323.1Z" transform="translate(-366.4 -323.1)"/>
                  </g>
                  <path id="Trazado_254201" data-name="Trazado 254201" d="M305.29,217.774a40.437,40.437,0,0,0,3.088-6.749,39.121,39.121,0,0,0,1.034-7.336,15.873,15.873,0,0,1-4.122,14.084Z" transform="translate(-271.155 -83.559)" fill="#263238"/>
                  <path id="Trazado_254202" data-name="Trazado 254202" d="M408.737,179.891h-.964A4.834,4.834,0,0,1,405.23,179a6.12,6.12,0,0,1-2.4-3.451,11.375,11.375,0,0,1,.112-5.673c.461-2.1,1.4-4.3,1.9-6.833a12.03,12.03,0,0,0,.21-4.024,7.6,7.6,0,0,0-1.635-3.982,9.11,9.11,0,0,0-3.815-2.4,24.3,24.3,0,0,1-4.192-1.788,13.372,13.372,0,0,1-5.24-7.573c-1.034-3.088-1.4-6.316-2.292-9.348a17.159,17.159,0,0,0-4.192-7.992,11.388,11.388,0,0,0-7.587-3.018,14.825,14.825,0,0,0-6.986,1.551,22.063,22.063,0,0,0-7.7,6.777c-.713.978-1.216,1.788-1.551,2.333a6.632,6.632,0,0,0-.461.852,4.189,4.189,0,0,0,.587-.782c.363-.517.894-1.285,1.649-2.236a22.5,22.5,0,0,1,7.685-6.511,14.336,14.336,0,0,1,6.735-1.4,10.8,10.8,0,0,1,7.182,2.906,16.544,16.544,0,0,1,4.01,7.713c.824,2.976,1.23,6.2,2.292,9.39a13.972,13.972,0,0,0,5.589,7.922,24.785,24.785,0,0,0,4.262,1.83,8.384,8.384,0,0,1,3.563,2.208,6.985,6.985,0,0,1,1.523,3.647,11.682,11.682,0,0,1-.168,3.829c-.489,2.459-1.4,4.695-1.816,6.833a11.847,11.847,0,0,0,0,5.9,6.33,6.33,0,0,0,2.641,3.563,4.737,4.737,0,0,0,2.683.81,2.556,2.556,0,0,0,.922-.154Z" transform="translate(-249.66 -115.65)" fill="#455a64"/>
                  <path id="Trazado_254203" data-name="Trazado 254203" d="M365.092,120.208a5.967,5.967,0,0,0-2.878.433,11.011,11.011,0,0,0-7.489,10.982,6.05,6.05,0,0,0,.643,2.795c.112,0-.2-1.09-.154-2.795a11.443,11.443,0,0,1,7.182-10.535C364,120.432,365.106,120.32,365.092,120.208Z" transform="translate(-251.523 -116.734)" fill="#455a64"/>
                  <path id="Trazado_254204" data-name="Trazado 254204" d="M348.679,127a5.142,5.142,0,0,0-.713,3.465,5.044,5.044,0,0,0,1.132,3.353c.182-.084-.349-1.537-.447-3.4S348.874,127.07,348.679,127Z" transform="translate(-254.224 -114.024)" fill="#455a64"/>
                  <path id="Trazado_254205" data-name="Trazado 254205" d="M306.831,220.762l8.97,37.377c.5,2.082,2.347,3.535,5.324,4.359l50.944.182a6.036,6.036,0,0,0,3.717-6.288l-6.679-35.756a4.6,4.6,0,0,0-4.429-3.773l-53.71-1.244a4.192,4.192,0,0,0-4.136,5.142Z" transform="translate(-270.586 -78.82)" fill="#263238"/>
                  <path id="Trazado_254206" data-name="Trazado 254206" d="M348.108,224.758s11.276-.461,13.162,0,26.184,16.152,26.184,16.152l-7.294,20.819-4.988-6.581a41.3,41.3,0,0,1-9.935-2.347c-3.535-1.635-7.685-3.409-7.685-3.409l-7.447,1.048-8.09.168s-2.794-1.4-.5-3.2,7.7-1.97,7.7-1.97l8.383-1.956s-9.557-.727-10.493-.88-7.419,1.467-8.286.838a2.543,2.543,0,0,1-.517-3.284c.741-1.188,6.861-3.06,6.861-3.06l10.633-.992-10.521-.251-5.7-.321s-1.565-1.132.475-2.794,10.256-2.794,10.256-2.794l8.467-.768-8.579-.894-5.659,1.034a1.509,1.509,0,0,1-1.23-2.669A10.591,10.591,0,0,1,348.108,224.758Z" transform="translate(-258.194 -75.271)" fill="#d09284"/>
                  <path id="Trazado_254207" data-name="Trazado 254207" d="M340.359,151.522c2.124-2.683,4.751-5.268,5.3-8.635.489-3.1-.866-6.5.531-9.32,1.7-3.465,6.623-4.192,8.761-7.364,1.034-1.565,1.285-3.549,2.305-5.114,1.733-2.669,5.3-3.535,8.481-3.353s6.3,1.174,9.487,1.244c4.373.084,8.8-1.551,13.05-.5,4.695,1.16,7.713,5.1,10.913,8.914l4.192,4.4a17.4,17.4,0,0,0,2.711,2,29.6,29.6,0,0,1,5.1,2.92,7.713,7.713,0,0,1,0,11.178,8.258,8.258,0,0,1,5.952,7.825,23.751,23.751,0,0,1-1.216,5.687,8.272,8.272,0,0,0,.112,5.687c.866,1.747,3.2,2.795,4.834,1.816a8.691,8.691,0,0,1-4.443,6.022,5.156,5.156,0,0,0,3.563,1.4c-3.13,8.467-12.575,13.3-21.574,13.777s-17.843-2.529-26.38-5.505l-24.606-5.156c-2.152-.391-3.172-2.934-3.242-5.128s.377-4.5-.5-6.511c-1.216-2.795-4.541-4.08-5.8-6.819C336.46,157.824,338.249,154.191,340.359,151.522Z" transform="translate(-258.41 -117.713)" fill="#263238"/>
                  <path id="Trazado_254208" data-name="Trazado 254208" d="M382.773,167.2a99.764,99.764,0,0,0,3.493-16.949,35.029,35.029,0,0,0-2.25-17c-.349-.8-3.228-6.162-4.094-6.036-.615.1,1.244,5.142.964,5.7a29.692,29.692,0,0,0-2.445,17.466,77.956,77.956,0,0,0,4.331,16.767" transform="translate(-242.251 -113.942)" fill="#263238"/>
                  <path id="Trazado_254209" data-name="Trazado 254209" d="M394.64,147.381c-.279-14.49-8.942-26.394-23.4-25.723l-1.4.14a25.891,25.891,0,0,0-23.166,26.38c.307,12.575.81,26.422,1.593,33.087,1.621,13.8,15.677,14.489,15.677,14.489l.671,22.8,32.905-22.789Z" transform="translate(-254.719 -116.157)" fill="#d09284"/>
                  <path id="Trazado_254210" data-name="Trazado 254210" d="M359.1,176.73a33.6,33.6,0,0,0,17.438-7.21S373.3,181.2,359.379,181.411Z" transform="translate(-249.779 -97.133)" fill="#986b62"/>
                  <path id="Trazado_254211" data-name="Trazado 254211" d="M350.511,149.479a1.984,1.984,0,0,0,2.11,1.788,1.886,1.886,0,0,0,1.844-2,1.984,1.984,0,0,0-2.11-1.788,1.9,1.9,0,0,0-1.844,2Z" transform="translate(-253.192 -105.89)" fill="#263238"/>
                  <path id="Trazado_254212" data-name="Trazado 254212" d="M349.291,145.237c.279.224,1.663-1.034,3.787-1.258s3.786.685,4,.391-.21-.559-.936-.978a5.379,5.379,0,0,0-3.228-.643,5.324,5.324,0,0,0-2.976,1.313C349.333,144.636,349.165,145.125,349.291,145.237Z" transform="translate(-253.691 -107.782)" fill="#263238"/>
                  <path id="Trazado_254213" data-name="Trazado 254213" d="M363.511,148.869a1.984,1.984,0,0,0,2.11,1.788,1.9,1.9,0,0,0,1.858-2,2,2,0,0,0-2.124-1.788,1.9,1.9,0,0,0-1.844,2Z" transform="translate(-248.028 -106.132)" fill="#263238"/>
                  <path id="Trazado_254214" data-name="Trazado 254214" d="M364.251,144.274c.266.238,1.649-1.034,3.773-1.244s3.8.671,4,.391-.2-.573-.922-.992a5.436,5.436,0,0,0-3.242-.629,5.225,5.225,0,0,0-2.962,1.313C364.293,143.687,364.125,144.176,364.251,144.274Z" transform="translate(-247.748 -108.16)" fill="#263238"/>
                  <path id="Trazado_254215" data-name="Trazado 254215" d="M361.576,160.881a14.2,14.2,0,0,0-3.521-.265c-.545,0-1.076,0-1.2-.405a2.794,2.794,0,0,1,.2-1.649c.363-1.4.755-2.794,1.16-4.3,1.621-6.12,2.711-11.178,2.473-11.178s-1.761,4.835-3.367,10.954q-.573,2.264-1.09,4.318a3.171,3.171,0,0,0,0,2.166,1.4,1.4,0,0,0,.978.7,3.492,3.492,0,0,0,.922,0A14.739,14.739,0,0,0,361.576,160.881Z" transform="translate(-250.997 -107.636)" fill="#263238"/>
                  <path id="Trazado_254216" data-name="Trazado 254216" d="M366.356,156.4c-.349,0-.112,2.319-1.9,4.192s-4.29,1.844-4.276,2.166.6.391,1.635.321a5.841,5.841,0,0,0,3.577-1.691,4.989,4.989,0,0,0,1.4-3.479C366.831,156.9,366.51,156.372,366.356,156.4Z" transform="translate(-249.35 -102.345)" fill="#263238"/>
                  <path id="Trazado_254217" data-name="Trazado 254217" d="M363.675,137.95c.279.559,2.361.07,4.89.1s4.611.5,4.89,0c.112-.266-.293-.768-1.16-1.244a8.5,8.5,0,0,0-7.447,0C363.969,137.182,363.563,137.685,363.675,137.95Z" transform="translate(-247.968 -110.471)" fill="#263238"/>
                  <path id="Trazado_254218" data-name="Trazado 254218" d="M349.4,140.148c.419.433,1.83-.224,3.591-.433s3.284,0,3.577-.559c.126-.251-.168-.713-.866-1.1a4.947,4.947,0,0,0-3-.475,5.016,5.016,0,0,0-2.795,1.271C349.361,139.407,349.207,139.924,349.4,140.148Z" transform="translate(-253.663 -109.846)" fill="#263238"/>
                  <path id="Trazado_254219" data-name="Trazado 254219" d="M381,147.7c.224-.14,9.208-3.815,9.893,5.659s-8.97,8.23-9,7.964S381,147.7,381,147.7Z" transform="translate(-241.079 -106.125)" fill="#d09284"/>
                  <path id="Trazado_254220" data-name="Trazado 254220" d="M383.512,156.644a2.61,2.61,0,0,0,.461.21,1.621,1.621,0,0,0,1.244,0,4.094,4.094,0,0,0,1.621-3.815,5.588,5.588,0,0,0-.629-2.319,1.928,1.928,0,0,0-1.4-1.188.838.838,0,0,0-.936.531c-.112.279,0,.461-.084.475s-.224-.14-.168-.545a1.061,1.061,0,0,1,.321-.615,1.286,1.286,0,0,1,.894-.307,2.333,2.333,0,0,1,1.844,1.4,5.77,5.77,0,0,1,.755,2.6,4.3,4.3,0,0,1-2.11,4.276,1.788,1.788,0,0,1-1.523-.14C383.554,156.881,383.484,156.671,383.512,156.644Z" transform="translate(-240.083 -105.257)" fill="#986b62"/>
                  <path id="Trazado_254221" data-name="Trazado 254221" d="M350.507,132.579c-1.593-.741,2.7-6.008,6.357-7.964,5.589-2.962,14.14-5.114,19.562-3.954,6.441,1.4,11.9,4.192,15.454,9.781a37.363,37.363,0,0,1,5.352,18.765,11.359,11.359,0,0,1-.964,5.882c-1.188,2.18-3.647,3.675-3.353,6.553a4,4,0,0,1-.8,2.962c-1.621,1.956-3.856.363-4.946-1.313-2.319-3.591-2.794-8.006-3.3-12.254a27.727,27.727,0,0,1,0-9.054c.363-1.621,1.006-3.158,1.286-4.793a5.785,5.785,0,0,0-.978-4.695,6.989,6.989,0,0,0-.824-.727,9.906,9.906,0,0,0-9.934-1.23c-5.226,2.236-14.168,5.589-16.669,3.982a14.77,14.77,0,0,1-4.527-4.038Z" transform="translate(-253.328 -116.67)" fill="#263238"/>
                  <path id="Trazado_254222" data-name="Trazado 254222" d="M374.6,119.9a20.959,20.959,0,0,0-15.971,1.858,10.954,10.954,0,0,0-5.324,6.679A6.26,6.26,0,0,0,356.9,135.6l.2.1c4.192,1.1,6.735.391,10.675-1.272,3.325-1.4,6.2-3.675,9.529-5.058a19.3,19.3,0,0,1,11.262-1.048A31.34,31.34,0,0,0,374.6,119.9Z" transform="translate(-252.146 -117.165)" fill="#263238"/>
                  <path id="Trazado_254223" data-name="Trazado 254223" d="M305.8,166.752s2.4-5.324,4.5-.866c.5,1.09.81,3.982,1.4,5.785.447,1.285,1.1,2.278-.07,5.743l-2.92,8.677a9.78,9.78,0,0,1-2.333,3.675l-.573,4.4.852,4.345-15.733,5.337-1.23-8.2s-6.036-6.888-6.148-9.711,1.551-3.27,1.551-3.27a4.974,4.974,0,0,1-.908-3.437,5.491,5.491,0,0,1,1.942-3.032s-4.066-2.054-3.689-5.659c.2-1.914,2.515-1.914,2.515-1.914s-.908-3.158.6-3.982a5.589,5.589,0,0,1,3.731-.14Z" transform="translate(-280.243 -99.284)" fill="#d09284"/>
                  <path id="Trazado_254224" data-name="Trazado 254224" d="M289.073,158.012l2.794,2.976a4.569,4.569,0,0,1,1.006,4.359l-10.3,35a6.651,6.651,0,0,0,6.371,8.509h19.366a6.986,6.986,0,0,0,6.707-9.1L304.233,165a4.527,4.527,0,0,1,1.076-4.513l2.445-2.515Z" transform="translate(-280.284 -101.721)" fill="#f5f5f5"/>
                  <path id="Trazado_254225" data-name="Trazado 254225" d="M289.2,158.044h4.821l13.833-.154h.559l-.391.405-1.858,1.942a5.448,5.448,0,0,0-1.537,2.194c-.713,1.774.391,3.7.936,5.743l4.122,13.2L314.32,196.3c.391,1.313.838,2.585,1.2,3.968a7.126,7.126,0,0,1-.279,4.345,7.35,7.35,0,0,1-7.07,4.737H288.988A6.986,6.986,0,0,1,282,202.1a14.953,14.953,0,0,1,.782-3.381c.321-1.062.629-2.124.95-3.172.615-2.082,1.216-4.094,1.788-6.05l3.256-10.885,2.683-8.97c.405-1.313.768-2.543,1.118-3.675a4.652,4.652,0,0,0,.154-3.088,5.155,5.155,0,0,0-1.327-2.124l-1.257-1.4-.755-.866-.224-.28.293.293.824.852,1.285,1.327a5.4,5.4,0,0,1,1.4,2.166,5.072,5.072,0,0,1-.1,3.27c-.321,1.132-.685,2.375-1.062,3.689-.755,2.655-1.635,5.673-2.585,9s-2.026,6.986-3.158,10.913c-.573,1.956-1.16,3.982-1.774,6.064q-.433,1.579-.922,3.186a14.22,14.22,0,0,0-.74,3.214,6.357,6.357,0,0,0,3.046,5.589,6.218,6.218,0,0,0,3.27.922h19.17a6.986,6.986,0,0,0,3.912-1.132,6.791,6.791,0,0,0,2.473-3.13,6.414,6.414,0,0,0,.265-3.926c-.335-1.3-.8-2.641-1.174-3.926L309,181.643c-1.4-4.709-2.794-9.138-4.052-13.218l-.908-3a4.764,4.764,0,0,1,0-3.088,5.841,5.841,0,0,1,1.691-2.375l1.858-1.914.182.405-13.637-.154H289.1Z" transform="translate(-280.408 -101.753)" fill="#263238"/>
                  <path id="Trazado_254226" data-name="Trazado 254226" d="M306.782,174.2a11.653,11.653,0,0,1-5.8-.126c-1.816-.5-3.493-1.4-5.3-2.026a6.986,6.986,0,0,0-5.505,0l-6.12,22.342a5.589,5.589,0,0,0,5.435,7.14h17.354a5.589,5.589,0,0,0,5.449-7.112Z" transform="translate(-279.675 -96.352)" fill="#ff725e"/>
                  <g id="Grupo_145880" data-name="Grupo 145880" transform="translate(7.773 78.227)" opacity="0.3">
                    <path id="Trazado_254227" data-name="Trazado 254227" d="M290.681,198.487c0,.07-.405.14-1.1-.112a4.681,4.681,0,0,1-2.277-2.026,5.952,5.952,0,0,1-.741-2.012,9.333,9.333,0,0,1-.1-2.431,38.343,38.343,0,0,1,1.09-5.226c1.83-7.252,3.577-13.05,3.884-12.98s-.908,6.022-2.794,13.274a46.215,46.215,0,0,0-1.16,5.044,8.69,8.69,0,0,0,0,2.166,5.912,5.912,0,0,0,.517,1.76,4.975,4.975,0,0,0,1.746,2.026C290.331,198.306,290.695,198.4,290.681,198.487Z" transform="translate(-286.423 -173.7)" fill="#fff"/>
                  </g>
                  <path id="Trazado_254228" data-name="Trazado 254228" d="M304.267,176.167a3.076,3.076,0,0,1-.573.279c-.391.154-.95.391-1.649.615a9.293,9.293,0,0,1-2.571.517,6.691,6.691,0,0,1-1.565-.1,7.783,7.783,0,0,1-1.593-.5c-1.048-.433-1.984-.978-2.878-1.4a8.159,8.159,0,0,0-2.459-.7,4.654,4.654,0,0,0-1.719.154c-.391.126-.587.252-.6.224l.14-.1.433-.21a4.3,4.3,0,0,1,1.761-.238,8.131,8.131,0,0,1,2.529.671c.908.391,1.858.922,2.892,1.4a8.287,8.287,0,0,0,1.551.489,6.872,6.872,0,0,0,1.5.112,10.354,10.354,0,0,0,2.529-.461c.713-.21,1.272-.419,1.663-.545A3.8,3.8,0,0,1,304.267,176.167Z" transform="translate(-277.761 -95.075)" fill="#fafafa"/>
                  <path id="Trazado_254229" data-name="Trazado 254229" d="M300.592,173.48a9.781,9.781,0,0,1-1.4-4.331,7.893,7.893,0,0,1,.1-3.242c.265-.824.7-1.188.74-1.146s-.2.475-.335,1.244a10.607,10.607,0,0,0,.084,3.074C300.145,171.524,300.76,173.48,300.592,173.48Z" transform="translate(-273.625 -99.025)" fill="#986b62"/>
                  <path id="Trazado_254230" data-name="Trazado 254230" d="M287.7,164.38a3.074,3.074,0,0,1,1.4,5.435,11.594,11.594,0,0,1,2.725,2.138,4.052,4.052,0,0,1,1.048,3.214,2.445,2.445,0,0,1-2.417,2.054,7.364,7.364,0,0,1,4.08,2.333c.908,1.313.5,3.591-1.076,3.9a1.775,1.775,0,0,1-.294,2.222,4.667,4.667,0,0,1-2.138,1.132,38.646,38.646,0,0,1-7.238,1.579" transform="translate(-279.696 -99.175)" fill="#d09284"/>
                  <path id="Trazado_254231" data-name="Trazado 254231" d="M283.78,188.369c0-.084,1.258-.238,3.367-.727,1.048-.251,2.319-.573,3.717-1.034a5.294,5.294,0,0,0,2-1.006,1.593,1.593,0,0,0,.377-2h0a.265.265,0,0,1,0-.377.224.224,0,0,1,.126,0c.978-.168,1.481-1.4,1.258-2.515a3.689,3.689,0,0,0-2.333-2.445,16,16,0,0,0-1.984-.727.3.3,0,0,1,.112-.573,2.1,2.1,0,0,0,1.97-1.4,3.032,3.032,0,0,0-.14-2.417,8.58,8.58,0,0,0-3.326-3.172h0a.21.21,0,0,1-.07-.307h0a2.977,2.977,0,0,0,1.118-2.4,2.878,2.878,0,0,0-.8-1.886,4.093,4.093,0,0,0-1.565-.964h.489a2.92,2.92,0,0,1,1.258.727,3.115,3.115,0,0,1,.978,2.054,3.34,3.34,0,0,1-1.2,2.795v-.363a8.761,8.761,0,0,1,3.563,3.311,3.591,3.591,0,0,1,.182,2.878,2.655,2.655,0,0,1-2.543,1.7l.112-.573a18.16,18.16,0,0,1,2.054.741,4.192,4.192,0,0,1,2.767,2.906,3.241,3.241,0,0,1-.238,1.928,2.068,2.068,0,0,1-1.5,1.216l.168-.433a1.8,1.8,0,0,1,.266,1.5,2.319,2.319,0,0,1-.727,1.2,5.589,5.589,0,0,1-2.208,1.076,35.559,35.559,0,0,1-3.786.922c-1.076.21-1.942.307-2.529.363A3.728,3.728,0,0,1,283.78,188.369Z" transform="translate(-279.7 -99.159)" fill="#986b62"/>
                  <path id="Trazado_254232" data-name="Trazado 254232" d="M293.346,178.934c0,.07-.489-.265-1.271-.6a8.971,8.971,0,0,0-3.2-.713,23.354,23.354,0,0,0-3.367.168,4.19,4.19,0,0,1-1.4,0c0-.084.5-.265,1.4-.447a13.066,13.066,0,0,1,3.437-.349,7.433,7.433,0,0,1,3.381.922C293.052,178.4,293.4,178.878,293.346,178.934Z" transform="translate(-279.569 -94.167)" fill="#986b62"/>
                  <path id="Trazado_254233" data-name="Trazado 254233" d="M284.94,172.7a6.986,6.986,0,0,1,5.268,1.4,11.289,11.289,0,0,1-2.641-.643,11.666,11.666,0,0,1-2.627-.754Z" transform="translate(-279.239 -95.898)" fill="#986b62"/>
                  <path id="Trazado_254234" data-name="Trazado 254234" d="M283.94,167.381a5.812,5.812,0,0,1,2.7.321,5.589,5.589,0,0,1,2.487,1.062,7.42,7.42,0,0,1-2.641-.489A7.225,7.225,0,0,1,283.94,167.381Z" transform="translate(-279.636 -97.999)" fill="#986b62"/>
                  <path id="Trazado_254235" data-name="Trazado 254235" d="M305.294,158a6.987,6.987,0,0,1-2.417,1.4,18.262,18.262,0,0,1-6.6,1.313,18.471,18.471,0,0,1-6.623-1.16,7.46,7.46,0,0,1-2.459-1.313,23.027,23.027,0,0,0,18.094-.21Z" transform="translate(-278.341 -101.709)" fill="#263238"/>
                </g>
              </g>
            </g>
          </g>
        </g>
      </g>
      <path id="Trazado_251055" data-name="Trazado 251055" d="M131.363,372.11H95.951l-17.7,30.673,17.7,30.673h35.412l17.712-30.673Z" transform="translate(16.139 -45.351)" opacity="0.4" fill="url(#linear-gradient)"/>
      <path id="Trazado_251057" data-name="Trazado 251057" d="M422.881,63.76H379.744L358.17,101.12l21.574,37.36h43.137l21.574-37.36Z" transform="translate(4.099 -44.377)" opacity="0.2" fill="url(#linear-gradient)"/>
    </g>
  </g>
</svg>
