<svg xmlns="http://www.w3.org/2000/svg" xmlns:xlink="http://www.w3.org/1999/xlink" width="536.282" height="488.216" viewBox="0 0 536.282 488.216">
  <defs>
    <clipPath id="clip-path">
      <path id="Trazado_251719" data-name="Trazado 251719" d="M383.8,80.75H168.1L60.25,267.55,168.1,454.361H383.8L491.653,267.55Z" transform="translate(-60.25 -80.75)" fill="none"/>
    </clipPath>
  </defs>
  <g id="BACKGROUND" transform="translate(0.56 0.485)">
    <path id="Trazado_251609" data-name="Trazado 251609" d="M91.654,197.63h-45.4l-22.7,39.321,22.7,39.321h45.4l22.69-39.321Z" transform="translate(-23.55 -18.741)" fill="none" stroke="#28965a" stroke-miterlimit="10" stroke-width="0.97" opacity="0.3"/>
    <path id="Trazado_251610" data-name="Trazado 251610" d="M332.353,28.78H286.961L264.26,68.1l22.7,39.321h45.391l22.7-39.321Z" transform="translate(24.286 -14.136)" fill="#169788" stroke="#2ceaa3" stroke-miterlimit="10" stroke-width="0.97" opacity="0.28"/>
    <path id="Trazado_251611" data-name="Trazado 251611" d="M476.673,264.12H431.281l-22.7,39.309,22.7,39.321h45.391l22.7-39.321Z" transform="translate(35.788 -8.494)" fill="none" stroke="#2ceaa3" stroke-miterlimit="10" stroke-width="0.97"/>
    <path id="Trazado_251612" data-name="Trazado 251612" d="M469.058,163.9H446.253l-11.4,19.747,11.4,19.758h22.805l11.4-19.758Z" transform="translate(39.837 -23.939)" fill="none" stroke="#28965a" stroke-miterlimit="10" stroke-width="0.97" opacity="0.3"/>
    <path id="Trazado_251613" data-name="Trazado 251613" d="M74.7,314.66H51.893l-11.4,19.758,11.4,19.747H74.7l11.4-19.747Z" transform="translate(-20.939 -0.705)" fill="none" stroke="#2ceaa3" stroke-miterlimit="10" stroke-width="0.97"/>
    <path id="Trazado_251614" data-name="Trazado 251614" d="M196.758,25.29H173.953l-11.4,19.747,11.4,19.758h22.805l11.4-19.758Z" transform="translate(47.083 -25.29)" fill="#169788" stroke="#28965a" stroke-miterlimit="10" stroke-width="0.97" opacity="0.28"/>
    <path id="Trazado_251615" data-name="Trazado 251615" d="M333.728,441.01H310.923l-11.4,19.747,11.4,19.747h22.805l11.4-19.747Z" transform="translate(18.981 5.099)" fill="none" stroke="#2ceaa3" stroke-miterlimit="10" stroke-width="0.97" opacity="0.5"/>
    <path id="Trazado_251616" data-name="Trazado 251616" d="M255.752,414.21H222.04l-16.85,29.2,16.85,29.2h33.712l16.85-29.2Z" transform="translate(4.443 14.637)" fill="none" stroke="#28965a" stroke-miterlimit="10" stroke-width="0.97" opacity="0.3"/>
  </g>
  <path id="Trazado_251668" data-name="Trazado 251668" d="M408.738,72.3H169.906L50.49,279.129l119.416,206.84H408.738l119.416-206.84Z" transform="translate(-16.687 -38.737)" fill="#169788" opacity="0.5"/>
  <path id="Trazado_251669" data-name="Trazado 251669" d="M394.639,80.75H171.713L60.25,273.807,171.713,466.874H394.639L506.1,273.807Z" transform="translate(-10.541 -31.652)" fill="#addbd5"/>
  <path id="Trazado_251769" data-name="Trazado 251769" d="M376.626,80.75H165.709L60.25,263.407,165.709,446.074H376.626L482.085,263.407Z" transform="translate(1.469 -21.252)" fill="#dbefec"/>
  <g id="Grupo_131641" data-name="Grupo 131641" transform="translate(56.935 51.212)" clip-path="url(#clip-path)">
    <path id="Trazado_251670" data-name="Trazado 251670" d="M259.05,318.595s8.751-31.6,16.19-36.756,29.766-6.028,29.766-4.31-4.2,6.979-4.2,6.979l-13.215,46.777Z" transform="translate(-41.576 -62.341)" fill="#ff8775"/>
    <path id="Trazado_251671" data-name="Trazado 251671" d="M238.75,362.282l22.207-47.3,38.857,13.98-18.487,66-38.7,10.108Z" transform="translate(-43.483 -58.748)" fill="#fff"/>
    <path id="Trazado_251672" data-name="Trazado 251672" d="M281.823,328.44h0a4.256,4.256,0,0,1-3.468-4.923l11.65-66.544a4.266,4.266,0,0,1,4.934-3.468h0a4.255,4.255,0,0,1,3.457,4.934l-11.672,66.555a4.245,4.245,0,0,1-4.9,3.446Z" transform="translate(-39.769 -64.529)" fill="#2a6041"/>
    <circle id="Elipse_5984" data-name="Elipse 5984" cx="31.527" cy="31.527" r="31.527" transform="translate(213.049 171.52) rotate(-39)" fill="#fff" stroke="#28965a" stroke-miterlimit="10" stroke-width="4.77"/>
    <path id="Trazado_251673" data-name="Trazado 251673" d="M307.165,284.38a2.834,2.834,0,0,0-1.542-.624c-4.245-.328-22.644-1.225-31.462,7.307-10.009,9.67,1.225,21.5,13.554,23.64a72.778,72.778,0,0,0,17.153,1.028,2.8,2.8,0,0,0,2.472-3.7l-.077-.23a2.789,2.789,0,0,1,.634-2.833l2.549-2.647a2.822,2.822,0,0,0,.23-3.632l-.864-1.16a2.79,2.79,0,0,1,.142-3.522l.7-.81a2.779,2.779,0,0,0,.219-3.424l-1.521-2.253a2.8,2.8,0,0,1-.208-2.779h0a2.811,2.811,0,0,0-.766-3.38Z" transform="translate(-40.519 -61.7)" fill="#ff8775"/>
    <path id="Trazado_251674" data-name="Trazado 251674" d="M299.857,283.829c-11.574.252-33.507,3.052-29.055,19.417,2.921,8.062,12.471,10.786,20.194,11.935-8.062-.525-18.061-3.216-21.146-11.618-5-17.175,17.776-20.643,30.007-19.691Z" transform="translate(-40.628 -61.684)" fill="#2a6041"/>
    <line id="Línea_479" data-name="Línea 479" x1="37.139" y2="1.674" transform="translate(231.301 228.872)" fill="none" stroke="#2a6041" stroke-miterlimit="10" stroke-width="1"/>
    <line id="Línea_480" data-name="Línea 480" x1="39.721" y1="0.208" transform="translate(229.048 237.81)" fill="none" stroke="#2a6041" stroke-miterlimit="10" stroke-width="1"/>
    <line id="Línea_481" data-name="Línea 481" x1="36.001" y1="4.376" transform="translate(230.743 244.012)" fill="none" stroke="#2a6041" stroke-miterlimit="10" stroke-width="1"/>
    <path id="Trazado_251675" data-name="Trazado 251675" d="M0,0H1.75A30.63,30.63,0,0,1,32.38,30.63v1.75H30.63A30.63,30.63,0,0,1,0,1.75Z" transform="translate(312.487 96.325) rotate(-135)" fill="#28965a"/>
    <line id="Línea_482" data-name="Línea 482" y2="211.304" transform="translate(312.493 50.594)" fill="none" stroke="#202c23" stroke-linecap="round" stroke-miterlimit="10" stroke-width="0.7"/>
    <path id="Trazado_251676" data-name="Trazado 251676" d="M352.259,133.54l-5.754,5.765-5.885-5.885" transform="translate(-33.914 -75.803)" fill="none" stroke="#202c23" stroke-linecap="round" stroke-miterlimit="10" stroke-width="0.7"/>
    <path id="Trazado_251677" data-name="Trazado 251677" d="M356.147,141.673l-9.331,9.342-9.5-9.5" transform="translate(-34.224 -75.042)" fill="none" stroke="#202c23" stroke-linecap="round" stroke-miterlimit="10" stroke-width="0.7"/>
    <path id="Trazado_251678" data-name="Trazado 251678" d="M356.474,152.81l-9.627,9.627-9.867-9.856" transform="translate(-34.256 -74.003)" fill="none" stroke="#202c23" stroke-linecap="round" stroke-miterlimit="10" stroke-width="0.7"/>
    <path id="Trazado_251679" data-name="Trazado 251679" d="M.066,0h1.75a30.63,30.63,0,0,1,30.63,30.63v1.75H30.63A30.63,30.63,0,0,1,0,1.75V0Z" transform="translate(306.782 113.134) rotate(180)" fill="#28965a"/>
    <line id="Línea_483" data-name="Línea 483" x2="38.156" y2="38.156" transform="translate(274.369 80.798)" fill="none" stroke="#202c23" stroke-linecap="round" stroke-miterlimit="10" stroke-width="0.7"/>
    <path id="Trazado_251680" data-name="Trazado 251680" d="M320.184,155.45v8.139H311.87" transform="translate(-36.615 -73.733)" fill="none" stroke="#202c23" stroke-linecap="round" stroke-miterlimit="10" stroke-width="0.7"/>
    <path id="Trazado_251681" data-name="Trazado 251681" d="M328.682,158.89v13.193H315.26" transform="translate(-36.296 -73.41)" fill="none" stroke="#202c23" stroke-linecap="round" stroke-miterlimit="10" stroke-width="0.7"/>
    <path id="Trazado_251682" data-name="Trazado 251682" d="M336.789,166.56v13.619H322.83" transform="translate(-35.585 -72.69)" fill="none" stroke="#202c23" stroke-linecap="round" stroke-miterlimit="10" stroke-width="0.7"/>
    <path id="Trazado_251683" data-name="Trazado 251683" d="M.066,0h1.75a30.63,30.63,0,0,1,30.63,30.63v1.75H30.63A30.63,30.63,0,0,1,0,1.75V0Z" transform="translate(306.782 146.685) rotate(180)" fill="#28965a"/>
    <line id="Línea_484" data-name="Línea 484" x2="38.156" y2="38.156" transform="translate(274.369 114.349)" fill="none" stroke="#202c23" stroke-linecap="round" stroke-miterlimit="10" stroke-width="0.7"/>
    <path id="Trazado_251684" data-name="Trazado 251684" d="M320.184,186.12v8.139H311.87" transform="translate(-36.615 -70.852)" fill="none" stroke="#202c23" stroke-linecap="round" stroke-miterlimit="10" stroke-width="0.7"/>
    <path id="Trazado_251685" data-name="Trazado 251685" d="M328.682,189.56v13.193H315.26" transform="translate(-36.296 -70.529)" fill="none" stroke="#202c23" stroke-linecap="round" stroke-miterlimit="10" stroke-width="0.7"/>
    <path id="Trazado_251686" data-name="Trazado 251686" d="M336.789,197.23v13.619H322.83" transform="translate(-35.585 -69.809)" fill="none" stroke="#202c23" stroke-linecap="round" stroke-miterlimit="10" stroke-width="0.7"/>
    <path id="Trazado_251687" data-name="Trazado 251687" d="M381.32,167.11h1.75v1.75a30.63,30.63,0,0,1-30.63,30.63h-1.75v-1.75a30.63,30.63,0,0,1,30.63-30.63Z" transform="translate(-32.968 -72.638)" fill="#28965a"/>
    <line id="Línea_485" data-name="Línea 485" x1="37.577" y2="37.577" transform="translate(312.525 94.472)" fill="none" stroke="#202c23" stroke-linecap="round" stroke-miterlimit="10" stroke-width="0.7"/>
    <path id="Trazado_251688" data-name="Trazado 251688" d="M371.89,167.94v8.15H380.2" transform="translate(-30.977 -72.56)" fill="none" stroke="#202c23" stroke-linecap="round" stroke-miterlimit="10" stroke-width="0.7"/>
    <path id="Trazado_251689" data-name="Trazado 251689" d="M363.83,171.38v13.2h13.423" transform="translate(-31.734 -72.237)" fill="none" stroke="#202c23" stroke-linecap="round" stroke-miterlimit="10" stroke-width="0.7"/>
    <path id="Trazado_251690" data-name="Trazado 251690" d="M355.77,179.06v13.619h13.948" transform="translate(-32.491 -71.516)" fill="none" stroke="#202c23" stroke-linecap="round" stroke-miterlimit="10" stroke-width="0.7"/>
    <g id="Grupo_131639" data-name="Grupo 131639" transform="translate(300.886 165.534)" opacity="0.7">
      <path id="Trazado_251691" data-name="Trazado 251691" d="M336.844,234.09h18.6v118.6a9.32,9.32,0,0,1-9.32,9.32h0a9.32,9.32,0,0,1-9.32-9.32V234.09Z" transform="translate(-335.159 -231.88)" fill="#fff"/>
      <g id="Grupo_131638" data-name="Grupo 131638" opacity="0.3">
        <path id="Trazado_251692" data-name="Trazado 251692" d="M336.394,232.07a1.094,1.094,0,0,0,0,2.188h.591V352.884a9.31,9.31,0,0,0,5.077,8.292V232.092Z" transform="translate(-335.3 -232.07)" fill="#80f2c8"/>
      </g>
      <path id="Trazado_251693" data-name="Trazado 251693" d="M356.216,232.07H336.394a1.094,1.094,0,0,0-1.094,1.094h0a1.094,1.094,0,0,0,1.094,1.094h19.822a1.094,1.094,0,0,0,1.094-1.094h0A1.094,1.094,0,0,0,356.216,232.07Z" transform="translate(-335.3 -232.07)" fill="#fff"/>
      <rect id="Rectángulo_43857" data-name="Rectángulo 43857" width="18.63" height="1.389" transform="translate(1.685 2.21)" fill="#2a6041" opacity="0.2"/>
    </g>
    <path id="Trazado_251694" data-name="Trazado 251694" d="M248.4,138.78c7.789,7.2,12.34,17.361,14.571,27.731s2.3,21.069,2.363,31.724c3.621,2.549,7.406,5.131,10.874,7.887a54.271,54.271,0,0,1-10.721,8.555s1.006,31.122-11.836,37.7-35.761-1.521-35.761-1.521l-.711,26,18.706,23.323s-15.37,8.642-42.992-6.968-41.307-47.783-41.307-47.783L181.126,141.2Z" transform="translate(-51.67 -75.299)" fill="#ff8775"/>
    <path id="Trazado_251695" data-name="Trazado 251695" d="M185.87,273.43l40.18,5.8s44.381,42.587,46.941,58.438-22.021,69.246-22.021,69.246Z" transform="translate(-48.45 -62.651)" fill="#2a6041"/>
    <path id="Trazado_251696" data-name="Trazado 251696" d="M97.38,612.345s33.627-261.154,43.637-290.493,40.071-58.591,40.071-58.591,52.771,19.953,67.528,52.159,17.612,115.957,17.612,115.957v202.17S231,655.271,178.145,645.25,97.38,612.345,97.38,612.345Z" transform="translate(-56.762 -63.606)" fill="#fff"/>
    <path id="Trazado_251697" data-name="Trazado 251697" d="M215.92,195.139c-2.713-4.934-7.384-10.294-17.054-4.157s-.492,23.541,5.032,27.228,9.189,2.735,9.189,2.735-6.421,38.692-38,74.256S122.257,477.45,122.257,477.45,93.005,473.6,81.049,449.118s-5.656-62.8-5.656-62.8S65.712,395,61.719,406.684s0,34.831,0,34.831-26.386-30.63-7.209-80.951,53.909-62.354,69.279-117.051S145.033,124.5,186.515,113.674s87.23-2.418,99.548,15.184c10.075,14.462.656,24.471-2.1,28.048a83.873,83.873,0,0,1-8.248,8.522s3.84-9.08,1.925-15.95a36.583,36.583,0,0,0-5.59-11.552s4.212,17.875-3.479,25.576-20.347,5.229-20.347,5.229a19.373,19.373,0,0,0,6.87-7.428,32.816,32.816,0,0,0,2.472-10.721s-4.945,12.919-15.676,15.392-11.508,1.652-11.508,1.652.788,11.278-.306,19.253-9.9,20.347-9.9,20.347a51.415,51.415,0,0,0-4.255-12.088Z" transform="translate(-61.445 -78.111)" fill="#202c23"/>
    <path id="Trazado_251698" data-name="Trazado 251698" d="M241.84,189.056c0,2.877,1.63,5.207,3.643,5.207s3.643-2.33,3.643-5.207-1.63-5.2-3.643-5.2S241.84,186.2,241.84,189.056Z" transform="translate(-43.193 -71.065)" fill="#202c23"/>
    <path id="Trazado_251699" data-name="Trazado 251699" d="M234.62,185.057c2-9.058,12.132-15.676,21.255-14.035.613.142,1.477.153,1.8.831l-.2.142c-.438-.23-.974.055-1.575.175-3.905.985-7.909,1.7-11.629,3.227a17.984,17.984,0,0,0-9.419,9.725Z" transform="translate(-43.871 -72.294)" fill="#202c23"/>
    <path id="Trazado_251700" data-name="Trazado 251700" d="M255.586,225.019a34.4,34.4,0,0,1-13-14.659,33.233,33.233,0,0,0,14.221,12.46l-1.192,2.188Z" transform="translate(-43.122 -68.575)" fill="#202c23"/>
    <path id="Trazado_251701" data-name="Trazado 251701" d="M186,194.129a12.624,12.624,0,0,1,3.347-6.148c1.9-1.794,5.306-2.352,7.417-.492s2.7,4.135,3.533,6.432a51.419,51.419,0,0,1,1.816,7.34,11.661,11.661,0,0,1-3.851,2.538c-2.429.985-2.571,2.986-.963,4.857.766.9,1.783,1.7,2.6,2.669-2.188-1.367-5.185-2.494-5.218-5.71,0-2.943,3.851-3.905,5.327-5.524l-.273,1.017c-.536-2.188-1.094-4.3-1.816-6.41s-1.324-4.3-2.6-5.47c-3.763-2.943-7.417,1.794-9.32,4.956Z" transform="translate(-48.438 -70.832)" fill="#202c23"/>
    <path id="Trazado_251702" data-name="Trazado 251702" d="M200.69,237.12l12.591,4.452-.306,11.246Z" transform="translate(-47.058 -66.062)" fill="#202c23"/>
    <path id="Trazado_251703" data-name="Trazado 251703" d="M231.21,204.952c0,2.133,2.79,3.873,6.224,3.873s6.224-1.739,6.224-3.873-2.79-3.873-6.224-3.873S231.21,202.808,231.21,204.952Z" transform="translate(-44.191 -69.447)" fill="#ff8775"/>
    <g id="Grupo_131640" data-name="Grupo 131640" transform="translate(-9.827 31.133)" opacity="0.3">
      <path id="Trazado_251704" data-name="Trazado 251704" d="M219.892,161.354a26.987,26.987,0,0,1-26.342-2.844,40.924,40.924,0,0,0,26.342,2.844Z" transform="translate(-37.902 -104.579)" fill="#6bffb8"/>
      <path id="Trazado_251705" data-name="Trazado 251705" d="M234.832,110.73c14.1,10.8,21.266,31.494,10.611,47.039a25.336,25.336,0,0,1-13.784,10.458,26.769,26.769,0,0,0,12.974-10.939c9.944-15.457,2.943-35.006-9.845-46.558Z" transform="translate(-34.322 -109.067)" fill="#6bffb8"/>
      <path id="Trazado_251706" data-name="Trazado 251706" d="M233.485,109.76c2.188,9.659,4.19,20.785-1.674,29.635s-16.737,12.252-26.79,12.81-20.456-.241-30.094-3.588-18.389-9.845-22.677-19.155c4.726,8.97,13.51,15.151,22.973,18.247s19.691,3.73,29.711,3.282c9.845-.438,20.238-3.774,26.079-12.033,5.907-8.522,4.08-19.483,2.461-29.1Z" transform="translate(-41.781 -109.158)" fill="#6bffb8"/>
      <path id="Trazado_251707" data-name="Trazado 251707" d="M221.878,109.21c-2.068,12.416-13.619,21.419-25.707,23.1A44.271,44.271,0,0,1,177.924,131c-5.8-1.641-11.771-4.463-15.184-9.637,3.807,4.791,9.638,7.275,15.424,8.751,17.645,4.791,38.528-1.849,43.757-20.861Z" transform="translate(-40.796 -109.21)" fill="#6bffb8"/>
      <path id="Trazado_251708" data-name="Trazado 251708" d="M153.258,153.93c-7.5,50.124-15.534,101.736-41.285,146.248a179.4,179.4,0,0,1-22.71,30.761c-17.908,19.133-34.481,37.325-37.019,64.7a84.233,84.233,0,0,0,4.233,37.544c-8.948-23.881-6.356-52.027,7.658-73.512,6.848-10.786,15.873-19.964,24.34-29.449,43.757-47.859,54.445-114.557,64.772-176.287Z" transform="translate(-51.267 -105.009)" fill="#6bffb8"/>
      <path id="Trazado_251709" data-name="Trazado 251709" d="M163.548,179.64c-1.914,49.785-7.242,95.074-41.821,133.755-12.175,14.659-25.664,28.267-36.275,44.14A104.93,104.93,0,0,0,72.62,382.958C78.243,364.569,90,348.893,102.266,334.4s25.489-28.442,35.334-44.775c20.063-32.873,23.366-72.386,25.948-109.984Z" transform="translate(-49.261 -102.594)" fill="#6bffb8"/>
      <path id="Trazado_251710" data-name="Trazado 251710" d="M170.319,195.34c1.477,33.649-2.385,68.546-18.192,98.749C140.444,316.613,123.8,336.217,113.2,359.3a107.29,107.29,0,0,0-7.658,23.946c-3.632,18.378-.842,50.649,14.352,63.273-6.728-5.284-10.37-13.466-12.777-21.485a91.573,91.573,0,0,1,1.892-58.318c9.769-26.637,29.066-48.242,42.105-73.14,15.785-30.05,20-64.673,19.2-98.224Z" transform="translate(-46.384 -101.12)" fill="#6bffb8"/>
    </g>
    <path id="Trazado_251711" data-name="Trazado 251711" d="M309.65,335.675l4.693-10.578s5.59-8.751,10.863-15.5,14.221-18.236,14.221-18.236v12.919h0a43.166,43.166,0,0,0,18.258-15.315l.35-.514,5.47,7.493a7.352,7.352,0,0,1,1.367,3.654l.58,6.87a7.286,7.286,0,0,0,1.411,3.719h0a7.253,7.253,0,0,1,1.2,6.148l-.886,3.457a7.22,7.22,0,0,0,.875,5.667l.131.208a7.264,7.264,0,0,1,.394,6.99l-.93,1.969a7.3,7.3,0,0,1-3.61,3.5l-38.583,13.893Z" transform="translate(-36.823 -61.24)" fill="#ff8775"/>
    <path id="Trazado_251712" data-name="Trazado 251712" d="M239.887,375.854,321.243,322l15.315,37.3s-30.2,24.34-56.009,46.251-44.359,30.2-44.359,30.2Z" transform="translate(-43.724 -58.089)" fill="#fff"/>
    <path id="Trazado_251713" data-name="Trazado 251713" d="M176.7,292.56c10.939-.077,22.612,2.3,31.133,9.539a43.944,43.944,0,0,1,7.22,8.423c14.123,20.074,26.911,41.033,39.753,61.927l-.667-.142c14.473-9.638,35.159-22.973,49.566-32.271-14,9.714-34.678,23.388-49.008,33.07l-.416.284-.262-.438C241.067,352.168,228.279,331.209,214.4,311a43.518,43.518,0,0,0-6.979-8.391c-8.347-7.22-19.844-9.845-30.685-10.053Z" transform="translate(-49.312 -60.854)" fill="#202c23"/>
    <path id="Trazado_251714" data-name="Trazado 251714" d="M258.778,422.748q-8.38,5.131-16.814,10.174l-.23.131-.175-.208c-21.966-25.817-43.67-51.863-64.859-78.315q25,28.8,49.227,58.274,8.139,9.769,16.135,19.636l-.394-.066q8.533-4.857,17.131-9.627Z" transform="translate(-49.312 -55.033)" fill="#202c23"/>
    <line id="Línea_486" data-name="Línea 486" x2="14.637" y2="39.863" transform="translate(264.141 272.728)" fill="none" stroke="#202c23" stroke-miterlimit="10" stroke-width="1"/>
    <circle id="Elipse_5985" data-name="Elipse 5985" cx="25.718" cy="25.718" r="25.718" transform="matrix(0.239, -0.971, 0.971, 0.239, 337.499, 209.563)" fill="none" stroke="#202c23" stroke-miterlimit="10" stroke-width="1"/>
    <path id="Trazado_251715" data-name="Trazado 251715" d="M398.663,235.013V212.194L381.51,195.03" transform="translate(-30.073 -70.015)" fill="none" stroke="#202c23" stroke-miterlimit="10" stroke-width="1"/>
    <path id="Trazado_251716" data-name="Trazado 251716" d="M383.881,193.332a2.877,2.877,0,1,0,0,4.08,2.877,2.877,0,0,0,0-4.08Z" transform="translate(-30.311 -70.254)" fill="#202c23"/>
    <circle id="Elipse_5986" data-name="Elipse 5986" cx="15.84" cy="15.84" r="15.84" transform="translate(233.896 35.76) rotate(-45)" fill="none" stroke="#202c23" stroke-miterlimit="10" stroke-width="1"/>
    <path id="Trazado_251717" data-name="Trazado 251717" d="M294.53,127.92v14.046l9.834,9.834" transform="translate(-38.244 -76.319)" fill="none" stroke="#202c23" stroke-miterlimit="10" stroke-width="1"/>
    <path id="Trazado_251718" data-name="Trazado 251718" d="M301.632,151.942a2.877,2.877,0,1,0,0-4.069A2.877,2.877,0,0,0,301.632,151.942Z" transform="translate(-37.655 -74.524)" fill="#202c23"/>
  </g>
</svg>
