<svg xmlns="http://www.w3.org/2000/svg" xmlns:xlink="http://www.w3.org/1999/xlink" width="501.93" height="454.597" viewBox="0 0 501.93 454.597">
  <defs>
    <clipPath id="clip-path">
      <path id="Trazado_251605" data-name="Trazado 251605" d="M333.967,89.89h-211.7L16.42,273.223,122.269,456.566h211.7L439.815,273.223Z" transform="translate(-16.42 -89.89)" fill="none"/>
    </clipPath>
    <linearGradient id="linear-gradient" x1="0.5" x2="0.5" y2="1" gradientUnits="objectBoundingBox">
      <stop offset="0" stop-color="#81b722"/>
      <stop offset="1" stop-color="#169788"/>
    </linearGradient>
  </defs>
  <g id="contenedor-01" transform="translate(-19.934 -64.251)">
    <path id="Trazado_250993" data-name="Trazado 250993" d="M89.109,197.63H45.4L23.55,235.481,45.4,273.332H89.109l21.842-37.851Z" transform="translate(0.338 18.081)" fill="none" stroke="#28965a" stroke-miterlimit="10" stroke-width="0.97" opacity="0.3"/>
    <path id="Trazado_250994" data-name="Trazado 250994" d="M329.808,28.78H286.113L264.26,66.631l21.853,37.851h43.695l21.853-37.851Z" transform="translate(27.052 36.308)" fill="none" stroke="#addbd5" stroke-miterlimit="10" stroke-width="0.97"/>
    <path id="Trazado_250995" data-name="Trazado 250995" d="M474.128,264.12H430.433L408.58,301.96l21.853,37.851h43.695l21.853-37.851Z" transform="translate(10.21 25.46)" fill="none" stroke="#addbd5" stroke-miterlimit="10" stroke-width="0.97"/>
    <path id="Trazado_250996" data-name="Trazado 250996" d="M467.779,163.9H445.826L434.85,182.909l10.977,19.02h21.953l10.977-19.02Z" transform="translate(24.421 14.337)" fill="none" stroke="#28965a" stroke-miterlimit="10" stroke-width="0.97" opacity="0.3"/>
    <path id="Trazado_250997" data-name="Trazado 250997" d="M73.419,314.66H51.466L40.49,333.68l10.976,19.009H73.419L84.4,333.68Z" transform="translate(2.218 31.069)" fill="none" stroke="#addbd5" stroke-miterlimit="10" stroke-width="0.97"/>
    <path id="Trazado_250998" data-name="Trazado 250998" d="M195.479,25.29H173.526L162.55,44.3l10.976,19.02h21.953L206.456,44.3Z" transform="translate(-16.067 42.082)" fill="none" stroke="#28965a" stroke-miterlimit="10" stroke-width="0.97" opacity="0.3"/>
    <path id="Trazado_250999" data-name="Trazado 250999" d="M332.449,441.01H310.5L299.52,460.019,310.5,479.028h21.953l10.976-19.009Z" transform="translate(30.965 20.091)" fill="none" stroke="#2ceaa3" stroke-miterlimit="10" stroke-width="0.97" opacity="0.5"/>
    <path id="Trazado_251000" data-name="Trazado 251000" d="M253.862,414.21H221.41l-16.22,28.108,16.22,28.108h32.452l16.22-28.108Z" transform="translate(20.497 42.116)" fill="none" stroke="#28965a" stroke-miterlimit="10" stroke-width="0.97" opacity="0.3"/>
    <g id="OBJECTS" transform="translate(20.5 64.251)">
      <path id="Trazado_251001" data-name="Trazado 251001" d="M121.462,73.67H58.114L26.44,128.53l31.674,54.86h63.348l31.663-54.86Z" transform="translate(-19.841 -59.927)" fill="none" stroke="#169788" stroke-miterlimit="10" stroke-width="0.89" opacity="0.53"/>
      <path id="Trazado_251002" data-name="Trazado 251002" d="M115.6,69.485l-.556-.955H113.93" transform="translate(-10.131 -60.498)" fill="none" stroke="#28965a" stroke-miterlimit="10" stroke-width="0.98" opacity="0.53"/>
      <line id="Línea_427" data-name="Línea 427" x1="64.448" transform="translate(37.173 8.032)" fill="none" stroke="#28965a" stroke-miterlimit="10" stroke-width="0.98" stroke-dasharray="1.97 1.97"/>
      <path id="Trazado_251003" data-name="Trazado 251003" d="M53.146,68.53H52.035l-.555.955" transform="translate(-17.062 -60.498)" fill="none" stroke="#28965a" stroke-miterlimit="10" stroke-width="0.98"/>
      <line id="Línea_428" data-name="Línea 428" x1="32.218" y2="55.804" transform="translate(1.1 10.888)" fill="none" stroke="#28965a" stroke-miterlimit="10" stroke-width="0.98" stroke-dasharray="1.97 1.97"/>
      <path id="Trazado_251004" data-name="Trazado 251004" d="M21.055,122.18l-.555.967.555.955" transform="translate(-20.5 -54.544)" fill="none" stroke="#28965a" stroke-miterlimit="10" stroke-width="0.98"/>
      <line id="Línea_429" data-name="Línea 429" x2="32.229" y2="55.804" transform="translate(1.644 71.458)" fill="none" stroke="#28965a" stroke-miterlimit="10" stroke-width="0.98" stroke-dasharray="1.97 1.97"/>
      <path id="Trazado_251005" data-name="Trazado 251005" d="M51.48,176.7l.555.967h1.111" transform="translate(-17.062 -48.493)" fill="none" stroke="#28965a" stroke-miterlimit="10" stroke-width="0.98"/>
      <line id="Línea_430" data-name="Línea 430" x2="64.448" transform="translate(38.262 129.173)" fill="none" stroke="#28965a" stroke-miterlimit="10" stroke-width="0.98" stroke-dasharray="1.97 1.97"/>
      <path id="Trazado_251006" data-name="Trazado 251006" d="M113.93,177.667h1.111l.556-.967" transform="translate(-10.131 -48.493)" fill="none" stroke="#28965a" stroke-miterlimit="10" stroke-width="0.98"/>
      <line id="Línea_431" data-name="Línea 431" y1="55.804" x2="32.218" transform="translate(106.565 70.514)" fill="none" stroke="#28965a" stroke-miterlimit="10" stroke-width="0.98" stroke-dasharray="1.97 1.97"/>
      <path id="Trazado_251007" data-name="Trazado 251007" d="M145.91,124.1l.555-.955-.555-.967" transform="translate(-6.582 -54.544)" fill="none" stroke="#28965a" stroke-miterlimit="10" stroke-width="0.98"/>
      <line id="Línea_432" data-name="Línea 432" x1="32.218" y1="55.816" transform="translate(106.021 9.932)" fill="none" stroke="#28965a" stroke-miterlimit="10" stroke-width="0.98" stroke-dasharray="1.97 1.97"/>
      <g id="Grupo_131626" data-name="Grupo 131626" transform="translate(51.15 28.018)" opacity="0.37">
        <path id="Trazado_251008" data-name="Trazado 251008" d="M68.11,88.11V106a16.809,16.809,0,0,0,16.809,16.809h0a16.82,16.82,0,0,1,16.82,16.82v23.631" transform="translate(-66.366 -86.343)" fill="none" stroke="#2a6041" stroke-linecap="round" stroke-miterlimit="10" stroke-width="1.54"/>
        <path id="Trazado_251009" data-name="Trazado 251009" d="M100.353,88.286a1.766,1.766,0,1,1-1.766-1.766A1.766,1.766,0,0,1,100.353,88.286Z" transform="translate(-63.181 -86.52)" fill="#28965a"/>
        <path id="Trazado_251010" data-name="Trazado 251010" d="M100.353,92.346a1.766,1.766,0,1,1-1.766-1.766,1.766,1.766,0,0,1,1.766,1.766Z" transform="translate(-63.181 -86.069)" fill="#28965a"/>
        <path id="Trazado_251011" data-name="Trazado 251011" d="M100.353,96.416a1.766,1.766,0,1,1-1.766-1.766A1.766,1.766,0,0,1,100.353,96.416Z" transform="translate(-63.181 -85.618)" fill="#28965a"/>
        <path id="Trazado_251012" data-name="Trazado 251012" d="M100.353,100.486a1.766,1.766,0,1,1-1.766-1.766A1.766,1.766,0,0,1,100.353,100.486Z" transform="translate(-63.181 -85.166)" fill="#28965a"/>
        <path id="Trazado_251013" data-name="Trazado 251013" d="M100.353,104.556a1.766,1.766,0,1,1-1.766-1.766A1.766,1.766,0,0,1,100.353,104.556Z" transform="translate(-63.181 -84.715)" fill="#28965a"/>
        <path id="Trazado_251014" data-name="Trazado 251014" d="M99.823,108.626a1.766,1.766,0,1,1-1.766-1.766,1.766,1.766,0,0,1,1.766,1.766Z" transform="translate(-63.239 -84.263)" fill="#28965a"/>
        <path id="Trazado_251015" data-name="Trazado 251015" d="M98.233,112.106a1.766,1.766,0,1,1-1.766-1.766,1.766,1.766,0,0,1,1.766,1.766Z" transform="translate(-63.415 -83.876)" fill="#28965a"/>
        <path id="Trazado_251016" data-name="Trazado 251016" d="M95.833,115.176a1.766,1.766,0,1,1-1.766-1.766A1.766,1.766,0,0,1,95.833,115.176Z" transform="translate(-63.682 -83.535)" fill="#28965a"/>
        <path id="Trazado_251017" data-name="Trazado 251017" d="M92.913,117.456a1.766,1.766,0,1,1-1.733-1.766,1.766,1.766,0,0,1,1.733,1.766Z" transform="translate(-64.006 -83.283)" fill="#28965a"/>
        <path id="Trazado_251018" data-name="Trazado 251018" d="M89.473,118.886a1.766,1.766,0,1,1-1.766-1.766A1.766,1.766,0,0,1,89.473,118.886Z" transform="translate(-64.387 -83.124)" fill="#28965a"/>
        <path id="Trazado_251019" data-name="Trazado 251019" d="M66.54,150.436a1.766,1.766,0,1,1,1.766,1.766A1.766,1.766,0,0,1,66.54,150.436Z" transform="translate(-66.54 -79.622)" fill="#28965a"/>
        <path id="Trazado_251020" data-name="Trazado 251020" d="M66.54,146.366a1.766,1.766,0,1,1,1.766,1.766A1.766,1.766,0,0,1,66.54,146.366Z" transform="translate(-66.54 -80.074)" fill="#28965a"/>
        <path id="Trazado_251021" data-name="Trazado 251021" d="M66.54,142.3a1.766,1.766,0,1,1,1.766,1.766A1.766,1.766,0,0,1,66.54,142.3Z" transform="translate(-66.54 -80.525)" fill="#28965a"/>
        <path id="Trazado_251022" data-name="Trazado 251022" d="M66.54,138.226a1.766,1.766,0,1,1,1.766,1.766A1.766,1.766,0,0,1,66.54,138.226Z" transform="translate(-66.54 -80.978)" fill="#28965a"/>
        <path id="Trazado_251023" data-name="Trazado 251023" d="M66.54,134.175a1.766,1.766,0,1,1,.513,1.256A1.766,1.766,0,0,1,66.54,134.175Z" transform="translate(-66.54 -81.426)" fill="#28965a"/>
        <circle id="Elipse_5814" data-name="Elipse 5814" cx="1.766" cy="1.766" r="1.766" transform="translate(0.555 46.451)" fill="#28965a"/>
        <path id="Trazado_251024" data-name="Trazado 251024" d="M68.63,126.62a1.766,1.766,0,1,1,1.766,1.733,1.766,1.766,0,0,1-1.766-1.733Z" transform="translate(-66.308 -82.27)" fill="#28965a"/>
        <path id="Trazado_251025" data-name="Trazado 251025" d="M71,123.525a1.766,1.766,0,1,1,.513,1.256A1.766,1.766,0,0,1,71,123.525Z" transform="translate(-66.045 -82.608)" fill="#28965a"/>
        <path id="Trazado_251026" data-name="Trazado 251026" d="M74,121.266a1.766,1.766,0,1,1,1.766,1.766A1.766,1.766,0,0,1,74,121.266Z" transform="translate(-65.712 -82.859)" fill="#28965a"/>
        <path id="Trazado_251027" data-name="Trazado 251027" d="M77.39,119.826a1.766,1.766,0,1,1,.525,1.257A1.766,1.766,0,0,1,77.39,119.826Z" transform="translate(-65.336 -83.019)" fill="#28965a"/>
        <path id="Trazado_251028" data-name="Trazado 251028" d="M85.443,119.4a1.766,1.766,0,1,1-1.766-1.766A1.766,1.766,0,0,1,85.443,119.4Z" transform="translate(-64.835 -83.067)" fill="#28965a"/>
        <path id="Trazado_251029" data-name="Trazado 251029" d="M98.329,90H70.81a.489.489,0,0,1-.5-.489h0a.5.5,0,0,1,.5-.489H98.329a.489.489,0,0,1,.489.489h0A.489.489,0,0,1,98.329,90Z" transform="translate(-66.122 -86.242)" fill="#2ceaa3"/>
        <path id="Trazado_251030" data-name="Trazado 251030" d="M98.329,93.1H70.81a.489.489,0,0,1-.5-.489h0a.5.5,0,0,1,.5-.489H98.329a.489.489,0,0,1,.489.489h0A.489.489,0,0,1,98.329,93.1Z" transform="translate(-66.122 -85.898)" fill="#2ceaa3"/>
        <path id="Trazado_251031" data-name="Trazado 251031" d="M98.329,96.178H70.81a.489.489,0,0,1-.5-.489h0a.5.5,0,0,1,.5-.489H98.329a.489.489,0,0,1,.489.489h0A.489.489,0,0,1,98.329,96.178Z" transform="translate(-66.122 -85.556)" fill="#2ceaa3"/>
        <path id="Trazado_251032" data-name="Trazado 251032" d="M98.329,99.268H70.81a.489.489,0,0,1-.5-.489h0a.5.5,0,0,1,.5-.489H98.329a.489.489,0,0,1,.489.489h0A.489.489,0,0,1,98.329,99.268Z" transform="translate(-66.122 -85.213)" fill="#2ceaa3"/>
        <path id="Trazado_251033" data-name="Trazado 251033" d="M98.329,102.358H70.81a.489.489,0,0,1-.5-.489h0a.5.5,0,0,1,.5-.489H98.329a.489.489,0,0,1,.489.489h0A.489.489,0,0,1,98.329,102.358Z" transform="translate(-66.122 -84.871)" fill="#2ceaa3"/>
        <path id="Trazado_251034" data-name="Trazado 251034" d="M98.329,105.459H70.81a.5.5,0,0,1-.5-.5h0a.5.5,0,0,1,.5-.489H98.329a.489.489,0,0,1,.489.489h0a.5.5,0,0,1-.489.5Z" transform="translate(-66.122 -84.527)" fill="#2ceaa3"/>
        <path id="Trazado_251035" data-name="Trazado 251035" d="M98.329,108.549H70.81a.5.5,0,0,1-.5-.5h0a.5.5,0,0,1,.5-.489H98.329a.489.489,0,0,1,.522.489h0a.5.5,0,0,1-.522.5Z" transform="translate(-66.122 -84.185)" fill="#2ceaa3"/>
        <path id="Trazado_251036" data-name="Trazado 251036" d="M95.233,111.639H73.38a.5.5,0,0,1-.5-.5h0a.5.5,0,0,1,.5-.489H95.233a.5.5,0,0,1,.5.489h0A.5.5,0,0,1,95.233,111.639Z" transform="translate(-65.836 -83.842)" fill="#2ceaa3"/>
        <path id="Trazado_251037" data-name="Trazado 251037" d="M92.037,114.729H75.95a.5.5,0,0,1-.5-.5h0a.5.5,0,0,1,.5-.489H92.037a.5.5,0,0,1,.5.489h0A.5.5,0,0,1,92.037,114.729Z" transform="translate(-65.552 -83.499)" fill="#2ceaa3"/>
        <path id="Trazado_251038" data-name="Trazado 251038" d="M70.81,149.41H98.329a.489.489,0,0,1,.489.489h0a.5.5,0,0,1-.489.5H70.81a.5.5,0,0,1-.5-.5h0A.5.5,0,0,1,70.81,149.41Z" transform="translate(-66.122 -79.54)" fill="#2ceaa3"/>
        <path id="Trazado_251039" data-name="Trazado 251039" d="M70.81,152.57H98.329a.489.489,0,0,1,.522.478h0a.5.5,0,0,1-.489.5H70.81a.5.5,0,0,1-.5-.5h0A.5.5,0,0,1,70.81,152.57Z" transform="translate(-66.122 -79.19)" fill="#2ceaa3"/>
        <path id="Trazado_251040" data-name="Trazado 251040" d="M70.81,146.32H98.329a.489.489,0,0,1,.489.489h0a.5.5,0,0,1-.489.5H70.81a.5.5,0,0,1-.5-.5h0A.5.5,0,0,1,70.81,146.32Z" transform="translate(-66.122 -79.884)" fill="#2ceaa3"/>
        <path id="Trazado_251041" data-name="Trazado 251041" d="M70.81,143.23H98.329a.489.489,0,0,1,.489.489h0a.5.5,0,0,1-.489.5H70.81a.5.5,0,0,1-.5-.5h0A.5.5,0,0,1,70.81,143.23Z" transform="translate(-66.122 -80.226)" fill="#2ceaa3"/>
        <path id="Trazado_251042" data-name="Trazado 251042" d="M70.81,140.14H98.329a.489.489,0,0,1,.489.489h0a.5.5,0,0,1-.489.5H70.81a.5.5,0,0,1-.5-.5h0a.5.5,0,0,1,.5-.489Z" transform="translate(-66.122 -80.569)" fill="#2ceaa3"/>
        <path id="Trazado_251043" data-name="Trazado 251043" d="M70.81,137.05H98.329a.489.489,0,0,1,.489.489h0a.5.5,0,0,1-.489.5H70.81a.5.5,0,0,1-.5-.5h0A.5.5,0,0,1,70.81,137.05Z" transform="translate(-66.122 -80.912)" fill="#2ceaa3"/>
        <path id="Trazado_251044" data-name="Trazado 251044" d="M70.81,134H98.329a.489.489,0,0,1,.489.489h0a.5.5,0,0,1-.489.5H70.81a.5.5,0,0,1-.5-.5h0a.5.5,0,0,1,.5-.489Z" transform="translate(-66.122 -81.25)" fill="#2ceaa3"/>
        <path id="Trazado_251045" data-name="Trazado 251045" d="M70.81,130.87H98.329a.489.489,0,0,1,.489.489h0a.5.5,0,0,1-.489.5H70.81a.5.5,0,0,1-.5-.5h0a.5.5,0,0,1,.5-.489Z" transform="translate(-66.122 -81.598)" fill="#2ceaa3"/>
        <path id="Trazado_251046" data-name="Trazado 251046" d="M73.38,127.78H95.233a.5.5,0,0,1,.5.489h0a.5.5,0,0,1-.5.5H73.38a.5.5,0,0,1-.5-.5h0A.5.5,0,0,1,73.38,127.78Z" transform="translate(-65.836 -81.94)" fill="#2ceaa3"/>
        <path id="Trazado_251047" data-name="Trazado 251047" d="M75.95,124.69H92.037a.5.5,0,0,1,.5.489h0a.5.5,0,0,1-.5.5H75.95a.5.5,0,0,1-.5-.5h0A.5.5,0,0,1,75.95,124.69Z" transform="translate(-65.552 -82.284)" fill="#2ceaa3"/>
      </g>
      <path id="Trazado_251048" data-name="Trazado 251048" d="M443.439,355.53h-69.6L339.04,415.8l34.8,60.282h69.6L478.246,415.8Z" transform="translate(14.851 -28.647)" fill="none" stroke="#169788" stroke-miterlimit="10" stroke-width="0.97"/>
      <path id="Trazado_251049" data-name="Trazado 251049" d="M448.024,349.57H370.778L332.16,416.462l38.618,66.9h77.246l38.629-66.9Z" transform="translate(14.088 -29.308)" fill="none" stroke="#28965a" stroke-miterlimit="10" stroke-width="1.08" stroke-dasharray="2"/>
      <path id="Trazado_251050" data-name="Trazado 251050" d="M420.771,369.69l-1.255,4.366a14.821,14.821,0,0,0-3.266,1.333l-4.033-2.222-3.6,3.555,2.222,3.977a13.742,13.742,0,0,0-1.355,3.222l-4.444,1.244V390.2l4.444,1.244a13.742,13.742,0,0,0,1.355,3.222l-2.222,3.977,3.6,3.555,4.033-2.222a14.3,14.3,0,0,0,3.266,1.333l1.255,4.377h5.1l1.255-4.377a14.3,14.3,0,0,0,3.266-1.333l4.033,2.222,3.6-3.555-2.222-3.977a14.23,14.23,0,0,0,1.355-3.222L441.6,390.2v-5.033l-4.444-1.244A14.232,14.232,0,0,0,435.8,380.7l2.222-3.977-3.6-3.555-4.033,2.222a14.825,14.825,0,0,0-3.266-1.333l-1.255-4.366Zm2.544,8.588a9.421,9.421,0,1,1-9.532,9.421,9.421,9.421,0,0,1,9.532-9.421Z" transform="translate(22.176 -27.075)" fill="#f4522b" opacity="0.15"/>
      <g id="Grupo_131572" data-name="Grupo 131572" transform="translate(396.842 376.799)" opacity="0.15">
        <path id="Trazado_251051" data-name="Trazado 251051" d="M402.308,400.46l-1.977,6.855a23.5,23.5,0,0,0-5.122,2.089l-6.31-3.466-5.655,5.555,3.522,6.233a21.329,21.329,0,0,0-2.111,5.055l-6.955,1.944v7.9l6.955,1.944a21.106,21.106,0,0,0,2.111,5.055l-3.522,6.244,5.655,5.555,6.31-3.477a22.439,22.439,0,0,0,5.122,2.089l1.978,6.855h8l1.966-6.855a22.047,22.047,0,0,0,5.122-2.089l6.322,3.477,5.644-5.555-3.555-6.221a21.6,21.6,0,0,0,2.111-5.055l6.955-1.944v-7.9l-6.955-1.944a21.8,21.8,0,0,0-2.111-5.077l3.511-6.233-5.644-5.555-6.321,3.466a23.054,23.054,0,0,0-5.122-2.089l-1.966-6.855Zm4,13.476A14.765,14.765,0,1,1,391.365,428.7,14.765,14.765,0,0,1,406.308,413.936Z" transform="translate(-377.7 -400.46)" fill="#fdb32b"/>
      </g>
      <path id="Trazado_251052" data-name="Trazado 251052" d="M395.349,72.3H165.443L50.49,271.4l114.953,199.11H395.349L510.3,271.4Z" transform="translate(-17.172 -60.079)" fill="#169788" opacity="0.3"/>
      <path id="Trazado_251053" data-name="Trazado 251053" d="M388.844,80.75H169.781L60.25,270.461,169.781,460.182H388.844L498.375,270.461Z" transform="translate(-16.089 -59.141)" fill="#81b722"/>
      <path id="Trazado_251054" data-name="Trazado 251054" d="M384.379,85.04H172.76L66.95,268.307,172.76,451.574H384.379L490.2,268.307Z" transform="translate(-15.345 -58.665)" fill="#f7f7f7"/>
      <path id="Trazado_251056" data-name="Trazado 251056" d="M137.679,365.77H93.173L70.92,404.31l22.253,38.54h44.506l22.253-38.54Z" transform="translate(-14.904 -27.51)" fill="none" stroke="#6bffb8" stroke-miterlimit="10" stroke-width="0.98" stroke-dasharray="2"/>
      <path id="Trazado_251058" data-name="Trazado 251058" d="M422.725,66.21H381.574L361.01,101.85l20.564,35.629h41.151L443.3,101.85Z" transform="translate(17.289 -60.755)" fill="none" stroke="#6bffb8" stroke-miterlimit="10" stroke-width="0.98" stroke-dasharray="2"/>
      <g id="_1-01" data-name="1-01" transform="translate(50.795 26.158)">
        <g id="OBJECTS-2" data-name="OBJECTS">
          <g id="Grupo_131630" data-name="Grupo 131630" clip-path="url(#clip-path)">
            <g id="Science-pana" transform="translate(0 8.953)">
              <g id="freepik--background-complete--inject-113" transform="translate(28.636 0)">
                <path id="Trazado_253238" data-name="Trazado 253238" d="M413.162,428.082c-16.2-9.625-21.173-29.354-21.882-47.354-.124-3-.682-6.142.541-8.863s4.431-4.777,7.205-3.714c2.3.886,3.465,3.4,4.875,5.451a17.549,17.549,0,0,0,7.525,6.2c1.985.886,4.431,1.285,6.2.106,2.482-1.622,2.526-5.211,2.287-8.2q-.665-8.322-1.338-16.662a27.885,27.885,0,0,1,.248-8.925c.718-2.9,2.57-5.672,5.318-6.683s6.408.372,7.214,3.253a27.034,27.034,0,0,1,.363,3.7c.177,1.232.886,2.561,2.056,2.818s2.34-.674,3.173-1.613c2.854-3.235,4.653-7.268,6.319-11.274s3.27-8.083,5.823-11.575,6.2-6.381,10.476-6.94,9,1.773,10.378,5.858-.744,8.57-3.155,12.169a66.559,66.559,0,0,1-12.86,14.207,5.539,5.539,0,0,0-2.136,2.659c-.5,2.03,1.533,3.864,3.545,4.378,2.278.576,4.671.168,7.01.266s4.945.939,5.982,3.075c1.445,2.96-.886,6.337-3.217,8.615A57.137,57.137,0,0,1,448.95,380.01c-2.136.966-4.387,1.835-6.044,3.545s-2.526,4.431-1.3,6.452,4.015,2.49,6.284,1.9,4.228-1.994,6.364-2.978c3.979-1.852,9.288-1.959,12.178,1.383a9.477,9.477,0,0,1,1.622,8.269,21.765,21.765,0,0,1-3.979,7.711A57.51,57.51,0,0,1,440.859,425.3c-9.262,4-18,5.539-27.705,2.783" transform="translate(-85.033 -74.579)" fill="#f5f5f5"/>
                <path id="Trazado_253239" data-name="Trazado 253239" d="M419.266,429.206c.124-7.161-1.117-3.191.886-12.408a266.259,266.259,0,0,1,8.482-29.549l2.615-7.631c.886-2.508,1.728-4.99,2.721-7.365a131.987,131.987,0,0,1,6.47-13.294c2.26-4.139,4.556-7.977,6.736-11.566s4.281-6.869,6.319-9.793a106.792,106.792,0,0,1,10.635-13.055c1.374-1.436,2.482-2.517,3.235-3.244l.886-.815.3-.266a1.583,1.583,0,0,1-.266.31l-.824.886c-.736.753-1.773,1.852-3.155,3.315a111.771,111.771,0,0,0-10.5,13.019c-2.012,2.925-4.086,6.2-6.2,9.8s-4.431,7.436-6.683,11.575a133.128,133.128,0,0,0-6.417,13.294c-.984,2.366-1.835,4.822-2.659,7.33l-2.659,7.631a277.949,277.949,0,0,0-8.508,29.478c-2.012,9.217-.8,5.211-.975,12.346" transform="translate(-88.212 -74.861)" fill="#e0e0e0"/>
                <path id="Trazado_253240" data-name="Trazado 253240" d="M435.181,374.68a6.2,6.2,0,0,1-.381-1.25c-.222-.807-.5-1.994-.815-3.465-.638-2.934-1.383-7.019-2.189-11.522s-1.613-8.579-2.3-11.522c-.337-1.462-.62-2.659-.833-3.457a5.7,5.7,0,0,1-.257-1.285,6.4,6.4,0,0,1,.461,1.223c.275.8.62,1.968,1,3.421.789,2.907,1.657,6.975,2.464,11.522s1.489,8.473,2.03,11.522c.257,1.391.47,2.561.638,3.5A6.021,6.021,0,0,1,435.181,374.68Z" transform="translate(-89.282 -77.358)" fill="#e0e0e0"/>
                <path id="Trazado_253241" data-name="Trazado 253241" d="M473.859,367.579a8.6,8.6,0,0,1-1.516.292c-.975.159-2.393.39-4.13.718-3.483.638-8.269,1.693-13.489,3.075s-9.9,2.872-13.241,4.033c-1.684.567-3.031,1.064-3.962,1.4a7.97,7.97,0,0,1-1.471.47,8.75,8.75,0,0,1,1.391-.674c.886-.4,2.242-.957,3.909-1.569,3.324-1.259,7.977-2.792,13.232-4.192a133.815,133.815,0,0,1,13.56-2.934c1.773-.284,3.182-.443,4.174-.541A7.483,7.483,0,0,1,473.859,367.579Z" transform="translate(-90.151 -80.245)" fill="#e0e0e0"/>
                <path id="Trazado_253242" data-name="Trazado 253242" d="M417.822,422.214a2.073,2.073,0,0,1-.3-.443l-.753-1.338c-.656-1.17-1.551-2.88-2.659-5.008-2.171-4.254-4.99-10.228-7.977-16.839s-5.779-12.63-7.861-16.919l-2.482-5.078-.665-1.391a1.934,1.934,0,0,1-.2-.5,1.771,1.771,0,0,1,.3.443l.753,1.338c.656,1.17,1.56,2.88,2.659,5.008,2.171,4.254,4.99,10.228,7.977,16.839s5.779,12.629,7.861,16.919l2.482,5.078c.266.558.487,1.01.665,1.391A1.93,1.93,0,0,1,417.822,422.214Z" transform="translate(-85.474 -81.056)" fill="#e0e0e0"/>
                <path id="Trazado_253243" data-name="Trazado 253243" d="M470.491,405.54a1.771,1.771,0,0,1-.488.248l-1.445.6-5.318,2.171c-4.493,1.835-10.635,4.431-17.5,7.33s-13.046,5.433-17.575,7.179c-2.269.886-4.112,1.551-5.389,2l-1.48.505a1.852,1.852,0,0,1-.532.142,2.2,2.2,0,0,1,.488-.248l1.445-.6,5.318-2.171c4.493-1.835,10.635-4.431,17.5-7.321s13.028-5.442,17.566-7.179c2.269-.886,4.112-1.56,5.389-2l1.48-.514A2.338,2.338,0,0,1,470.491,405.54Z" transform="translate(-88.413 -84.563)" fill="#e0e0e0"/>
                <g id="Grupo_145699" data-name="Grupo 145699" transform="translate(84.986)">
                  <path id="Trazado_253244" data-name="Trazado 253244" d="M141.66,59.77a2.721,2.721,0,0,1,.115.372c.08.266.177.638.31,1.108a15.434,15.434,0,0,0,.558,1.773,24.818,24.818,0,0,0,.886,2.366l.612,1.383c.239.47.505.966.771,1.48s.576,1.037.886,1.569a15.181,15.181,0,0,0,1.064,1.648,35.451,35.451,0,0,0,6.115,6.842,34.875,34.875,0,0,0,9.421,5.849,33.247,33.247,0,0,0,5.9,1.852,60.267,60.267,0,0,0,6.523.886c4.431.443,9.333.682,13.977,2.552a34.14,34.14,0,0,1,12.186,9.111,44.464,44.464,0,0,1,8.393,12.736,23.93,23.93,0,0,1,1.684,7.09,27.892,27.892,0,0,1-.443,6.966,84.09,84.09,0,0,1-3.7,12.328A58.235,58.235,0,0,0,204,148.46a22.325,22.325,0,0,0,.337,9.111,16.945,16.945,0,0,0,2.978,6.2,12.133,12.133,0,0,0,3.208,2.951c.886.541,1.338.753,1.321.78a8.427,8.427,0,0,1-1.374-.7,11.964,11.964,0,0,1-3.3-2.925,16.928,16.928,0,0,1-3.084-6.248,22.431,22.431,0,0,1-.417-9.217,58.839,58.839,0,0,1,2.9-10.83,82.427,82.427,0,0,0,3.634-12.275,27.176,27.176,0,0,0,.425-6.869,23.158,23.158,0,0,0-1.657-6.957,43.987,43.987,0,0,0-8.322-12.594c-3.465-3.846-7.463-7.179-12.009-9s-9.359-2.092-13.844-2.544a61.337,61.337,0,0,1-6.567-.886,33.84,33.84,0,0,1-5.974-1.9,35.451,35.451,0,0,1-15.6-12.9c-.408-.541-.718-1.126-1.055-1.666a17.1,17.1,0,0,1-.886-1.6l-.762-1.489-.585-1.4a22.222,22.222,0,0,1-.886-2.393,14.406,14.406,0,0,1-.514-1.773q-.168-.709-.266-1.117a2.427,2.427,0,0,1-.044-.452Z" transform="translate(-141.66 -45.244)" fill="#29398a" stroke="rgba(22,151,136,0.36)" stroke-width="1" opacity="0.58"/>
                  <path id="Trazado_253245" data-name="Trazado 253245" d="M173.12,43.38a3.133,3.133,0,0,1,.292.266l.886.824c.363.372.78.886,1.294,1.427a15.41,15.41,0,0,1,1.6,2.092,30.736,30.736,0,0,1,5.451,15.661,32.111,32.111,0,0,1-.195,5.566A40.886,40.886,0,0,1,181.15,75.1c-1.143,4.006-2.818,8.136-3.953,12.647a32.16,32.16,0,0,0-.993,7.028,30.386,30.386,0,0,0,.745,7.374,34.281,34.281,0,0,0,6.78,13.924,38.908,38.908,0,0,0,12.027,9.829,47.62,47.62,0,0,0,13.711,4.768c4.582.842,9.022,1.072,13.144,1.7a33.032,33.032,0,0,1,11.052,3.341,24.612,24.612,0,0,1,7.312,6.106,24.2,24.2,0,0,1,5.052,10.52c.089.5.151.886.195,1.17a3.012,3.012,0,0,1,.044.4,1.353,1.353,0,0,0-.089-.39,11.576,11.576,0,0,1-.239-1.161,27.151,27.151,0,0,0-1.409-4.3,25.569,25.569,0,0,0-3.749-6.08A24.816,24.816,0,0,0,233.511,136a33.235,33.235,0,0,0-10.963-3.253c-4.095-.6-8.535-.824-13.152-1.657a47.479,47.479,0,0,1-13.853-4.795,39.166,39.166,0,0,1-12.178-9.935,34.716,34.716,0,0,1-6.86-14.11,30.8,30.8,0,0,1-.745-7.48,32.29,32.29,0,0,1,1.019-7.09c1.161-4.547,2.854-8.668,4.006-12.647a41.759,41.759,0,0,0,1.3-5.832,31.359,31.359,0,0,0,.222-5.495,31.02,31.02,0,0,0-5.318-15.581c-.532-.824-1.1-1.5-1.551-2.1a14.453,14.453,0,0,0-1.259-1.454l-.815-.886a3.824,3.824,0,0,1-.248-.3Z" transform="translate(-145.238 -43.38)" fill="#29398a" stroke="rgba(22,151,136,0.36)" stroke-width="1" opacity="0.58"/>
                  <path id="Trazado_253246" data-name="Trazado 253246" d="M245.976,154.24a8.417,8.417,0,0,1-1.081.975c-.709.612-1.773,1.462-3.084,2.49a129.29,129.29,0,0,1-10.759,7.427,127.459,127.459,0,0,1-11.477,6.275c-1.507.727-2.739,1.285-3.6,1.64a8.065,8.065,0,0,1-1.365.523,10.823,10.823,0,0,1,1.285-.682l3.545-1.773c2.978-1.516,7.037-3.7,11.371-6.381s8.118-5.318,10.813-7.294l3.164-2.358A8.174,8.174,0,0,1,245.976,154.24Z" transform="translate(-149.955 -55.986)" fill="#29398a" stroke="rgba(22,151,136,0.36)" stroke-width="1" opacity="0.58"/>
                  <path id="Trazado_253247" data-name="Trazado 253247" d="M238.217,147.76a5.369,5.369,0,0,1-1.072.638l-3,1.622c-2.526,1.374-5.982,3.324-9.749,5.619s-7.028,4.511-9.395,6.142l-2.8,1.941a8.464,8.464,0,0,1-1.055.674,6.436,6.436,0,0,1,.948-.824c.629-.505,1.551-1.205,2.712-2.056,2.322-1.711,5.61-3.962,9.35-6.266s7.241-4.21,9.811-5.513c1.285-.656,2.331-1.161,3.067-1.5A7.69,7.69,0,0,1,238.217,147.76Z" transform="translate(-149.562 -55.25)" fill="#29398a" stroke="rgba(22,151,136,0.36)" stroke-width="1" opacity="0.58"/>
                  <path id="Trazado_253248" data-name="Trazado 253248" d="M227.812,145.26A13.714,13.714,0,0,1,225.7,146.8c-1.347.886-3.226,2.1-5.318,3.368s-4.059,2.366-5.486,3.129a13.573,13.573,0,0,1-2.349,1.143,15.751,15.751,0,0,1,2.171-1.436l5.406-3.235,5.4-3.253A15.738,15.738,0,0,1,227.812,145.26Z" transform="translate(-149.721 -54.966)" fill="#29398a" stroke="rgba(22,151,136,0.36)" stroke-width="1" opacity="0.58"/>
                  <path id="Trazado_253249" data-name="Trazado 253249" d="M217.249,132.1a10.165,10.165,0,0,1-1.6,1.17l-3.971,2.659-3.891,2.7a8.863,8.863,0,0,1-1.684,1.055,8.18,8.18,0,0,1,1.489-1.321c.957-.762,2.322-1.773,3.873-2.818s2.987-1.95,4.05-2.553A7.976,7.976,0,0,1,217.249,132.1Z" transform="translate(-148.987 -53.468)" fill="#29398a" stroke="rgba(22,151,136,0.36)" stroke-width="1" opacity="0.58"/>
                  <path id="Trazado_253250" data-name="Trazado 253250" d="M215.263,120.37c0,.062-1.152.7-3.04,1.773s-4.431,2.659-7.143,4.556-5.061,3.784-6.718,5.185a33.191,33.191,0,0,1-2.712,2.242,4.22,4.22,0,0,1,.629-.709c.425-.443,1.064-1.046,1.87-1.773a69.947,69.947,0,0,1,6.665-5.318,67.027,67.027,0,0,1,7.259-4.431c.957-.514,1.773-.886,2.3-1.152A3.767,3.767,0,0,1,215.263,120.37Z" transform="translate(-147.799 -52.135)" fill="#29398a" stroke="rgba(22,151,136,0.36)" stroke-width="1" opacity="0.58"/>
                  <path id="Trazado_253251" data-name="Trazado 253251" d="M209.209,111.27c.071.106-4.742,3.545-10.742,7.773s-10.937,7.5-11.008,7.392,4.733-3.545,10.742-7.773S209.121,111.163,209.209,111.27Z" transform="translate(-146.869 -51.1)" fill="#29398a" stroke="rgba(22,151,136,0.36)" stroke-width="1" opacity="0.58"/>
                  <path id="Trazado_253252" data-name="Trazado 253252" d="M204.309,101a5.53,5.53,0,0,1-.886.682l-2.6,1.773c-2.189,1.462-5.2,3.545-8.482,5.849s-6.2,4.52-8.3,6.115l-2.49,1.888a6.666,6.666,0,0,1-.948.656,4.777,4.777,0,0,1,.833-.8c.558-.479,1.374-1.17,2.4-2,2.056-1.657,4.945-3.891,8.234-6.2s6.328-4.352,8.57-5.752c1.126-.7,2.038-1.259,2.659-1.622a5.418,5.418,0,0,1,1-.585Z" transform="translate(-146.09 -49.933)" fill="#29398a" stroke="rgba(22,151,136,0.36)" stroke-width="1" opacity="0.58"/>
                  <path id="Trazado_253253" data-name="Trazado 253253" d="M195.445,95.33c.071.106-4.015,3.067-9.12,6.612s-9.315,6.328-9.386,6.2,4.015-3.058,9.12-6.6S195.375,95.223,195.445,95.33Z" transform="translate(-145.672 -49.288)" fill="#29398a" stroke="rgba(22,151,136,0.36)" stroke-width="1" opacity="0.58"/>
                  <path id="Trazado_253254" data-name="Trazado 253254" d="M186.559,89.62a42.078,42.078,0,0,1-4.7,4.041,42.012,42.012,0,0,1-4.972,3.687,40.88,40.88,0,0,1,4.688-4.05,40.952,40.952,0,0,1,4.981-3.678Z" transform="translate(-145.666 -48.638)" fill="#29398a" stroke="rgba(22,151,136,0.36)" stroke-width="1" opacity="0.58"/>
                  <path id="Trazado_253255" data-name="Trazado 253255" d="M179.143,75.23a14.032,14.032,0,0,1-1.994,1.852c-1.285,1.09-3.093,2.552-5.149,4.086s-3.971,2.854-5.38,3.776a14.18,14.18,0,0,1-2.34,1.383,17.233,17.233,0,0,1,2.163-1.657c1.356-.984,3.235-2.34,5.318-3.873s3.891-2.942,5.22-3.962A17.937,17.937,0,0,1,179.143,75.23Z" transform="translate(-144.233 -47.002)" fill="#29398a" stroke="rgba(22,151,136,0.36)" stroke-width="1" opacity="0.58"/>
                  <path id="Trazado_253256" data-name="Trazado 253256" d="M180.755,65.46a5.867,5.867,0,0,1-.886.709c-.6.434-1.489,1.037-2.588,1.773-2.207,1.471-5.318,3.421-8.81,5.451s-6.736,3.731-9.111,4.919c-1.188.585-2.154,1.055-2.827,1.356a5.246,5.246,0,0,1-1.072.434,6.273,6.273,0,0,1,.993-.594l2.756-1.489c2.331-1.25,5.539-3,9.031-5.025s6.612-3.926,8.863-5.318l2.659-1.648a5.646,5.646,0,0,1,.993-.567Z" transform="translate(-143.229 -45.892)" fill="#29398a" stroke="rgba(22,151,136,0.36)" stroke-width="1" opacity="0.58"/>
                  <path id="Trazado_253257" data-name="Trazado 253257" d="M175.835,55a6.843,6.843,0,0,1-.993.762c-.665.461-1.622,1.117-2.827,1.923-2.393,1.6-5.743,3.758-9.483,6.071s-7.17,4.352-9.669,5.779c-1.259.718-2.278,1.285-2.987,1.666a7.021,7.021,0,0,1-1.126.558,6.2,6.2,0,0,1,1.037-.709l2.907-1.773,9.572-5.9,9.545-5.956,2.907-1.773A5.821,5.821,0,0,1,175.835,55Z" transform="translate(-142.467 -44.701)" fill="#29398a" stroke="rgba(22,151,136,0.36)" stroke-width="1" opacity="0.58"/>
                </g>
                <path id="Trazado_253258" data-name="Trazado 253258" d="M433.938,139.011c-.08.089-1.356-1.188-3.82-3.288-1.223-1.055-2.756-2.313-4.609-3.669a51.59,51.59,0,0,0-6.585-4.121,29.351,29.351,0,0,0-4.1-1.773,13.613,13.613,0,0,0-4.635-.824,5.318,5.318,0,0,0-2.251.532,3.466,3.466,0,0,0-1.542,1.64,5.709,5.709,0,0,0-.461,2.428,12.709,12.709,0,0,0,.337,2.659,26.457,26.457,0,0,0,2,5.38,46.324,46.324,0,0,0,3.031,5.247,73.162,73.162,0,0,0,17.726,18.293,45.991,45.991,0,0,0,5.149,3.191,25.792,25.792,0,0,0,5.318,2.163,12.275,12.275,0,0,0,2.659.417,5.69,5.69,0,0,0,2.446-.39,3.456,3.456,0,0,0,1.675-1.48,5.318,5.318,0,0,0,.6-2.233,13.487,13.487,0,0,0-.682-4.662,29.764,29.764,0,0,0-1.657-4.166,52.387,52.387,0,0,0-3.917-6.7c-1.3-1.888-2.508-3.456-3.545-4.715-2.03-2.526-3.262-3.838-3.182-3.926a5.263,5.263,0,0,1,1.01.886c.621.594,1.507,1.489,2.6,2.712s2.375,2.747,3.749,4.618a49.21,49.21,0,0,1,4.174,6.718,30.328,30.328,0,0,1,1.773,4.272,14.577,14.577,0,0,1,.815,5.061,6.577,6.577,0,0,1-.718,2.765,4.671,4.671,0,0,1-2.251,2.038,6.664,6.664,0,0,1-2.978.523,13.3,13.3,0,0,1-2.951-.425,27.368,27.368,0,0,1-5.619-2.225,47.166,47.166,0,0,1-5.318-3.262,68.706,68.706,0,0,1-9.829-8.544A69.966,69.966,0,0,1,410.133,144a48.89,48.89,0,0,1-3.093-5.424,27.643,27.643,0,0,1-2.083-5.7,13.916,13.916,0,0,1-.337-2.969,6.931,6.931,0,0,1,.612-2.96,4.707,4.707,0,0,1,2.109-2.18,6.594,6.594,0,0,1,2.783-.638,14.375,14.375,0,0,1,5.034.975,30.331,30.331,0,0,1,4.219,1.923,49.88,49.88,0,0,1,6.585,4.378c1.826,1.436,3.324,2.765,4.5,3.891s2.056,2.047,2.659,2.659A4.653,4.653,0,0,1,433.938,139.011Z" transform="translate(-86.577 -52.563)" fill="#e0e0e0"/>
                <path id="Trazado_253259" data-name="Trazado 253259" d="M418.713,142.536c.115,0-.381,1.7-1.037,4.768-.328,1.533-.691,3.421-.984,5.619a47.629,47.629,0,0,0-.408,7.5,27.123,27.123,0,0,0,.443,4.3A12.73,12.73,0,0,0,418.261,169a5.2,5.2,0,0,0,1.533,1.631,3.6,3.6,0,0,0,2.118.567,5.407,5.407,0,0,0,2.3-.647,10.83,10.83,0,0,0,2.162-1.445,24.385,24.385,0,0,0,3.74-4.086,42.64,42.64,0,0,0,3.137-4.945,67.181,67.181,0,0,0,7.454-23.487,42.333,42.333,0,0,0,.292-5.849,24.034,24.034,0,0,0-.7-5.495,11.522,11.522,0,0,0-.886-2.428,5.62,5.62,0,0,0-1.507-1.861,3.7,3.7,0,0,0-2.056-.753,5.176,5.176,0,0,0-2.2.452,12.806,12.806,0,0,0-3.722,2.606,27.545,27.545,0,0,0-2.845,3.262,48.231,48.231,0,0,0-3.988,6.364c-1.028,1.968-1.826,3.714-2.437,5.149-1.232,2.88-1.773,4.538-1.906,4.5a4.5,4.5,0,0,1,.257-1.25c.23-.8.585-1.976,1.126-3.457s1.276-3.279,2.251-5.318a45.625,45.625,0,0,1,3.882-6.6,28.188,28.188,0,0,1,2.889-3.439,13.479,13.479,0,0,1,4.033-2.916,6.452,6.452,0,0,1,2.7-.585,4.892,4.892,0,0,1,2.765.975,6.718,6.718,0,0,1,1.879,2.242,12.359,12.359,0,0,1,1.063,2.659,24.816,24.816,0,0,1,.8,5.805,43.458,43.458,0,0,1-.266,6.044,66.641,66.641,0,0,1-7.622,24.009,41.539,41.539,0,0,1-3.27,5.087,24.875,24.875,0,0,1-4,4.29,12.515,12.515,0,0,1-2.42,1.586,6.771,6.771,0,0,1-2.836.744,4.821,4.821,0,0,1-2.818-.8,6.506,6.506,0,0,1-1.879-2.038,13.576,13.576,0,0,1-1.6-4.7,27.555,27.555,0,0,1-.372-4.485,45.126,45.126,0,0,1,.629-7.631,57.173,57.173,0,0,1,1.232-5.637c.408-1.524.8-2.659,1.072-3.474A4.5,4.5,0,0,1,418.713,142.536Z" transform="translate(-87.792 -51.976)" fill="#e0e0e0"/>
                <path id="Trazado_253260" data-name="Trazado 253260" d="M422.352,136.3c0,.115-1.657.567-4.609,1.622-1.471.532-3.262,1.214-5.318,2.127a47.729,47.729,0,0,0-6.594,3.545,27.327,27.327,0,0,0-3.421,2.659,12.611,12.611,0,0,0-2.836,3.545,5.246,5.246,0,0,0-.576,2.163,3.625,3.625,0,0,0,.629,2.1,5.442,5.442,0,0,0,1.773,1.613,11.073,11.073,0,0,0,2.366,1.072,24.261,24.261,0,0,0,5.442,1.037,44.382,44.382,0,0,0,5.858.062A67.313,67.313,0,0,0,439,151.823,43.821,43.821,0,0,0,444.128,149a24.313,24.313,0,0,0,4.3-3.492A11.107,11.107,0,0,0,450,143.438a5.574,5.574,0,0,0,.789-2.26,3.545,3.545,0,0,0-.443-2.145,5.264,5.264,0,0,0-1.533-1.631,12.666,12.666,0,0,0-4.183-1.773,27.773,27.773,0,0,0-4.263-.709,48.416,48.416,0,0,0-7.507,0c-2.216.159-4.121.4-5.672.629-3.093.47-4.795.886-4.821.753a4.521,4.521,0,0,1,1.2-.434c.8-.23,1.985-.549,3.545-.886a54.729,54.729,0,0,1,5.7-.886,45.431,45.431,0,0,1,7.658-.168,28.164,28.164,0,0,1,4.431.638,13.623,13.623,0,0,1,4.6,1.9,6.452,6.452,0,0,1,1.914,1.994,4.839,4.839,0,0,1,.629,2.863,6.762,6.762,0,0,1-.886,2.783,12.65,12.65,0,0,1-1.728,2.322,24.959,24.959,0,0,1-4.52,3.731,44.67,44.67,0,0,1-5.273,2.96,67.429,67.429,0,0,1-24.426,6.151,44.31,44.31,0,0,1-6.053-.106,24.816,24.816,0,0,1-5.743-1.152,11.984,11.984,0,0,1-2.659-1.223,6.674,6.674,0,0,1-2.127-2.012,4.83,4.83,0,0,1-.806-2.818,6.461,6.461,0,0,1,.745-2.659A13.6,13.6,0,0,1,401.7,145.5a27.548,27.548,0,0,1,3.607-2.659,45.376,45.376,0,0,1,6.851-3.545,49.684,49.684,0,0,1,5.433-1.914,31.664,31.664,0,0,1,3.545-.886A4.432,4.432,0,0,1,422.352,136.3Z" transform="translate(-85.803 -53.667)" fill="#e0e0e0"/>
                <path id="Trazado_253261" data-name="Trazado 253261" d="M434.087,147.351a4.6,4.6,0,1,1-5.539-3.368A4.6,4.6,0,0,1,434.087,147.351Z" transform="translate(-88.897 -54.806)" fill="#e0e0e0"/>
                <path id="Trazado_253262" data-name="Trazado 253262" d="M68,209.138c-.062,0,.443-.957,1.232-2.659.39-.886.886-1.932,1.312-3.2a29.5,29.5,0,0,0,1.25-4.431,17.129,17.129,0,0,0,.337-2.606,7.817,7.817,0,0,0-.292-2.748,3.094,3.094,0,0,0-.674-1.188,1.985,1.985,0,0,0-1.17-.594,3.252,3.252,0,0,0-1.445.133,6.94,6.94,0,0,0-1.454.629,15,15,0,0,0-2.641,2.056,26.136,26.136,0,0,0-2.464,2.57,42.692,42.692,0,0,0-7.418,13,26.532,26.532,0,0,0-.966,3.43,15.067,15.067,0,0,0-.346,3.35,6.976,6.976,0,0,0,.195,1.569,3.217,3.217,0,0,0,.62,1.312,2.012,2.012,0,0,0,1.117.709,3.19,3.19,0,0,0,1.356,0,7.834,7.834,0,0,0,2.517-1.152,17.636,17.636,0,0,0,2.074-1.613,29.5,29.5,0,0,0,3.137-3.306c.886-1.037,1.542-1.976,2.092-2.756,1.09-1.56,1.631-2.473,1.693-2.437a3.235,3.235,0,0,1-.319.709c-.23.443-.594,1.1-1.1,1.906s-1.17,1.773-1.994,2.872a29.365,29.365,0,0,1-3.111,3.457,17.469,17.469,0,0,1-2.118,1.71,8.216,8.216,0,0,1-2.765,1.259,3.793,3.793,0,0,1-1.675.053,2.774,2.774,0,0,1-1.516-.939,3.971,3.971,0,0,1-.78-1.586,8.3,8.3,0,0,1-.248-1.773,15.953,15.953,0,0,1,.346-3.545,26.226,26.226,0,0,1,.966-3.545,42.462,42.462,0,0,1,7.569-13.294,26.59,26.59,0,0,1,2.552-2.659,15.955,15.955,0,0,1,2.872-2.092,8.126,8.126,0,0,1,1.622-.674,4.068,4.068,0,0,1,1.773-.142,2.828,2.828,0,0,1,1.578.833,3.917,3.917,0,0,1,.815,1.471,8.57,8.57,0,0,1,.275,3,17.9,17.9,0,0,1-.4,2.659,29.2,29.2,0,0,1-1.391,4.431c-.514,1.267-1.019,2.322-1.462,3.173s-.815,1.5-1.081,1.923A2.879,2.879,0,0,1,68,209.138Z" transform="translate(-46.528 -60.154)" fill="#e0e0e0"/>
                <path id="Trazado_253263" data-name="Trazado 253263" d="M62.255,201.76c0,.062-1.019.053-2.863.186-.886.071-2.038.168-3.324.363a28.765,28.765,0,0,0-4.3.993,16.835,16.835,0,0,0-2.358.957,7.463,7.463,0,0,0-2.163,1.569,3.031,3.031,0,0,0-.665,1.126,2.118,2.118,0,0,0,0,1.285,3.3,3.3,0,0,0,.744,1.2,6.637,6.637,0,0,0,1.17.975,13.975,13.975,0,0,0,2.916,1.445,25.537,25.537,0,0,0,3.306.966,37.906,37.906,0,0,0,7.214.886,37.4,37.4,0,0,0,7.25-.487,23.936,23.936,0,0,0,3.35-.789,14.183,14.183,0,0,0,2.987-1.294,6.638,6.638,0,0,0,1.214-.886,3.04,3.04,0,0,0,.8-1.152,2.109,2.109,0,0,0,.1-1.276,3.226,3.226,0,0,0-.612-1.17,7.383,7.383,0,0,0-2.083-1.666,15.853,15.853,0,0,0-2.3-1.081,28.106,28.106,0,0,0-4.245-1.205c-1.276-.257-2.384-.425-3.3-.532-1.835-.23-2.854-.275-2.854-.337a2.145,2.145,0,0,1,.744-.062c.487,0,1.214,0,2.136.071a33.077,33.077,0,0,1,3.359.4,26.131,26.131,0,0,1,4.361,1.117,15.377,15.377,0,0,1,2.42,1.064,7.914,7.914,0,0,1,2.3,1.773,3.545,3.545,0,0,1,.771,1.427,2.863,2.863,0,0,1-.1,1.719,3.935,3.935,0,0,1-.957,1.427,7.322,7.322,0,0,1-1.347,1.046,14.766,14.766,0,0,1-3.146,1.391,25.427,25.427,0,0,1-3.448.886,38.417,38.417,0,0,1-7.418.514,37.632,37.632,0,0,1-7.374-.886,26.506,26.506,0,0,1-3.386-1.126,14.462,14.462,0,0,1-3.067-1.56,7.009,7.009,0,0,1-1.294-1.1,4.015,4.015,0,0,1-.886-1.471,2.845,2.845,0,0,1,0-1.719,3.732,3.732,0,0,1,.886-1.391,7.773,7.773,0,0,1,2.393-1.675,16.688,16.688,0,0,1,2.464-.948,26.431,26.431,0,0,1,4.431-.886c1.312-.151,2.446-.213,3.377-.23s1.648,0,2.136,0a2.2,2.2,0,0,1,.665.151Z" transform="translate(-45.77 -61.372)" fill="#e0e0e0"/>
                <path id="Trazado_253264" data-name="Trazado 253264" d="M68.493,202.439c-.062,0-.594-.833-1.675-2.331-.541-.744-1.214-1.64-2.056-2.659a27.13,27.13,0,0,0-3.111-3.137,15.819,15.819,0,0,0-2.047-1.5,7.409,7.409,0,0,0-2.473-1.019,3.111,3.111,0,0,0-1.312,0,2.109,2.109,0,0,0-1.081.7,3.111,3.111,0,0,0-.62,1.258,6.373,6.373,0,0,0-.222,1.507,14.181,14.181,0,0,0,.31,3.244,25.081,25.081,0,0,0,.886,3.315,37.58,37.58,0,0,0,3.067,6.576,38.643,38.643,0,0,0,4.228,5.92,25.2,25.2,0,0,0,2.437,2.428,14.178,14.178,0,0,0,2.659,1.852,6.611,6.611,0,0,0,1.427.558,3.279,3.279,0,0,0,1.4.071,2.109,2.109,0,0,0,1.134-.594,3.111,3.111,0,0,0,.674-1.134,7.719,7.719,0,0,0,.328-2.659,16.281,16.281,0,0,0-.3-2.526,28.544,28.544,0,0,0-1.205-4.245c-.452-1.223-.886-2.251-1.285-3.084-.771-1.675-1.267-2.57-1.205-2.606a3.331,3.331,0,0,1,.434.6c.266.417.638,1.037,1.064,1.852s.886,1.843,1.436,3.067a28.094,28.094,0,0,1,1.391,4.387,16.751,16.751,0,0,1,.363,2.615,8.074,8.074,0,0,1-.319,2.9A3.731,3.731,0,0,1,72,219.207a2.845,2.845,0,0,1-1.507.824,4.005,4.005,0,0,1-1.719-.062,7.212,7.212,0,0,1-1.578-.594,14.772,14.772,0,0,1-2.845-1.932,25.828,25.828,0,0,1-2.544-2.5,39.165,39.165,0,0,1-7.462-12.771,25.933,25.933,0,0,1-.886-3.43,14.518,14.518,0,0,1-.292-3.43,7.249,7.249,0,0,1,.266-1.684,3.864,3.864,0,0,1,.789-1.524,2.854,2.854,0,0,1,1.454-.886,3.758,3.758,0,0,1,1.631,0,8.03,8.03,0,0,1,2.659,1.152,15.957,15.957,0,0,1,2.1,1.6,26.277,26.277,0,0,1,3.049,3.253c.824,1.037,1.471,1.968,1.976,2.747a17.886,17.886,0,0,1,1.09,1.843A3.271,3.271,0,0,1,68.493,202.439Z" transform="translate(-46.61 -60.181)" fill="#e0e0e0"/>
                <path id="Trazado_253265" data-name="Trazado 253265" d="M65.221,210.581a2.659,2.659,0,1,1,1.267-1.637A2.659,2.659,0,0,1,65.221,210.581Z" transform="translate(-47.531 -61.828)" fill="#e0e0e0"/>
                <path id="Trazado_253266" data-name="Trazado 253266" d="M92.445,366.728h0a1.418,1.418,0,0,0,1.418,1.418h2.482v25.7l-15.5,34.441a5.876,5.876,0,0,0,5.318,8.3h30.816a5.885,5.885,0,0,0,5.318-8.313l-16.1-35.522V368.306h2.287a1.5,1.5,0,0,0,1.5-1.5h0a1.5,1.5,0,0,0-1.5-1.5H93.818A1.418,1.418,0,0,0,92.445,366.728Z" transform="translate(-49.699 -79.988)" fill="#ebebeb"/>
                <path id="Trazado_253267" data-name="Trazado 253267" d="M144.637,440.208H118.563a5.433,5.433,0,0,1-5.433-5.433V390h41.088l-4.157,4.121v40.663A5.433,5.433,0,0,1,144.637,440.208Z" transform="translate(-53.43 -82.796)" fill="#f5f5f5"/>
                <path id="Trazado_253268" data-name="Trazado 253268" d="M123.1,404.246a25.38,25.38,0,0,1-4.786.23,25.448,25.448,0,0,1-4.795-.23,24.591,24.591,0,0,1,4.795-.23,24.534,24.534,0,0,1,4.786.23Z" transform="translate(-53.474 -84.386)" fill="#e0e0e0"/>
                <path id="Trazado_253269" data-name="Trazado 253269" d="M117.774,398.227a9.93,9.93,0,0,1-4.254,0,9.934,9.934,0,0,1,4.254,0Z" transform="translate(-53.474 -83.702)" fill="#e0e0e0"/>
                <path id="Trazado_253270" data-name="Trazado 253270" d="M123.1,416.187a25.391,25.391,0,0,1-4.786.23,25.453,25.453,0,0,1-4.795-.23,24.583,24.583,0,0,1,4.795-.23,24.519,24.519,0,0,1,4.786.23Z" transform="translate(-53.474 -85.744)" fill="#e0e0e0"/>
                <path id="Trazado_253271" data-name="Trazado 253271" d="M117.774,410.176a9.93,9.93,0,0,1-4.254,0,9.572,9.572,0,0,1,4.254,0Z" transform="translate(-53.474 -85.06)" fill="#e0e0e0"/>
                <path id="Trazado_253272" data-name="Trazado 253272" d="M123.1,428.127a25.38,25.38,0,0,1-4.786.23,25.43,25.43,0,0,1-4.795-.23,25.446,25.446,0,0,1,4.795-.23A25.383,25.383,0,0,1,123.1,428.127Z" transform="translate(-53.474 -87.102)" fill="#e0e0e0"/>
                <path id="Trazado_253273" data-name="Trazado 253273" d="M117.774,422.117a9.93,9.93,0,0,1-4.254,0,9.93,9.93,0,0,1,4.254,0Z" transform="translate(-53.474 -86.419)" fill="#e0e0e0"/>
                <path id="Trazado_253274" data-name="Trazado 253274" d="M123.1,440.067a25.38,25.38,0,0,1-4.786.23,25.443,25.443,0,0,1-4.795-.23,25.446,25.446,0,0,1,4.795-.23A25.383,25.383,0,0,1,123.1,440.067Z" transform="translate(-53.474 -88.46)" fill="#e0e0e0"/>
                <path id="Trazado_253275" data-name="Trazado 253275" d="M117.774,434.057a9.931,9.931,0,0,1-4.254,0,9.93,9.93,0,0,1,4.254,0Z" transform="translate(-53.474 -87.776)" fill="#e0e0e0"/>
              </g>
              <g id="freepik--Floor--inject-113" transform="translate(0 357.181)">
                <path id="Trazado_253276" data-name="Trazado 253276" d="M432.743,446.62c0,.124-93.866.23-209.633.23s-209.651-.106-209.651-.23,93.849-.23,209.651-.23S432.743,446.487,432.743,446.62Z" transform="translate(-13.46 -446.39)" fill="#263238"/>
              </g>
              <g id="freepik--Character--inject-113" transform="translate(84.599 32.743)">
                <path id="Trazado_253277" data-name="Trazado 253277" d="M362.288,196.408l-38.27-1.773c-.222-4.059,1.852-29.176,1.852-29.176s-14.464-2.251-14.641-16.715,2.331-47.673,2.331-47.673h0c16.742-7.2,37.135-8.411,51.573,2.659l2.145,1.648Z" transform="translate(-131.918 -82.054)" fill="#b78876"/>
                <path id="Trazado_253278" data-name="Trazado 253278" d="M327.717,173.518a33.679,33.679,0,0,0,18.86-5.318s-4.431,10.4-18.887,9.1Z" transform="translate(-133.791 -90.317)" fill="#aa6550"/>
                <path id="Trazado_253279" data-name="Trazado 253279" d="M371.177,127.661c.248-.106,9.935-2.942,9.625,6.948s-10.183,7.533-10.192,7.25S371.177,127.661,371.177,127.661Z" transform="translate(-138.672 -85.655)" fill="#b78876"/>
                <path id="Trazado_253280" data-name="Trazado 253280" d="M374.159,138.628a3.38,3.38,0,0,0,.452.266,1.7,1.7,0,0,0,1.285.071c1.055-.355,1.994-1.985,2.092-3.758a5.61,5.61,0,0,0-.425-2.446A1.976,1.976,0,0,0,376.3,131.4a.886.886,0,0,0-1.028.434c-.142.275-.08.479-.133.487s-.213-.168-.115-.576a1.055,1.055,0,0,1,.408-.6,1.276,1.276,0,0,1,.957-.222,2.411,2.411,0,0,1,1.773,1.586,5.886,5.886,0,0,1,.505,2.774c-.124,1.994-1.205,3.82-2.659,4.192a1.861,1.861,0,0,1-1.569-.31C374.167,138.868,374.123,138.646,374.159,138.628Z" transform="translate(-139.074 -86.076)" fill="#aa6550"/>
                <path id="Trazado_253281" data-name="Trazado 253281" d="M317.45,127.13a2.065,2.065,0,0,0,1.994,2.083,1.968,1.968,0,0,0,2.127-1.861,2.065,2.065,0,0,0-1.985-2.083,1.976,1.976,0,0,0-2.136,1.861Z" transform="translate(-132.627 -85.434)" fill="#263238"/>
                <path id="Trazado_253282" data-name="Trazado 253282" d="M316.936,124.476c.257.266,1.826-.886,4.05-.886s3.846,1.117,4.086.886c.124-.124-.142-.612-.886-1.126a5.646,5.646,0,0,0-3.279-1.01,5.451,5.451,0,0,0-3.217,1.037C317.042,123.864,316.812,124.352,316.936,124.476Z" transform="translate(-132.565 -85.102)" fill="#263238"/>
                <path id="Trazado_253283" data-name="Trazado 253283" d="M342,127.76a2.065,2.065,0,0,0,1.994,2.083,1.968,1.968,0,0,0,2.127-1.861,2.056,2.056,0,0,0-1.985-2.083A1.976,1.976,0,0,0,342,127.76Z" transform="translate(-135.419 -85.506)" fill="#263238"/>
                <path id="Trazado_253284" data-name="Trazado 253284" d="M341.586,124.947c.257.266,1.826-.886,4.05-.886s3.847,1.117,4.086.886c.124-.115-.133-.6-.886-1.117a5.637,5.637,0,0,0-3.27-1.01,5.46,5.46,0,0,0-3.226,1.037C341.692,124.336,341.462,124.823,341.586,124.947Z" transform="translate(-135.368 -85.157)" fill="#263238"/>
                <path id="Trazado_253285" data-name="Trazado 253285" d="M331.767,141.434a14.888,14.888,0,0,0-3.607-.647c-.567-.062-1.108-.168-1.205-.558a2.916,2.916,0,0,1,.381-1.684c.532-1.374,1.09-2.81,1.684-4.325,2.331-6.151,4.015-11.212,3.767-11.3s-2.34,4.821-4.671,10.972c-.558,1.516-1.1,2.969-1.6,4.352a3.27,3.27,0,0,0-.3,2.225,1.454,1.454,0,0,0,.939.833,4.1,4.1,0,0,0,.957.133C330.367,141.6,331.758,141.6,331.767,141.434Z" transform="translate(-133.614 -85.168)" fill="#263238"/>
                <path id="Trazado_253286" data-name="Trazado 253286" d="M338.961,145.55c-.363,0-.363,2.393-2.428,4.1s-4.635,1.445-4.653,1.773c0,.151.576.47,1.657.5a5.956,5.956,0,0,0,3.882-1.347,5.256,5.256,0,0,0,1.888-3.439C339.4,146.135,339.13,145.532,338.961,145.55Z" transform="translate(-134.268 -87.741)" fill="#263238"/>
                <path id="Trazado_253287" data-name="Trazado 253287" d="M341,115.175c.213.6,2.437.319,5.043.629s4.715,1.028,5.061.487c.159-.257-.213-.833-1.064-1.418a8.481,8.481,0,0,0-3.749-1.312,8.57,8.57,0,0,0-3.953.461C341.334,114.413,340.855,114.892,341,115.175Z" transform="translate(-135.302 -84.097)" fill="#263238"/>
                <path id="Trazado_253288" data-name="Trazado 253288" d="M317.862,117.2c.39.505,1.914,0,3.758,0s3.4.337,3.758-.186c.159-.257-.089-.762-.771-1.241a5.123,5.123,0,0,0-3.058-.824,5.184,5.184,0,0,0-3,1.01C317.9,116.438,317.685,116.952,317.862,117.2Z" transform="translate(-132.667 -84.261)" fill="#263238"/>
                <path id="Trazado_253289" data-name="Trazado 253289" d="M363.925,92.374c-1.914-1.374-4.192-2.783-6.355-2.3,0-3.66-5.4-7.977-9.528-9.253-4.821-1.524-11.185.833-15.953,2.42-3.031,1.01-6.053,2.411-9.244,2.278a21.811,21.811,0,0,1-6.2-1.578A15.608,15.608,0,0,0,310.35,82.7a5.869,5.869,0,0,0-5.14,3.262,3.917,3.917,0,0,0,1.374,4.582,4.75,4.75,0,1,0-2.109,9.253,2.659,2.659,0,0,0-1.427,2.473c.168,1.773,1.773,3,3.341,3.7,4.077,1.773,8.863,1.214,13.055-.2s8.145-3.634,12.328-5.158,11.194-4.263,15.395-2.783a7.429,7.429,0,0,1,1.586.807h0l.08.062a11.256,11.256,0,0,1,4.183,7.276v.292c.558,4.077.461,8.225,1.055,12.3s2.012,8.225,5.025,11.034c1.241,1.152,3.43,1.95,4.432.594a3.474,3.474,0,0,0,.514-1.87c.762-9.855,3.448-18.612,3.43-28.9A8.659,8.659,0,0,0,363.925,92.374Z" transform="translate(-130.711 -80.324)" fill="#263238"/>
                <path id="Trazado_253290" data-name="Trazado 253290" d="M355.225,91.8a13.139,13.139,0,0,0-1.923-.886,14.757,14.757,0,0,0-5.655-.957,23.575,23.575,0,0,0-8.331,1.826c-3.013,1.17-6.142,2.9-9.554,4.485A48.036,48.036,0,0,1,311.15,100.7a43.207,43.207,0,0,1-5.832-.195c-.682-.053-1.214-.151-1.569-.195a4.7,4.7,0,0,1-.549-.106,2.091,2.091,0,0,1,.558,0c.363,0,.886.08,1.578.115a53.8,53.8,0,0,0,5.805.053,49.853,49.853,0,0,0,18.47-4.529c3.386-1.578,6.541-3.3,9.6-4.431a23.292,23.292,0,0,1,8.473-1.773,14.181,14.181,0,0,1,5.725,1.108,8.651,8.651,0,0,1,1.409.753,1.984,1.984,0,0,1,.408.3Z" transform="translate(-131.007 -81.383)" fill="#455a64"/>
                <path id="Trazado_253291" data-name="Trazado 253291" d="M307.65,89.617a7.437,7.437,0,0,0,1.613,1.3,10.432,10.432,0,0,0,5.513.948,39.671,39.671,0,0,0,8.322-1.391,38.745,38.745,0,0,0,4.715-1.631c1.6-.656,3.208-1.471,4.857-2.3,3.27-1.666,6.567-3.191,9.838-3.448A14.109,14.109,0,0,1,350.768,85a13.959,13.959,0,0,1,4.281,3.829,11,11,0,0,1,.833,1.329,2.047,2.047,0,0,1,.23.487c-.044,0-.381-.647-1.205-1.711a14.6,14.6,0,0,0-4.3-3.652,13.941,13.941,0,0,0-8.065-1.773c-3.164.266-6.4,1.773-9.669,3.439-1.648.824-3.261,1.648-4.883,2.313a39.882,39.882,0,0,1-4.777,1.613,38.844,38.844,0,0,1-8.429,1.312,10.236,10.236,0,0,1-5.61-1.126,5.52,5.52,0,0,1-1.214-.966,2.662,2.662,0,0,1-.31-.479Z" transform="translate(-131.513 -80.634)" fill="#455a64"/>
                <path id="Trazado_253292" data-name="Trazado 253292" d="M373.465,112.785a3.847,3.847,0,0,1-1.1-.053,13.686,13.686,0,0,1-2.916-.682,16.31,16.31,0,0,1-3.979-2.012,17.464,17.464,0,0,1-2.03-1.684,9.634,9.634,0,0,1-1.773-2.225,14.128,14.128,0,0,1-1.684-5.176,14.973,14.973,0,0,1,.1-4.431,10.5,10.5,0,0,1,.957-2.845,4.434,4.434,0,0,1,.6-.886,13.914,13.914,0,0,0-1.205,3.731,14.785,14.785,0,0,0,0,4.343,13.87,13.87,0,0,0,1.622,5.034,9.309,9.309,0,0,0,1.7,2.127,16.028,16.028,0,0,0,1.959,1.666,17.1,17.1,0,0,0,3.838,2.056A28.829,28.829,0,0,0,373.465,112.785Z" transform="translate(-137.45 -81.742)" fill="#455a64"/>
                <path id="Trazado_253293" data-name="Trazado 253293" d="M374.3,105.886a2.506,2.506,0,0,1-.736-.16,15.471,15.471,0,0,1-1.932-.736,20.139,20.139,0,0,1-2.659-1.489c-.487-.31-.984-.656-1.5-1.01a10.791,10.791,0,0,1-1.533-1.223,15,15,0,0,1-3.545-5.805,10.252,10.252,0,0,1-.47-2.021,2.318,2.318,0,0,1,0-.762c.08,0,.168,1.072.789,2.659a16.158,16.158,0,0,0,3.545,5.592,25.456,25.456,0,0,0,2.943,2.207,23.928,23.928,0,0,0,2.588,1.551C373.306,105.469,374.325,105.815,374.3,105.886Z" transform="translate(-137.681 -81.729)" fill="#455a64"/>
                <path id="Trazado_253294" data-name="Trazado 253294" d="M279.14,368.56l2.659,69.476H340.2l-.23-19.9,6.86,19.9h60.48L387.878,369.3Z" transform="translate(-128.271 -113.101)" fill="#455a64"/>
                <path id="Trazado_253295" data-name="Trazado 253295" d="M320.882,190.32h0c-1.48.177-2.579.505-5.043.8l-.479.053a36.666,36.666,0,0,0-31.906,38.837l3.793,27.28S279.4,347.121,279.679,359.1H389.694l.089-50.288V295.123l-.6-37.126,14.792-40.22c-3.093-10.316-14.11-21.537-29.487-24.444-4.875-.931-9.625-2.659-15.35-2.934h0c-10.76,8.5-27.289,8.163-38.243-.08Z" transform="translate(-128.331 -92.833)" fill="#f4522b"/>
                <path id="Trazado_253296" data-name="Trazado 253296" d="M363.489,226.989c0,.124-9.138.4-20.384.6s-20.385.266-20.385.142,9.138-.4,20.385-.6S363.48,226.821,363.489,226.989Z" transform="translate(-133.226 -96.993)" fill="#fafafa"/>
                <path id="Trazado_253297" data-name="Trazado 253297" d="M363.227,233.967c0,.133-9.191,0-20.517-.222s-20.509-.567-20.5-.691,9.182,0,20.509.23S363.227,233.887,363.227,233.967Z" transform="translate(-133.168 -97.686)" fill="#fafafa"/>
                <path id="Trazado_253298" data-name="Trazado 253298" d="M170.172,173.36s44.031,52.858,47.576,55.8,55.384-28.308,55.384-28.308h0c5.7-5.07,10.449-7.977,16.786-9.891l.257-.08h0a75.163,75.163,0,0,1,12.071-2.26l2.189-.248-7,122.83.355.186s-.151.239-.408.62l-2.544,44.6h-.044l5.539,59.2H254.573l8.163-78.977c.248-2.588.47-5.646.682-9.084l5.823-58.637,1.613-13.445s-44.66,17.832-59.7,17.123c-19.5-.886-65.514-79.695-65.514-79.695Z" transform="translate(-113.09 -90.904)" fill="#f4522b"/>
                <path id="Trazado_253299" data-name="Trazado 253299" d="M435.012,308.409l-20.943-91.172c-3.067-10.325-14.11-21.5-29.46-24.444-4.875-.931-10.928-2.225-16.662-2.473l-.248,96.605-1.773-.257L354.67,306.849l12.957,4.963-.1,36.479.346,10.263,8.207,59.257h40.273L399.879,328V324.84l5.6,2.57a21.59,21.59,0,0,0,20.482-1.5,22.105,22.105,0,0,0,8.438-10.431,11.673,11.673,0,0,0,.611-7.073Z" transform="translate(-136.859 -92.833)" fill="#f4522b"/>
                <path id="Trazado_253300" data-name="Trazado 253300" d="M170.172,173.36s44.031,52.858,47.576,55.8,55.384-28.308,55.384-28.308h0c5.7-5.07,10.449-7.977,16.786-9.891l.257-.08h0a75.163,75.163,0,0,1,12.071-2.26l2.189-.248-7,122.83.355.186s-.151.239-.408.62l-2.544,44.6h-.044l5.539,59.2H254.573l8.163-78.977c.248-2.588.47-5.646.682-9.084l5.823-58.637,1.613-13.445s-44.66,17.832-59.7,17.123c-19.5-.886-65.514-79.695-65.514-79.695Z" transform="translate(-113.09 -90.904)" fill="#f4522b"/>
                <path id="Trazado_253301" data-name="Trazado 253301" d="M435.012,308.409l-20.943-91.172c-3.067-10.325-14.11-21.5-29.46-24.444-4.875-.931-10.928-2.225-16.662-2.473l-.248,96.605-1.773-.257L354.67,306.849l12.957,4.963-.1,36.479.346,10.263,8.207,59.257h40.273L399.879,328V324.84l5.6,2.57a21.59,21.59,0,0,0,20.482-1.5,22.105,22.105,0,0,0,8.438-10.431,11.673,11.673,0,0,0,.611-7.073Z" transform="translate(-136.859 -92.833)" fill="#f4522b"/>
                <path id="Trazado_253302" data-name="Trazado 253302" d="M170.172,173.36s44.031,52.858,47.576,55.8,55.384-28.308,55.384-28.308h0c5.7-5.07,10.449-7.977,16.786-9.891l.257-.08h0a75.163,75.163,0,0,1,12.071-2.26l2.189-.248-7,122.83.355.186s-.151.239-.408.62l-2.544,44.6h-.044l5.539,59.2H254.573l8.163-78.977c.248-2.588.47-5.646.682-9.084l5.823-58.637,1.613-13.445s-44.66,17.832-59.7,17.123c-19.5-.886-65.514-79.695-65.514-79.695Z" transform="translate(-113.09 -90.904)" fill="#cbddf1"/>
                <path id="Trazado_253303" data-name="Trazado 253303" d="M435.012,308.409l-20.943-91.172c-3.067-10.325-14.11-21.5-29.46-24.444-4.875-.931-10.928-2.225-16.662-2.473l-.248,96.605-1.773-.257L354.67,306.849l12.957,4.963-.1,36.479.346,10.263,8.207,59.257h40.273L399.879,328V324.84l5.6,2.57a21.59,21.59,0,0,0,20.482-1.5,22.105,22.105,0,0,0,8.438-10.431,11.673,11.673,0,0,0,.611-7.073Z" transform="translate(-136.859 -92.833)" fill="#cbddf1"/>
                <path id="Trazado_253304" data-name="Trazado 253304" d="M377.622,287.289a.63.63,0,0,1,.044-.186c.044-.124.106-.319.177-.541l.727-2.083c.62-1.826,1.516-4.485,2.5-7.87a108.859,108.859,0,0,0,2.863-12.24,69.719,69.719,0,0,0,1.019-15.8l.248.2-8.686,1.276-1.081.16.886-.576a28.8,28.8,0,0,0,6.514-5.025,11.11,11.11,0,0,0,1.622-2.349,9.319,9.319,0,0,0,.842-2.659,15.175,15.175,0,0,0-.532-5.5l-2.588-10.361c-1.675-6.594-3.324-12.488-4.866-17.4s-2.96-8.819-4-11.522c-.505-1.347-.886-2.384-1.205-3.093-.133-.328-.23-.594-.31-.8a1.058,1.058,0,0,1-.089-.284,2.819,2.819,0,0,1,.133.266l.354.78c.3.7.753,1.719,1.285,3.058,1.09,2.659,2.553,6.576,4.139,11.477s3.27,10.8,4.963,17.389c.886,3.306,1.711,6.771,2.659,10.361a15.321,15.321,0,0,1,.541,5.672,9.564,9.564,0,0,1-.886,2.818,12.233,12.233,0,0,1-1.693,2.455,28.832,28.832,0,0,1-6.621,5.1l-.151-.417,8.686-1.259h.239v.239a68.823,68.823,0,0,1-1.081,15.953,106.7,106.7,0,0,1-2.969,12.249c-1.028,3.386-1.959,6.036-2.659,7.835-.328.886-.6,1.6-.789,2.065l-.213.523a.9.9,0,0,1-.027.089Z" transform="translate(-138.797 -92.869)" fill="#263238"/>
                <path id="Trazado_253305" data-name="Trazado 253305" d="M406.967,296.953c-.133,0-1.365-10.857-2.774-24.284s-2.437-24.32-2.3-24.328,1.365,10.857,2.765,24.284S407.091,296.935,406.967,296.953Z" transform="translate(-142.228 -99.43)" fill="#263238"/>
                <path id="Trazado_253306" data-name="Trazado 253306" d="M403.085,338.364a.765.765,0,0,1-.222-.071l-.629-.23-2.384-.966-9.058-3.545-30.9-12.5-.186-.08.053-.195c1.427-4.759,2.951-9.847,4.52-15.067.682-2.278,1.356-4.529,1.985-6.647l.062-.186h.186l39.174,4.086,11.655,1.259,3.146.363.815.106.275.053H421.3l-.815-.062-3.155-.284-11.672-1.117-39.183-3.935.239-.16c-.638,2.118-1.312,4.369-1.985,6.647-1.578,5.247-3.1,10.343-4.529,15.067l-.133-.275L390.9,333.285l8.969,3.722,2.393,1.019.62.266Z" transform="translate(-137.433 -105.177)" fill="#263238"/>
                <path id="Trazado_253307" data-name="Trazado 253307" d="M314.059,307.385a.884.884,0,0,1-.142-.266q-.151-.292-.372-.8c-.319-.709-.824-1.773-1.383-3.111a116.314,116.314,0,0,1-4.237-11.885,121.538,121.538,0,0,1-4.83-41.939v-.248h.239l7.516,1.09,1.17.177-.151.425a33.877,33.877,0,0,1-5.513-3.988,11.255,11.255,0,0,1-3.545-5.584,13.6,13.6,0,0,1,.354-6.363c.5-2.012,1.019-3.971,1.551-5.876,2.136-7.613,4.52-14.313,6.594-19.906s3.873-10.059,5.114-13.152c.612-1.524,1.1-2.721,1.436-3.545l.39-.886a1.845,1.845,0,0,1,.142-.31,1.461,1.461,0,0,1-.106.319c-.08.239-.195.549-.337.939l-1.365,3.545c-1.179,3.111-2.925,7.6-4.972,13.206s-4.378,12.3-6.488,19.906q-.78,2.854-1.533,5.867a13.3,13.3,0,0,0-.346,6.2,10.866,10.866,0,0,0,3.386,5.318,33.879,33.879,0,0,0,5.442,3.917l.957.585-1.108-.16-1.17-.168-7.516-1.1.266-.213a123.718,123.718,0,0,0,4.662,41.824c1.5,5.132,3,9.164,4.1,11.9.532,1.383,1.01,2.428,1.3,3.146.133.346.248.612.328.815a2.467,2.467,0,0,1,.16.31Z" transform="translate(-130.937 -92.935)" fill="#263238"/>
                <rect id="Rectángulo_44100" data-name="Rectángulo 44100" width="17.079" height="5.743" transform="translate(253.324 167.265) rotate(180)" fill="#455a64"/>
                <path id="Trazado_253308" data-name="Trazado 253308" d="M423.195,298.468c0,.08-.975-.23-2.561-.434a17.726,17.726,0,0,0-11.876,2.659c-1.338.886-2.065,1.551-2.118,1.489s.142-.2.461-.532a11.329,11.329,0,0,1,1.471-1.232,16.1,16.1,0,0,1,5.787-2.57,16.319,16.319,0,0,1,6.328-.177,11.945,11.945,0,0,1,1.861.479C422.973,298.335,423.2,298.433,423.195,298.468Z" transform="translate(-142.768 -105.014)" fill="#263238"/>
                <path id="Trazado_253309" data-name="Trazado 253309" d="M293.127,214.94a3.541,3.541,0,0,1-.062.736c-.062.523-.151,1.214-.266,2.092l-.993,7.684c-.815,6.523-1.941,15.475-3.173,25.357s-2.4,18.869-3.315,25.357c-.461,3.235-.886,5.858-1.143,7.657-.142.886-.266,1.56-.354,2.083a3.857,3.857,0,0,1-.151.718,4.55,4.55,0,0,1,.062-.736c.071-.514.16-1.214.266-2.092.239-1.852.576-4.431.993-7.675.824-6.532,1.941-15.483,3.182-25.365s2.393-18.869,3.306-25.348c.461-3.244.886-5.858,1.143-7.666.151-.886.266-1.56.355-2.083A5.079,5.079,0,0,1,293.127,214.94Z" transform="translate(-128.786 -95.632)" fill="#263238"/>
                <path id="Trazado_253310" data-name="Trazado 253310" d="M171.883,183.23a4.306,4.306,0,0,0-.452.541,3.155,3.155,0,0,0,.47,4.1,2.827,2.827,0,0,0,4.334-2.659,3.155,3.155,0,0,0-3.519-2.251c-.434.08-.656.2-.674.168s.177-.2.638-.346a3,3,0,0,1,1.968.142,3.279,3.279,0,0,1,1.959,2.171,2.659,2.659,0,0,1-.186,1.773,3.545,3.545,0,0,1-1.294,1.418,3.439,3.439,0,0,1-1.835.532,2.659,2.659,0,0,1-1.693-.612,3.288,3.288,0,0,1-1.081-2.721,3.075,3.075,0,0,1,.736-1.826A1.373,1.373,0,0,1,171.883,183.23Z" transform="translate(-115.917 -91.964)" fill="#263238"/>
                <path id="Trazado_253311" data-name="Trazado 253311" d="M360.932,294.074l4.6-22.334H306.31l3,50.04s46.034-.08,44.571.062Z" transform="translate(-131.36 -102.091)" fill="#263238"/>
                <path id="Trazado_253312" data-name="Trazado 253312" d="M366.15,285.45h0a5.256,5.256,0,0,0-4.91,3.359c-.824,2.136-2.021,4.635-3.35,5.318-2.464,1.347-6.709,2.411-8.943,1.321s-11.167-9.138-12.736-8.242-2.9,2.907-1.338,4.688,9.829,7.152,8.269,8.943-18.993-6.08-21.67-5.389-4.245,2.34-2.659,3.421,13.409,5.539,14.074,7.09c0,0-17.867-4.7-18.541-3.545s-1.773,2.907,0,3.545,17.2,4.688,18.541,5.362a32.747,32.747,0,0,0,6.9,2,75.066,75.066,0,0,1,7.2,2.287,15.741,15.741,0,0,0,11.114-.3l1.773-.736a7.09,7.09,0,0,0,4.431-6.993l-.363-6.1,1.95-5.025Z" transform="translate(-132.165 -103.65)" fill="#b78876"/>
                <path id="Trazado_253313" data-name="Trazado 253313" d="M162.867,173.522s-8.73-14.774-10.795-16.325-20.385-7.915-21.953-7.4-23.575,4.653-21,7.232,17.938-.523,17.938-.523l2.083,1s-13.294,2.34-16.042,4.006c-2.552,1.533-1.622,4.68.815,4.387s13.95-2.721,14.65-2.26-12.523,3.324-13.941,4.192c-1.906,1.17-2.038,4.591.381,4.378,1.436-.124,13.888-3.545,13.888-3.545s-9.856,3.979-10.76,4.866c-1.471,1.445-.248,3.589,1.9,3.075,1.462-.346,8.42-3.8,10.387-4.272,0,0,1.852.47,3.545,4.174s10.972,11.043,10.972,11.043Z" transform="translate(-108.913 -88.221)" fill="#b78876"/>
                <path id="Trazado_253314" data-name="Trazado 253314" d="M109.2,157.84c0,.124,1.471.718,4.041,1.046A23.467,23.467,0,0,0,117.8,159c1.684-.213,3.545-.505,5.468-.806l4.1-.665h-.248c5.477,1.852,9.492,3.049,9.572,2.836s-3.8-1.773-9.253-3.776h-.248l-4.077.62-5.4.886a29.194,29.194,0,0,1-4.431.106C110.8,158.043,109.235,157.707,109.2,157.84Z" transform="translate(-108.946 -88.997)" fill="#aa6550"/>
                <path id="Trazado_253315" data-name="Trazado 253315" d="M148.966,139.231h0a1.905,1.905,0,0,1-1.906,1.976h-1.773v48.232a5.53,5.53,0,0,1-5.53,5.53h0a5.53,5.53,0,0,1-5.53-5.53V141.261h-1.719a1.941,1.941,0,0,1-1.968-1.941h0a1.95,1.95,0,0,1,1.95-1.95h14.6A1.906,1.906,0,0,1,148.966,139.231Z" transform="translate(-111.372 -86.811)" fill="#f5f5f5"/>
                <path id="Trazado_253316" data-name="Trazado 253316" d="M148.937,139.2a4.426,4.426,0,0,0-.089-.434,1.923,1.923,0,0,0-.753-1.019,1.986,1.986,0,0,0-.886-.319h-4.086l-7.977.044h-2.455a2.074,2.074,0,0,0-1.143.222,1.852,1.852,0,0,0-.789.886,1.773,1.773,0,0,0,.674,2.189,1.959,1.959,0,0,0,1.259.284h1.631v.177c0,12.408,0,28.751.053,46.627a12.6,12.6,0,0,0,.151,2.8,5.238,5.238,0,0,0,1.285,2.375,5.4,5.4,0,0,0,2.251,1.427,5.522,5.522,0,0,0,2.659.151,5.415,5.415,0,0,0,2.357-1.108,5.531,5.531,0,0,0,1.524-2.065,6.124,6.124,0,0,0,.408-2.535V166.978c.053-11.646.089-20.721.106-25.835v-.08h2.18a1.879,1.879,0,0,0,1.232-.753,2.03,2.03,0,0,0,.372-1.134,1.64,1.64,0,0,1-.3,1.188,1.959,1.959,0,0,1-1.285.824c-.62.062-1.312,0-2.118,0l.08-.08c0,5.114.062,14.181.106,25.835v21.927a6.515,6.515,0,0,1-.434,2.659,5.787,5.787,0,0,1-4.21,3.456,6.027,6.027,0,0,1-2.863-.168,5.717,5.717,0,0,1-2.446-1.551,5.654,5.654,0,0,1-1.391-2.57,5.928,5.928,0,0,1-.168-1.48v-1.436c0-17.876,0-34.228.053-46.627l.177.177h-1.409a2.26,2.26,0,0,1-1.445-.337,2.1,2.1,0,0,1,.142-3.616,2.428,2.428,0,0,1,1.294-.257h14.491a1.941,1.941,0,0,1,1.666,1.454A1.205,1.205,0,0,1,148.937,139.2Z" transform="translate(-111.343 -86.782)" fill="#263238"/>
                <path id="Trazado_253317" data-name="Trazado 253317" d="M140.469,195.678h0a4.139,4.139,0,0,0,4.13-4.139V159.42H136.33v32.119A4.139,4.139,0,0,0,140.469,195.678Z" transform="translate(-112.031 -89.319)" fill="#5c22c3"/>
                <path id="Trazado_253318" data-name="Trazado 253318" d="M136.58,141.827a19.408,19.408,0,0,1,4.183-.23,19.5,19.5,0,0,1,4.192.23,19.5,19.5,0,0,1-4.192.23A19.412,19.412,0,0,1,136.58,141.827Z" transform="translate(-112.059 -87.289)" fill="#263238"/>
                <path id="Trazado_253319" data-name="Trazado 253319" d="M144.577,159.254a1.436,1.436,0,0,0-1.2-1.241,5.619,5.619,0,0,0-2.1.106l-4.059.594a1.329,1.329,0,0,0-.762.275.47.47,0,0,0,0,.718" transform="translate(-112.027 -89.153)" fill="#f4522b"/>
                <circle id="Elipse_6128" data-name="Elipse 6128" cx="1.25" cy="1.25" r="1.25" transform="translate(28.615 73.575)" fill="#fff" opacity="0.21"/>
                <path id="Trazado_253320" data-name="Trazado 253320" d="M141.16,171a.627.627,0,1,0,.629-.629A.629.629,0,0,0,141.16,171Z" transform="translate(-112.58 -90.564)" fill="#fff" opacity="0.21"/>
                <path id="Trazado_253321" data-name="Trazado 253321" d="M164.584,174.009c-1.214,1.17-3.244.886-4.7.071s-2.579-2.154-3.971-3.093c-4.157-2.827-10.068-2.047-14.083-5.07-.567-.417-1.126-1.117-.833-1.773s1.063-.665,1.719-.665l16.653.124" transform="translate(-112.553 -89.78)" fill="#b78876"/>
                <path id="Trazado_253322" data-name="Trazado 253322" d="M159.318,163.562a6.771,6.771,0,0,0-1.773-.2c-1.161-.071-2.836-.133-4.91-.186l-7.268-.186h-2.109a3.35,3.35,0,0,0-2.437.549,1.4,1.4,0,0,0-.239,1.56,2.916,2.916,0,0,0,.886,1.064,11.021,11.021,0,0,0,2.109,1.25c3.031,1.338,6.1,1.542,8.668,2.322a12.869,12.869,0,0,1,3.448,1.5c.975.647,1.773,1.436,2.659,2.083a5.894,5.894,0,0,0,4.706,1.578c1.232-.257,1.622-.939,1.578-.939a4.768,4.768,0,0,1-1.631.567,5.664,5.664,0,0,1-4.228-1.728,33.434,33.434,0,0,0-2.659-2.207,12.736,12.736,0,0,0-3.625-1.684c-2.659-.886-5.734-1.1-8.526-2.349a10.164,10.164,0,0,1-1.914-1.126c-.55-.425-.824-1.01-.532-1.241a3.4,3.4,0,0,1,1.773-.284h2.1l7.285-.053c2.074,0,3.758-.062,4.919-.106A6.427,6.427,0,0,0,159.318,163.562Z" transform="translate(-112.499 -89.72)" fill="#aa6550"/>
              </g>
              <g id="freepik--Plant--inject-113" transform="translate(17.503 295.071)">
                <path id="Trazado_253323" data-name="Trazado 253323" d="M50.6,400.612c-1.081,2.951-4.688,3.031-6.665,1.932s-3.217-3.12-4.431-5.061c-2.659-4.431-5.389-9.084-5.672-14.243a8.509,8.509,0,0,1,.815-4.5,4.431,4.431,0,0,1,3.758-2.428c1.826,0,3.332,1.383,4.529,2.774a36.338,36.338,0,0,1,7.48,14.127,12.566,12.566,0,0,1,.213,7.4" transform="translate(-33.276 -376.31)" fill="#f4522b"/>
                <g id="Grupo_145694" data-name="Grupo 145694" transform="translate(0.522)" opacity="0.2">
                  <path id="Trazado_253324" data-name="Trazado 253324" d="M50.6,400.612c-1.081,2.951-4.688,3.031-6.665,1.932s-3.217-3.12-4.431-5.061c-2.659-4.431-5.389-9.084-5.672-14.243a8.509,8.509,0,0,1,.815-4.5,4.431,4.431,0,0,1,3.758-2.428c1.826,0,3.332,1.383,4.529,2.774a36.338,36.338,0,0,1,7.48,14.127,12.566,12.566,0,0,1,.213,7.4" transform="translate(-33.798 -376.31)"/>
                </g>
                <path id="Trazado_253325" data-name="Trazado 253325" d="M47.373,419.878a15.643,15.643,0,0,0-9.669,1.365,8.021,8.021,0,0,0-4.077,3.3c-.815,1.586-.443,3.891,1.179,4.635a4.556,4.556,0,0,0,3.12,0c2.464-.682,5.1-1.852,7.471-.886,1.356.549,2.482,1.773,3.944,1.826a3.315,3.315,0,0,0,3.093-2.5,5.654,5.654,0,0,0-.674-4.13A6.372,6.372,0,0,0,47.373,419.878Z" transform="translate(-33.209 -381.237)" fill="#f4522b"/>
                <path id="Trazado_253326" data-name="Trazado 253326" d="M58.762,403a9.377,9.377,0,0,1-3.634-7.977,16.67,16.67,0,0,1,3.031-8.473,27.624,27.624,0,0,1,7.445-7.569,9.749,9.749,0,0,1,3.793-1.773,4.325,4.325,0,0,1,3.873,1.126c1.4,1.533,1.081,3.917.585,5.929a68.241,68.241,0,0,1-3.448,10.476c-1.134,2.712-2.544,5.451-4.919,7.17s-5.167,2.34-7.09.886" transform="translate(-35.7 -376.402)" fill="#f4522b"/>
                <path id="Trazado_253327" data-name="Trazado 253327" d="M61.744,443.456a4.86,4.86,0,0,1-.461-1.081c-.3-.807-.674-1.773-1.126-3a45.269,45.269,0,0,0-1.9-4.343,35.747,35.747,0,0,0-3.075-4.866,20.165,20.165,0,0,0-4.015-4.112,10.547,10.547,0,0,0-4.21-1.941,9.881,9.881,0,0,0-3.111-.151,6.873,6.873,0,0,1-1.17.142,4.891,4.891,0,0,1,1.143-.328,9.171,9.171,0,0,1,3.235,0,10.5,10.5,0,0,1,4.431,1.923,19.891,19.891,0,0,1,4.139,4.174,34.86,34.86,0,0,1,3.084,4.99,40.272,40.272,0,0,1,1.773,4.431c.452,1.285.771,2.34.984,3.067A6.006,6.006,0,0,1,61.744,443.456Z" transform="translate(-34.286 -381.691)" fill="#263238"/>
                <path id="Trazado_253328" data-name="Trazado 253328" d="M60.744,437.084a3.628,3.628,0,0,1-.168-.514c-.106-.4-.23-.886-.4-1.507-.337-1.3-.886-3.182-1.533-5.5-1.356-4.617-3.474-10.937-6.124-17.788s-5.4-12.931-7.551-17.238c-.532-1.081-1.028-2.056-1.48-2.9s-.815-1.578-1.152-2.163l-.744-1.365a2.125,2.125,0,0,1-.222-.5,3.65,3.65,0,0,1,.31.443l.815,1.321c.363.576.771,1.294,1.232,2.136s.993,1.773,1.542,2.863a176.059,176.059,0,0,1,7.693,17.22c2.659,6.869,4.733,13.214,6.009,17.876.647,2.322,1.108,4.228,1.391,5.539.124.62.23,1.126.31,1.524a2.269,2.269,0,0,1,.071.541Z" transform="translate(-34.137 -377.596)" fill="#263238"/>
                <path id="Trazado_253329" data-name="Trazado 253329" d="M59.289,424.389a9.628,9.628,0,0,1-.408-1.569c-.213-1.019-.461-2.517-.656-4.378a60.012,60.012,0,0,1-.266-6.55,56.854,56.854,0,0,1,.629-7.977,40.246,40.246,0,0,1,4.431-13.853,19.2,19.2,0,0,1,1.338-2.136c.213-.31.4-.6.594-.886l.567-.665a9.492,9.492,0,0,1,1.09-1.2,50.3,50.3,0,0,0-3.3,5.007,42.87,42.87,0,0,0-4.263,13.764,60.434,60.434,0,0,0-.665,7.976,64.265,64.265,0,0,0,.168,6.514c.142,1.852.346,3.341.5,4.369a10.776,10.776,0,0,1,.239,1.578Z" transform="translate(-36.023 -377.319)" fill="#263238"/>
              </g>
              <g id="freepik--graduated-cylinders--inject-113" transform="translate(39.644 166.107)">
                <path id="Trazado_253330" data-name="Trazado 253330" d="M181.939,260.69V264h4.6v30.027L168.432,334.26a6.878,6.878,0,0,0,6.266,9.7h36a6.878,6.878,0,0,0,6.257-9.749l-18.842-41.469V264.191h4.431v-3.5Z" transform="translate(-70.658 -234.199)" fill="#f5f5f5"/>
                <path id="Trazado_253331" data-name="Trazado 253331" d="M181.911,260.681h5.344l15.28-.071h.133v3.767h-4.582l.142-.142c0,7.977,0,17.726.053,28.547v-.08c3.971,8.757,8.34,18.373,12.993,28.609l3.545,7.8c.6,1.312,1.2,2.659,1.773,3.979a18.942,18.942,0,0,1,.886,2.065,7.078,7.078,0,0,1-5.273,8.889l-.585.115-.585.044H175.556a9.352,9.352,0,0,1-2.96-.319,7.091,7.091,0,0,1-4.361-3.793,7,7,0,0,1-.115-5.663c.744-1.728,1.516-3.394,2.26-5.052l15.953-35.389v.071c.044-13.294.071-23.69.089-30.027l.08.08h-4.653v-.053L181.8,264h4.759v.08c0,6.337.053,16.707.089,30.027h0l-15.891,35.451c-.736,1.666-1.516,3.35-2.251,5.043a6.656,6.656,0,0,0,4.21,8.863,9.033,9.033,0,0,0,2.827.292h36.019l.532-.106a6.559,6.559,0,0,0,3.669-2.233,6.691,6.691,0,0,0,1.524-3.971,6.577,6.577,0,0,0-.248-2.118,19.2,19.2,0,0,0-.833-2l-1.773-3.979-3.545-7.8-12.94-28.636h0c0-10.848,0-20.544.044-28.547v-.151h4.52l-.133.142v-3.5l.124.124-15.2-.071h-5.07Z" transform="translate(-70.629 -234.19)" fill="#263238"/>
                <path id="Trazado_253332" data-name="Trazado 253332" d="M175.552,333.34a5.983,5.983,0,0,1,6.027-3.643h0a33.679,33.679,0,0,0,5.876.434c3.412-.31,6.355-2.393,9.386-3.988s6.8-2.659,9.8-1.037l7.613,15.111a5.264,5.264,0,0,1-4.706,7.631H177.325a5.265,5.265,0,0,1-4.848-7.312Z" transform="translate(-71.139 -241.432)" fill="#34d9c7"/>
                <path id="Trazado_253333" data-name="Trazado 253333" d="M206.937,328.679a16.06,16.06,0,0,0-3.758,2.065c-1.072.789-2.26,1.852-3.669,2.951a12.132,12.132,0,0,1-5.194,2.606,14.5,14.5,0,0,1-5.8-.355c-1.773-.4-3.27-.842-4.564-1.188l-3.058-.886a6.771,6.771,0,0,1-1.108-.372,5.386,5.386,0,0,1,1.152.2l3.093.709c1.3.31,2.854.718,4.573,1.1a14.614,14.614,0,0,0,5.628.3,12.089,12.089,0,0,0,5.016-2.482c1.4-1.072,2.659-2.118,3.731-2.88a11.452,11.452,0,0,1,2.818-1.507,5.147,5.147,0,0,1,.833-.248C206.831,328.679,206.937,328.661,206.937,328.679Z" transform="translate(-72.018 -241.929)" fill="#fafafa"/>
                <path id="Trazado_253334" data-name="Trazado 253334" d="M210.745,374.421c-1.1-4.724-4.174-9.173-8.677-10.972a2.422,2.422,0,0,0-2.5.053,2.659,2.659,0,0,0-.62,1.959c-.133,3.306-.275,6.6-.408,9.909a6.63,6.63,0,0,0-1.773-3.492c-1.028-.886-2.88-.824-3.448.381-.452.948.071,2.038.408,3.031a9.155,9.155,0,0,1-2.508,9.607c-1.826,1.613-4.236,2.428-6.124,3.962a9.971,9.971,0,0,0,4.254,17.513h6.514c3.776-.08,8.18-3.731,10.547-6.683a29.461,29.461,0,0,0,4.928-10.635C212.535,384.338,211.853,379.136,210.745,374.421Z" transform="translate(-72.201 -245.847)" fill="#f4522b"/>
                <g id="Grupo_145695" data-name="Grupo 145695" transform="translate(109.198 117.28)" opacity="0.8">
                  <path id="Trazado_253335" data-name="Trazado 253335" d="M210.745,374.421c-1.1-4.724-4.174-9.173-8.677-10.972a2.422,2.422,0,0,0-2.5.053,2.659,2.659,0,0,0-.62,1.959c-.133,3.306-.275,6.6-.408,9.909a6.63,6.63,0,0,0-1.773-3.492c-1.028-.886-2.88-.824-3.448.381-.452.948.071,2.038.408,3.031a9.155,9.155,0,0,1-2.508,9.607c-1.826,1.613-4.236,2.428-6.124,3.962a9.971,9.971,0,0,0,4.254,17.513h6.514c3.776-.08,8.18-3.731,10.547-6.683a29.461,29.461,0,0,0,4.928-10.635C212.535,384.338,211.853,379.136,210.745,374.421Z" transform="translate(-181.399 -363.127)" fill="#fff"/>
                </g>
                <path id="Trazado_253336" data-name="Trazado 253336" d="M190.769,408.7c-2.845-1.445-4.369-5.362-4.369-7.693s1.773-4.866,3.66-6.2c2.2-1.569,5.318-1.711,7.135-3.669,1.4-1.5,1.773-3.687,2.659-5.5.558-1.072,1.533-2.127,2.739-2.047,1.445.106,2.225,1.728,2.544,3.137.886,3.988,1.329,9.421-.062,12.346-1.773,3.7-4.006,8.251-8.677,9.643" transform="translate(-72.769 -248.173)" fill="#f4522b"/>
                <path id="Trazado_253337" data-name="Trazado 253337" d="M208.724,374.319a1.968,1.968,0,0,0-1.126-.549h-.31a1.684,1.684,0,0,0-1.719,1.879,1.64,1.64,0,0,0,1.241,1.4,1.976,1.976,0,0,0,1.835-.558,1.64,1.64,0,0,0,.514-1.01A1.542,1.542,0,0,0,208.724,374.319Z" transform="translate(-74.948 -247.058)" fill="#f4522b"/>
                <rect id="Rectángulo_44101" data-name="Rectángulo 44101" width="9.146" height="22.778" transform="translate(117.521 159.868)" fill="#455a64"/>
                <path id="Trazado_253338" data-name="Trazado 253338" d="M176.26,446.219h0a6.1,6.1,0,0,1,6.089-6.089h22.777a6.1,6.1,0,0,1,6.1,6.089Z" transform="translate(-71.616 -254.604)" fill="#263238"/>
                <path id="Trazado_253339" data-name="Trazado 253339" d="M205.846,439.668H182.59a3.208,3.208,0,0,1,3.208-3.208h16.839a3.208,3.208,0,0,1,3.208,3.208Z" transform="translate(-72.336 -254.186)" fill="#455a64"/>
                <path id="Trazado_253340" data-name="Trazado 253340" d="M236.008,272.45c0,.124-13.613.23-30.4.23s-30.408-.106-30.408-.23,13.613-.23,30.408-.23S236.008,272.326,236.008,272.45Z" transform="translate(-71.496 -235.51)" fill="#263238"/>
                <path id="Trazado_253341" data-name="Trazado 253341" d="M245.54,423.974c-.133,0-.23-36.79-.23-82.167s.1-82.176.23-82.176.23,36.79.23,82.176S245.664,423.974,245.54,423.974Z" transform="translate(-79.468 -234.078)" fill="#263238"/>
                <path id="Trazado_253342" data-name="Trazado 253342" d="M253.5,445.482a9.1,9.1,0,0,0-9.1-9.1h0a9.093,9.093,0,0,0-9.1,9.1Z" transform="translate(-78.33 -254.177)" fill="#455a64"/>
                <path id="Trazado_253343" data-name="Trazado 253343" d="M244.985,267.35a4.555,4.555,0,0,0-4.555,4.547h0a4.555,4.555,0,0,0,4.555,4.556Z" transform="translate(-78.913 -234.956)" fill="#455a64"/>
                <path id="Trazado_253344" data-name="Trazado 253344" d="M332.57,364.471h0a1.9,1.9,0,0,0,1.905,1.968h1.773v48.24a5.539,5.539,0,0,0,5.566,5.53h0a5.53,5.53,0,0,0,5.53-5.53V366.5h1.719a1.95,1.95,0,0,0,1.967-1.95h0a1.941,1.941,0,0,0-1.95-1.941H334.475a1.905,1.905,0,0,0-1.905,1.861Z" transform="translate(-89.391 -245.788)" fill="#f5f5f5"/>
                <path id="Trazado_253345" data-name="Trazado 253345" d="M332.559,364.465a1.251,1.251,0,0,1,.044-.452,1.87,1.87,0,0,1,.736-1.09,1.949,1.949,0,0,1,.931-.354h14.491a2.34,2.34,0,0,1,1.294.248,2.109,2.109,0,0,1,.142,3.616,2.322,2.322,0,0,1-1.445.346h-1.445l.177-.177c0,12.408,0,28.76.053,46.627v1.445a5.9,5.9,0,0,1-.168,1.471,5.655,5.655,0,0,1-1.391,2.57,5.749,5.749,0,0,1-9.536-1.737,6.47,6.47,0,0,1-.434-2.659V392.392c0-11.646.089-20.721.106-25.835l.08.089c-.807,0-1.5,0-2.118-.053a1.915,1.915,0,0,1-1.276-.824,1.657,1.657,0,0,1-.31-1.179,2.03,2.03,0,0,0,.452,1.019,1.843,1.843,0,0,0,1.232.753c.585.053,1.3,0,2.1,0h.089v.08c0,5.114.053,14.181.106,25.835V414.2a6.079,6.079,0,0,0,.408,2.526,5.309,5.309,0,0,0,10.059-.771,12.7,12.7,0,0,0,.151-2.81c0-17.867,0-34.228.053-46.627v-.177h1.631a2.012,2.012,0,0,0,1.259-.275,1.773,1.773,0,0,0-.115-3.067,2.163,2.163,0,0,0-1.143-.23H334.288a1.878,1.878,0,0,0-.886.31,1.949,1.949,0,0,0-.753,1.019Q332.595,364.281,332.559,364.465Z" transform="translate(-89.381 -245.783)" fill="#263238"/>
                <path id="Trazado_253346" data-name="Trazado 253346" d="M342.39,420.908h0a4.13,4.13,0,0,1-4.13-4.13V384.65h8.269v32.128A4.139,4.139,0,0,1,342.39,420.908Z" transform="translate(-90.038 -248.295)" fill="#ba68c8"/>
                <path id="Trazado_253347" data-name="Trazado 253347" d="M346.245,367.06a38.17,38.17,0,0,1-8.375,0,38.166,38.166,0,0,1,8.375,0Z" transform="translate(-89.994 -246.268)" fill="#263238"/>
                <path id="Trazado_253348" data-name="Trazado 253348" d="M338.26,384.484a1.436,1.436,0,0,1,1.2-1.241,5.45,5.45,0,0,1,2.1.115l4.059.585a1.392,1.392,0,0,1,.762.275.47.47,0,0,1,0,.718" transform="translate(-90.038 -248.129)" fill="#f4522b"/>
                <path id="Trazado_253349" data-name="Trazado 253349" d="M342.379,389.839a1.25,1.25,0,1,1-.363-.889A1.25,1.25,0,0,1,342.379,389.839Z" transform="translate(-90.222 -248.742)" fill="#fff" opacity="0.21"/>
                <path id="Trazado_253350" data-name="Trazado 253350" d="M342.58,396.229a.627.627,0,1,1-.629-.629A.629.629,0,0,1,342.58,396.229Z" transform="translate(-90.387 -249.54)" fill="#fff" opacity="0.21"/>
                <path id="Trazado_253351" data-name="Trazado 253351" d="M364.79,364.471h0a1.906,1.906,0,0,0,1.906,1.968h1.773v48.24a5.53,5.53,0,0,0,5.521,5.53h0a5.53,5.53,0,0,0,5.53-5.53V366.5h1.719a1.95,1.95,0,0,0,1.968-1.95h0a1.941,1.941,0,0,0-1.941-1.941H366.7a1.906,1.906,0,0,0-1.905,1.861Z" transform="translate(-93.055 -245.788)" fill="#f5f5f5"/>
                <path id="Trazado_253352" data-name="Trazado 253352" d="M364.771,364.465a1.249,1.249,0,0,1,0-.452,1.888,1.888,0,0,1,.745-1.09,1.959,1.959,0,0,1,.886-.355h14.491a2.341,2.341,0,0,1,1.294.248,2.109,2.109,0,0,1,.142,3.616,2.322,2.322,0,0,1-1.445.346h-1.445l.177-.177c0,12.408,0,28.76.053,46.627v1.445a5.807,5.807,0,0,1-1.56,4.042,5.69,5.69,0,0,1-2.446,1.56,5.8,5.8,0,0,1-5.415-1.046,6.009,6.009,0,0,1-1.657-2.251,6.471,6.471,0,0,1-.434-2.659V392.392c.053-11.646.089-20.721.106-25.835l.089.089c-.815,0-1.507,0-2.127-.053a1.914,1.914,0,0,1-1.276-.824,1.657,1.657,0,0,1-.31-1.179,2.1,2.1,0,0,0,.381,1.126,1.773,1.773,0,0,0,1.223.753c.585.053,1.3,0,2.109,0h.08v.08c0,5.114.053,14.181.106,25.835V414.31a5.937,5.937,0,0,0,.4,2.526,5.487,5.487,0,0,0,1.533,2.065,5.4,5.4,0,0,0,2.349,1.117,5.46,5.46,0,0,0,2.659-.16,5.229,5.229,0,0,0,2.242-1.427,5.168,5.168,0,0,0,1.285-2.366,12.188,12.188,0,0,0,.151-2.81c0-17.867.044-34.228.062-46.627v-.177h1.622a2.012,2.012,0,0,0,1.259-.275,1.812,1.812,0,0,0-.106-3.084,2.206,2.206,0,0,0-1.152-.23H366.358a1.914,1.914,0,0,0-.886.31,1.879,1.879,0,0,0-.745,1.019A.456.456,0,0,1,364.771,364.465Z" transform="translate(-93.037 -245.783)" fill="#263238"/>
                <path id="Trazado_253353" data-name="Trazado 253353" d="M374.619,420.908h0a4.139,4.139,0,0,1-4.139-4.13V384.65h8.269v32.128A4.13,4.13,0,0,1,374.619,420.908Z" transform="translate(-93.702 -248.295)" fill="#39d6b2"/>
                <path id="Trazado_253354" data-name="Trazado 253354" d="M378.474,367.06a38.247,38.247,0,0,1-8.384,0,38.243,38.243,0,0,1,8.384,0Z" transform="translate(-93.658 -246.268)" fill="#263238"/>
                <path id="Trazado_253355" data-name="Trazado 253355" d="M370.48,384.484a1.445,1.445,0,0,1,1.2-1.241,5.443,5.443,0,0,1,2.1.115l4.059.585a1.391,1.391,0,0,1,.762.275.47.47,0,0,1,0,.718" transform="translate(-93.702 -248.129)" fill="#f4522b"/>
                <path id="Trazado_253356" data-name="Trazado 253356" d="M374.607,389.839a1.259,1.259,0,1,1-1.259-1.259,1.258,1.258,0,0,1,1.259,1.259Z" transform="translate(-93.885 -248.742)" fill="#fff" opacity="0.21"/>
                <path id="Trazado_253357" data-name="Trazado 253357" d="M374.84,396.229a.625.625,0,0,1-1.25,0,.629.629,0,0,1,.629-.629.62.62,0,0,1,.62.629Z" transform="translate(-94.056 -249.54)" fill="#fff" opacity="0.21"/>
                <g id="Grupo_145696" data-name="Grupo 145696" transform="translate(249.755 151.989)" opacity="0.3">
                  <path id="Trazado_253358" data-name="Trazado 253358" d="M341.142,417.738c-.638,0-1.152-3.456-1.152-7.72s.514-7.728,1.152-7.728,1.152,3.457,1.152,7.728S341.771,417.738,341.142,417.738Z" transform="translate(-339.99 -402.29)" fill="#fff"/>
                </g>
                <g id="Grupo_145697" data-name="Grupo 145697" transform="translate(277.912 151.989)" opacity="0.3">
                  <path id="Trazado_253359" data-name="Trazado 253359" d="M372.912,417.738c-.638,0-1.152-3.456-1.152-7.72s.514-7.728,1.152-7.728,1.161,3.457,1.161,7.728S373.55,417.738,372.912,417.738Z" transform="translate(-371.76 -402.29)" fill="#fff"/>
                </g>
                <path id="Trazado_253360" data-name="Trazado 253360" d="M310.65,362.63c.133,0,.23,16.449.23,36.745s-.1,36.745-.23,36.745-.23-16.449-.23-36.745S310.526,362.63,310.65,362.63Z" transform="translate(-86.872 -245.791)" fill="#263238"/>
                <path id="Trazado_253361" data-name="Trazado 253361" d="M431.51,362.72c.124,0,.23,16.458.23,36.745s-.106,36.754-.23,36.754-.23-16.449-.23-36.754S431.377,362.72,431.51,362.72Z" transform="translate(-100.616 -245.801)" fill="#263238"/>
                <path id="Trazado_253362" data-name="Trazado 253362" d="M417.825,377.27c0,.124-24.142.23-53.913.23S310,377.394,310,377.27s24.133-.23,53.913-.23S417.825,377.146,417.825,377.27Z" transform="translate(-86.825 -247.429)" fill="#263238"/>
                <path id="Trazado_253363" data-name="Trazado 253363" d="M318.664,445.482a9.093,9.093,0,0,0-9.1-9.1h0a9.1,9.1,0,0,0-9.1,9.1Z" transform="translate(-85.74 -254.177)" fill="#455a64"/>
                <path id="Trazado_253364" data-name="Trazado 253364" d="M439.474,445.832a9.1,9.1,0,0,0-9.1-9.1h0a9.1,9.1,0,0,0-9.1,9.1Z" transform="translate(-99.478 -254.217)" fill="#455a64"/>
                <path id="Trazado_253365" data-name="Trazado 253365" d="M310,382.442a4.556,4.556,0,0,0,4.556-4.556h0A4.555,4.555,0,0,0,310,373.34Z" transform="translate(-86.825 -247.009)" fill="#455a64"/>
                <path id="Trazado_253366" data-name="Trazado 253366" d="M431.077,373.34a4.547,4.547,0,0,0-4.547,4.547h0a4.547,4.547,0,0,0,4.547,4.556Z" transform="translate(-100.076 -247.009)" fill="#455a64"/>
                <path id="Trazado_253367" data-name="Trazado 253367" d="M375.287,334.256h-3.8l-10.919.044-40.14.071H300.041c-1.205,0-2.42,0-3.616.071a14.06,14.06,0,0,0-3.545.842,15.218,15.218,0,0,0-1.693.762,14.658,14.658,0,0,0-1.569,1,13.906,13.906,0,0,0-4.644,5.912,14.366,14.366,0,0,0-.957,3.758c-.2,2.606,0,5.318-.2,8.065a28.938,28.938,0,0,1-1.994,8.092,27.208,27.208,0,0,1-11.273,12.789,26.473,26.473,0,0,1-17.415,3.412,26.987,26.987,0,0,1-23.159-26.2V248.145a16.984,16.984,0,0,0-28.538-12.461,17.789,17.789,0,0,0-3.386,4.325,18.613,18.613,0,0,0-1.773,4.857,24.978,24.978,0,0,0-.328,4.83c0,1.56,0,3.067,0,4.5v7.888c0,4.733,0,8.411-.044,10.919v0c0-2.508,0-6.2-.044-10.919V249.7a25.021,25.021,0,0,1,.319-4.883,18.311,18.311,0,0,1,1.773-4.937,17.94,17.94,0,0,1,3.421-4.431,17.035,17.035,0,0,1,11.008-4.626,17.318,17.318,0,0,1,18.107,17.3V352.841a26.589,26.589,0,0,0,22.76,25.764,27.475,27.475,0,0,0,8.943-.222,26.81,26.81,0,0,0,19.294-15.7,28.62,28.62,0,0,0,1.968-7.977c.239-2.7,0-5.389.213-8.074a15.554,15.554,0,0,1,.993-3.873,14.73,14.73,0,0,1,1.994-3.386,13.818,13.818,0,0,1,2.8-2.659,16.1,16.1,0,0,1,1.613-1.037,15.8,15.8,0,0,1,1.728-.771,14.618,14.618,0,0,1,3.643-.886c1.25-.089,2.455-.062,3.66-.062h20.385l40.14.071,10.919.044h2.836Z" transform="translate(-73.843 -230.8)" fill="#263238"/>
                <path id="Trazado_253368" data-name="Trazado 253368" d="M342.55,347.53a64.471,64.471,0,0,1,0,10.893A64.484,64.484,0,0,1,342.55,347.53Z" transform="translate(-90.5 -244.074)" fill="#263238"/>
                <path id="Trazado_253369" data-name="Trazado 253369" d="M373.03,347.53a64.481,64.481,0,0,1,0,10.893A64.468,64.468,0,0,1,373.03,347.53Z" transform="translate(-93.966 -244.074)" fill="#263238"/>
                <path id="Trazado_253370" data-name="Trazado 253370" d="M94.881,236.32l5.318,5.867a9,9,0,0,1,1.985,8.6L81.932,319.728a13.073,13.073,0,0,0,12.541,16.76h38.11A13.835,13.835,0,0,0,145.8,318.567l-21.085-68.35a8.987,8.987,0,0,1,2.136-8.907l4.8-4.963Z" transform="translate(-60.829 -231.427)" fill="#f5f5f5"/>
                <path id="Trazado_253371" data-name="Trazado 253371" d="M94.86,236.3l36.772-.151h.355l-.248.257-3.651,3.784a24.646,24.646,0,0,0-1.861,2.03,8.579,8.579,0,0,0-1.294,2.437,8.863,8.863,0,0,0,0,5.672q.886,2.872,1.826,5.885l8.083,26.021c2.872,9.279,5.92,19.126,9.1,29.389.4,1.276.8,2.57,1.2,3.864.2.647.408,1.294.6,1.95a20.469,20.469,0,0,1,.558,1.985,14.581,14.581,0,0,1,.381,4.166l-.133,1.046-.062.523-.124.514-.248,1.028-.363,1a14.3,14.3,0,0,1-5.238,6.612,14.473,14.473,0,0,1-8.216,2.4H94.523a13.294,13.294,0,0,1-13.294-13.791c.044-.576.106-1.143.177-1.711a12.875,12.875,0,0,1,.39-1.657c.319-1.072.629-2.136.939-3.191.62-2.109,1.241-4.192,1.843-6.248q1.826-6.151,3.545-11.947c2.269-7.711,4.431-14.89,6.328-21.448L99.69,259c.771-2.6,1.489-5.025,2.154-7.25.16-.558.337-1.108.461-1.64a9.954,9.954,0,0,0,.2-1.6,9.111,9.111,0,0,0-.4-2.951,8.862,8.862,0,0,0-1.161-2.4,15.9,15.9,0,0,0-1.533-1.773l-2.5-2.783L94.9,236.336l2.083,2.233,2.517,2.712a15.467,15.467,0,0,1,1.551,1.773,9.058,9.058,0,0,1,1.2,2.437,8.951,8.951,0,0,1,.425,3.013,9.511,9.511,0,0,1-.195,1.631c-.124.558-.292,1.1-.452,1.657q-.984,3.35-2.118,7.259l-5.167,17.726-6.284,21.457q-1.693,5.779-3.5,11.956l-1.835,6.248c-.567,2.127-1.436,4.228-1.48,6.461a12.9,12.9,0,0,0,12.887,13.294h37.765a13.551,13.551,0,0,0,13.028-8.721l.346-.966.248-.993.115-.5.062-.505.124-1.019a13.914,13.914,0,0,0-.363-4.024,20.207,20.207,0,0,0-.549-1.959c-.195-.647-.4-1.3-.6-1.95l-1.188-3.864c-3.173-10.272-6.2-20.11-9.076-29.4s-5.548-17.921-8.03-25.995l-1.773-5.894a9.191,9.191,0,0,1,0-5.876,8.987,8.987,0,0,1,1.347-2.526,24.481,24.481,0,0,1,1.879-2.038l3.669-3.767.106.248Z" transform="translate(-60.809 -231.408)" fill="#263238"/>
                <path id="Trazado_253372" data-name="Trazado 253372" d="M68.43,419.97c-.124,0-.23-39.386-.23-87.955s.106-87.955.23-87.955.23,39.378.23,87.955S68.563,419.97,68.43,419.97Z" transform="translate(-59.328 -232.308)" fill="#263238"/>
                <path id="Trazado_253373" data-name="Trazado 253373" d="M148.174,255.97c0,.124-17.141.23-38.288.23s-38.3-.106-38.3-.23,17.141-.23,38.3-.23S148.174,255.82,148.174,255.97Z" transform="translate(-59.714 -233.636)" fill="#263238"/>
                <path id="Trazado_253374" data-name="Trazado 253374" d="M131.531,283.64a23.3,23.3,0,0,1-11.424-.248c-3.545-.993-6.878-2.836-10.414-4.015s-7.569-1.622-10.857.115L86.72,323.4a11.105,11.105,0,0,0,10.706,14.021h34.193a11.1,11.1,0,0,0,10.715-14.012Z" transform="translate(-61.39 -236.205)" fill="#81b722"/>
                <path id="Trazado_253375" data-name="Trazado 253375" d="M76.394,445.832a9.1,9.1,0,0,0-9.1-9.1h0a9.1,9.1,0,0,0-9.1,9.1Z" transform="translate(-58.19 -254.217)" fill="#455a64"/>
                <path id="Trazado_253376" data-name="Trazado 253376" d="M68.46,261.522a5.761,5.761,0,0,0,5.761-5.761h0A5.761,5.761,0,0,0,68.46,250Z" transform="translate(-59.358 -232.983)" fill="#455a64"/>
                <path id="Trazado_253377" data-name="Trazado 253377" d="M132.8,237.062a8.47,8.47,0,0,1-1.3.682,16.894,16.894,0,0,1-1.578.7c-.629.239-1.329.55-2.145.789s-1.684.558-2.659.789-2.012.452-3.111.665a42.431,42.431,0,0,1-7.268.567,43.264,43.264,0,0,1-7.259-.753c-1.09-.239-2.136-.452-3.093-.744s-1.843-.567-2.659-.886-1.5-.594-2.118-.886a16.79,16.79,0,0,1-1.56-.736,8.763,8.763,0,0,1-1.285-.718,10.4,10.4,0,0,1,1.356.558c.425.195.957.425,1.586.656s1.321.541,2.127.78,1.675.558,2.659.789,1.994.47,3.075.7a42.248,42.248,0,0,0,14.376.186c1.09-.2,2.136-.372,3.093-.62s1.843-.479,2.659-.727,1.516-.505,2.154-.718,1.161-.434,1.6-.62a9.033,9.033,0,0,1,1.356-.452Z" transform="translate(-62.576 -231.451)" fill="#263238"/>
                <g id="Grupo_145698" data-name="Grupo 145698" transform="translate(32.057 48.177)" opacity="0.3">
                  <path id="Trazado_253378" data-name="Trazado 253378" d="M102.753,333.976c0,.133-.815.257-2.18-.222a9.138,9.138,0,0,1-4.485-4,11.93,11.93,0,0,1-1.471-3.971,17.673,17.673,0,0,1-.168-4.768,72.367,72.367,0,0,1,2.145-10.3c3.607-14.278,7.028-25.7,7.64-25.56s-1.773,11.85-5.4,26.128a97.093,97.093,0,0,0-2.278,9.953,16.741,16.741,0,0,0,0,4.254,10.885,10.885,0,0,0,1.01,3.483,9.456,9.456,0,0,0,3.439,3.971C102.018,333.613,102.789,333.764,102.753,333.976Z" transform="translate(-94.36 -285.158)" fill="#fff"/>
                </g>
                <path id="Trazado_253379" data-name="Trazado 253379" d="M132.056,291.148a6.56,6.56,0,0,1-1.143.549c-.753.319-1.852.771-3.244,1.232a19.712,19.712,0,0,1-5.061,1.01,12.576,12.576,0,0,1-3.067-.2,16.271,16.271,0,0,1-3.146-.975c-2.074-.886-3.917-1.932-5.672-2.712a16.042,16.042,0,0,0-4.848-1.365,8.864,8.864,0,0,0-3.377.3c-.762.248-1.161.479-1.179.434s.08-.08.266-.186a5.61,5.61,0,0,1,.886-.417,8.172,8.172,0,0,1,3.456-.461,15.547,15.547,0,0,1,5,1.3c1.773.771,3.643,1.817,5.672,2.659a16.22,16.22,0,0,0,3.058.957,13.079,13.079,0,0,0,2.96.222,20.62,20.62,0,0,0,4.981-.886c1.391-.417,2.508-.824,3.279-1.09A6.2,6.2,0,0,1,132.056,291.148Z" transform="translate(-63.094 -237.342)" fill="#fafafa"/>
              </g>
            </g>
          </g>
        </g>
      </g>
      <path id="Trazado_251055" data-name="Trazado 251055" d="M132.788,372.11H96.426l-18.176,31.5,18.176,31.5h36.362l18.187-31.5Z" transform="translate(18.672 -33.851)" opacity="0.4" fill="url(#linear-gradient)"/>
      <path id="Trazado_251057" data-name="Trazado 251057" d="M424.618,63.76H380.323L358.17,102.122l22.153,38.362h44.295l22.153-38.362Z" transform="translate(-5.628 -63.76)" opacity="0.2" fill="url(#linear-gradient)"/>
    </g>
  </g>
</svg>
