<svg xmlns="http://www.w3.org/2000/svg" width="171.074" height="151.139" viewBox="0 0 171.074 151.139">
  <path id="Trazado_251720" data-name="Trazado 251720" d="M177.633,339.23H92.1L49.33,413.313,92.1,487.384h85.531L220.4,413.313Z" transform="translate(-49.33 -337.665)" fill="#dbefec" opacity="0.8"/>
  <path id="Trazado_251721" data-name="Trazado 251721" d="M172.909,344.83H94.822L55.79,412.449l39.032,67.62h78.087l39.044-67.62Z" transform="translate(-48.335 -336.802)" fill="none" stroke="#169788" stroke-miterlimit="10" stroke-width="0.98" stroke-dasharray="2"/>
  <circle id="Elipse_5987" data-name="Elipse 5987" cx="53.435" cy="53.435" r="53.435" transform="translate(9.907 75.569) rotate(-45)" fill="#6bffb8"/>
  <circle id="Elipse_5988" data-name="Elipse 5988" cx="53.435" cy="53.435" r="53.435" transform="translate(9.907 75.569) rotate(-45)" fill="#d3e6b1"/>
  <g id="Grupo_131642" data-name="Grupo 131642" transform="translate(32.04 22.131)" opacity="0.5">
    <path id="Trazado_251722" data-name="Trazado 251722" d="M130.525,357.05a53.459,53.459,0,0,0-49.546,73.471l77.049-65.854A53.089,53.089,0,0,0,130.525,357.05Z" transform="translate(-77.092 -357.05)" fill="#fff"/>
    <path id="Trazado_251723" data-name="Trazado 251723" d="M171.021,375.25,89.91,444.589a54.252,54.252,0,0,0,8.183,7.029l78.572-67.158a53.4,53.4,0,0,0-5.644-9.21Z" transform="translate(-75.116 -354.245)" fill="#fff"/>
    <path id="Trazado_251724" data-name="Trazado 251724" d="M102.22,453.123a53.47,53.47,0,0,0,75.2-64.273Z" transform="translate(-73.219 -352.149)" fill="#fff"/>
  </g>
  <circle id="Elipse_5989" data-name="Elipse 5989" cx="48.496" cy="48.496" r="48.496" transform="matrix(0.92, -0.393, 0.393, 0.92, 21.817, 50.012)" fill="#fff" opacity="0.7"/>
  <rect id="Rectángulo_43858" data-name="Rectángulo 43858" width="40.786" height="3.693" rx="1.56" transform="translate(64.06 108.212) rotate(-45)" fill="#28965a"/>
  <rect id="Rectángulo_43859" data-name="Rectángulo 43859" width="18.477" height="3.693" rx="1.56" transform="translate(94.768 77.505) rotate(-45)" fill="#2ceaa3"/>
  <rect id="Rectángulo_43860" data-name="Rectángulo 43860" width="18.477" height="3.693" rx="1.56" transform="translate(109.702 62.57) rotate(-45)" fill="#28965a"/>
  <rect id="Rectángulo_43861" data-name="Rectángulo 43861" width="55.663" height="3.693" rx="1.56" transform="translate(72.211 116.351) rotate(-45)" fill="#2ceaa3"/>
  <rect id="Rectángulo_43862" data-name="Rectángulo 43862" width="13.111" height="3.693" rx="1.56" transform="translate(113.436 75.134) rotate(-45)" fill="#28965a"/>
  <rect id="Rectángulo_43863" data-name="Rectángulo 43863" width="6.071" height="3.693" rx="1.56" transform="translate(123.749 64.816) rotate(-45)" fill="#28965a"/>
  <rect id="Rectángulo_43864" data-name="Rectángulo 43864" width="37.197" height="3.693" rx="1.56" transform="translate(65.364 115.121) rotate(-45)" fill="#2ceaa3"/>
  <rect id="Rectángulo_43865" data-name="Rectángulo 43865" width="18.477" height="3.693" rx="1.56" transform="translate(93.521 86.954) rotate(-45)" fill="#28965a"/>
  <rect id="Rectángulo_43866" data-name="Rectángulo 43866" width="23.013" height="3.693" rx="1.56" transform="translate(108.469 72.017) rotate(-45)" fill="#2ceaa3"/>
  <rect id="Rectángulo_43867" data-name="Rectángulo 43867" width="32.142" height="3.693" rx="1.56" transform="translate(131.448 70.397) rotate(135)" fill="#28965a"/>
  <rect id="Rectángulo_43868" data-name="Rectángulo 43868" width="18.477" height="3.693" rx="1.56" transform="translate(106.848 95.008) rotate(135)" fill="#2ceaa3"/>
  <rect id="Rectángulo_43869" data-name="Rectángulo 43869" width="14.957" height="3.693" rx="1.56" transform="translate(91.919 109.934) rotate(135)" fill="#28965a"/>
  <rect id="Rectángulo_43870" data-name="Rectángulo 43870" width="33.296" height="3.693" rx="1.56" transform="translate(129.886 88.257) rotate(135)" fill="#2ceaa3"/>
  <rect id="Rectángulo_43871" data-name="Rectángulo 43871" width="6.359" height="3.693" rx="1.56" transform="translate(105.324 112.815) rotate(135)" fill="#28965a"/>
  <path id="Trazado_251725" data-name="Trazado 251725" d="M135.341,441.721h0a1.8,1.8,0,0,0,0-2.551l-.069-.069a1.8,1.8,0,0,0-2.551,0h0a1.8,1.8,0,0,0,0,2.551l.069.069a1.8,1.8,0,0,0,2.551,0Z" transform="translate(-36.561 -322.355)" fill="#2ceaa3"/>
  <rect id="Rectángulo_43872" data-name="Rectángulo 43872" width="19.274" height="3.693" rx="1.56" transform="translate(131.799 78.259) rotate(135)" fill="#2ceaa3"/>
  <rect id="Rectángulo_43873" data-name="Rectángulo 43873" width="18.477" height="3.693" rx="1.56" transform="translate(116.299 93.76) rotate(135)" fill="#28965a"/>
  <rect id="Rectángulo_43874" data-name="Rectángulo 43874" width="18.477" height="3.693" rx="1.56" transform="translate(101.364 108.693) rotate(135)" fill="#2ceaa3"/>
  <path id="Trazado_251726" data-name="Trazado 251726" d="M113.351,365.583l30.088,30.088a1.847,1.847,0,0,1,0,2.62h0a1.858,1.858,0,0,1-2.608,0l-30.1-30.1a1.858,1.858,0,0,1,0-2.608h0a1.847,1.847,0,0,1,2.62,0Z" transform="translate(-39.95 -333.688)" fill="#2ceaa3"/>
  <path id="Trazado_251727" data-name="Trazado 251727" d="M125.427,363.5,143.8,381.878a1.87,1.87,0,0,1,0,2.62h0a1.858,1.858,0,0,1-2.608,0l-18.42-18.373a1.847,1.847,0,0,1,0-2.62h0a1.858,1.858,0,0,1,2.654,0Z" transform="translate(-38.096 -334.01)" fill="#2ceaa3"/>
  <path id="Trazado_251728" data-name="Trazado 251728" d="M144.571,382.691l2.089,2.089a1.87,1.87,0,0,1,0,2.62h0a1.858,1.858,0,0,1-2.608,0l-2.1-2.1a1.858,1.858,0,0,1,0-2.608h0a1.87,1.87,0,0,1,2.62,0Z" transform="translate(-35.139 -331.05)" fill="#28965a"/>
  <path id="Trazado_251729" data-name="Trazado 251729" d="M122.5,367.621l12.7,12.7a1.87,1.87,0,0,1,0,2.62h0a1.858,1.858,0,0,1-2.608,0l-12.7-12.7a1.846,1.846,0,0,1,0-2.62h0A1.858,1.858,0,0,1,122.5,367.621Z" transform="translate(-38.54 -333.372)" fill="#28965a"/>
  <path id="Trazado_251730" data-name="Trazado 251730" d="M136.811,381.931l7.144,7.144a1.847,1.847,0,0,1,0,2.62h0a1.858,1.858,0,0,1-2.608,0L134.2,384.54a1.835,1.835,0,0,1,0-2.608h0a1.858,1.858,0,0,1,2.608,0Z" transform="translate(-36.334 -331.167)" fill="#2ceaa3"/>
  <path id="Trazado_251731" data-name="Trazado 251731" d="M118.62,363.753l.658.646a1.858,1.858,0,0,1,0,2.608h0a1.847,1.847,0,0,1-2.62,0l-.646-.646a1.858,1.858,0,0,1,0-2.608h0a1.835,1.835,0,0,1,2.608,0Z" transform="translate(-39.136 -333.97)" fill="#2ceaa3"/>
  <path id="Trazado_251732" data-name="Trazado 251732" d="M134.827,365.948l-1.246-1.235a1.835,1.835,0,0,0-2.608,0h0a1.835,1.835,0,0,0,0,2.608l1.269,1.27a1.858,1.858,0,0,0,2.608,0h0a1.87,1.87,0,0,0-.023-2.643Z" transform="translate(-36.832 -333.821)" fill="#28965a"/>
  <path id="Trazado_251733" data-name="Trazado 251733" d="M151.652,382.822l-13.111-13.111a1.87,1.87,0,0,0-2.62,0h0a1.858,1.858,0,0,0,0,2.608l13.122,13.111a1.835,1.835,0,0,0,2.608,0h0a1.858,1.858,0,0,0,0-2.608Z" transform="translate(-36.067 -333.05)" fill="#2ceaa3"/>
  <path id="Trazado_251734" data-name="Trazado 251734" d="M146.9,370.91l-2.874-2.839a1.858,1.858,0,0,0-2.608,0h0a1.847,1.847,0,0,0,0,2.62l2.874,2.874a1.858,1.858,0,0,0,2.608,0h0a1.87,1.87,0,0,0,0-2.654Z" transform="translate(-35.222 -333.303)" fill="#2ceaa3"/>
  <path id="Trazado_251735" data-name="Trazado 251735" d="M153.854,377.877l-4.155-4.155a1.835,1.835,0,0,0-2.608,0h0a1.858,1.858,0,0,0,0,2.608l4.155,4.155a1.858,1.858,0,0,0,2.608,0h0a1.835,1.835,0,0,0,0-2.608Z" transform="translate(-34.347 -332.433)" fill="#28965a"/>
  <circle id="Elipse_5990" data-name="Elipse 5990" cx="9.902" cy="9.902" r="9.902" transform="translate(56.701 46.668)" fill="#80f2c8"/>
  <path id="Trazado_251736" data-name="Trazado 251736" d="M125.122,402.326a6.486,6.486,0,1,1-6.475-6.486A6.486,6.486,0,0,1,125.122,402.326Z" transform="translate(-39.648 -328.94)" fill="#2ceaa3"/>
  <path id="Trazado_251737" data-name="Trazado 251737" d="M100.552,400.276a6.486,6.486,0,1,1-6.486-6.486A6.486,6.486,0,0,1,100.552,400.276Z" transform="translate(-43.436 -329.257)" fill="#2ceaa3"/>
  <circle id="Elipse_5991" data-name="Elipse 5991" cx="10.064" cy="10.064" r="10.064" transform="translate(51.373 80.74) rotate(-22.37)" fill="#28965a"/>
  <circle id="Elipse_5992" data-name="Elipse 5992" cx="4.432" cy="4.432" r="4.432" transform="translate(78.999 55.646)" fill="none" stroke="#28965a" stroke-miterlimit="10" stroke-width="0.5"/>
  <path id="Trazado_251738" data-name="Trazado 251738" d="M94.387,413.152a4.443,4.443,0,1,1-4.432-4.432,4.443,4.443,0,0,1,4.432,4.432Z" transform="translate(-43.756 -326.956)" fill="none" stroke="#28965a" stroke-miterlimit="10" stroke-width="0.5"/>
</svg>
