<svg xmlns="http://www.w3.org/2000/svg" width="146.446" height="126.825" viewBox="0 0 146.446 126.825">
  <path id="Trazado_251617" data-name="Trazado 251617" d="M125.151,73.67H59.344l-32.9,56.99,32.9,56.99h65.808l32.892-56.99Z" transform="translate(-19.019 -67.248)" fill="rgba(254,254,254,0.15)" stroke="#fefefe" stroke-miterlimit="10" stroke-width="0.89"/>
  <path id="Trazado_251618" data-name="Trazado 251618" d="M115.661,69.523l-.577-.993H113.93" transform="translate(-5.535 -68.04)" fill="none" stroke="#28965a" stroke-miterlimit="10" stroke-width="0.98"/>
  <line id="Línea_473" data-name="Línea 473" x1="66.95" transform="translate(39.183 0.49)" fill="none" stroke="#fefefe" stroke-miterlimit="10" stroke-width="0.98" stroke-dasharray="1.97 1.97"/>
  <path id="Trazado_251619" data-name="Trazado 251619" d="M53.211,68.53H52.057l-.577.993" transform="translate(-15.159 -68.04)" fill="none" stroke="#28965a" stroke-miterlimit="10" stroke-width="0.98"/>
  <line id="Línea_474" data-name="Línea 474" x1="33.469" y2="57.971" transform="translate(1.709 3.456)" fill="none" stroke="#fefefe" stroke-miterlimit="10" stroke-width="0.98" stroke-dasharray="1.97 1.97"/>
  <path id="Trazado_251620" data-name="Trazado 251620" d="M21.077,122.18l-.577,1,.577.993" transform="translate(-19.934 -59.771)" fill="none" stroke="#28965a" stroke-miterlimit="10" stroke-width="0.98"/>
  <line id="Línea_475" data-name="Línea 475" x2="33.481" y2="57.971" transform="translate(2.274 66.379)" fill="none" stroke="#fefefe" stroke-miterlimit="10" stroke-width="0.98" stroke-dasharray="1.97 1.97"/>
  <path id="Trazado_251621" data-name="Trazado 251621" d="M51.48,176.7l.577,1h1.154" transform="translate(-15.159 -51.369)" fill="none" stroke="#28965a" stroke-miterlimit="10" stroke-width="0.98"/>
  <line id="Línea_476" data-name="Línea 476" x2="66.95" transform="translate(40.314 126.335)" fill="none" stroke="#fefefe" stroke-miterlimit="10" stroke-width="0.98" stroke-dasharray="1.97 1.97"/>
  <path id="Trazado_251622" data-name="Trazado 251622" d="M113.93,177.7h1.154l.577-1" transform="translate(-5.535 -51.369)" fill="none" stroke="#28965a" stroke-miterlimit="10" stroke-width="0.98"/>
  <line id="Línea_477" data-name="Línea 477" y1="57.971" x2="33.469" transform="translate(111.269 65.397)" fill="none" stroke="#28965a" stroke-miterlimit="10" stroke-width="0.98" stroke-dasharray="1.97 1.97"/>
  <path id="Trazado_251623" data-name="Trazado 251623" d="M145.91,124.177l.577-.993-.577-1" transform="translate(-0.606 -59.771)" fill="none" stroke="#28965a" stroke-miterlimit="10" stroke-width="0.98"/>
  <line id="Línea_478" data-name="Línea 478" x1="33.469" y1="57.983" transform="translate(110.703 2.464)" fill="none" stroke="#fefefe" stroke-miterlimit="10" stroke-width="0.98" stroke-dasharray="1.97 1.97"/>
  <path id="Trazado_251624" data-name="Trazado 251624" d="M68.11,88.11v18.581a17.462,17.462,0,0,0,17.462,17.462h0a17.473,17.473,0,0,1,17.473,17.473v24.548" transform="translate(-12.597 -65.022)" fill="none" stroke="#2a6041" stroke-linecap="round" stroke-miterlimit="10" stroke-width="1.54"/>
  <path id="Trazado_251625" data-name="Trazado 251625" d="M100.49,88.355a1.835,1.835,0,1,1-1.835-1.835A1.835,1.835,0,0,1,100.49,88.355Z" transform="translate(-8.172 -65.268)" fill="#28965a"/>
  <path id="Trazado_251626" data-name="Trazado 251626" d="M100.49,92.415a1.835,1.835,0,1,1-1.835-1.835,1.835,1.835,0,0,1,1.835,1.835Z" transform="translate(-8.172 -64.642)" fill="#28965a"/>
  <path id="Trazado_251627" data-name="Trazado 251627" d="M100.49,96.485a1.835,1.835,0,1,1-1.835-1.835A1.835,1.835,0,0,1,100.49,96.485Z" transform="translate(-8.172 -64.015)" fill="#28965a"/>
  <path id="Trazado_251628" data-name="Trazado 251628" d="M100.49,100.555a1.835,1.835,0,1,1-1.835-1.835A1.835,1.835,0,0,1,100.49,100.555Z" transform="translate(-8.172 -63.388)" fill="#28965a"/>
  <path id="Trazado_251629" data-name="Trazado 251629" d="M100.49,104.625a1.835,1.835,0,1,1-1.835-1.835A1.835,1.835,0,0,1,100.49,104.625Z" transform="translate(-8.172 -62.76)" fill="#28965a"/>
  <path id="Trazado_251630" data-name="Trazado 251630" d="M99.96,108.7a1.835,1.835,0,1,1-1.835-1.835A1.835,1.835,0,0,1,99.96,108.7Z" transform="translate(-8.253 -62.133)" fill="#28965a"/>
  <path id="Trazado_251631" data-name="Trazado 251631" d="M98.37,112.175a1.835,1.835,0,1,1-1.835-1.835,1.835,1.835,0,0,1,1.835,1.835Z" transform="translate(-8.498 -61.597)" fill="#28965a"/>
  <path id="Trazado_251632" data-name="Trazado 251632" d="M95.97,115.245a1.835,1.835,0,1,1-1.835-1.835,1.835,1.835,0,0,1,1.835,1.835Z" transform="translate(-8.868 -61.123)" fill="#28965a"/>
  <path id="Trazado_251633" data-name="Trazado 251633" d="M93.05,117.525a1.835,1.835,0,1,1-1.8-1.835,1.835,1.835,0,0,1,1.8,1.835Z" transform="translate(-9.318 -60.771)" fill="#28965a"/>
  <path id="Trazado_251634" data-name="Trazado 251634" d="M89.61,118.955a1.835,1.835,0,1,1-1.835-1.835A1.835,1.835,0,0,1,89.61,118.955Z" transform="translate(-9.849 -60.552)" fill="#28965a"/>
  <path id="Trazado_251635" data-name="Trazado 251635" d="M66.54,150.505a1.835,1.835,0,1,1,1.835,1.835A1.835,1.835,0,0,1,66.54,150.505Z" transform="translate(-12.838 -55.689)" fill="#28965a"/>
  <path id="Trazado_251636" data-name="Trazado 251636" d="M66.54,146.435a1.835,1.835,0,1,1,1.835,1.835A1.835,1.835,0,0,1,66.54,146.435Z" transform="translate(-12.838 -56.316)" fill="#28965a"/>
  <path id="Trazado_251637" data-name="Trazado 251637" d="M66.54,142.365a1.835,1.835,0,1,1,1.835,1.835A1.835,1.835,0,0,1,66.54,142.365Z" transform="translate(-12.838 -56.943)" fill="#28965a"/>
  <path id="Trazado_251638" data-name="Trazado 251638" d="M66.54,138.3a1.835,1.835,0,1,1,1.835,1.835A1.835,1.835,0,0,1,66.54,138.3Z" transform="translate(-12.838 -57.571)" fill="#28965a"/>
  <path id="Trazado_251639" data-name="Trazado 251639" d="M66.54,134.243a1.835,1.835,0,1,1,.533,1.305A1.835,1.835,0,0,1,66.54,134.243Z" transform="translate(-12.838 -58.193)" fill="#28965a"/>
  <circle id="Elipse_5983" data-name="Elipse 5983" cx="1.835" cy="1.835" r="1.835" transform="translate(54.279 69.506)" fill="#28965a"/>
  <path id="Trazado_251640" data-name="Trazado 251640" d="M68.63,126.69a1.835,1.835,0,1,1,1.835,1.8,1.835,1.835,0,0,1-1.835-1.8Z" transform="translate(-12.517 -59.365)" fill="#28965a"/>
  <path id="Trazado_251641" data-name="Trazado 251641" d="M71,123.593a1.835,1.835,0,1,1,.533,1.3A1.835,1.835,0,0,1,71,123.593Z" transform="translate(-12.15 -59.835)" fill="#28965a"/>
  <path id="Trazado_251642" data-name="Trazado 251642" d="M74,121.335a1.835,1.835,0,1,1,1.835,1.835A1.835,1.835,0,0,1,74,121.335Z" transform="translate(-11.688 -60.185)" fill="#28965a"/>
  <path id="Trazado_251643" data-name="Trazado 251643" d="M77.39,119.9a1.835,1.835,0,1,1,.546,1.306A1.835,1.835,0,0,1,77.39,119.9Z" transform="translate(-11.166 -60.406)" fill="#28965a"/>
  <path id="Trazado_251644" data-name="Trazado 251644" d="M85.58,119.465a1.835,1.835,0,1,1-1.835-1.835A1.835,1.835,0,0,1,85.58,119.465Z" transform="translate(-10.47 -60.473)" fill="#28965a"/>
  <path id="Trazado_251645" data-name="Trazado 251645" d="M99.417,90.036H70.829a.508.508,0,0,1-.519-.508h0a.519.519,0,0,1,.519-.508H99.417a.508.508,0,0,1,.508.508h0A.508.508,0,0,1,99.417,90.036Z" transform="translate(-12.257 -64.882)" fill="#2ceaa3"/>
  <path id="Trazado_251646" data-name="Trazado 251646" d="M99.417,93.136H70.829a.508.508,0,0,1-.519-.508h0a.519.519,0,0,1,.519-.508H99.417a.508.508,0,0,1,.508.508h0A.508.508,0,0,1,99.417,93.136Z" transform="translate(-12.257 -64.404)" fill="#2ceaa3"/>
  <path id="Trazado_251647" data-name="Trazado 251647" d="M99.417,96.216H70.829a.508.508,0,0,1-.519-.508h0a.519.519,0,0,1,.519-.508H99.417a.508.508,0,0,1,.508.508h0A.508.508,0,0,1,99.417,96.216Z" transform="translate(-12.257 -63.93)" fill="#2ceaa3"/>
  <path id="Trazado_251648" data-name="Trazado 251648" d="M99.417,99.306H70.829a.508.508,0,0,1-.519-.508h0a.519.519,0,0,1,.519-.508H99.417a.508.508,0,0,1,.508.508h0A.508.508,0,0,1,99.417,99.306Z" transform="translate(-12.257 -63.453)" fill="#2ceaa3"/>
  <path id="Trazado_251649" data-name="Trazado 251649" d="M99.417,102.4H70.829a.508.508,0,0,1-.519-.508h0a.519.519,0,0,1,.519-.508H99.417a.508.508,0,0,1,.508.508h0A.508.508,0,0,1,99.417,102.4Z" transform="translate(-12.257 -62.978)" fill="#2ceaa3"/>
  <path id="Trazado_251650" data-name="Trazado 251650" d="M99.417,105.5H70.829a.519.519,0,0,1-.519-.519h0a.519.519,0,0,1,.519-.508H99.417a.508.508,0,0,1,.508.508h0a.519.519,0,0,1-.508.519Z" transform="translate(-12.257 -62.501)" fill="#2ceaa3"/>
  <path id="Trazado_251651" data-name="Trazado 251651" d="M99.417,108.587H70.829a.519.519,0,0,1-.519-.519h0a.519.519,0,0,1,.519-.508H99.417a.508.508,0,0,1,.542.508h0a.519.519,0,0,1-.542.519Z" transform="translate(-12.257 -62.025)" fill="#2ceaa3"/>
  <path id="Trazado_251652" data-name="Trazado 251652" d="M96.1,111.677H73.4a.519.519,0,0,1-.519-.519h0a.519.519,0,0,1,.519-.508H96.1a.519.519,0,0,1,.519.508h0A.519.519,0,0,1,96.1,111.677Z" transform="translate(-11.861 -61.549)" fill="#2ceaa3"/>
  <path id="Trazado_251653" data-name="Trazado 251653" d="M92.681,114.767H75.969a.519.519,0,0,1-.519-.519h0a.519.519,0,0,1,.519-.508H92.681a.519.519,0,0,1,.519.508h0a.519.519,0,0,1-.519.519Z" transform="translate(-11.465 -61.072)" fill="#2ceaa3"/>
  <path id="Trazado_251654" data-name="Trazado 251654" d="M70.829,149.41H99.417a.508.508,0,0,1,.508.508h0a.519.519,0,0,1-.508.519H70.829a.519.519,0,0,1-.519-.519h0A.519.519,0,0,1,70.829,149.41Z" transform="translate(-12.257 -55.575)" fill="#2ceaa3"/>
  <path id="Trazado_251655" data-name="Trazado 251655" d="M70.829,152.57H99.417a.508.508,0,0,1,.542.5h0a.519.519,0,0,1-.508.519H70.829a.519.519,0,0,1-.519-.519h0a.519.519,0,0,1,.519-.5Z" transform="translate(-12.257 -55.088)" fill="#2ceaa3"/>
  <path id="Trazado_251656" data-name="Trazado 251656" d="M70.829,146.32H99.417a.508.508,0,0,1,.508.508h0a.519.519,0,0,1-.508.519H70.829a.519.519,0,0,1-.519-.519h0A.519.519,0,0,1,70.829,146.32Z" transform="translate(-12.257 -56.052)" fill="#2ceaa3"/>
  <path id="Trazado_251657" data-name="Trazado 251657" d="M70.829,143.23H99.417a.508.508,0,0,1,.508.508h0a.519.519,0,0,1-.508.519H70.829a.519.519,0,0,1-.519-.519h0A.519.519,0,0,1,70.829,143.23Z" transform="translate(-12.257 -56.527)" fill="#2ceaa3"/>
  <path id="Trazado_251658" data-name="Trazado 251658" d="M70.829,140.14H99.417a.508.508,0,0,1,.508.508h0a.519.519,0,0,1-.508.519H70.829a.519.519,0,0,1-.519-.519h0a.519.519,0,0,1,.519-.508Z" transform="translate(-12.257 -57.004)" fill="#2ceaa3"/>
  <path id="Trazado_251659" data-name="Trazado 251659" d="M70.829,137.05H99.417a.508.508,0,0,1,.508.508h0a.519.519,0,0,1-.508.519H70.829a.519.519,0,0,1-.519-.519h0A.519.519,0,0,1,70.829,137.05Z" transform="translate(-12.257 -57.48)" fill="#2ceaa3"/>
  <path id="Trazado_251660" data-name="Trazado 251660" d="M70.829,134H99.417a.508.508,0,0,1,.508.508h0a.519.519,0,0,1-.508.519H70.829a.519.519,0,0,1-.519-.519h0a.519.519,0,0,1,.519-.508Z" transform="translate(-12.257 -57.95)" fill="#2ceaa3"/>
  <path id="Trazado_251661" data-name="Trazado 251661" d="M70.829,130.87H99.417a.508.508,0,0,1,.508.508h0a.519.519,0,0,1-.508.519H70.829a.519.519,0,0,1-.519-.519h0a.519.519,0,0,1,.519-.508Z" transform="translate(-12.257 -58.433)" fill="#2ceaa3"/>
  <path id="Trazado_251662" data-name="Trazado 251662" d="M73.4,127.78H96.1a.519.519,0,0,1,.519.508h0a.519.519,0,0,1-.519.519H73.4a.519.519,0,0,1-.519-.519h0A.519.519,0,0,1,73.4,127.78Z" transform="translate(-11.861 -58.908)" fill="#2ceaa3"/>
  <path id="Trazado_251663" data-name="Trazado 251663" d="M75.969,124.69H92.681a.519.519,0,0,1,.519.508h0a.519.519,0,0,1-.519.519H75.969a.519.519,0,0,1-.519-.519h0A.519.519,0,0,1,75.969,124.69Z" transform="translate(-11.465 -59.385)" fill="#2ceaa3"/>
</svg>
