<svg xmlns="http://www.w3.org/2000/svg" width="161.738" height="140.069" viewBox="0 0 161.738 140.069">
  <path id="Trazado_251664" data-name="Trazado 251664" d="M447.492,355.53H375.187L339.04,418.141l36.147,62.622h72.305l36.158-62.622Z" transform="translate(-330.476 -348.112)" fill="none" stroke="#28965a" stroke-miterlimit="10" stroke-width="0.97"/>
  <path id="Trazado_251665" data-name="Trazado 251665" d="M452.523,349.57H372.277L332.16,419.059l40.117,69.5h80.246l40.129-69.5Z" transform="translate(-331.536 -349.03)" fill="none" stroke="#28965a" stroke-miterlimit="10" stroke-width="1.08" stroke-dasharray="2"/>
  <path id="Trazado_251666" data-name="Trazado 251666" d="M421.382,369.69l-1.3,4.536a15.4,15.4,0,0,0-3.393,1.385L412.5,373.3,408.756,377l2.308,4.132a14.275,14.275,0,0,0-1.408,3.347l-4.616,1.293v5.228l4.616,1.293a14.276,14.276,0,0,0,1.408,3.347l-2.308,4.132,3.739,3.693,4.189-2.308a14.853,14.853,0,0,0,3.393,1.385l1.3,4.547h5.3l1.3-4.547a14.854,14.854,0,0,0,3.393-1.385l4.189,2.308,3.739-3.693L437,395.634a14.783,14.783,0,0,0,1.408-3.347l4.616-1.293v-5.228l-4.616-1.293A14.784,14.784,0,0,0,437,381.127L439.306,377l-3.739-3.693-4.189,2.308a15.4,15.4,0,0,0-3.393-1.385l-1.3-4.536Zm2.643,8.921a9.787,9.787,0,1,1-9.9,9.787,9.787,9.787,0,0,1,9.9-9.787Z" transform="translate(-320.305 -345.93)" fill="#f4522b" opacity="0.4"/>
  <g id="Grupo_131637" data-name="Grupo 131637" transform="translate(53.182 59.272)">
    <path id="Trazado_251667" data-name="Trazado 251667" d="M403.264,400.46l-2.054,7.121a24.41,24.41,0,0,0-5.32,2.17l-6.555-3.6-5.874,5.771,3.659,6.475a22.158,22.158,0,0,0-2.193,5.251l-7.225,2.02v8.206l7.225,2.02a21.927,21.927,0,0,0,2.193,5.251l-3.659,6.486,5.874,5.771,6.555-3.612a23.313,23.313,0,0,0,5.32,2.17l2.054,7.121h8.31l2.043-7.121a22.9,22.9,0,0,0,5.32-2.17L425.5,453.4l5.863-5.771-3.693-6.463a22.435,22.435,0,0,0,2.193-5.251l7.225-2.02v-8.206l-7.225-2.02a22.643,22.643,0,0,0-2.193-5.274l3.647-6.475-5.863-5.771-6.567,3.6a23.949,23.949,0,0,0-5.32-2.17l-2.043-7.121Zm4.155,14A15.338,15.338,0,1,1,391.9,429.8,15.338,15.338,0,0,1,407.418,414.459Z" transform="translate(-377.7 -400.46)" fill="#fee4b5"/>
  </g>
</svg>
