<svg xmlns="http://www.w3.org/2000/svg" xmlns:xlink="http://www.w3.org/1999/xlink" width="1240" height="628.838" viewBox="0 0 1240 628.838">
  <defs>
    <radialGradient id="radial-gradient" cx="0.5" cy="0.5" r="1.139" gradientTransform="translate(0.187 0.124) scale(0.507 0.508)" gradientUnits="objectBoundingBox">
      <stop offset="0" stop-color="#60839d"/>
      <stop offset="0.26" stop-color="#5e7f99"/>
      <stop offset="0.52" stop-color="#57748c"/>
      <stop offset="0.79" stop-color="#4b6078"/>
      <stop offset="1" stop-color="#3f4c62"/>
    </radialGradient>
    <radialGradient id="radial-gradient-2" cx="0.5" cy="0.5" r="1.406" gradientTransform="translate(0.187 0.124) scale(0.507 0.508)" gradientUnits="objectBoundingBox">
      <stop offset="0" stop-color="#60839d"/>
      <stop offset="0.33" stop-color="#5e809a"/>
      <stop offset="0.596" stop-color="#44556c"/>
      <stop offset="1" stop-color="#3f4c62"/>
    </radialGradient>
    <radialGradient id="radial-gradient-3" cx="0.379" cy="0.5" r="6.897" gradientTransform="translate(0.482) scale(0.035 1)" gradientUnits="objectBoundingBox">
      <stop offset="0" stop-color="#274158"/>
      <stop offset="0.27" stop-color="#253e54"/>
      <stop offset="0.54" stop-color="#213447"/>
      <stop offset="0.82" stop-color="#192333"/>
      <stop offset="0.99" stop-color="#121622"/>
    </radialGradient>
    <linearGradient id="linear-gradient" x1="0.5" y1="1" x2="0.5" gradientUnits="objectBoundingBox">
      <stop offset="0" stop-color="#ffde13"/>
      <stop offset="1" stop-color="#ff9a2b"/>
    </linearGradient>
    <linearGradient id="linear-gradient-2" x1="0.5" y1="0.998" x2="0.5" gradientUnits="objectBoundingBox">
      <stop offset="0" stop-color="#d9d9d9"/>
      <stop offset="0.01" stop-color="#d8d8d8" stop-opacity="0.502"/>
      <stop offset="1" stop-color="#c4c4c4"/>
    </linearGradient>
    <radialGradient id="radial-gradient-4" cx="0.5" cy="0.5" r="0.535" gradientTransform="translate(0.059) scale(0.881 1)" gradientUnits="objectBoundingBox">
      <stop offset="0" stop-color="#fa0103"/>
      <stop offset="0.2" stop-color="#f60103"/>
      <stop offset="0.4" stop-color="#e90103"/>
      <stop offset="0.61" stop-color="#d50103"/>
      <stop offset="0.82" stop-color="#b80103"/>
      <stop offset="0.99" stop-color="#990103"/>
    </radialGradient>
    <radialGradient id="radial-gradient-5" cx="0.5" cy="0.5" r="0.5" gradientUnits="objectBoundingBox">
      <stop offset="0" stop-color="#4f4f4f"/>
      <stop offset="0.01" stop-color="#cfcece"/>
      <stop offset="1" stop-color="#fff"/>
    </radialGradient>
    <radialGradient id="radial-gradient-6" cx="0.5" cy="0.5" r="0.534" gradientTransform="translate(0.059) scale(0.882 1)" xlink:href="#radial-gradient-4"/>
    <radialGradient id="radial-gradient-8" cx="0.5" cy="0.5" r="0.535" xlink:href="#radial-gradient-4"/>
    <radialGradient id="radial-gradient-10" cx="0.501" r="0.365" gradientTransform="translate(-1.461) scale(3.916 1)" xlink:href="#radial-gradient-3"/>
    <radialGradient id="radial-gradient-11" cx="0.5" cy="0.5" r="0.535" xlink:href="#radial-gradient-4"/>
    <radialGradient id="radial-gradient-13" cx="0.451" cy="0.489" r="0.805" gradientTransform="matrix(-0.108, -0.96, 0.447, -0.34, 1.917, -1.333)" xlink:href="#radial-gradient-3"/>
    <radialGradient id="radial-gradient-14" cx="0.5" cy="0.5" r="0.535" xlink:href="#radial-gradient-4"/>
    <radialGradient id="radial-gradient-16" cx="0.5" cy="0.505" r="0.472" gradientTransform="translate(-0.069) scale(1.138 1)" xlink:href="#radial-gradient-3"/>
    <radialGradient id="radial-gradient-17" cx="0.5" cy="0.5" r="0.535" gradientTransform="translate(0.059) scale(0.882 1)" xlink:href="#radial-gradient-4"/>
    <radialGradient id="radial-gradient-19" cx="0.499" r="0.472" gradientTransform="translate(-0.067) scale(1.134 1)" xlink:href="#radial-gradient-3"/>
    <radialGradient id="radial-gradient-20" cx="0.5" cy="0.5" r="0.535" xlink:href="#radial-gradient-4"/>
    <radialGradient id="radial-gradient-22" cx="0.5" r="0.441" gradientTransform="translate(-0.168) scale(1.337 1)" xlink:href="#radial-gradient-3"/>
    <radialGradient id="radial-gradient-23" cx="0.5" cy="0.5" r="0.535" xlink:href="#radial-gradient-4"/>
    <radialGradient id="radial-gradient-25" cx="0.501" cy="0.501" r="0.442" gradientTransform="translate(-0.167) scale(1.334 1)" xlink:href="#radial-gradient-3"/>
    <radialGradient id="radial-gradient-26" cx="0.5" cy="0.5" r="0.535" xlink:href="#radial-gradient-4"/>
    <radialGradient id="radial-gradient-28" cx="0.5" r="0.501" gradientTransform="translate(0.003) scale(0.994 1)" xlink:href="#radial-gradient-3"/>
  </defs>
  <g id="Grupo_145892" data-name="Grupo 145892" transform="translate(-180 -5507.051)">
    <rect id="Rectángulo_44119" data-name="Rectángulo 44119" width="1240" height="628.838" transform="translate(180 5507.051)" fill="url(#radial-gradient)"/>
    <rect id="Rectángulo_44120" data-name="Rectángulo 44120" width="1240" height="628.838" transform="translate(180 5507.051)" fill="url(#radial-gradient-2)"/>
    <rect id="Rectángulo_44122" data-name="Rectángulo 44122" width="1240" height="43.541" transform="translate(180 5507.051)" fill="url(#radial-gradient-3)"/>
    <path id="Trazado_254400" data-name="Trazado 254400" d="M62.491,1.47H124l-62.491,37.4H0ZM124,38.868h61.509L248,1.47H186.491Zm124,0h61.509L372,1.47H310.491Zm124,0h61.509L496,1.47H434.575Zm124,0h61.509L620,1.47H558.491Zm124,0h61.509L744,1.47H682.491Zm124,0h61.509L868,1.47H806.47Zm124,0h61.509L992,1.47H930.491Zm124,0h61.509L1116,1.47h-61.509Zm124,0h61.509L1240,1.47h-61.509Z" transform="translate(180 5508.652)" fill="url(#linear-gradient)"/>
    <path id="Trazado_254401" data-name="Trazado 254401" d="M0,8.127c66.231,10.739,318.66,18.8,620,18.8s553.665-8,620-18.8V0H0Z" transform="translate(180 5507.051)" opacity="0.5" fill="url(#linear-gradient-2)"/>
  </g>
  <g id="Grupo_145896" data-name="Grupo 145896" transform="translate(-363.458 -5507.051)">
    <path id="Trazado_254402" data-name="Trazado 254402" d="M468.33,330.169a10.446,10.446,0,0,1-9.047-15.649l80.584-139.586a10.447,10.447,0,0,1,18.072,0l80.584,139.524a10.447,10.447,0,0,1-9.047,15.649Z" transform="translate(678.786 5691.937)" fill="url(#radial-gradient-4)"/>
    <path id="Trazado_254403" data-name="Trazado 254403" d="M466.28,305.941l73.5-127.3,73.481,127.3Z" transform="translate(687.919 5701.644)" fill="#ebebeb"/>
    <path id="Trazado_254404" data-name="Trazado 254404" d="M469.66,297.6,536.079,182.54,602.519,297.6Z" transform="translate(691.601 5705.892)" fill="#fff"/>
    <path id="Trazado_254406" data-name="Trazado 254406" d="M480.19,259.539a164.282,164.282,0,0,0,88.858,0L524.629,182.59Z" transform="translate(703.071 5705.946)" opacity="0.73" fill="url(#radial-gradient-5)"/>
    <path id="Trazado_254407" data-name="Trazado 254407" d="M502.165,250.931l-7.208,4.555h9.381l2.883,2.653,3.406-4.576,5.495.961,4.492-2.4-7.856-3.134V234.55l6.748-6.978h3.615l6-10.823-8.5,6.978-3.761-.23-2.653,1.671.481-8.42,7.229-9.611L521.658,204l-7.459,8.65-.481-8.65-1.671.961-.961,16.84-3.865,3.844L502.9,213.135l1.692-9.13h-2.173l-1.922,3.364-3.844-7.689-1.692,3.364,4.1,6.978L501.2,217l-10.091-7.459v4.074l9.13,7.96,1.922,3.594-7.689-2.633-5.537,4.325,4.555.23,9.653,5.307Z" transform="translate(712.603 5724.563)"/>
    <path id="Trazado_254408" data-name="Trazado 254408" d="M501.26,239.963l8.357,4.576s2.089-5.787,6.017-7.459,17.571-2.089,22.627-18.532c0,0-3.05,1.128-7.292,2.967-2.633,1.128,1.922-5.014,1.922-5.014s-9.506-2.256-17.968,11.679C507.632,240.277,501.26,239.963,501.26,239.963Z" transform="translate(726.023 5742.738)" fill="none" stroke="#000" stroke-miterlimit="10" stroke-width="1"/>
    <path id="Trazado_254409" data-name="Trazado 254409" d="M516.053,231.352l8.357,4.576s2.089-5.787,6.017-7.459c2.089-.878,6.728-1.442,11.491-4.179.689-.4,7.772,5.37,8.357,4.889-3.7,1.254-5.453.815-4.492,3.134.251.564,3.531-.209,6.268.292,1.546.293-1.964,2.486-1.4,3.238s5.244-.4,4.638,0c-.439.857,0,3.489-.355,5.1-15.712-.606-60.13.648-67.255-.46A92.472,92.472,0,0,0,516.053,231.352Z" transform="translate(711.23 5751.349)"/>
    <rect id="Rectángulo_44123" data-name="Rectángulo 44123" width="47.469" height="0.376" transform="translate(1198.973 5963.688)" fill="#000103"/>
    <circle id="Elipse_6141" data-name="Elipse 6141" cx="1.316" cy="1.316" r="1.316" transform="translate(1256.763 5966.822)" fill="#000103"/>
  </g>
  <g id="Grupo_145891" data-name="Grupo 145891" transform="translate(989.922)">
    <path id="Trazado_254410" data-name="Trazado 254410" d="M19.688,330.2a10.446,10.446,0,0,1-9.026-15.712L91.247,174.9a10.446,10.446,0,0,1,18.072,0L189.9,314.49a10.447,10.447,0,0,1-9.047,15.649Z" transform="translate(10.063 184.853)" fill="url(#radial-gradient-6)"/>
    <path id="Trazado_254411" data-name="Trazado 254411" d="M17.63,305.941l73.5-127.3,73.5,127.3Z" transform="translate(19.205 194.593)" fill="#ebebeb"/>
    <path id="Trazado_254412" data-name="Trazado 254412" d="M21.02,297.6,87.439,182.54,153.879,297.6Z" transform="translate(22.897 198.841)" fill="#fff"/>
    <path id="Trazado_254414" data-name="Trazado 254414" d="M31.55,259.539a164.282,164.282,0,0,0,88.858,0L75.969,182.59Z" transform="translate(34.368 198.896)" opacity="0.73" fill="url(#radial-gradient-5)"/>
    <path id="Trazado_254415" data-name="Trazado 254415" d="M60.946,233.821S37.964,239.044,37.546,244a33.868,33.868,0,0,0,.188,8.211l30.19,30.441h3.343l30.587-30.859V244s0-6.143-23.776-10.175a22.982,22.982,0,0,1-.71-5.516c3.677-3.259,13.163-34.536-8.211-33.93-20.517,0-11.888,29.814-8.211,33.429Z" transform="translate(40.719 211.723)"/>
    <path id="Trazado_254416" data-name="Trazado 254416" d="M58.048,234.7v2.674l-1,1v1.985l-3.113,1.128-.71-2.549-1.128,1.421-1.421,1.128v2.11H47.852l-.71,1.713-.919.71-.919.689H43.883l1.5,2.34,3.029-2.34.564-1.546,3.113.272v-.689l2.131-1.149.125-.836,3.7.146,2.11-2.841,3.677,1.8-.71,4.283.71,2.9v2.194l.71,2.131-.71,2.4.71,2.131v7.062l-1.128,2.277H66.8l-.836-2.988.836-5.787v-3.552l-.689-4.952h1.839v-3.385l-.71-4.116,1.985-.71,2.4-.146,2.256.293,1.692,1.985,2.549.982.71-1.839L80.4,244.6l1.964,1.692,1.713,1.275,1.671.543,1.63-1.63-3.029-1.609-1.128-2.11-2.256.836-.439-1.839H77.144l-.71-1.692,1-.564-3.406-.146.146-1.839-2.841-1.274,2.131-3.113L77,231.441l.71-2.4h1.985l1.128-1.421,3.406-.857.418-2.967,2.737.564.94-.564V222.06L85.46,221.1l-.1,2.006-2.131-.731-1.274,1.985L80.257,226.2l-4.1,1.985v-1.274l-2.841.564-.146,2.4-2.967.146H67.951l1.128-5.1-1.567-2.4,1.985-.836-3.385-5.1,1.4-1.985-3.385-6.1v9.632l.272,1.274-.418,3.7H62.436l-.146,4.784-1.985,1.3-1.839-2.7-3.406,1.985-2.4-1.985-2.7-1.985H48.27l-3.218-2.883L41.48,222.9l3.677,1.609,2.4,2.4,1.985-.146-.292,1.839,1.567.146,1.274,1.839h1.839l.564,1.692,1.985-.125Z" transform="translate(45.184 227.119)" fill="#fff"/>
    <path id="Trazado_254417" data-name="Trazado 254417" d="M52.69,216.09v2.549l1.483-1.275V216.09Z" transform="translate(57.395 235.387)"/>
    <path id="Trazado_254418" data-name="Trazado 254418" d="M49.81,219.61v2.9h2.256s.585-1.274,0-1.421l-.564-.146-.982-1.274Z" transform="translate(54.258 239.221)"/>
    <path id="Trazado_254419" data-name="Trazado 254419" d="M51.433,220.17l-.982-2.11L48.32,219.1l.71,1.066h2.4Z" transform="translate(52.635 237.533)"/>
    <path id="Trazado_254420" data-name="Trazado 254420" d="M51.64,223.257c1.567,1.9,2.089,0,2.089,0l-1.086-1.337Z" transform="translate(56.251 241.738)"/>
    <path id="Trazado_254421" data-name="Trazado 254421" d="M55.37,222.44v1.734l1.4-.627v-.857Z" transform="translate(60.314 242.304)"/>
    <path id="Trazado_254422" data-name="Trazado 254422" d="M52.941,226.12l-.251,1.274.752.982.731-1.128Z" transform="translate(57.395 246.313)"/>
    <path id="Trazado_254423" data-name="Trazado 254423" d="M52.16,218.33l1.358.481-.669,1.63L52.16,219.4Z" transform="translate(56.818 237.827)"/>
  </g>
  <g id="Grupo_145895" data-name="Grupo 145895" transform="translate(-365.086 -5507.051)">
    <path id="Trazado_254424" data-name="Trazado 254424" d="M356.189,330.169a10.447,10.447,0,0,1-9.047-15.712l80.647-139.524a10.447,10.447,0,0,1,18.072,0l80.522,139.524a10.447,10.447,0,0,1-9.047,15.649Z" transform="translate(556.591 5691.937)" fill="url(#radial-gradient-8)"/>
    <path id="Trazado_254425" data-name="Trazado 254425" d="M354.12,305.941l73.5-127.3,73.481,127.3Z" transform="translate(565.743 5701.644)" fill="#ebebeb"/>
    <path id="Trazado_254426" data-name="Trazado 254426" d="M357.5,297.6,423.94,182.54,490.359,297.6Z" transform="translate(569.425 5705.892)" fill="#fff"/>
    <path id="Trazado_254428" data-name="Trazado 254428" d="M368,259.539a164.282,164.282,0,0,0,88.858,0L412.5,182.59Z" transform="translate(580.863 5705.946)" opacity="0.73" fill="url(#radial-gradient-5)"/>
    <path id="Trazado_254429" data-name="Trazado 254429" d="M404.261,263.591a9.841,9.841,0,1,1-9.882-9.778,9.841,9.841,0,0,1,9.882,9.778Zm-16.84-19.639-2.089-47.532h18.219l-2.089,47.532Z" transform="translate(598.923 5721.011)" fill="url(#radial-gradient-10)"/>
  </g>
  <g id="Grupo_145897" data-name="Grupo 145897" transform="translate(-134.753 -5507.051)">
    <path id="Trazado_254430" data-name="Trazado 254430" d="M411.506,213.649a10.447,10.447,0,0,1-9.026-15.67L483.064,58.414a10.447,10.447,0,0,1,18.072,0l80.584,139.565a10.446,10.446,0,0,1-9.047,15.67Z" transform="translate(616.897 5565.011)" fill="url(#radial-gradient-11)"/>
    <path id="Trazado_254431" data-name="Trazado 254431" d="M409.46,189.431l73.5-127.3,73.5,127.3Z" transform="translate(626.025 5574.729)" fill="#ebebeb"/>
    <path id="Trazado_254432" data-name="Trazado 254432" d="M412.85,181.1,479.269,66.04,545.709,181.1Z" transform="translate(629.718 5578.988)" fill="#fff"/>
    <path id="Trazado_254434" data-name="Trazado 254434" d="M423.38,143.039a164.282,164.282,0,0,0,88.858,0L467.8,66.09Z" transform="translate(641.188 5579.042)" opacity="0.73" fill="url(#radial-gradient-5)"/>
    <path id="Trazado_254435" data-name="Trazado 254435" d="M491.2,115.056s-60.59,16.255-63.327,16.861c-6.268,1.358-10.447-16.547-4.513-18.01,4.722-1.191,61.133-16.171,61.133-16.171l6.268,3.406s14.165-2.7,16.192-3.406,3.7,6.393,2.089,6.769l-15.586,3.635Z" transform="translate(638.052 5613.46)" fill="url(#radial-gradient-13)"/>
  </g>
  <g id="Grupo_145893" data-name="Grupo 145893" transform="translate(-368.451 -5507.051)">
    <path id="Trazado_254436" data-name="Trazado 254436" d="M131.85,330.169A10.446,10.446,0,0,1,122.8,314.52l80.584-139.586a10.447,10.447,0,0,1,18.072,0l80.584,139.524A10.447,10.447,0,0,1,293,330.106Z" transform="translate(312.258 5691.937)" fill="url(#radial-gradient-14)"/>
    <path id="Trazado_254437" data-name="Trazado 254437" d="M129.79,305.941l73.5-127.3,73.5,127.3Z" transform="translate(321.38 5701.644)" fill="#ebebeb"/>
    <path id="Trazado_254438" data-name="Trazado 254438" d="M133.18,297.6,199.6,182.54,266.039,297.6Z" transform="translate(325.073 5705.892)" fill="#fff"/>
    <path id="Trazado_254440" data-name="Trazado 254440" d="M143.71,259.539a164.282,164.282,0,0,0,88.858,0L188.191,182.59Z" transform="translate(336.543 5705.946)" opacity="0.73" fill="url(#radial-gradient-5)"/>
    <path id="Trazado_254441" data-name="Trazado 254441" d="M160.131,218.963a3.426,3.426,0,0,0,4.367,2.089l27.265-9.611v.146a1.525,1.525,0,0,0,1.943.919,1.5,1.5,0,0,0,.919-1.943l-3.74-10.447a1.525,1.525,0,0,0-1.964-.94,1.463,1.463,0,0,0-.9,1.9v.167L160.758,210.9a3.406,3.406,0,0,0-2.089,4.346Zm1.191-6.811,27.286-9.673L191.262,210,164.1,219.653a1.922,1.922,0,0,1-2.465-1.17l-1.379-3.865a1.922,1.922,0,0,1,1.066-2.465Zm-.627,2.277a1.379,1.379,0,0,1,.815-1.755l8.065-2.841H190.05l-26.242,9.276a1.128,1.128,0,0,1-.46,0,1.379,1.379,0,0,1-1.3-.9Zm30.253,13.831c0-2.089,3.865-7.542,3.865-7.542s3.844,5.432,3.844,7.542a3.865,3.865,0,1,1-7.71,0Zm25.97,25.072a3.385,3.385,0,0,1-3.385,3.406H188.88v2.256h21.248a3.406,3.406,0,1,1,0,6.811H188.88v2.277h13.664a3.406,3.406,0,1,1,0,6.79H151.753v.522h0a1.567,1.567,0,0,1-3.113,0h0V240.421h0a1.567,1.567,0,0,1,3.113,0h0v.5h5.578l21.018-14.291a4.766,4.766,0,0,1,5.37,7.877l-9.4,6.414h16.861a3.844,3.844,0,0,0,7.271,0h11.679a3.406,3.406,0,1,1,0,6.811H188.88v2.256h24.654a3.385,3.385,0,0,1,3.385,3.405Z" transform="translate(341.914 5723.916)" fill="url(#radial-gradient-16)"/>
  </g>
  <g id="Grupo_145894" data-name="Grupo 145894" transform="translate(-366.787 -5507.051)">
    <path id="Trazado_254442" data-name="Trazado 254442" d="M244.01,330.169a10.446,10.446,0,0,1-9.047-15.649l80.584-139.586a10.447,10.447,0,0,1,18.072,0l80.522,139.524a10.447,10.447,0,0,1-9.047,15.649Z" transform="translate(434.435 5691.937)" fill="url(#radial-gradient-17)"/>
    <path id="Trazado_254443" data-name="Trazado 254443" d="M241.96,305.941l73.481-127.3,73.5,127.3Z" transform="translate(443.567 5701.644)" fill="#ebebeb"/>
    <path id="Trazado_254444" data-name="Trazado 254444" d="M245.34,297.6,311.759,182.54,378.2,297.6Z" transform="translate(447.249 5705.892)" fill="#fff"/>
    <path id="Trazado_254446" data-name="Trazado 254446" d="M255.87,259.539a164.282,164.282,0,0,0,88.858,0L300.289,182.59Z" transform="translate(458.719 5705.946)" opacity="0.73" fill="url(#radial-gradient-5)"/>
    <path id="Trazado_254447" data-name="Trazado 254447" d="M278.108,242.609c2.988,0,4.617-1.442,5.349-1.274s.961,1.191.961,2.653h0v7.083a1.651,1.651,0,0,0,3.238,0v-2.7h1.421v2.7a1.65,1.65,0,0,0,1.63,1.316,1.63,1.63,0,0,0,1.609-1.316v-2.7h1.442v2.7a1.651,1.651,0,0,0,1.588,1.3h0a1.692,1.692,0,0,0,1.149-.46,1.253,1.253,0,0,0,.481-.857v-2.7H298.4v2.7a1.254,1.254,0,0,0,.481.857,1.692,1.692,0,0,0,1.149.46,1.63,1.63,0,0,0,1.609-1.316v-2.7h1.442v2.7a1.212,1.212,0,0,0,.46.857,1.713,1.713,0,0,0,1.149.46,1.692,1.692,0,0,0,1.149-.46,1.254,1.254,0,0,0,.481-.857v-7.083a3.908,3.908,0,0,1,.481-2.382.857.857,0,0,1,.481-.272,1.483,1.483,0,0,1,.731.125,11.364,11.364,0,0,0,4.617,1.149c2.9,0,6.456-3.113,8.357-8.106.188-.46.334-.919.481-1.4a20.571,20.571,0,0,0,.71-3.071,25.265,25.265,0,0,0,.251-3.385c0-1.8,0-3.594,0-5.328a31.108,31.108,0,0,0-1.567-11.679,12.8,12.8,0,0,0-.982-1.922c-3.615-5.787-11.721-9.047-24.591-9.047h0c-12.87,0-20.893,3.259-24.591,9.047-3.029,4.889-2.528,11.679-2.528,18.929C268.267,236.007,273.888,242.609,278.108,242.609Zm28.206-21.374c6.268-1.149,9.778-1.818,10.3,2.967a17.282,17.282,0,0,1,0,4.534,15.651,15.651,0,0,1-1.337,4.471,6.978,6.978,0,0,1-4.6,4.179,4.889,4.889,0,0,1-1.839-.188,15.871,15.871,0,0,1-1.755-.522,27.467,27.467,0,0,1-3.029-1.254c-2.716-1.316-5.286-3.092-5.62-4.722C296.452,221.611,299.294,222.489,306.314,221.235Zm-9.882,14.04c1.275,0,5.37,4.973,5.37,6.519s-5.37,2.486-5.37,0Zm-2.089,6.519c0,2.486-5.37,1.525-5.37,0s4.179-6.519,5.37-6.519ZM274.222,224.2c.543-4.784,4.032-4.179,10.321-2.967,6.957,1.254,9.861.376,7.939,9.381-.689,3.28-10.217,7.083-12.243,6.686C276.04,236.487,273.491,230.386,274.222,224.2Zm25.949,38.13-1.609.167H295.47c-8.65,0-14.1-2.507-13.936-5.7l.4-13.58,1.107-.669,1,15.189.5.376v-2.7a1.651,1.651,0,0,1,3.238,0v2.7H289.2v-2.7a1.65,1.65,0,0,1,1.63-1.316,1.63,1.63,0,0,1,1.609,1.316v2.7h1.442v-2.7a1.651,1.651,0,0,1,1.588-1.316h0a1.818,1.818,0,0,1,1.5.877.877.877,0,0,1,.125.439v2.7h1.421v-2.7a.878.878,0,0,1,.125-.439,1.818,1.818,0,0,1,1.5-.878,1.713,1.713,0,0,1,1.3.648,1.149,1.149,0,0,1,.313.669v2.7H303.2v-2.7a.879.879,0,0,1,.125-.439,1.776,1.776,0,0,1,1.483-.877,1.818,1.818,0,0,1,1.5.877.879.879,0,0,1,.125.439v2.7l.5-.376,1-15.189,1.086.669.418,13.58h0a2.988,2.988,0,0,1-.815,2.089.44.44,0,0,1,0,.125,10.218,10.218,0,0,1-4.805,2.486c-.418.125-.878.23-1.358.334Zm25.072,7.96a2.737,2.737,0,0,1-1.086.961c-1.024.5-2.089.188-2.465.481a2.6,2.6,0,0,0-.188.209,1.1,1.1,0,0,0,.23.836c.23.313.313.439.481.71a4.189,4.189,0,0,1,.251.439,3.008,3.008,0,0,1,.23,1.128h0a3.405,3.405,0,0,1-2.841,3.009,3.28,3.28,0,0,1-2.758-.627l-.585-.522a12.933,12.933,0,0,1-2.82-4.973l-.188-.376a3.006,3.006,0,0,0-.46-.648,2.486,2.486,0,0,0-.648-.481l-11.47-5.537h0a17.467,17.467,0,0,0,7.125-2.382l6.623,3.217a2.675,2.675,0,0,0,1.567.167,13.97,13.97,0,0,0,1.5-.418,10.448,10.448,0,0,1,3.844-.627,7.9,7.9,0,0,1,1.483.209,3.113,3.113,0,0,1,1.9,1.3,3.7,3.7,0,0,1,.251,3.928Zm-42.434-7.772a17.258,17.258,0,0,0,7.1,2.382L278.4,270.417c-1.985.961-1.3,4.283-4.68,7a3.531,3.531,0,0,1-5.6-2.382c0-1.755,1.525-2.4,1.17-3.113s-1.776,0-3.155-1.024a3.51,3.51,0,0,1,1.609-5.85c4.179-.961,6.393,1.63,8.357.669ZM262.961,251.3a3.552,3.552,0,0,1-1.609-5.871c1.379-1.086,2.841-.293,3.176-1.024s-1.17-1.358-1.17-3.113a3.531,3.531,0,0,1,5.578-2.382c3.385,2.716,2.716,6.038,4.7,7l6.059,2.925-.167,5.725-8.169-3.928c-2.006-.982-4.179,1.63-8.42.669Zm67.526-3.573a3.782,3.782,0,0,1-1.671,3.2,3.7,3.7,0,0,1-.94.376,10.592,10.592,0,0,1-5.975-.627,3.155,3.155,0,0,0-2.424,0l-8.127,3.907-.167-5.725,6.017-2.9a2.465,2.465,0,0,0,1.086-1.128,15.607,15.607,0,0,1,3.009-5.349,4.953,4.953,0,0,1,.606-.522,3.531,3.531,0,0,1,5.578,2.382c0,1.755-1.525,2.4-1.17,3.113s1.8,0,3.176,1.024a2.259,2.259,0,0,1,.543.627,3.05,3.05,0,0,1,.439,1.63Z" transform="translate(463.621 5723.44)" fill="url(#radial-gradient-19)"/>
  </g>
  <g id="Grupo_145898" data-name="Grupo 145898" transform="translate(-134.955 -5507.051)">
    <path id="Trazado_254448" data-name="Trazado 254448" d="M298.645,213.649a10.446,10.446,0,0,1-9.026-15.67L370.2,58.414a10.447,10.447,0,0,1,18.072,0l80.584,139.565a10.447,10.447,0,0,1-9.047,15.67Z" transform="translate(493.958 5565.011)" fill="url(#radial-gradient-20)"/>
    <path id="Trazado_254449" data-name="Trazado 254449" d="M296.6,189.431l73.5-127.3,73.5,127.3Z" transform="translate(503.086 5574.729)" fill="#ebebeb"/>
    <path id="Trazado_254450" data-name="Trazado 254450" d="M299.99,181.1,366.409,66.04,432.849,181.1Z" transform="translate(506.779 5578.988)" fill="#fff"/>
    <path id="Trazado_254452" data-name="Trazado 254452" d="M310.52,143.039a164.281,164.281,0,0,0,88.858,0L354.939,66.09Z" transform="translate(518.25 5579.042)" opacity="0.73" fill="url(#radial-gradient-5)"/>
    <path id="Trazado_254453" data-name="Trazado 254453" d="M325.233,103.092a24.131,24.131,0,0,0,.251,11.094c1.4-9.987,6.268-7.4,3.907-19.974a22.335,22.335,0,0,1,10.029,12.076c0-16.986,5.14-22.481,16.714-26.868-5.035,11.554,1.149,13.873,3.113,26.263a31.924,31.924,0,0,0,1.818-15.44,28.707,28.707,0,0,1,9.256,26.7,15.587,15.587,0,0,0,1.859-8.859c10.3,10.3,6.79,40.929-14.353,45.609-8.357,2.256-21.854.606-21.854.606a31.151,31.151,0,0,1-10.739-51.209Zm39.7,18.8a9.882,9.882,0,0,1-1.316,5.871,18.261,18.261,0,0,0-6.56-17.655,19.534,19.534,0,0,1-1.3,10.2c-1.4-8.19-5.829-9.736-2.236-17.362-8.357,2.9-11.993,6.519-11.993,17.759a15.273,15.273,0,0,0-7.166-7.981c1.651,8.357-1.8,6.6-2.8,13.2a15,15,0,0,1-.188-7.333c-11.3,10.655-9.966,23.149,2.841,33.868-1.316-2.988,26.827-3.029,25.281-.585,11.7-6.895,12.912-23.087,5.474-29.9Zm9.569,36.5h-55.22v3.573H374.5Zm-7.229-19.263a19.305,19.305,0,1,1-19.284-19.284,19.305,19.305,0,0,1,19.284,19.284Zm-4.805,0a14.625,14.625,0,1,1-14.625-14.625,14.625,14.625,0,0,1,14.625,14.625Z" transform="translate(524.221 5593.563)" fill="url(#radial-gradient-22)"/>
  </g>
  <g id="Grupo_145899" data-name="Grupo 145899" transform="translate(-135.157 -5507.051)">
    <path id="Trazado_254454" data-name="Trazado 254454" d="M185.785,213.649a10.447,10.447,0,0,1-9.026-15.67L257.344,58.414a10.447,10.447,0,0,1,18.072,0L356,197.979a10.446,10.446,0,0,1-9.047,15.67Z" transform="translate(371.02 5565.011)" fill="url(#radial-gradient-23)"/>
    <path id="Trazado_254455" data-name="Trazado 254455" d="M183.74,189.431l73.5-127.3,73.5,127.3Z" transform="translate(380.148 5574.729)" fill="#ebebeb"/>
    <path id="Trazado_254456" data-name="Trazado 254456" d="M187.13,181.1,253.549,66.04,319.989,181.1Z" transform="translate(383.841 5578.988)" fill="#fff"/>
    <path id="Trazado_254458" data-name="Trazado 254458" d="M197.66,143.039a164.282,164.282,0,0,0,88.858,0L242.079,66.09Z" transform="translate(395.311 5579.042)" opacity="0.73" fill="url(#radial-gradient-5)"/>
    <path id="Trazado_254459" data-name="Trazado 254459" d="M213.413,102.662a24.027,24.027,0,0,0,.251,11.073c1.4-9.966,6.268-7.375,3.907-19.974A22.523,22.523,0,0,1,227.6,105.837c0-16.986,5.14-22.46,16.714-26.847-5.035,11.554,1.149,13.852,3.113,26.242a31.842,31.842,0,0,0,1.818-15.419,28.665,28.665,0,0,1,9.256,26.806,15.586,15.586,0,0,0,1.859-8.859c10.3,10.3,6.79,40.908-14.353,45.609a19.577,19.577,0,0,0,1.922-10.217A11.867,11.867,0,0,1,241.806,147c2.444-3.74,4.179-7.187,1.985-12.724a13.225,13.225,0,0,1-4.805,7.918c1.086-9.966-1.671-9.088-2.486-15.44-3.8,3.677-.982,9.13-5.683,15.085a21.477,21.477,0,0,0-2.444-7.313c-1.379,1.379-2.821,6.414-1.776,12.306a7.9,7.9,0,0,1-4.053-5.725c-1.86,5.62.376,9.882,1.609,12.87a31.151,31.151,0,0,1-10.739-51.313Zm39.7,18.8a9.924,9.924,0,0,1-1.316,5.871,18.323,18.323,0,0,0-6.56-17.675,19.827,19.827,0,0,1-1.3,10.217c-1.4-8.211-5.829-9.736-2.236-17.362-8.357,2.9-11.993,6.519-11.993,17.759a15.273,15.273,0,0,0-7.02-7.835c1.651,8.357-1.8,6.6-2.8,13.2a15,15,0,0,1-.188-7.333c-11.3,10.635-9.966,23.149,2.841,33.868a15.44,15.44,0,0,1,.125-13.873,12.013,12.013,0,0,0,3.155,6.853c-1.128-5.892.961-10.948,2.444-12.327a18.992,18.992,0,0,1,2.758,7.1c3.447-5.808,1.107-11.261,6.143-15.189.606,6.519,3.761,7.145,2.716,15.67a16.213,16.213,0,0,0,3.928-8.733c2.34,5.558,2.779,9.548.146,13.288a9.82,9.82,0,0,0,4.868-4.3,14.625,14.625,0,0,1-1,10.906c11.554-7.02,12.682-23.212,5.328-30.023Zm9.527,36.416H207.458v3.573h55.22Z" transform="translate(402.332 5593.095)" fill="url(#radial-gradient-25)"/>
  </g>
  <g id="Grupo_145900" data-name="Grupo 145900" transform="translate(-134.358 -5507.051)">
    <path id="Trazado_254460" data-name="Trazado 254460" d="M72.925,213.649a10.446,10.446,0,0,1-9.026-15.67L144.484,58.414a10.447,10.447,0,0,1,18.072,0l80.668,139.607a10.446,10.446,0,0,1-9.047,15.67Z" transform="translate(248.082 5565.011)" fill="url(#radial-gradient-26)"/>
    <path id="Trazado_254461" data-name="Trazado 254461" d="M70.88,189.431l73.5-127.3,73.5,127.3Z" transform="translate(257.209 5574.729)" fill="#ebebeb"/>
    <path id="Trazado_254462" data-name="Trazado 254462" d="M74.27,181.1,140.689,66.04,207.129,181.1Z" transform="translate(260.902 5578.988)" fill="#fff"/>
    <path id="Trazado_254464" data-name="Trazado 254464" d="M84.8,143.039a164.281,164.281,0,0,0,88.858,0L129.219,66.09Z" transform="translate(272.373 5579.042)" opacity="0.73" fill="url(#radial-gradient-5)"/>
    <path id="Trazado_254465" data-name="Trazado 254465" d="M110.36,135.1l-1.024-30.963,8.88-19.222Zm28.059-31.193,1.692-14-26.158,48.054Zm21.729,16.882-9.673-1.692-32.008,23.943Zm-11.261-10.446-7.877,2.988L124.3,130.043ZM129.477,71.71l-11.261,45.651,11.261-38.777Zm-26.743,38.673-1.922,5.808.689,20.893Zm-9.465,21.269-2.089-3.8,2.8,17.905Zm27.537,15L169.32,135.1l-13.1-2.528Zm53.653,0-12.912-1.212s-25.74,2.988-26.054,3.322Zm-5.14,7.459H117.944l65.771,8.044Zm-38.506,5.474,46.508,11.345-13.831-6.08Zm1.8,10.133L145,170.931l-23.3-9.694ZM111.3,163.451a17.447,17.447,0,0,0-3.426,2.089c0,1.442,3.113,3.218,3.865,3.218a11.22,11.22,0,0,0,3.865-4.283c0-.773-3.3-1.442-4.346-1.17Zm8.524-45.171c-.4-.564-3.489.773-4.179,1.567a17.423,17.423,0,0,0-1.588,3.719c.815,1.191,4.388.878,5.014.439a11.178,11.178,0,0,0,.752-5.725ZM104.8,155.721c.481,1.3,4.032.334,4.346,0a5.474,5.474,0,0,0-.71-3.928c-.731-.731-3.928,3.113-3.635,3.928Zm37.022,9.8c0-.669-3.113-.209-3.322.293s1.713,1.818,2.089,1.818a3.531,3.531,0,0,0,1.233-2.11Zm5.62-23.149c0-.669-3.113-.209-3.322.293s1.734,1.839,2.089,1.818a3.426,3.426,0,0,0,1.233-2.11ZM135.62,125.008c-.815-.46-3.74,2.737-3.364,3.322s4.179-.209,4.408-.5A3.4,3.4,0,0,0,135.62,125.008Zm-19.744,30.525c-1.9,0-2.4,1.776-.481,2.779s2.236-2.779.481-2.779ZM97.072,139.9c1.713.857,1.985-2.382.418-2.382s-2.173,1.525-.481,2.382Zm8.357-21.332c1.922,1,2.236-2.779.481-2.779s-2.424,1.776-.5,2.779Zm8.357,25.886c-.836-.836-2.841.627-3.468,0s-.125-3.426-1.421-3.426c-1.964,0-2.089,5.7-1.17,6.707s6.79-2.444,5.954-3.28Zm-8.8-7.208c0,.961,3.155.919,4.074,0s-.794-3.029-2.319-3.029C105.575,134.222,104.99,136.29,104.99,137.251Zm21.311,9.778c-.71.648,1.442,2.967,2.737,3.029s1.713-2.633.689-3.761-2.7.1-3.406.731ZM101.48,157.2c-.689-1.943,1.066-4.346,3.928-5.453a11.846,11.846,0,0,0-4.367-3.552,5.662,5.662,0,0,1-4.408,3.2,1.233,1.233,0,0,1-.146,1,1.379,1.379,0,0,1-1.9.313A1.421,1.421,0,0,1,94,151.124a5.641,5.641,0,0,1-3.3-2.925,11.909,11.909,0,1,0,11.6,20.747,3.2,3.2,0,0,1-1.149-3.364,1.734,1.734,0,0,1,0-1.943,1.922,1.922,0,0,1,1.483-.878,1.463,1.463,0,0,1,.167-.418,1.358,1.358,0,0,1,1.9-.313,1.253,1.253,0,0,1,.481.564,1.191,1.191,0,0,1,.272.292,3.633,3.633,0,0,1,.794.293,4.891,4.891,0,0,1,.46.481,11.534,11.534,0,0,0,1-4.722c-2.716.919-5.516.167-6.205-1.734Z" transform="translate(271.404 5585.165)" fill="url(#radial-gradient-28)"/>
  </g>
</svg>
